M48
INCH,LZ
FMAT,2
ICI,OFF
T01C.012
T02C.022
T03C.036
T04C.037
T05C.05906
T06C.089
T07C.125
%
T01
G05
X0422Y060955
X043066Y060956
X044843Y059466
X04838Y05671
X05497Y06264
X04255Y07069
X042456Y0612
X043066Y06058
X04457Y05928
X047983Y05671
X054741Y063014
X05495Y06327
X04969Y063779
X05524Y06498
X050912Y069948
X037835Y06309
X04991Y06961
X044916Y061251
X04578Y06418
X04687Y064535
X048066Y0679
X04426Y066055
X0509Y069165
X0439Y06607
X05041Y06938
X05006Y05818
X046343Y057253
X050049Y05851
X046511Y05756
X040581Y06524
X046766Y062294
X048634Y061711
X04697Y062715
X05008Y06143
X04066Y06625
X04406Y06238
X04965Y06223
X04303Y06407
X04931Y06251
X044219Y0627
X042765Y06381
X04911Y06284
X044237Y06303
X043049Y063584
X04337Y06346
X04552Y06316
X0497Y06413
X048085Y061714
X046619Y061878
X04581Y06233
X04553Y06078
X04614Y062335
X045632Y06176
X046245Y063125
X04676Y059525
X046416Y05968
X046091Y059883
X03825Y06306
X04913Y065396
X048491Y065035
X04553Y06517
X04751Y06483
X04552Y06479
X04774Y06177
X047415Y061888
X039766Y06489
X03819Y06493
X046611Y065715
X046549Y064699
X045494Y064415
X04145Y0638
X04688Y064
X04109Y06619
X048027Y059459
X047902Y059772
X04238Y05964
X04709Y058935
X046036Y065887
X046981Y05759
X05037Y05897
X047308Y057525
X049149Y058816
X05037Y0586
X046813Y05724
X045221Y061406
X04616Y06373
X047229Y064581
X04818Y06759
X0358Y05802
X03093Y057525
X0358Y057668
X03572Y06411
X04578Y06032
X04351Y0638
X052141Y069319
X04835Y0643
X03814Y060994
X04983Y06625
X04925Y06779
X03876Y06376
X03466Y06461
X03286Y06479
X033725Y063865
X03004Y06337
X03599Y0678
X02793Y06219
X029115Y060495
X02794Y06036
X032093Y060937
X034785Y068725
X04041Y0696
X051Y05997
X03001Y07369
X03274Y07359
X04433Y06818
X04366Y06725
X034075Y073165
X048965Y070445
X0472Y07111
X049Y07267
X04504Y06968
X04254Y07319
X03938Y05855
X03743Y05854
X03948Y06758
X041966Y06523
X03729Y06287
X04038Y060992
X03913Y061077
X041405Y063445
X04393Y0575
X04432Y05862
X04512Y06172
X04553Y06356
X04393Y06329
X048545Y06759
X04806Y06714
X04645Y06751
X05088Y064048
X051455Y062935
X04836Y062312
X048699Y05973
X047281Y059316
X047593Y057732
X048942Y057274
X05131Y05905
X03913Y07144
X03581Y057058
X04242Y05712
X03586Y05877
X037565Y05929
X050955Y071765
X05101Y06185
X05127Y06565
X04785Y06432
X049826Y066664
X039787Y056993
X03926Y06376
X03536Y06495
X046388Y06596
X03977Y065227
X043286Y06633
X037316Y062541
X04073Y060994
X039455Y061017
X0414Y062972
X04549Y063988
X0427Y06219
X047256Y067308
X05106Y06484
X04712Y06174
X03713Y05704
X03726Y064842
X048932Y067587
X03602Y06153
X037263Y064005
X03602Y06187
X03621Y06374
X03831Y05886
X039657Y057957
X05195Y0661
X03431Y058915
X033695Y063325
X02744Y06036
X032487Y060937
X035814Y06745
X03134Y07217
X05195Y06534
X04468Y06644
X049237Y068602
X05162Y065681
X04461Y06611
X04884Y06842
X05094Y06563
X040956Y058346
X03792Y0569
X04023Y05813
X03751Y05689
X040536Y058384
X048882Y06945
X036095Y068725
X044394Y067356
X04886Y07319
X05239Y066737
X048564Y068159
X046857Y068185
X041367Y060981
X04154Y060504
X04663Y06788
X052415Y06638
X04881Y06791
X035811Y056728
X04856Y05935
X045894Y057849
X045551Y058369
X04601Y057496
X0454Y05743
X04523Y06606
X040058Y06418
X04202Y059725
X0438Y05786
X044408Y063663
X036035Y059593
X03604Y05998
X044265Y063366
X03622Y06117
X037259Y063345
X03652Y06091
X037253Y063675
X030745Y056855
X028975Y056855
X02897Y057185
X044216Y064824
X041188Y06466
X032895Y056855
X04969Y06521
X0472Y066925
X046619Y06722
X04531Y06652
X04262Y06555
X03878Y063242
X044514Y064677
X04139Y06436
X03877Y06139
X03213Y06384
X04377Y064885
X041477Y064933
X03843Y06138
X044535Y063176
X03575Y06024
X038043Y06131
X02844Y06041
X05237Y05922
X03882Y06176
X04162Y05864
X04401Y0582
X048228Y05972
X05235Y05878
X04239Y0576
X03114Y0572
X031145Y056855
X0329Y05719
X03298Y05771
T02
X05313Y0715
X05313Y071
X05313Y0705
X05313Y07
X05313Y0695
X05313Y069
X05313Y0685
X05313Y068
X05313Y0675
X05313Y067
X05313Y0665
X05313Y066
X05313Y0655
X05313Y065
X05313Y0645
X05313Y064
X05313Y0635
X05313Y063
X05313Y0625
X05313Y062
X05313Y0615
X05313Y061
X05313Y0605
X05313Y06
X05313Y0595
X05313Y059
X05313Y0585
X05313Y058
X05313Y0575
X05313Y057
X05413Y057
X05413Y0575
X05413Y058
X05413Y0585
X05413Y059
X05413Y0595
X05413Y06
X05413Y0605
X05413Y061
X05413Y0615
X05413Y062
X05413Y0625
X05413Y063
X05413Y0635
X05413Y064
X05413Y0645
X05413Y065
X05413Y0655
X05413Y066
X05413Y0665
X05413Y067
X05413Y0675
X05413Y068
X05413Y0685
X05413Y069
X05413Y0695
X05413Y07
X05413Y0705
X05413Y071
X05413Y0715
T03
X02829Y057
X02829Y058
X03761Y07329
X040438Y070462
X03942Y07271
X04042Y07271
X0549Y07251
X0549Y07351
T04
X05573Y071
X05573Y06425
X05573Y0575
T05
X027034Y067558
X037546Y070708
T06
X037743Y069133
X026837Y069133
T07
X02671Y0575
X02671Y07301
X0565Y07301
X0565Y05891
M30
