G04 ================== begin FILE IDENTIFICATION RECORD ==================*
G04 Layout Name:  C:/DOCUMENTS AND SETTINGS/GREG HORN/MY DOCUMENTS/SLUGS/SLUGS_V2/allegro/slugs_v2.brd*
G04 Film Name:    BOTTOM_SOLDERMASK*
G04 File Format:  Gerber RS274X*
G04 File Origin:  16.0-p002*
G04 Origin Date:  Sun May 24 13:49:06 2009*
G04 *
G04 Layer:  BOARD GEOMETRY/SOLDERMASK_BOTTOM*
G04 Layer:  VIA CLASS/SOLDERMASK_BOTTOM*
G04 Layer:  PIN/SOLDERMASK_BOTTOM*
G04 *
G04 Offset:    (0.00 0.00)*
G04 Mirror:    No*
G04 Mode:      Positive*
G04 Rotation:  0*
G04 FullContactRelief:  No*
G04 UndefLineWidth:     0.00*
G04 ================== end FILE IDENTIFICATION RECORD ====================*
%FSLAX54Y54*MOIN*%
%IR0*IPPOS*OFA0.00000B0.00000*MIA0B0*SFA1.00000B1.00000*%
%ADD19R,.066X.106*%
%ADD15C,.034*%
%ADD31C,.08*%
%ADD14C,.075*%
%ADD26R,.05118X.14173*%
%AMMACRO24*
21,1,.075,.075,0.0,0.0,45.*%
%ADD24MACRO24*%
%ADD12C,.0748*%
%ADD21R,.02X.046*%
%ADD20R,.025X.022*%
%ADD11C,.114*%
%ADD30O,.055X.045*%
%ADD10C,.145*%
%ADD17R,.048X.016*%
%ADD23R,.06102X.05315*%
%ADD18R,.05315X.06102*%
%ADD13R,.04134X.04528*%
%ADD16R,.04528X.04134*%
%ADD27R,.01181X.06693*%
%ADD28R,.01772X.02953*%
%ADD29R,.02953X.01772*%
%ADD22R,.02362X.08268*%
%ADD25R,.06496X.07283*%
%LPD*%
G75*
G54D10*
X26710Y57500D03*
X26710Y73010D03*
X56500Y58910D03*
X56500Y73010D03*
G54D11*
X26837Y69133D03*
X37743Y69133D03*
G54D20*
X35360Y63870D03*
X35360Y64620D03*
X34660Y64250D03*
G54D30*
X54130Y57000D03*
X53130Y57000D03*
X54130Y60000D03*
X54130Y59500D03*
X54130Y59000D03*
X54130Y58500D03*
X54130Y58000D03*
X54130Y57500D03*
X53130Y57500D03*
X53130Y58000D03*
X53130Y58500D03*
X53130Y59000D03*
X53130Y59500D03*
X53130Y60000D03*
X54130Y63000D03*
X54130Y62500D03*
X54130Y62000D03*
X54130Y61500D03*
X54130Y61000D03*
X54130Y60500D03*
X53130Y60500D03*
X53130Y61000D03*
X53130Y61500D03*
X53130Y62000D03*
X53130Y62500D03*
X53130Y63000D03*
X54130Y66000D03*
X54130Y65500D03*
X54130Y65000D03*
X54130Y64500D03*
X54130Y64000D03*
X54130Y63500D03*
X53130Y63500D03*
X53130Y64000D03*
X53130Y64500D03*
X53130Y65000D03*
X53130Y65500D03*
X53130Y66000D03*
X54130Y69000D03*
X54130Y68500D03*
X54130Y68000D03*
X54130Y67500D03*
X54130Y67000D03*
X54130Y66500D03*
X53130Y66500D03*
X53130Y67000D03*
X53130Y67500D03*
X53130Y68000D03*
X53130Y68500D03*
X53130Y69000D03*
X54130Y71500D03*
X54130Y71000D03*
X54130Y70500D03*
X54130Y70000D03*
X54130Y69500D03*
X53130Y69500D03*
X53130Y70000D03*
X53130Y70500D03*
X53130Y71000D03*
X53130Y71500D03*
G54D21*
X35046Y67035D03*
X35302Y67035D03*
X35558Y67035D03*
X35814Y67035D03*
X35814Y68725D03*
X35558Y68725D03*
X35302Y68725D03*
X35046Y68725D03*
G54D12*
X27034Y67558D03*
X37546Y70708D03*
G54D22*
X38260Y62445D03*
X38760Y62445D03*
X38760Y64335D03*
X38260Y64335D03*
X39260Y62445D03*
X39760Y62445D03*
X39760Y64335D03*
X39260Y64335D03*
X47850Y65635D03*
X47350Y65635D03*
X47350Y63745D03*
X47850Y63745D03*
X48850Y65635D03*
X48350Y65635D03*
X48350Y63745D03*
X48850Y63745D03*
G54D13*
X29370Y56855D03*
X29870Y56855D03*
X29370Y57525D03*
X29870Y57525D03*
X31530Y56855D03*
X32030Y56855D03*
X32530Y56855D03*
X30370Y56855D03*
X31530Y57525D03*
X32030Y57525D03*
X32530Y57525D03*
X30370Y57525D03*
X33290Y63325D03*
X33290Y63995D03*
X34600Y72495D03*
X34600Y73165D03*
X36390Y67015D03*
X36390Y67685D03*
X40960Y62885D03*
X40960Y63555D03*
X49430Y65975D03*
X49430Y66645D03*
X49640Y67865D03*
X49640Y67195D03*
X49460Y70445D03*
X49460Y69775D03*
X52470Y65215D03*
X52470Y65885D03*
X52540Y63735D03*
X52540Y64405D03*
X52610Y68285D03*
X52610Y67615D03*
X52610Y68835D03*
X52120Y68955D03*
X52120Y68285D03*
X52610Y69505D03*
X54780Y67335D03*
X54780Y68005D03*
G54D31*
X55730Y57500D03*
X55730Y64250D03*
X55730Y71000D03*
G54D23*
X37030Y67026D03*
X37030Y67774D03*
X49550Y73254D03*
X49550Y72506D03*
G54D14*
X28290Y57000D03*
X28290Y58000D03*
X39420Y72710D03*
X40438Y70462D03*
X40420Y72710D03*
X54900Y73510D03*
X54900Y72510D03*
G54D24*
X37610Y73290D03*
G54D15*
X28975Y56855D03*
X28970Y57185D03*
X28440Y60410D03*
X27440Y60360D03*
X27940Y60360D03*
X29115Y60495D03*
X27930Y62190D03*
X30040Y63370D03*
X30010Y73690D03*
X31145Y56855D03*
X32895Y56855D03*
X30745Y56855D03*
X32980Y57710D03*
X32900Y57190D03*
X31140Y57200D03*
X30930Y57525D03*
X32487Y60937D03*
X32093Y60937D03*
X32130Y63840D03*
X32860Y64790D03*
X31340Y72170D03*
X32740Y73590D03*
X35811Y56728D03*
X35810Y57058D03*
X36040Y59980D03*
X36035Y59593D03*
X34310Y58915D03*
X35860Y58770D03*
X35800Y57668D03*
X35800Y58020D03*
X35750Y60240D03*
X36020Y61870D03*
X36020Y61530D03*
X33695Y63325D03*
X35360Y64950D03*
X33725Y63865D03*
X34660Y64610D03*
X35720Y64110D03*
X36095Y68725D03*
X35814Y67450D03*
X34785Y68725D03*
X35990Y67800D03*
X34075Y73165D03*
X37510Y56890D03*
X37920Y56900D03*
X37130Y57040D03*
X38310Y58860D03*
X37565Y59290D03*
X37430Y58540D03*
X38820Y61760D03*
X38043Y61310D03*
X38430Y61380D03*
X38770Y61390D03*
X36520Y60910D03*
X36220Y61170D03*
X37316Y62541D03*
X39130Y61077D03*
X37290Y62870D03*
X38140Y60994D03*
X38250Y63060D03*
X37835Y63090D03*
X38780Y63242D03*
X37253Y63675D03*
X37259Y63345D03*
X36210Y63740D03*
X37263Y64005D03*
X37260Y64842D03*
X38760Y63760D03*
X38190Y64930D03*
X39130Y71440D03*
X39787Y56993D03*
X41620Y58640D03*
X42020Y59725D03*
X40536Y58384D03*
X40230Y58130D03*
X40956Y58346D03*
X39657Y57957D03*
X39380Y58550D03*
X41540Y60504D03*
X41367Y60981D03*
X41400Y62972D03*
X39455Y61017D03*
X40730Y60994D03*
X40380Y60992D03*
X41477Y64933D03*
X41390Y64360D03*
X41188Y64660D03*
X40058Y64180D03*
X39770Y65227D03*
X39260Y63760D03*
X41405Y63445D03*
X41966Y65230D03*
X41450Y63800D03*
X39766Y64890D03*
X40581Y65240D03*
X39480Y67580D03*
X41090Y66190D03*
X40660Y66250D03*
X40410Y69600D03*
X42420Y57120D03*
X42390Y57600D03*
X44010Y58200D03*
X43800Y57860D03*
X44320Y58620D03*
X43930Y57500D03*
X42380Y59640D03*
X44570Y59280D03*
X44843Y59466D03*
X42700Y62190D03*
X45120Y61720D03*
X44237Y63030D03*
X44219Y62700D03*
X44060Y62380D03*
X44916Y61251D03*
X43066Y60580D03*
X42456Y61200D03*
X43066Y60956D03*
X42200Y60955D03*
X44534Y63176D03*
X43770Y64885D03*
X44514Y64677D03*
X42620Y65550D03*
X44216Y64824D03*
X44265Y63366D03*
X44408Y63663D03*
X44610Y66110D03*
X43930Y63290D03*
X43510Y63800D03*
X43370Y63460D03*
X43049Y63584D03*
X42765Y63810D03*
X43030Y64070D03*
X43900Y66070D03*
X44260Y66055D03*
X44394Y67356D03*
X44680Y66440D03*
X43286Y66330D03*
X43660Y67250D03*
X44330Y68180D03*
X45040Y69680D03*
X42550Y70690D03*
X42540Y73190D03*
X47983Y56710D03*
X45400Y57430D03*
X46010Y57496D03*
X45551Y58369D03*
X45894Y57849D03*
X47593Y57732D03*
X47281Y59316D03*
X46813Y57240D03*
X47308Y57525D03*
X46980Y57590D03*
X47090Y58935D03*
X47902Y59772D03*
X48027Y59459D03*
X46091Y59883D03*
X46416Y59680D03*
X46760Y59525D03*
X46511Y57560D03*
X46343Y57253D03*
X47120Y61740D03*
X45780Y60320D03*
X45221Y61406D03*
X47415Y61888D03*
X47740Y61770D03*
X46245Y63125D03*
X45632Y61760D03*
X46140Y62335D03*
X45530Y60780D03*
X45810Y62330D03*
X46619Y61878D03*
X48085Y61714D03*
X45520Y63160D03*
X46970Y62715D03*
X46766Y62294D03*
X45230Y66060D03*
X45490Y63988D03*
X46388Y65960D03*
X47850Y64320D03*
X45530Y63560D03*
X47229Y64581D03*
X46160Y63730D03*
X46036Y65887D03*
X46880Y64000D03*
X45494Y64415D03*
X46549Y64699D03*
X46611Y65715D03*
X45520Y64790D03*
X47510Y64830D03*
X45530Y65170D03*
X46870Y64535D03*
X45780Y64180D03*
X45310Y66520D03*
X46619Y67220D03*
X47200Y66925D03*
X46630Y67880D03*
X46857Y68185D03*
X47256Y67308D03*
X46450Y67510D03*
X48060Y67140D03*
X48066Y67900D03*
X47200Y71110D03*
X48380Y56710D03*
X48228Y59720D03*
X48560Y59350D03*
X48942Y57274D03*
X48699Y59730D03*
X51000Y59970D03*
X50370Y58600D03*
X49149Y58816D03*
X50370Y58970D03*
X50049Y58510D03*
X50060Y58180D03*
X51010Y61850D03*
X48360Y62312D03*
X49110Y62840D03*
X49310Y62510D03*
X49650Y62230D03*
X50080Y61430D03*
X48634Y61711D03*
X49690Y65210D03*
X50940Y65630D03*
X51060Y64840D03*
X50880Y64048D03*
X48350Y64300D03*
X48491Y65035D03*
X49130Y65396D03*
X49700Y64130D03*
X49690Y63779D03*
X48810Y67910D03*
X48564Y68159D03*
X48840Y68420D03*
X49237Y68602D03*
X48932Y67587D03*
X49826Y66664D03*
X48545Y67590D03*
X49250Y67790D03*
X49830Y66250D03*
X48180Y67590D03*
X50900Y69165D03*
X48882Y69450D03*
X50955Y71765D03*
X48965Y70445D03*
X50410Y69380D03*
X49910Y69610D03*
X50912Y69948D03*
X48860Y73190D03*
X49000Y72670D03*
X52350Y58780D03*
X52370Y59220D03*
X51310Y59050D03*
X51455Y62935D03*
X51620Y65681D03*
X51950Y65340D03*
X51950Y66100D03*
X51270Y65650D03*
X52415Y66380D03*
X52390Y66737D03*
X52141Y69319D03*
X54741Y63014D03*
X54970Y62640D03*
X55240Y64980D03*
X54950Y63270D03*
G54D25*
X43779Y69110D03*
X44881Y69110D03*
X51109Y59800D03*
X52211Y59800D03*
G54D16*
X28445Y61550D03*
X29115Y61550D03*
X29105Y62190D03*
X28435Y62190D03*
X28445Y60960D03*
X29115Y60960D03*
X29105Y62790D03*
X28435Y62790D03*
X30465Y64790D03*
X31135Y64790D03*
X31745Y64790D03*
X32415Y64790D03*
X31745Y65300D03*
X32415Y65300D03*
X31105Y73690D03*
X30435Y73690D03*
X31665Y73690D03*
X32335Y73690D03*
X35355Y56830D03*
X34685Y56830D03*
X33385Y56830D03*
X34055Y56830D03*
X35355Y57940D03*
X34685Y57940D03*
X33385Y57940D03*
X34055Y57940D03*
X33985Y62200D03*
X33315Y62200D03*
X33315Y62740D03*
X33985Y62740D03*
X34145Y63300D03*
X34815Y63300D03*
X34695Y65400D03*
X35365Y65400D03*
X35095Y66480D03*
X35765Y66480D03*
X35775Y69250D03*
X35105Y69250D03*
X39135Y57730D03*
X38465Y57730D03*
X38645Y65030D03*
X39395Y61570D03*
X40065Y61570D03*
X39315Y65030D03*
X43125Y57120D03*
X43795Y57120D03*
X45095Y58140D03*
X44425Y58140D03*
X44445Y57600D03*
X45115Y57600D03*
X47255Y62330D03*
X47925Y62330D03*
X47675Y63010D03*
X48345Y63010D03*
X49725Y68420D03*
X50395Y68420D03*
X50955Y68430D03*
X51625Y68430D03*
G54D17*
X30460Y62858D03*
X30460Y62602D03*
X32660Y62602D03*
X32660Y62858D03*
X30460Y64138D03*
X30460Y63882D03*
X30460Y63626D03*
X30460Y63370D03*
X30460Y63114D03*
X32660Y63114D03*
X32660Y63370D03*
X32660Y63626D03*
X32660Y63882D03*
X32660Y64138D03*
G54D26*
X43110Y70195D03*
X43110Y73265D03*
X47200Y70195D03*
X47200Y73265D03*
G54D27*
X46179Y58248D03*
X46336Y58248D03*
X46494Y58248D03*
X46651Y58248D03*
X46809Y58248D03*
X46966Y58248D03*
X47124Y58248D03*
X47281Y58248D03*
X47439Y58248D03*
X47596Y58248D03*
X47754Y58248D03*
X47911Y58248D03*
X47911Y60452D03*
X47754Y60452D03*
X47596Y60452D03*
X47439Y60452D03*
X47281Y60452D03*
X47124Y60452D03*
X46966Y60452D03*
X46809Y60452D03*
X46651Y60452D03*
X46494Y60452D03*
X46336Y60452D03*
X46179Y60452D03*
X48069Y58248D03*
X48226Y58248D03*
X48384Y58248D03*
X48541Y58248D03*
X48699Y58248D03*
X48856Y58248D03*
X49014Y58248D03*
X49171Y58248D03*
X49329Y58248D03*
X49486Y58248D03*
X49644Y58248D03*
X49801Y58248D03*
X49801Y60452D03*
X49644Y60452D03*
X49486Y60452D03*
X49329Y60452D03*
X49171Y60452D03*
X49014Y60452D03*
X48856Y60452D03*
X48699Y60452D03*
X48541Y60452D03*
X48384Y60452D03*
X48226Y60452D03*
X48069Y60452D03*
G54D18*
X32664Y60390D03*
X31916Y60390D03*
X35834Y69880D03*
X35086Y69880D03*
X50956Y58440D03*
X51704Y58440D03*
G54D28*
X50588Y65985D03*
X50844Y65985D03*
X50844Y67855D03*
X50588Y67855D03*
X51100Y65985D03*
X51356Y65985D03*
X51612Y65985D03*
X51612Y67855D03*
X51356Y67855D03*
X51100Y67855D03*
G54D19*
X30340Y66300D03*
X31340Y66300D03*
X32340Y66300D03*
X32340Y72900D03*
X31340Y72900D03*
X30340Y72900D03*
X33340Y66300D03*
X33340Y72900D03*
G54D29*
X50165Y67432D03*
X50165Y67176D03*
X50165Y66920D03*
X50165Y66664D03*
X50165Y66408D03*
X52035Y66408D03*
X52035Y66664D03*
X52035Y66920D03*
X52035Y67176D03*
X52035Y67432D03*
M02*
