G04 ================== begin FILE IDENTIFICATION RECORD ==================*
G04 Layout Name:  C:/DOCUMENTS AND SETTINGS/GREG HORN/MY DOCUMENTS/SLUGS/SLUGS_V2/allegro/slugs_v2.brd*
G04 Film Name:    PLANE1*
G04 File Format:  Gerber RS274X*
G04 File Origin:  16.0-p002*
G04 Origin Date:  Sun May 24 13:51:37 2009*
G04 *
G04 Layer:  VIA CLASS/PLANE1*
G04 Layer:  PIN/PLANE1*
G04 Layer:  ETCH/PLANE1*
G04 *
G04 Offset:    (0.00 0.00)*
G04 Mirror:    No*
G04 Mode:      Positive*
G04 Rotation:  0*
G04 FullContactRelief:  No*
G04 UndefLineWidth:     0.00*
G04 ================== end FILE IDENTIFICATION RECORD ====================*
%FSLAX54Y54*MOIN*%
%IR0*IPPOS*OFA0.00000B0.00000*MIA0B0*SFA1.00000B1.00000*%
%ADD11C,.03*%
%ADD16C,.06*%
%ADD15C,.033*%
%ADD10C,.025*%
%ADD14C,.026*%
%ADD13C,.055*%
%ADD12C,.01969*%
%ADD17C,.012*%
%ADD22C,.08004*%
%ADD19C,.04604*%
%ADD18C,.07504*%
%ADD20C,.0791*%
%ADD21C,.10904*%
G75*
%LPD*%
G75*
G36*
G01X47769Y56625D02*
G02X47732Y56570I-37J-15D01*
G01X36054Y56570D01*
G02X36018Y56628I0J40D01*
G03X35604Y56628I-207J101D01*
G02X35568Y56570I-36J-17D01*
G01X27730Y56570D01*
G02X27710Y56590I0J20D01*
G01X27710Y58500D01*
X25790Y58500D01*
G02X25770Y58520I0J20D01*
G01X25770Y71990D01*
G02X25790Y72010I20J0D01*
G01X27710Y72010D01*
X27710Y73950D01*
G02X27730Y73970I20J0D01*
G01X55480Y73970D01*
G02X55500Y73950I0J-20D01*
G01X55500Y72010D01*
X57420Y72010D01*
G02X57440Y71990I0J-20D01*
G01X57440Y59930D01*
G02X57420Y59910I-20J0D01*
G01X55500Y59910D01*
X55500Y57909D01*
G02X55513Y57836I-9J-39D01*
G03X55947Y57836I217J-336D01*
G02X55969Y57910I22J34D01*
G01X57420Y57910D01*
G02X57440Y57890I0J-20D01*
G01X57440Y56590D01*
G02X57420Y56570I-20J0D01*
G01X54170Y56570D01*
G02X54150Y56590I0J20D01*
G01X54150Y56718D01*
G02X54167Y56737I20J0D01*
G03X54282Y57217I-37J263D01*
G02X54282Y57283I23J33D01*
G03X54282Y57717I-152J217D01*
G02X54282Y57783I23J33D01*
G03X54282Y58217I-152J217D01*
G02X54282Y58283I23J33D01*
G03X54282Y58717I-152J217D01*
G02X54282Y58783I23J33D01*
G03X54282Y59217I-152J217D01*
G02X54282Y59283I23J33D01*
G03X54282Y59717I-152J217D01*
G02X54282Y59783I23J33D01*
G03X54282Y60217I-152J217D01*
G02X54282Y60283I23J33D01*
G03X54282Y60717I-152J217D01*
G02X54282Y60783I23J33D01*
G03X54282Y61217I-152J217D01*
G02X54282Y61283I23J33D01*
G03X54282Y61717I-152J217D01*
G02X54282Y61783I23J33D01*
G03X54282Y62217I-152J217D01*
G02X54282Y62283I23J33D01*
G03X54282Y62717I-152J217D01*
G02X54282Y62783I23J33D01*
G03X54282Y63217I-152J217D01*
G02X54282Y63283I23J33D01*
G03X54282Y63717I-152J217D01*
G02X54282Y63783I23J33D01*
G03X54282Y64217I-152J217D01*
G02X54282Y64283I23J33D01*
G03X54282Y64717I-152J217D01*
G02X54282Y64783I23J33D01*
G03X54282Y65217I-152J217D01*
G02X54282Y65283I23J33D01*
G03X54282Y65717I-152J217D01*
G02X54282Y65783I23J33D01*
G03X54282Y66217I-152J217D01*
G02X54282Y66283I23J33D01*
G03X54282Y66717I-152J217D01*
G02X54282Y66783I23J33D01*
G03X54282Y67217I-152J217D01*
G02X54282Y67283I23J33D01*
G03X54282Y67717I-152J217D01*
G02X54282Y67783I23J33D01*
G03X54282Y68217I-152J217D01*
G02X54282Y68283I23J33D01*
G03X54282Y68717I-152J217D01*
G02X54282Y68783I23J33D01*
G03X54282Y69217I-152J217D01*
G02X54282Y69283I23J33D01*
G03X54282Y69717I-152J217D01*
G02X54282Y69783I23J33D01*
G03X54282Y70217I-152J217D01*
G02X54282Y70283I23J33D01*
G03X54282Y70717I-152J217D01*
G02X54282Y70783I23J33D01*
G03X54282Y71217I-152J217D01*
G02X54282Y71283I23J33D01*
G03X53978Y71283I-152J217D01*
G02X53978Y71217I-23J-33D01*
G03X53978Y70783I152J-217D01*
G02X53978Y70717I-23J-33D01*
G03X53978Y70283I152J-217D01*
G02X53978Y70217I-23J-33D01*
G03X53978Y69783I152J-217D01*
G02X53978Y69717I-23J-33D01*
G03X53978Y69283I152J-217D01*
G02X53978Y69217I-23J-33D01*
G03X53978Y68783I152J-217D01*
G02X53978Y68717I-23J-33D01*
G03X53978Y68283I152J-217D01*
G02X53978Y68217I-23J-33D01*
G03X53978Y67783I152J-217D01*
G02X53978Y67717I-23J-33D01*
G03X53978Y67283I152J-217D01*
G02X53978Y67217I-23J-33D01*
G03X53978Y66783I152J-217D01*
G02X53978Y66717I-23J-33D01*
G03X53978Y66283I152J-217D01*
G02X53978Y66217I-23J-33D01*
G03X53978Y65783I152J-217D01*
G02X53978Y65717I-23J-33D01*
G03X53978Y65283I152J-217D01*
G02X53978Y65217I-23J-33D01*
G03X53978Y64783I152J-217D01*
G02X53978Y64717I-23J-33D01*
G03X53978Y64283I152J-217D01*
G02X53978Y64217I-23J-33D01*
G03X53978Y63783I152J-217D01*
G02X53978Y63717I-23J-33D01*
G03X53978Y63283I152J-217D01*
G02X53978Y63217I-23J-33D01*
G03X53978Y62783I152J-217D01*
G02X53978Y62717I-23J-33D01*
G03X53978Y62283I152J-217D01*
G02X53978Y62217I-23J-33D01*
G03X53978Y61783I152J-217D01*
G02X53978Y61717I-23J-33D01*
G03X53978Y61283I152J-217D01*
G02X53978Y61217I-23J-33D01*
G03X53978Y60783I152J-217D01*
G02X53978Y60717I-23J-33D01*
G03X53978Y60283I152J-217D01*
G02X53978Y60217I-23J-33D01*
G03X53978Y59783I152J-217D01*
G02X53978Y59717I-23J-33D01*
G03X53978Y59283I152J-217D01*
G02X53978Y59217I-23J-33D01*
G03X53978Y58783I152J-217D01*
G02X53978Y58717I-23J-33D01*
G03X53978Y58283I152J-217D01*
G02X53978Y58217I-23J-33D01*
G03X53978Y57783I152J-217D01*
G02X53978Y57717I-23J-33D01*
G03X53978Y57283I152J-217D01*
G02X53978Y57217I-23J-33D01*
G03X53865Y57009I152J-217D01*
G02X53825Y56970I-40J1D01*
G01X53435Y56970D01*
G02X53395Y57009I0J40D01*
G03X53282Y57217I-265J-9D01*
G02X53282Y57283I23J33D01*
G03X53282Y57717I-152J217D01*
G02X53282Y57783I23J33D01*
G03X53282Y58217I-152J217D01*
G02X53282Y58283I23J33D01*
G03X53282Y58717I-152J217D01*
G02X53282Y58783I23J33D01*
G03X53282Y59217I-152J217D01*
G02X53282Y59283I23J33D01*
G03X53282Y59717I-152J217D01*
G02X53282Y59783I23J33D01*
G03X53282Y60217I-152J217D01*
G02X53282Y60283I23J33D01*
G03X53282Y60717I-152J217D01*
G02X53282Y60783I23J33D01*
G03X53282Y61217I-152J217D01*
G02X53282Y61283I23J33D01*
G03X53282Y61717I-152J217D01*
G02X53282Y61783I23J33D01*
G03X53282Y62217I-152J217D01*
G02X53282Y62283I23J33D01*
G03X53282Y62717I-152J217D01*
G02X53282Y62783I23J33D01*
G03X53282Y63217I-152J217D01*
G02X53282Y63283I23J33D01*
G03X53282Y63717I-152J217D01*
G02X53282Y63783I23J33D01*
G03X53282Y64217I-152J217D01*
G02X53282Y64283I23J33D01*
G03X53282Y64717I-152J217D01*
G02X53282Y64783I23J33D01*
G03X53282Y65217I-152J217D01*
G02X53282Y65283I23J33D01*
G03X53282Y65717I-152J217D01*
G02X53282Y65783I23J33D01*
G03X53282Y66217I-152J217D01*
G02X53282Y66283I23J33D01*
G03X53282Y66717I-152J217D01*
G02X53282Y66783I23J33D01*
G03X53282Y67217I-152J217D01*
G02X53282Y67283I23J33D01*
G03X53282Y67717I-152J217D01*
G02X53282Y67783I23J33D01*
G03X53282Y68217I-152J217D01*
G02X53282Y68283I23J33D01*
G03X53282Y68717I-152J217D01*
G02X53282Y68783I23J33D01*
G03X53282Y69217I-152J217D01*
G02X53282Y69283I23J33D01*
G03X53282Y69717I-152J217D01*
G02X53282Y69783I23J33D01*
G03X53282Y70217I-152J217D01*
G02X53282Y70283I23J33D01*
G03X53282Y70717I-152J217D01*
G02X53282Y70783I23J33D01*
G03X53282Y71217I-152J217D01*
G02X53282Y71283I23J33D01*
G03X52978Y71283I-152J217D01*
G02X52978Y71217I-23J-33D01*
G03X52978Y70783I152J-217D01*
G02X52978Y70717I-23J-33D01*
G03X52978Y70283I152J-217D01*
G02X52978Y70217I-23J-33D01*
G03X52978Y69783I152J-217D01*
G02X52978Y69717I-23J-33D01*
G03X52978Y69283I152J-217D01*
G02X52978Y69217I-23J-33D01*
G03X52978Y68783I152J-217D01*
G02X52978Y68717I-23J-33D01*
G03X52978Y68283I152J-217D01*
G02X52978Y68217I-23J-33D01*
G03X52978Y67783I152J-217D01*
G02X52978Y67717I-23J-33D01*
G03X52978Y67283I152J-217D01*
G02X52978Y67217I-23J-33D01*
G03X52978Y66783I152J-217D01*
G02X52978Y66717I-23J-33D01*
G03X52978Y66283I152J-217D01*
G02X52978Y66217I-23J-33D01*
G03X52978Y65783I152J-217D01*
G02X52978Y65717I-23J-33D01*
G03X52978Y65283I152J-217D01*
G02X52978Y65217I-23J-33D01*
G03X52978Y64783I152J-217D01*
G02X52978Y64717I-23J-33D01*
G03X52978Y64283I152J-217D01*
G02X52978Y64217I-23J-33D01*
G03X52978Y63783I152J-217D01*
G02X52978Y63717I-23J-33D01*
G03X52978Y63283I152J-217D01*
G02X52978Y63217I-23J-33D01*
G03X52978Y62783I152J-217D01*
G02X52978Y62717I-23J-33D01*
G03X52978Y62283I152J-217D01*
G02X52978Y62217I-23J-33D01*
G03X52978Y61783I152J-217D01*
G02X52978Y61717I-23J-33D01*
G03X52978Y61283I152J-217D01*
G02X52978Y61217I-23J-33D01*
G03X52978Y60783I152J-217D01*
G02X52978Y60717I-23J-33D01*
G03X52978Y60283I152J-217D01*
G02X52978Y60217I-23J-33D01*
G03X52978Y59783I152J-217D01*
G02X52978Y59717I-23J-33D01*
G03X52978Y59283I152J-217D01*
G02X52978Y59217I-23J-33D01*
G03X52978Y58783I152J-217D01*
G02X52978Y58717I-23J-33D01*
G03X52978Y58283I152J-217D01*
G02X52978Y58217I-23J-33D01*
G03X52978Y57783I152J-217D01*
G02X52978Y57717I-23J-33D01*
G03X52978Y57283I152J-217D01*
G02X52978Y57217I-23J-33D01*
G03X53111Y56736I152J-217D01*
G01X53119Y56735D01*
X53130Y56723D01*
X53130Y56590D01*
G02X53110Y56570I-20J0D01*
G01X48631Y56570D01*
G02X48594Y56625I0J40D01*
G03X48211Y56866I-214J85D01*
G02X48152Y56866I-29J27D01*
G03X47769Y56625I-169J-156D01*
G37*
%LPC*%
G75*
G36*
G01X49032Y67794D02*
G02X48720Y67677I-100J-207D01*
G03X48710Y67702I-18J8D01*
G02X48580Y67909I100J207D01*
G03X48560Y67928I-20J0D01*
G02X48569Y68389I4J230D01*
G03X48610Y68428I1J40D01*
G02X48952Y68621I230J-8D01*
G03X49011Y68648I20J35D01*
G02X49124Y68401I226J-46D01*
G03X49066Y68374I-20J-35D01*
G02X48816Y68191I-226J46D01*
G03X48794Y68170I-2J-20D01*
G02X48794Y68160I-230J-12D01*
G03X48814Y68140I20J0D01*
G02X49022Y67820I-4J-230D01*
G03X49032Y67794I18J-8D01*
G37*
G36*
G01X46858Y67912D02*
G02X46595Y68108I-228J-32D01*
G03X46629Y68153I-6J40D01*
G02X46892Y67957I228J32D01*
G03X46858Y67912I6J-40D01*
G37*
G36*
G01X48290Y67792D02*
G02X47965Y67673I-110J-202D01*
G03X47956Y67698I-19J7D01*
G02X48281Y67817I110J202D01*
G03X48290Y67792I19J-7D01*
G37*
G36*
G01X47383Y67065D02*
G02X47065Y67112I-183J-140D01*
G03X47073Y67168I-23J32D01*
G02X47391Y67122I183J140D01*
G03X47383Y67065I23J-32D01*
G37*
G36*
G01X52576Y66544D02*
G02X52232Y66520I-161J-164D01*
G03X52229Y66573I-32J24D01*
G02X52573Y66597I161J164D01*
G03X52576Y66544I32J-24D01*
G37*
G36*
G01X40926Y66351D02*
G02X40888Y66080I164J-161D01*
G03X40824Y66089I-35J-19D01*
G02X40862Y66360I-164J161D01*
G03X40926Y66351I35J19D01*
G37*
G36*
G01X45378Y66236D02*
G02X45150Y66276I-148J-176D01*
G03X45162Y66344I-14J37D01*
G02X45390Y66304I148J176D01*
G03X45378Y66236I14J-37D01*
G37*
G36*
G01X44446Y65920D02*
G02X44100Y65890I-186J135D01*
G03X44046Y65892I-28J-29D01*
G02X44060Y66235I-146J178D01*
G03X44114Y66233I28J29D01*
G02X44396Y66241I146J-178D01*
G03X44424Y66245I12J16D01*
G02X44476Y66297I186J-135D01*
G03X44482Y66324I-12J16D01*
G02X44814Y66253I199J116D01*
G03X44809Y66226I12J-16D01*
G02X44474Y65924I-199J-116D01*
G03X44446Y65920I-12J-16D01*
G37*
G36*
G01X46636Y65944D02*
G02X46381Y65712I-25J-229D01*
G03X46363Y65732I-20J0D01*
G02X46273Y65761I25J229D01*
G03X46221Y65750I-20J-35D01*
G02X46150Y66086I-185J137D01*
G03X46202Y66097I20J35D01*
G02X46618Y65964I185J-137D01*
G03X46636Y65944I20J0D01*
G37*
G36*
G01X51889Y65562D02*
G02X51730Y65409I61J-222D01*
G03X51682Y65459I-38J12D01*
G02X51474Y65504I-62J222D01*
G03X51446Y65501I-13J-15D01*
G02X51129Y65468I-176J149D01*
G03X51102Y65467I-12J-16D01*
G02X51081Y65812I-162J163D01*
G03X51108Y65813I12J16D01*
G02X51416Y65828I162J-163D01*
G03X51444Y65830I13J15D01*
G02X51840Y65612I176J-149D01*
G03X51889Y65562I38J-12D01*
G37*
G36*
G01X39938Y65043D02*
G02X39597Y65047I-172J-153D01*
G03X39598Y65074I-15J14D01*
G02X39938Y65070I172J153D01*
G03X39938Y65043I15J-14D01*
G37*
G36*
G01X44453Y64899D02*
G02X44301Y64590I61J-222D01*
G03X44277Y64602I-19J-8D01*
G02X44009Y64724I-61J222D01*
G03X43943Y64733I-36J-17D01*
G02X43977Y64985I-173J152D01*
G03X44043Y64976I36J17D01*
G02X44430Y64910I173J-152D01*
G03X44453Y64899I19J8D01*
G37*
G36*
G01X47045Y64385D02*
G02X46655Y64452I-175J150D01*
G03X46608Y64477I-37J-14D01*
G02X46764Y64782I-58J223D01*
G03X46812Y64758I37J14D01*
G02X47001Y64724I59J-223D01*
G03X47054Y64731I23J33D01*
G02X47239Y64811I175J-150D01*
G03X47281Y64848I2J40D01*
G02X47500Y64600I230J-18D01*
G03X47458Y64563I-2J-40D01*
G02X47098Y64392I-229J18D01*
G03X47045Y64385I-23J-33D01*
G37*
G36*
G01X41446Y64583D02*
G02X41162Y64392I-56J-223D01*
G03X41132Y64437I-40J6D01*
G02X41204Y64890I56J223D01*
G03X41247Y64930I3J40D01*
G02X41461Y64703I230J3D01*
G03X41418Y64663I-3J-40D01*
G02X41416Y64628I-230J-3D01*
G03X41446Y64583I40J-6D01*
G37*
G36*
G01X45715Y63938D02*
G02X45351Y64171I-225J49D01*
G03X45352Y64234I-24J32D01*
G02X45340Y64586I143J181D01*
G03X45344Y64642I-27J30D01*
G02X45361Y64956I176J148D01*
G03X45362Y65012I-28J29D01*
G02X45689Y65004I168J158D01*
G03X45688Y64948I28J-29D01*
G02X45674Y64619I-168J-158D01*
G03X45670Y64563I27J-30D01*
G02X45722Y64444I-176J-148D01*
G03X45765Y64410I40J5D01*
G02X45738Y63954I15J-230D01*
G03X45715Y63938I-4J-20D01*
G37*
G36*
G01X49858Y63936D02*
G02X49531Y63945I-168J-157D01*
G03X49532Y63973I-14J14D01*
G02X49859Y63964I168J157D01*
G03X49858Y63936I14J-14D01*
G37*
G36*
G01X43282Y63673D02*
G02X43162Y63361I88J-213D01*
G03X43136Y63371I-18J-9D01*
G02X42822Y63547I-88J213D01*
G03X42780Y63580I-39J-6D01*
G02X42761Y64040I-15J230D01*
G03X42800Y64079I-1J40D01*
G02X43138Y63867I230J-9D01*
G03X43141Y63795I19J-35D01*
G02X43256Y63683I-92J-211D01*
G03X43282Y63673I18J9D01*
G37*
G36*
G01X37430Y63500D02*
G02X37084Y63494I-170J-155D01*
G03X37083Y63520I-15J13D01*
G02X37085Y63832I170J155D01*
G03X37086Y63858I-15J14D01*
G02X37432Y63848I178J147D01*
G03X37431Y63822I15J-14D01*
G02X37429Y63526I-177J-147D01*
G03X37430Y63500I15J-13D01*
G37*
G36*
G01X38084Y63219D02*
G02X38063Y62926I166J-159D01*
G03X38001Y62931I-33J-23D01*
G02X38022Y63224I-166J159D01*
G03X38084Y63219I33J23D01*
G37*
G36*
G01X54987Y62870D02*
G02X54758Y62730I-17J-230D01*
G03X54724Y62785I-37J16D01*
G02X54703Y63242I17J230D01*
G03X54720Y63262I-3J20D01*
G02X54988Y63043I230J8D01*
G03X54971Y63022I3J-20D01*
G02X54953Y62925I-230J-8D01*
G03X54987Y62870I37J-16D01*
G37*
G36*
G01X44282Y62440D02*
G02X43973Y62593I-222J-60D01*
G03X43997Y62641I-15J37D01*
G02X44055Y62861I222J60D01*
G03X44056Y62888I-14J14D01*
G02X44080Y63199I181J142D01*
G03X44082Y63226I-14J15D01*
G02X44175Y63578I182J140D01*
G03X44186Y63602I-8J18D01*
G02X44498Y63451I222J62D01*
G03X44487Y63428I8J-18D01*
G02X44489Y63420I-222J-60D01*
G03X44510Y63404I19J5D01*
G02X44473Y62954I24J-229D01*
G03X44450Y62942I-5J-19D01*
G02X44402Y62869I-213J88D01*
G03X44400Y62843I14J-14D01*
G02X44306Y62487I-181J-142D01*
G03X44282Y62440I15J-37D01*
G37*
G36*
G01X45964Y62159D02*
G02X45959Y62505I-155J171D01*
G03X45986Y62506I13J15D01*
G02X45991Y62160I155J-171D01*
G03X45964Y62159I-13J-15D01*
G37*
G36*
G01X49590Y62452D02*
G02X49420Y62246I60J-222D01*
G03X49370Y62288I-40J3D01*
G02X49087Y62567I-60J222D01*
G03X49057Y62616I-39J10D01*
G02X49333Y62783I53J224D01*
G03X49363Y62734I39J-10D01*
G02X49540Y62494I-53J-224D01*
G03X49590Y62452I40J-3D01*
G37*
G36*
G01X46807Y62011D02*
G02X46556Y62100I-188J-132D01*
G03X46578Y62161I-11J38D01*
G02X46749Y62523I188J132D01*
G03X46779Y62586I-3J40D01*
G02X46987Y62485I191J129D01*
G03X46957Y62423I3J-40D01*
G02X46829Y62072I-191J-129D01*
G03X46807Y62011I11J-38D01*
G37*
G36*
G01X47953Y61902D02*
G02X47900Y61577I132J-188D01*
G03X47872Y61582I-16J-12D01*
G02X47534Y61668I-132J188D01*
G03X47508Y61677I-18J-9D01*
G02X47357Y61665I-93J211D01*
G03X47333Y61653I-5J-19D01*
G02X47178Y61963I-213J87D01*
G03X47202Y61974I5J19D01*
G02X47621Y61990I213J-87D01*
G03X47647Y61981I18J9D01*
G02X47925Y61907I93J-211D01*
G03X47953Y61902I16J12D01*
G37*
G36*
G01X38236Y61184D02*
G02X38179Y61495I-193J125D01*
G03X38237Y61505I24J32D01*
G02X38581Y61553I193J-125D01*
G03X38609Y61554I13J15D01*
G02X38626Y61570I161J-165D01*
G03X38634Y61625I-25J31D01*
G02X38964Y61580I186J135D01*
G03X38956Y61525I25J-31D01*
G02X38619Y61217I-186J-135D01*
G03X38591Y61216I-13J-15D01*
G02X38293Y61195I-161J164D01*
G03X38236Y61184I-24J-32D01*
G37*
G36*
G01X45133Y61172D02*
G02X44981Y61472I-216J79D01*
G03X45005Y61485I6J19D01*
G02X45157Y61185I216J-79D01*
G03X45133Y61172I-6J-19D01*
G37*
G36*
G01X42430Y60950D02*
G02X42205Y61185I-230J5D01*
G03X42226Y61205I0J20D01*
G02X42451Y60970I230J-5D01*
G03X42430Y60950I0J-20D01*
G37*
G36*
G01X36494Y61139D02*
G02X36290Y60903I25J-229D01*
G03X36246Y60941I-40J-1D01*
G02X36004Y61251I-26J229D01*
G03X35975Y61304I-37J14D01*
G02X35851Y61686I45J226D01*
G03X35851Y61714I-15J14D01*
G02X36189Y61714I169J156D01*
G03X36189Y61686I15J-14D01*
G02X36236Y61449I-169J-156D01*
G03X36265Y61396I37J-14D01*
G02X36450Y61177I-45J-226D01*
G03X36494Y61139I40J1D01*
G37*
G36*
G01X43231Y60740D02*
G02X42900Y60740I-165J-160D01*
G03X42900Y60796I-29J28D01*
G02X43231Y60796I165J160D01*
G03X43231Y60740I29J-28D01*
G37*
G36*
G01X42265Y59840D02*
G02X42188Y59513I115J-200D01*
G03X42135Y59526I-33J-22D01*
G02X42212Y59852I-115J200D01*
G03X42265Y59840I33J22D01*
G37*
G36*
G01X36198Y59756D02*
G02X35877Y59760I-163J-163D01*
G03X35877Y59817I-28J29D01*
G02X35810Y59972I163J163D01*
G03X35767Y60010I-40J-1D01*
G02X35980Y60248I-17J230D01*
G03X36023Y60210I40J1D01*
G02X36198Y59813I17J-230D01*
G03X36198Y59756I28J-29D01*
G37*
G36*
G01X46682Y59741D02*
G02X46546Y59441I79J-216D01*
G03X46495Y59464I-37J-15D01*
G02X46192Y59629I-78J216D01*
G03X46144Y59659I-39J-9D01*
G02X46316Y59934I-52J224D01*
G03X46364Y59904I39J9D01*
G02X46631Y59764I53J-224D01*
G03X46682Y59741I37J15D01*
G37*
G36*
G01X48486Y59568D02*
G02X48351Y59448I74J-218D01*
G03X48302Y59503I-36J17D01*
G02X48272Y59494I-74J218D01*
G03X48256Y59474I4J-20D01*
G02X47811Y59540I-230J-15D01*
G03X47801Y59565I-19J7D01*
G02X48079Y59919I101J207D01*
G03X48105Y59915I15J13D01*
G02X48437Y59623I123J-195D01*
G03X48486Y59568I36J-17D01*
G37*
G36*
G01X44793Y59222D02*
G02X44598Y59509I-223J58D01*
G03X44620Y59523I2J20D01*
G02X44815Y59237I223J-58D01*
G03X44793Y59222I-2J-20D01*
G37*
G36*
G01X52492Y58961D02*
G02X52225Y58974I-142J-181D01*
G03X52228Y59039I-22J34D01*
G02X52495Y59026I142J181D01*
G03X52492Y58961I22J-34D01*
G37*
G36*
G01X50228Y58338D02*
G02X49882Y58326I-168J-157D01*
G03X49881Y58352I-15J13D01*
G02X50150Y58717I168J157D01*
G03X50176Y58724I9J18D01*
G02X50202Y58758I194J-124D01*
G03X50202Y58812I-29J27D01*
G02X50538Y58812I168J158D01*
G03X50538Y58758I29J-27D01*
G02X50269Y58393I-168J-158D01*
G03X50243Y58386I-9J-18D01*
G02X50227Y58364I-194J124D01*
G03X50228Y58338I15J-13D01*
G37*
G36*
G01X40460Y58118D02*
G02X40261Y58358I-230J12D01*
G03X40306Y58396I5J40D01*
G02X40728Y58511I230J-12D01*
G03X40790Y58506I33J22D01*
G02X40764Y58218I166J-160D01*
G03X40702Y58224I-33J-22D01*
G02X40505Y58155I-166J160D01*
G03X40460Y58118I-5J-40D01*
G37*
G36*
G01X44021Y57923D02*
G02X43758Y58086I-221J-63D01*
G03X43789Y58137I-7J39D01*
G02X44052Y57974I221J63D01*
G03X44021Y57923I7J-39D01*
G37*
G36*
G01X47029Y57320D02*
G02X46610Y57132I-216J-80D01*
G03X46540Y57134I-35J-19D01*
G02X46113Y57236I-197J119D01*
G03X46064Y57272I-40J-3D01*
G02X45802Y57594I-54J224D01*
G03X45785Y57646I-36J17D01*
G02X46102Y57750I110J202D01*
G03X46120Y57698I36J-17D01*
G02X46240Y57490I-110J-202D01*
G03X46267Y57470I20J-1D01*
G02X46276Y57473I76J-217D01*
G03X46289Y57498I-6J19D01*
G02X46704Y57685I222J62D01*
G03X46773Y57690I34J22D01*
G02X47164Y57728I207J-100D01*
G03X47191Y57723I16J12D01*
G02X47124Y57387I118J-198D01*
G03X47098Y57392I-16J-12D01*
G02X47054Y57372I-118J198D01*
G03X47029Y57320I13J-38D01*
G37*
G36*
G01X42512Y57331D02*
G02X42302Y57318I-92J-211D01*
G03X42298Y57389I-20J34D01*
G02X42508Y57402I92J211D01*
G03X42512Y57331I20J-34D01*
G37*
G36*
G01X37688Y56744D02*
G02X37293Y56814I-178J146D01*
G03X37236Y56836I-38J-13D01*
G02X37347Y57116I-106J204D01*
G03X37404Y57094I38J13D01*
G02X37681Y57044I106J-204D01*
G03X37742Y57046I30J27D01*
G02X37749Y56746I178J-146D01*
G03X37688Y56744I-30J-27D01*
G37*
G36*
G01X33069Y57007D02*
G02X32726Y57012I-173J-152D01*
G03X32727Y57038I-15J14D01*
G02X33069Y57034I173J152D01*
G03X33069Y57007I15J-14D01*
G37*
G36*
G01X30916Y56700D02*
G02X30916Y57011I-170J155D01*
G03X30974Y57011I29J27D01*
G02X30976Y57012I163J-162D01*
G03X30975Y57039I-15J14D01*
G02X31309Y57044I165J161D01*
G03X31309Y57016I15J-14D01*
G02X30974Y56700I-165J-161D01*
G03X30916Y56700I-29J-27D01*
G37*
G36*
G01X29146Y57010D02*
G02X28800Y57004I-171J-155D01*
G03X28800Y57031I-15J13D01*
G02X29146Y57036I171J155D01*
G03X29146Y57010I15J-13D01*
G37*
G54D22*
X55730Y71000D03*
X55730Y64250D03*
G54D19*
X48860Y73190D03*
X31340Y72170D03*
X50955Y71765D03*
X42550Y70690D03*
X50912Y69948D03*
X49910Y69610D03*
X48882Y69450D03*
X50410Y69380D03*
X50900Y69165D03*
X36095Y68725D03*
X35814Y67450D03*
X44394Y67356D03*
X46619Y67220D03*
X49826Y66664D03*
X43286Y66330D03*
X51950Y66100D03*
X42620Y65550D03*
X49130Y65396D03*
X40581Y65240D03*
X49690Y65210D03*
X48491Y65035D03*
X35360Y64950D03*
X38190Y64930D03*
X37260Y64842D03*
X51060Y64840D03*
X47850Y64320D03*
X40058Y64180D03*
X46880Y64000D03*
X32130Y63840D03*
X41450Y63800D03*
X39260Y63760D03*
X36210Y63740D03*
X46160Y63730D03*
X33695Y63325D03*
X38780Y63242D03*
X45520Y63160D03*
X46245Y63125D03*
X41400Y62972D03*
X37316Y62541D03*
X42700Y62190D03*
X51010Y61850D03*
X45632Y61760D03*
X48634Y61711D03*
X50080Y61430D03*
X39455Y61017D03*
X40730Y60994D03*
X41367Y60981D03*
X32487Y60937D03*
X45530Y60780D03*
X41540Y60504D03*
X28440Y60410D03*
X27440Y60360D03*
X37565Y59290D03*
X47090Y58935D03*
X34310Y58915D03*
X38310Y58860D03*
X49149Y58816D03*
X35860Y58770D03*
X41620Y58640D03*
X45551Y58369D03*
X35800Y58020D03*
X39657Y57957D03*
X32980Y57710D03*
X45400Y57430D03*
X39787Y56993D03*
X55240Y64980D03*
G54D18*
X54900Y73510D03*
X37610Y73290D03*
X40420Y72710D03*
X39420Y72710D03*
X54900Y72510D03*
X40438Y70462D03*
X28290Y58000D03*
X28290Y57000D03*
G54D20*
X37546Y70708D03*
X27034Y67558D03*
G54D21*
X37743Y69133D03*
X26837Y69133D03*
%LPD*%
G75*
G54D10*
X26710Y57500D03*
X26710Y73010D03*
X56500Y58910D03*
X56500Y73010D03*
G54D11*
X26837Y69133D03*
X37743Y69133D03*
G54D12*
X27034Y67558D03*
X37546Y70708D03*
G54D13*
X28290Y57000D03*
X28290Y58000D03*
X39420Y72710D03*
X37610Y73290D03*
X40438Y70462D03*
X40420Y72710D03*
X54900Y73510D03*
X54900Y72510D03*
G54D14*
X28975Y56855D03*
X28970Y57185D03*
X28440Y60410D03*
X27440Y60360D03*
X27940Y60360D03*
X29115Y60495D03*
X27930Y62190D03*
X30040Y63370D03*
X30010Y73690D03*
X31145Y56855D03*
X32895Y56855D03*
X30745Y56855D03*
X32980Y57710D03*
X32900Y57190D03*
X31140Y57200D03*
X30930Y57525D03*
X32487Y60937D03*
X32093Y60937D03*
X32130Y63840D03*
X32860Y64790D03*
X31340Y72170D03*
X32740Y73590D03*
X35811Y56728D03*
X35810Y57058D03*
X36040Y59980D03*
X36035Y59593D03*
X34310Y58915D03*
X35860Y58770D03*
X35800Y57668D03*
X35800Y58020D03*
X35750Y60240D03*
X36020Y61870D03*
X36020Y61530D03*
X33695Y63325D03*
X35360Y64950D03*
X33725Y63865D03*
X34660Y64610D03*
X35720Y64110D03*
X36095Y68725D03*
X35814Y67450D03*
X34785Y68725D03*
X35990Y67800D03*
X34075Y73165D03*
X37510Y56890D03*
X37920Y56900D03*
X37130Y57040D03*
X38310Y58860D03*
X37565Y59290D03*
X37430Y58540D03*
X38820Y61760D03*
X38043Y61310D03*
X38430Y61380D03*
X38770Y61390D03*
X36520Y60910D03*
X36220Y61170D03*
X37316Y62541D03*
X39130Y61077D03*
X37290Y62870D03*
X38140Y60994D03*
X38250Y63060D03*
X37835Y63090D03*
X38780Y63242D03*
X37253Y63675D03*
X37259Y63345D03*
X36210Y63740D03*
X37263Y64005D03*
X37260Y64842D03*
X38760Y63760D03*
X38190Y64930D03*
X39130Y71440D03*
X39787Y56993D03*
X41620Y58640D03*
X42020Y59725D03*
X40536Y58384D03*
X40230Y58130D03*
X40956Y58346D03*
X39657Y57957D03*
X39380Y58550D03*
X41540Y60504D03*
X41367Y60981D03*
X41400Y62972D03*
X39455Y61017D03*
X40730Y60994D03*
X40380Y60992D03*
X41477Y64933D03*
X41390Y64360D03*
X41188Y64660D03*
X40058Y64180D03*
X39770Y65227D03*
X39260Y63760D03*
X41405Y63445D03*
X41966Y65230D03*
X41450Y63800D03*
X39766Y64890D03*
X40581Y65240D03*
X39480Y67580D03*
X41090Y66190D03*
X40660Y66250D03*
X40410Y69600D03*
X42420Y57120D03*
X42390Y57600D03*
X44010Y58200D03*
X43800Y57860D03*
X44320Y58620D03*
X43930Y57500D03*
X42380Y59640D03*
X44570Y59280D03*
X44843Y59466D03*
X42700Y62190D03*
X45120Y61720D03*
X44237Y63030D03*
X44219Y62700D03*
X44060Y62380D03*
X44916Y61251D03*
X43066Y60580D03*
X42456Y61200D03*
X43066Y60956D03*
X42200Y60955D03*
X44534Y63176D03*
X43770Y64885D03*
X44514Y64677D03*
X42620Y65550D03*
X44216Y64824D03*
X44265Y63366D03*
X44408Y63663D03*
X44610Y66110D03*
X43930Y63290D03*
X43510Y63800D03*
X43370Y63460D03*
X43049Y63584D03*
X42765Y63810D03*
X43030Y64070D03*
X43900Y66070D03*
X44260Y66055D03*
X44394Y67356D03*
X44680Y66440D03*
X43286Y66330D03*
X43660Y67250D03*
X44330Y68180D03*
X45040Y69680D03*
X42550Y70690D03*
X42540Y73190D03*
X47983Y56710D03*
X45400Y57430D03*
X46010Y57496D03*
X45551Y58369D03*
X45894Y57849D03*
X47593Y57732D03*
X47281Y59316D03*
X46813Y57240D03*
X47308Y57525D03*
X46980Y57590D03*
X47090Y58935D03*
X47902Y59772D03*
X48027Y59459D03*
X46091Y59883D03*
X46416Y59680D03*
X46760Y59525D03*
X46511Y57560D03*
X46343Y57253D03*
X47120Y61740D03*
X45780Y60320D03*
X45221Y61406D03*
X47415Y61888D03*
X47740Y61770D03*
X46245Y63125D03*
X45632Y61760D03*
X46140Y62335D03*
X45530Y60780D03*
X45810Y62330D03*
X46619Y61878D03*
X48085Y61714D03*
X45520Y63160D03*
X46970Y62715D03*
X46766Y62294D03*
X45230Y66060D03*
X45490Y63988D03*
X46388Y65960D03*
X47850Y64320D03*
X45530Y63560D03*
X47229Y64581D03*
X46160Y63730D03*
X46036Y65887D03*
X46880Y64000D03*
X45494Y64415D03*
X46549Y64699D03*
X46611Y65715D03*
X45520Y64790D03*
X47510Y64830D03*
X45530Y65170D03*
X46870Y64535D03*
X45780Y64180D03*
X45310Y66520D03*
X46619Y67220D03*
X47200Y66925D03*
X46630Y67880D03*
X46857Y68185D03*
X47256Y67308D03*
X46450Y67510D03*
X48060Y67140D03*
X48066Y67900D03*
X47200Y71110D03*
X48380Y56710D03*
X48228Y59720D03*
X48560Y59350D03*
X48942Y57274D03*
X48699Y59730D03*
X51000Y59970D03*
X50370Y58600D03*
X49149Y58816D03*
X50370Y58970D03*
X50049Y58510D03*
X50060Y58180D03*
X51010Y61850D03*
X48360Y62312D03*
X49110Y62840D03*
X49310Y62510D03*
X49650Y62230D03*
X50080Y61430D03*
X48634Y61711D03*
X49690Y65210D03*
X50940Y65630D03*
X51060Y64840D03*
X50880Y64048D03*
X48350Y64300D03*
X48491Y65035D03*
X49130Y65396D03*
X49700Y64130D03*
X49690Y63779D03*
X48810Y67910D03*
X48564Y68159D03*
X48840Y68420D03*
X49237Y68602D03*
X48932Y67587D03*
X49826Y66664D03*
X48545Y67590D03*
X49250Y67790D03*
X49830Y66250D03*
X48180Y67590D03*
X50900Y69165D03*
X48882Y69450D03*
X50955Y71765D03*
X48965Y70445D03*
X50410Y69380D03*
X49910Y69610D03*
X50912Y69948D03*
X48860Y73190D03*
X49000Y72670D03*
X52350Y58780D03*
X52370Y59220D03*
X51310Y59050D03*
X51455Y62935D03*
X51620Y65681D03*
X51950Y65340D03*
X51950Y66100D03*
X51270Y65650D03*
X52415Y66380D03*
X52390Y66737D03*
X52141Y69319D03*
X54741Y63014D03*
X54970Y62640D03*
X55240Y64980D03*
X54950Y63270D03*
G54D15*
X54130Y57000D03*
X53130Y57000D03*
X54130Y60000D03*
X54130Y59500D03*
X54130Y59000D03*
X54130Y58500D03*
X54130Y58000D03*
X54130Y57500D03*
X53130Y57500D03*
X53130Y58000D03*
X53130Y58500D03*
X53130Y59000D03*
X53130Y59500D03*
X53130Y60000D03*
X54130Y63000D03*
X54130Y62500D03*
X54130Y62000D03*
X54130Y61500D03*
X54130Y61000D03*
X54130Y60500D03*
X53130Y60500D03*
X53130Y61000D03*
X53130Y61500D03*
X53130Y62000D03*
X53130Y62500D03*
X53130Y63000D03*
X54130Y66000D03*
X54130Y65500D03*
X54130Y65000D03*
X54130Y64500D03*
X54130Y64000D03*
X54130Y63500D03*
X53130Y63500D03*
X53130Y64000D03*
X53130Y64500D03*
X53130Y65000D03*
X53130Y65500D03*
X53130Y66000D03*
X54130Y69000D03*
X54130Y68500D03*
X54130Y68000D03*
X54130Y67500D03*
X54130Y67000D03*
X54130Y66500D03*
X53130Y66500D03*
X53130Y67000D03*
X53130Y67500D03*
X53130Y68000D03*
X53130Y68500D03*
X53130Y69000D03*
X54130Y71500D03*
X54130Y71000D03*
X54130Y70500D03*
X54130Y70000D03*
X54130Y69500D03*
X53130Y69500D03*
X53130Y70000D03*
X53130Y70500D03*
X53130Y71000D03*
X53130Y71500D03*
G54D16*
X55730Y57500D03*
X55730Y64250D03*
X55730Y71000D03*
G54D17*
G01X28290Y56605D02*
X28290Y57000D01*
G01X28290Y57000D02*
X28290Y57395D01*
G01X27895Y57000D02*
X28290Y57000D01*
G01X28290Y57000D02*
X28685Y57000D01*
G01X28290Y57605D02*
X28290Y58000D01*
G01X28290Y58000D02*
X28290Y58395D01*
G01X27895Y58000D02*
X28290Y58000D01*
G01X28290Y58000D02*
X28685Y58000D01*
G01X40420Y72315D02*
X40420Y72710D01*
G01X40420Y72710D02*
X40420Y73105D01*
G01X40025Y72710D02*
X40420Y72710D01*
G01X40420Y72710D02*
X40815Y72710D01*
G01X52845Y59500D02*
X53130Y59500D01*
G01X53130Y59500D02*
X53415Y59500D01*
G01X52845Y65500D02*
X53130Y65500D01*
G01X53130Y65500D02*
X53415Y65500D01*
G01X52845Y65000D02*
X53130Y65000D01*
G01X53130Y65000D02*
X53415Y65000D01*
G01X52845Y64000D02*
X53130Y64000D01*
G01X53130Y64000D02*
X53415Y64000D01*
G01X52845Y63500D02*
X53130Y63500D01*
G01X53130Y63500D02*
X53415Y63500D01*
G01X52845Y68500D02*
X53130Y68500D01*
G01X53130Y68500D02*
X53415Y68500D01*
G01X52845Y67500D02*
X53130Y67500D01*
G01X53130Y67500D02*
X53415Y67500D01*
G01X52845Y70500D02*
X53130Y70500D01*
G01X53130Y70500D02*
X53415Y70500D01*
G01X54900Y72115D02*
X54900Y72510D01*
G01X54900Y72510D02*
X54900Y72905D01*
G01X54505Y72510D02*
X54900Y72510D01*
G01X54900Y72510D02*
X55295Y72510D01*
G01X54900Y73115D02*
X54900Y73510D01*
G01X54900Y73510D02*
X54900Y73905D01*
G01X54505Y73510D02*
X54900Y73510D01*
G01X54900Y73510D02*
X55295Y73510D01*
M02*
