G04 ================== begin FILE IDENTIFICATION RECORD ==================*
G04 Layout Name:  C:/Documents and Settings/Greg Horn/My Documents/SLUGS/SLUGS_V2/allegro_slugs2.1/slugs_v2_1.brd*
G04 Film Name:    TOP_SILKSCREEN*
G04 File Format:  Gerber RS274X*
G04 File Origin:  16.0-p002*
G04 Origin Date:  Sun Aug 30 20:31:27 2009*
G04 *
G04 Layer:  REF DES/SILKSCREEN_TOP*
G04 Layer:  PACKAGE GEOMETRY/SILKSCREEN_TOP*
G04 Layer:  COMPONENT VALUE/SILKSCREEN_TOP*
G04 Layer:  BOARD GEOMETRY/OUTLINE*
G04 Layer:  BOARD GEOMETRY/SILKSCREEN_TOP*
G04 *
G04 Offset:    (0.00 0.00)*
G04 Mirror:    No*
G04 Mode:      Positive*
G04 Rotation:  0*
G04 FullContactRelief:  No*
G04 UndefLineWidth:     6.00*
G04 ================== end FILE IDENTIFICATION RECORD ====================*
%FSLAX24Y24*MOIN*%
%IR0*IPPOS*OFA0.00000B0.00000*MIA0B0*SFA1.00000B1.00000*%
%ADD10C,.01*%
%ADD11C,.006*%
G75*
%LPD*%
G75*
G36*
G01X27114Y64910D02*
G03X27114Y64910I-64J0D01*
G37*
G36*
G01X38025Y60114D02*
X38025Y60014D01*
X38175Y60014D01*
X38175Y60114D01*
X38025Y60114D01*
G37*
G36*
G01X36264Y62083D02*
X36264Y61933D01*
X36364Y61933D01*
X36364Y62083D01*
X36264Y62083D01*
G37*
G36*
G01X36264Y63657D02*
X36264Y63507D01*
X36364Y63507D01*
X36364Y63657D01*
X36264Y63657D01*
G37*
G36*
G01X37395Y66106D02*
X37395Y66206D01*
X37545Y66206D01*
X37545Y66106D01*
X37395Y66106D01*
G37*
G36*
G01X38970Y66106D02*
X38970Y66206D01*
X39120Y66206D01*
X39120Y66106D01*
X38970Y66106D01*
G37*
G36*
G01X41175Y60114D02*
X41175Y60014D01*
X41325Y60014D01*
X41325Y60114D01*
X41175Y60114D01*
G37*
G36*
G01X39600Y60114D02*
X39600Y60014D01*
X39750Y60014D01*
X39750Y60114D01*
X39600Y60114D01*
G37*
G36*
G01X40545Y66106D02*
X40545Y66206D01*
X40695Y66206D01*
X40695Y66106D01*
X40545Y66106D01*
G37*
G36*
G01X42456Y62713D02*
X42456Y62563D01*
X42356Y62563D01*
X42356Y62713D01*
X42456Y62713D01*
G37*
G36*
G01X44514Y62653D02*
X44514Y62803D01*
X44614Y62803D01*
X44614Y62653D01*
X44514Y62653D01*
G37*
G36*
G01X42456Y64287D02*
X42456Y64137D01*
X42356Y64137D01*
X42356Y64287D01*
X42456Y64287D01*
G37*
G36*
G01X44514Y64227D02*
X44514Y64377D01*
X44614Y64377D01*
X44614Y64227D01*
X44514Y64227D01*
G37*
G36*
G01X48000Y60834D02*
X48000Y60734D01*
X47850Y60734D01*
X47850Y60834D01*
X48000Y60834D01*
G37*
G36*
G01X46425Y60834D02*
X46425Y60734D01*
X46275Y60734D01*
X46275Y60834D01*
X46425Y60834D01*
G37*
G36*
G01X45795Y66826D02*
X45795Y66926D01*
X45645Y66926D01*
X45645Y66826D01*
X45795Y66826D01*
G37*
G36*
G01X47370Y66826D02*
X47370Y66926D01*
X47220Y66926D01*
X47220Y66826D01*
X47370Y66826D01*
G37*
G36*
G01X49575Y60834D02*
X49575Y60734D01*
X49425Y60734D01*
X49425Y60834D01*
X49575Y60834D01*
G37*
G36*
G01X50706Y64857D02*
X50706Y65007D01*
X50606Y65007D01*
X50606Y64857D01*
X50706Y64857D01*
G37*
G36*
G01X50706Y63283D02*
X50706Y63433D01*
X50606Y63433D01*
X50606Y63283D01*
X50706Y63283D01*
G37*
G36*
G01X48945Y66826D02*
X48945Y66926D01*
X48795Y66926D01*
X48795Y66826D01*
X48945Y66826D01*
G37*
G54D10*
G01X41250Y73790D02*
X41250Y68840D01*
X48700Y68840D01*
X48700Y73790D01*
X41250Y73790D01*
G01X50140Y73930D02*
X53970Y73930D01*
G02X54130Y73770I0J-160D01*
G01X54130Y72720D01*
G02X53490Y72080I-640J0D01*
G01X49860Y72080D01*
G02X49090Y72850I0J770D01*
G01X49090Y73750D01*
G02X49270Y73930I180J0D01*
G01X50140Y73930D01*
G54D11*
G01X25710Y56500D02*
X57500Y56500D01*
X57500Y74010D01*
X25710Y74010D01*
X25710Y56500D01*
G01X25710Y56500D02*
X57500Y56500D01*
X57500Y74010D01*
X25710Y74010D01*
X25710Y56500D01*
G01X26255Y59180D02*
X26247Y59185D01*
X26247Y59195D01*
X26255Y59200D01*
X26263Y59195D01*
X26263Y59185D01*
X26255Y59180D01*
G01X26565Y59190D02*
X26565Y59500D01*
X26519Y59438D01*
G01X26519Y59190D02*
X26611Y59190D01*
G01X26810Y59397D02*
X26810Y59252D01*
X26825Y59216D01*
X26848Y59195D01*
X26875Y59190D01*
X26902Y59195D01*
X26925Y59216D01*
X26940Y59252D01*
G01X26940Y59190D02*
X26940Y59397D01*
G01X26365Y59004D02*
X26342Y59019D01*
X26316Y59030D01*
X26285Y59030D01*
X26250Y59014D01*
X26224Y58988D01*
X26204Y58957D01*
X26189Y58906D01*
X26185Y58859D01*
X26193Y58813D01*
X26204Y58782D01*
X26227Y58750D01*
X26254Y58730D01*
X26281Y58720D01*
X26308Y58720D01*
X26335Y58730D01*
X26358Y58745D01*
X26377Y58766D01*
G01X26507Y58766D02*
X26530Y58740D01*
X26556Y58725D01*
X26591Y58720D01*
X26626Y58730D01*
X26652Y58750D01*
X26672Y58787D01*
X26675Y58828D01*
X26668Y58869D01*
X26648Y58895D01*
X26622Y58916D01*
X26595Y58921D01*
X26568Y58916D01*
X26534Y58895D01*
X26545Y59030D01*
X26648Y59030D01*
G01X26828Y58849D02*
X26855Y58885D01*
X26878Y58906D01*
X26909Y58916D01*
X26936Y58906D01*
X26955Y58885D01*
X26970Y58854D01*
X26974Y58818D01*
X26970Y58787D01*
X26955Y58756D01*
X26932Y58730D01*
X26905Y58720D01*
X26874Y58730D01*
X26847Y58761D01*
X26832Y58807D01*
X26828Y58859D01*
X26836Y58926D01*
X26847Y58962D01*
X26867Y58999D01*
X26893Y59024D01*
X26920Y59030D01*
X26947Y59019D01*
X26966Y58993D01*
G01X26980Y61471D02*
X27202Y61471D01*
X27249Y61486D01*
X27280Y61517D01*
X27290Y61555D01*
X27280Y61593D01*
X27249Y61624D01*
X27202Y61639D01*
X26980Y61639D01*
G01X27290Y61865D02*
X26980Y61865D01*
X27042Y61819D01*
G01X27290Y61819D02*
X27290Y61911D01*
G01X27290Y62167D02*
X27223Y62175D01*
X27166Y62186D01*
X27114Y62202D01*
X27058Y62221D01*
X26980Y62252D01*
X26980Y62098D01*
G01X29190Y60290D02*
X29190Y63290D01*
X26190Y63290D01*
X26190Y60790D01*
X26690Y60290D01*
X29190Y60290D01*
G01X26988Y66047D02*
X27103Y65840D01*
G01X27103Y66047D02*
X26988Y65840D01*
G01X25994Y64727D02*
X26018Y64717D01*
X26048Y64727D01*
X26067Y64748D01*
X26083Y64774D01*
X26106Y64856D01*
X26156Y65027D01*
G01X26033Y65027D02*
X26106Y64856D01*
G01X26420Y64770D02*
X26280Y64910D01*
X27050Y64910D01*
X27050Y65570D01*
G01X26280Y64910D02*
X26420Y65050D01*
G01X27050Y65680D02*
X26890Y65520D01*
G01X27150Y64790D02*
G03X27150Y64790I-100J120D01*
G01X34357Y59527D02*
X34357Y65255D01*
X36857Y65255D01*
X36857Y66412D01*
X38825Y66412D01*
X38825Y68464D01*
X36857Y68464D01*
X36857Y69956D01*
X38825Y69956D01*
X38825Y72007D01*
X36857Y72007D01*
X36857Y73605D01*
X27723Y73605D01*
X27723Y72007D01*
X25755Y72007D01*
X25755Y69956D01*
X27723Y69956D01*
X27723Y68464D01*
X25755Y68464D01*
X25755Y66412D01*
X27723Y66412D01*
X27723Y65255D01*
X30223Y65255D01*
X30223Y59527D01*
X34357Y59527D01*
G01X28810Y56560D02*
X30890Y56560D01*
X30890Y58710D01*
X28810Y58710D01*
X28810Y56560D01*
G01X29212Y57505D02*
X29212Y56875D01*
X29528Y56875D01*
X29528Y57505D01*
X29212Y57505D01*
G01X29712Y57505D02*
X29712Y56875D01*
X30028Y56875D01*
X30028Y57505D01*
X29712Y57505D01*
G01X28790Y56500D02*
X27790Y56500D01*
X27790Y58500D01*
X28790Y58500D01*
X28790Y56500D01*
G01X28964Y58351D02*
X28995Y58326D01*
X29030Y58310D01*
X29060Y58310D01*
X29091Y58326D01*
X29114Y58351D01*
X29126Y58388D01*
X29118Y58424D01*
X29099Y58455D01*
X29064Y58475D01*
X29018Y58486D01*
X28991Y58506D01*
X28980Y58543D01*
X28988Y58579D01*
X29007Y58604D01*
X29034Y58620D01*
X29060Y58620D01*
X29087Y58610D01*
X29110Y58584D01*
G01X29432Y58310D02*
X29278Y58310D01*
X29278Y58620D01*
X29432Y58620D01*
G01X29370Y58470D02*
X29278Y58470D01*
G01X29577Y58310D02*
X29577Y58620D01*
X29753Y58310D01*
X29753Y58620D01*
G01X29894Y58351D02*
X29925Y58326D01*
X29960Y58310D01*
X29990Y58310D01*
X30021Y58326D01*
X30044Y58351D01*
X30056Y58388D01*
X30048Y58424D01*
X30029Y58455D01*
X29994Y58475D01*
X29948Y58486D01*
X29921Y58506D01*
X29910Y58543D01*
X29918Y58579D01*
X29937Y58604D01*
X29964Y58620D01*
X29990Y58620D01*
X30017Y58610D01*
X30040Y58584D01*
G01X30285Y58310D02*
X30254Y58315D01*
X30228Y58336D01*
X30204Y58367D01*
X30189Y58403D01*
X30182Y58444D01*
X30182Y58486D01*
X30189Y58527D01*
X30204Y58563D01*
X30228Y58594D01*
X30254Y58615D01*
X30285Y58620D01*
X30316Y58615D01*
X30342Y58594D01*
X30366Y58563D01*
X30381Y58527D01*
X30388Y58486D01*
X30388Y58444D01*
X30381Y58403D01*
X30366Y58367D01*
X30342Y58336D01*
X30316Y58315D01*
X30285Y58310D01*
G01X30518Y58310D02*
X30518Y58620D01*
X30614Y58620D01*
X30645Y58604D01*
X30664Y58584D01*
X30672Y58543D01*
X30664Y58501D01*
X30641Y58475D01*
X30614Y58460D01*
X30518Y58460D01*
G01X30614Y58460D02*
X30672Y58310D01*
G01X29445Y57880D02*
X29445Y58190D01*
X29545Y57932D01*
X29645Y58190D01*
X29645Y57880D01*
G01X29939Y58164D02*
X29916Y58180D01*
X29890Y58190D01*
X29859Y58190D01*
X29824Y58174D01*
X29798Y58149D01*
X29778Y58118D01*
X29763Y58066D01*
X29759Y58020D01*
X29767Y57973D01*
X29778Y57942D01*
X29801Y57911D01*
X29828Y57890D01*
X29855Y57880D01*
X29882Y57880D01*
X29909Y57890D01*
X29932Y57906D01*
X29951Y57926D01*
G01X30081Y58190D02*
X30081Y57968D01*
X30096Y57921D01*
X30127Y57890D01*
X30165Y57880D01*
X30203Y57890D01*
X30234Y57921D01*
X30249Y57968D01*
X30249Y58190D01*
G01X27911Y58543D02*
X27938Y58522D01*
X27969Y58517D01*
X27996Y58522D01*
X28019Y58548D01*
X28034Y58584D01*
X28034Y58827D01*
G01X28034Y58785D02*
X28019Y58806D01*
X27996Y58821D01*
X27969Y58827D01*
X27938Y58816D01*
X27919Y58796D01*
X27904Y58759D01*
X27896Y58723D01*
X27900Y58692D01*
X27915Y58656D01*
X27938Y58630D01*
X27969Y58620D01*
X27992Y58625D01*
X28019Y58646D01*
X28034Y58666D01*
G01X28210Y58620D02*
X28210Y58827D01*
G01X28210Y58775D02*
X28225Y58801D01*
X28248Y58821D01*
X28279Y58827D01*
X28306Y58821D01*
X28329Y58801D01*
X28340Y58765D01*
X28340Y58620D01*
G01X28654Y58930D02*
X28654Y58620D01*
G01X28654Y58666D02*
X28639Y58641D01*
X28616Y58625D01*
X28589Y58620D01*
X28558Y58630D01*
X28535Y58656D01*
X28520Y58687D01*
X28516Y58723D01*
X28520Y58759D01*
X28535Y58790D01*
X28558Y58816D01*
X28589Y58827D01*
X28616Y58821D01*
X28635Y58811D01*
X28654Y58790D01*
G01X29606Y57269D02*
X29134Y57269D01*
G01X30106Y57269D02*
X29634Y57269D01*
G01X27985Y59328D02*
X27355Y59328D01*
X27355Y59012D01*
X27985Y59012D01*
X27985Y59328D01*
G01X29865Y61440D02*
X29865Y60440D01*
X34715Y60440D01*
X34715Y61440D01*
X29865Y61440D01*
G01X27288Y65017D02*
X27402Y65017D01*
X27288Y64810D01*
X27402Y64810D01*
G01X27050Y65570D02*
X27050Y65680D01*
X27210Y65520D01*
G01X30980Y56560D02*
X33060Y56560D01*
X33060Y58710D01*
X30980Y58710D01*
X30980Y56560D01*
G01X31372Y57505D02*
X31372Y56875D01*
X31688Y56875D01*
X31688Y57505D01*
X31372Y57505D01*
G01X31872Y57505D02*
X31872Y56875D01*
X32188Y56875D01*
X32188Y57505D01*
X31872Y57505D01*
G01X32372Y57505D02*
X32372Y56875D01*
X32688Y56875D01*
X32688Y57505D01*
X32372Y57505D01*
G01X30213Y57505D02*
X30213Y56875D01*
X30528Y56875D01*
X30528Y57505D01*
X30213Y57505D01*
G01X31179Y58594D02*
X31156Y58610D01*
X31129Y58620D01*
X31099Y58620D01*
X31064Y58604D01*
X31038Y58579D01*
X31018Y58548D01*
X31003Y58496D01*
X30999Y58450D01*
X31007Y58403D01*
X31018Y58372D01*
X31041Y58341D01*
X31068Y58320D01*
X31095Y58310D01*
X31122Y58310D01*
X31149Y58320D01*
X31172Y58336D01*
X31191Y58356D01*
G01X31405Y58310D02*
X31374Y58315D01*
X31348Y58336D01*
X31324Y58367D01*
X31309Y58403D01*
X31302Y58444D01*
X31302Y58486D01*
X31309Y58527D01*
X31324Y58563D01*
X31348Y58594D01*
X31374Y58615D01*
X31405Y58620D01*
X31436Y58615D01*
X31463Y58594D01*
X31486Y58563D01*
X31501Y58527D01*
X31508Y58486D01*
X31508Y58444D01*
X31501Y58403D01*
X31486Y58367D01*
X31463Y58336D01*
X31436Y58315D01*
X31405Y58310D01*
G01X31627Y58310D02*
X31627Y58620D01*
X31803Y58310D01*
X31803Y58620D01*
G01X32025Y58620D02*
X32025Y58310D01*
G01X31937Y58620D02*
X32113Y58620D01*
G01X32258Y58310D02*
X32258Y58620D01*
X32354Y58620D01*
X32385Y58604D01*
X32404Y58584D01*
X32412Y58543D01*
X32404Y58501D01*
X32381Y58475D01*
X32354Y58460D01*
X32258Y58460D01*
G01X32354Y58460D02*
X32412Y58310D01*
G01X32645Y58310D02*
X32614Y58315D01*
X32588Y58336D01*
X32564Y58367D01*
X32549Y58403D01*
X32542Y58444D01*
X32542Y58486D01*
X32549Y58527D01*
X32564Y58563D01*
X32588Y58594D01*
X32614Y58615D01*
X32645Y58620D01*
X32676Y58615D01*
X32702Y58594D01*
X32726Y58563D01*
X32741Y58527D01*
X32748Y58486D01*
X32748Y58444D01*
X32741Y58403D01*
X32726Y58367D01*
X32702Y58336D01*
X32676Y58315D01*
X32645Y58310D01*
G01X32878Y58620D02*
X32878Y58310D01*
X33032Y58310D01*
G01X31625Y57870D02*
X31625Y58180D01*
X31725Y57922D01*
X31825Y58180D01*
X31825Y57870D01*
G01X32119Y58154D02*
X32096Y58170D01*
X32070Y58180D01*
X32039Y58180D01*
X32004Y58164D01*
X31978Y58139D01*
X31958Y58108D01*
X31943Y58056D01*
X31939Y58010D01*
X31947Y57963D01*
X31958Y57932D01*
X31981Y57901D01*
X32008Y57880D01*
X32035Y57870D01*
X32062Y57870D01*
X32089Y57880D01*
X32112Y57896D01*
X32131Y57916D01*
G01X32261Y58180D02*
X32261Y57958D01*
X32276Y57911D01*
X32307Y57880D01*
X32345Y57870D01*
X32383Y57880D01*
X32414Y57911D01*
X32429Y57958D01*
X32429Y58180D01*
G01X31766Y57269D02*
X31294Y57269D01*
G01X32266Y57269D02*
X31794Y57269D01*
G01X32766Y57269D02*
X32294Y57269D01*
G01X30606Y57269D02*
X30134Y57269D01*
G01X30955Y59440D02*
X30947Y59445D01*
X30947Y59455D01*
X30955Y59460D01*
X30963Y59455D01*
X30963Y59445D01*
X30955Y59440D01*
G01X31265Y59450D02*
X31265Y59760D01*
X31219Y59698D01*
G01X31219Y59450D02*
X31311Y59450D01*
G01X31510Y59657D02*
X31510Y59512D01*
X31525Y59476D01*
X31548Y59455D01*
X31575Y59450D01*
X31602Y59455D01*
X31625Y59476D01*
X31640Y59512D01*
G01X31640Y59450D02*
X31640Y59657D01*
G01X33143Y59755D02*
X33120Y59770D01*
X33094Y59781D01*
X33063Y59781D01*
X33028Y59765D01*
X33002Y59739D01*
X32982Y59708D01*
X32967Y59656D01*
X32963Y59610D01*
X32971Y59564D01*
X32982Y59532D01*
X33005Y59502D01*
X33032Y59481D01*
X33059Y59470D01*
X33086Y59470D01*
X33113Y59481D01*
X33136Y59496D01*
X33155Y59517D01*
G01X33285Y59517D02*
X33308Y59491D01*
X33334Y59476D01*
X33369Y59470D01*
X33404Y59481D01*
X33430Y59502D01*
X33450Y59538D01*
X33453Y59579D01*
X33446Y59620D01*
X33426Y59646D01*
X33400Y59667D01*
X33373Y59672D01*
X33346Y59667D01*
X33312Y59646D01*
X33323Y59781D01*
X33426Y59781D01*
G01X33725Y59470D02*
X33725Y59781D01*
X33583Y59558D01*
X33775Y59558D01*
G01X31985Y59482D02*
X32615Y59482D01*
X32615Y59798D01*
X31985Y59798D01*
X31985Y59482D01*
G01X31911Y68848D02*
X31911Y68626D01*
X31926Y68579D01*
X31957Y68548D01*
X31995Y68538D01*
X32033Y68548D01*
X32064Y68579D01*
X32079Y68626D01*
X32079Y68848D01*
G01X32305Y68538D02*
X32305Y68848D01*
X32259Y68786D01*
G01X32259Y68538D02*
X32351Y68538D01*
G01X32661Y68538D02*
X32661Y68848D01*
X32519Y68626D01*
X32711Y68626D01*
G01X33113Y56560D02*
X35630Y56560D01*
X35630Y57630D01*
X33113Y57630D01*
X33113Y56560D01*
G01X34941Y57066D02*
X34941Y56594D01*
G01X34705Y56672D02*
X35335Y56672D01*
X35335Y56988D01*
X34705Y56988D01*
X34705Y56672D01*
G01X33799Y56594D02*
X33799Y57066D01*
G01X34035Y56988D02*
X33405Y56988D01*
X33405Y56672D01*
X34035Y56672D01*
X34035Y56988D01*
G01X36045Y56830D02*
X36045Y57140D01*
X35999Y57078D01*
G01X35999Y56830D02*
X36091Y56830D01*
G01X36355Y57140D02*
X36324Y57130D01*
X36301Y57104D01*
X36286Y57073D01*
X36274Y57032D01*
X36271Y56985D01*
X36274Y56938D01*
X36286Y56897D01*
X36301Y56866D01*
X36324Y56840D01*
X36355Y56830D01*
X36386Y56840D01*
X36409Y56866D01*
X36424Y56897D01*
X36436Y56938D01*
X36439Y56985D01*
X36436Y57032D01*
X36424Y57073D01*
X36409Y57104D01*
X36386Y57130D01*
X36355Y57140D01*
G01X36600Y57037D02*
X36600Y56892D01*
X36615Y56856D01*
X36638Y56835D01*
X36665Y56830D01*
X36692Y56835D01*
X36715Y56856D01*
X36730Y56892D01*
G01X36730Y56830D02*
X36730Y57037D01*
G01X33206Y57171D02*
X33206Y57481D01*
X33351Y57481D01*
G01X33298Y57331D02*
X33206Y57331D01*
G01X33492Y57171D02*
X33588Y57481D01*
X33684Y57171D01*
G01X33650Y57279D02*
X33527Y57279D01*
G01X33852Y57481D02*
X33944Y57481D01*
G01X33898Y57481D02*
X33898Y57171D01*
G01X33852Y57171D02*
X33944Y57171D01*
G01X34132Y57481D02*
X34132Y57171D01*
X34285Y57171D01*
G01X34438Y57212D02*
X34468Y57186D01*
X34503Y57171D01*
X34534Y57171D01*
X34564Y57186D01*
X34587Y57212D01*
X34599Y57248D01*
X34591Y57285D01*
X34572Y57316D01*
X34538Y57336D01*
X34492Y57347D01*
X34465Y57367D01*
X34453Y57403D01*
X34461Y57440D01*
X34480Y57465D01*
X34507Y57481D01*
X34534Y57481D01*
X34560Y57471D01*
X34584Y57445D01*
G01X34732Y57171D02*
X34828Y57481D01*
X34924Y57171D01*
G01X34890Y57279D02*
X34767Y57279D01*
G01X35066Y57171D02*
X35066Y57481D01*
X35211Y57481D01*
G01X35158Y57331D02*
X35066Y57331D01*
G01X35525Y57171D02*
X35372Y57171D01*
X35372Y57481D01*
X35525Y57481D01*
G01X35464Y57331D02*
X35372Y57331D01*
G01X33321Y58336D02*
X33344Y58311D01*
X33370Y58295D01*
X33405Y58290D01*
X33440Y58300D01*
X33466Y58321D01*
X33486Y58357D01*
X33489Y58398D01*
X33482Y58440D01*
X33462Y58466D01*
X33436Y58486D01*
X33409Y58492D01*
X33382Y58486D01*
X33348Y58466D01*
X33359Y58600D01*
X33462Y58600D01*
G01X33619Y58600D02*
X33715Y58290D01*
X33811Y58600D01*
G01X33929Y58290D02*
X34025Y58600D01*
X34121Y58290D01*
G01X34086Y58398D02*
X33964Y58398D01*
G01X34460Y58362D02*
X34483Y58326D01*
X34514Y58306D01*
X34548Y58300D01*
X34579Y58306D01*
X34610Y58331D01*
X34629Y58362D01*
X34633Y58393D01*
X34625Y58430D01*
X34598Y58455D01*
X34571Y58466D01*
X34537Y58466D01*
G01X34571Y58466D02*
X34594Y58481D01*
X34614Y58507D01*
X34621Y58538D01*
X34614Y58569D01*
X34594Y58595D01*
X34560Y58610D01*
X34525Y58605D01*
X34491Y58585D01*
G01X34759Y58610D02*
X34855Y58300D01*
X34950Y58610D01*
G01X35080Y58362D02*
X35103Y58326D01*
X35134Y58306D01*
X35168Y58300D01*
X35199Y58306D01*
X35230Y58331D01*
X35249Y58362D01*
X35253Y58393D01*
X35245Y58430D01*
X35218Y58455D01*
X35191Y58466D01*
X35157Y58466D01*
G01X35191Y58466D02*
X35214Y58481D01*
X35234Y58507D01*
X35241Y58538D01*
X35234Y58569D01*
X35214Y58595D01*
X35180Y58610D01*
X35145Y58605D01*
X35111Y58585D01*
G01X35390Y58300D02*
X35390Y58610D01*
X35467Y58610D01*
X35498Y58595D01*
X35521Y58574D01*
X35540Y58543D01*
X35555Y58507D01*
X35559Y58455D01*
X35555Y58404D01*
X35540Y58368D01*
X35521Y58336D01*
X35498Y58316D01*
X35467Y58300D01*
X35390Y58300D01*
G01X33113Y57690D02*
X34340Y57690D01*
X34340Y58711D01*
X33113Y58711D01*
X33113Y57690D01*
G01X34403Y57690D02*
X35630Y57690D01*
X35630Y58711D01*
X34403Y58711D01*
X34403Y57690D01*
G01X34941Y58176D02*
X34941Y57704D01*
G01X34705Y57782D02*
X35335Y57782D01*
X35335Y58098D01*
X34705Y58098D01*
X34705Y57782D01*
G01X33799Y57704D02*
X33799Y58176D01*
G01X34035Y58098D02*
X33405Y58098D01*
X33405Y57782D01*
X34035Y57782D01*
X34035Y58098D01*
G01X36054Y58832D02*
X36031Y58847D01*
X36004Y58858D01*
X35973Y58858D01*
X35939Y58842D01*
X35912Y58816D01*
X35893Y58785D01*
X35878Y58734D01*
X35874Y58687D01*
X35881Y58641D01*
X35893Y58610D01*
X35916Y58579D01*
X35943Y58558D01*
X35970Y58548D01*
X35996Y58548D01*
X36023Y58558D01*
X36046Y58573D01*
X36065Y58594D01*
G01X36195Y58594D02*
X36218Y58568D01*
X36245Y58553D01*
X36280Y58548D01*
X36314Y58558D01*
X36341Y58579D01*
X36360Y58615D01*
X36364Y58656D01*
X36356Y58697D01*
X36337Y58723D01*
X36310Y58744D01*
X36283Y58749D01*
X36256Y58744D01*
X36222Y58723D01*
X36234Y58858D01*
X36337Y58858D01*
G01X36590Y58858D02*
X36559Y58847D01*
X36536Y58821D01*
X36521Y58790D01*
X36509Y58749D01*
X36505Y58703D01*
X36509Y58656D01*
X36521Y58615D01*
X36536Y58584D01*
X36559Y58558D01*
X36590Y58548D01*
X36620Y58558D01*
X36643Y58584D01*
X36658Y58615D01*
X36670Y58656D01*
X36674Y58703D01*
X36670Y58749D01*
X36658Y58790D01*
X36643Y58821D01*
X36620Y58847D01*
X36590Y58858D01*
G01X34965Y62210D02*
X34957Y62215D01*
X34957Y62225D01*
X34965Y62230D01*
X34973Y62225D01*
X34973Y62215D01*
X34965Y62210D01*
G01X35275Y62220D02*
X35275Y62530D01*
X35229Y62468D01*
G01X35229Y62220D02*
X35321Y62220D01*
G01X35520Y62427D02*
X35520Y62282D01*
X35535Y62246D01*
X35558Y62225D01*
X35585Y62220D01*
X35612Y62225D01*
X35635Y62246D01*
X35650Y62282D01*
G01X35650Y62220D02*
X35650Y62427D01*
G01X35360Y62900D02*
X35337Y62916D01*
X35310Y62926D01*
X35279Y62926D01*
X35245Y62910D01*
X35218Y62885D01*
X35199Y62854D01*
X35184Y62802D01*
X35180Y62756D01*
X35187Y62709D01*
X35199Y62678D01*
X35222Y62647D01*
X35249Y62626D01*
X35276Y62616D01*
X35302Y62616D01*
X35329Y62626D01*
X35352Y62642D01*
X35371Y62662D01*
G01X35501Y62662D02*
X35524Y62637D01*
X35551Y62621D01*
X35586Y62616D01*
X35620Y62626D01*
X35647Y62647D01*
X35666Y62683D01*
X35670Y62724D01*
X35662Y62766D01*
X35643Y62792D01*
X35616Y62812D01*
X35589Y62818D01*
X35562Y62812D01*
X35528Y62792D01*
X35540Y62926D01*
X35643Y62926D01*
G01X35832Y62945D02*
X35832Y62315D01*
X36148Y62315D01*
X36148Y62945D01*
X35832Y62945D01*
G01X34975Y63650D02*
X34967Y63655D01*
X34967Y63665D01*
X34975Y63670D01*
X34983Y63665D01*
X34983Y63655D01*
X34975Y63650D01*
G01X35285Y63660D02*
X35285Y63970D01*
X35239Y63908D01*
G01X35239Y63660D02*
X35331Y63660D01*
G01X35530Y63867D02*
X35530Y63722D01*
X35545Y63686D01*
X35568Y63665D01*
X35595Y63660D01*
X35622Y63665D01*
X35645Y63686D01*
X35660Y63722D01*
G01X35660Y63660D02*
X35660Y63867D01*
G01X35183Y64235D02*
X35160Y64250D01*
X35134Y64260D01*
X35103Y64260D01*
X35068Y64245D01*
X35042Y64219D01*
X35022Y64188D01*
X35007Y64136D01*
X35003Y64090D01*
X35011Y64044D01*
X35022Y64012D01*
X35045Y63981D01*
X35072Y63961D01*
X35099Y63950D01*
X35126Y63950D01*
X35153Y63961D01*
X35176Y63976D01*
X35195Y63997D01*
G01X35455Y63950D02*
X35455Y64260D01*
X35313Y64038D01*
X35505Y64038D01*
G01X35435Y64352D02*
X36065Y64352D01*
X36065Y64668D01*
X35435Y64668D01*
X35435Y64352D01*
G01X34065Y63240D02*
X34065Y63550D01*
X34019Y63488D01*
G01X34019Y63240D02*
X34111Y63240D01*
G01X34310Y63240D02*
X34310Y63447D01*
G01X34310Y63395D02*
X34325Y63421D01*
X34348Y63442D01*
X34379Y63447D01*
X34406Y63442D01*
X34429Y63421D01*
X34440Y63385D01*
X34440Y63240D01*
G01X33859Y65098D02*
X33836Y65114D01*
X33809Y65124D01*
X33778Y65124D01*
X33744Y65109D01*
X33717Y65083D01*
X33698Y65052D01*
X33682Y65000D01*
X33679Y64954D01*
X33686Y64907D01*
X33698Y64876D01*
X33721Y64845D01*
X33748Y64824D01*
X33774Y64814D01*
X33801Y64814D01*
X33828Y64824D01*
X33851Y64840D01*
X33870Y64861D01*
G01X34012Y65072D02*
X34035Y65103D01*
X34062Y65119D01*
X34092Y65124D01*
X34130Y65114D01*
X34157Y65088D01*
X34165Y65057D01*
X34161Y65026D01*
X34146Y65000D01*
X34069Y64948D01*
X34035Y64912D01*
X34012Y64861D01*
X34004Y64814D01*
X34165Y64814D01*
G01X34322Y64943D02*
X34348Y64979D01*
X34372Y65000D01*
X34402Y65010D01*
X34429Y65000D01*
X34448Y64979D01*
X34464Y64948D01*
X34467Y64912D01*
X34464Y64881D01*
X34448Y64850D01*
X34425Y64824D01*
X34398Y64814D01*
X34368Y64824D01*
X34341Y64855D01*
X34326Y64902D01*
X34322Y64954D01*
X34329Y65021D01*
X34341Y65057D01*
X34360Y65093D01*
X34387Y65119D01*
X34414Y65124D01*
X34440Y65114D01*
X34460Y65088D01*
G01X34358Y63865D02*
X34358Y64495D01*
X34042Y64495D01*
X34042Y63865D01*
X34358Y63865D01*
G01X38166Y56815D02*
G02X38206Y56776I0J-39D01*
G02X38166Y56736I-39J0D01*
G02X38127Y56776I0J39D01*
G02X38166Y56815I39J0D01*
G01X39347Y58547D02*
X37773Y58547D01*
X37773Y56973D01*
X39347Y56973D01*
X39347Y58547D01*
G01X36655Y56580D02*
X36647Y56585D01*
X36647Y56595D01*
X36655Y56600D01*
X36663Y56595D01*
X36663Y56585D01*
X36655Y56580D01*
G01X36965Y56590D02*
X36965Y56900D01*
X36919Y56838D01*
G01X36919Y56590D02*
X37011Y56590D01*
G01X37210Y56797D02*
X37210Y56652D01*
X37225Y56616D01*
X37248Y56595D01*
X37275Y56590D01*
X37302Y56595D01*
X37325Y56616D01*
X37340Y56652D01*
G01X37340Y56590D02*
X37340Y56797D01*
G01X38975Y57554D02*
X38975Y57776D01*
X38960Y57823D01*
X38929Y57854D01*
X38891Y57864D01*
X38852Y57854D01*
X38822Y57823D01*
X38806Y57776D01*
X38806Y57554D01*
G01X38581Y57864D02*
X38581Y57554D01*
X38627Y57616D01*
G01X38627Y57864D02*
X38535Y57864D01*
G01X38355Y57818D02*
X38332Y57844D01*
X38305Y57859D01*
X38271Y57864D01*
X38236Y57854D01*
X38210Y57833D01*
X38190Y57797D01*
X38186Y57756D01*
X38194Y57714D01*
X38213Y57689D01*
X38240Y57668D01*
X38267Y57663D01*
X38294Y57668D01*
X38328Y57689D01*
X38317Y57554D01*
X38213Y57554D01*
G01X39594Y59266D02*
X38806Y59266D01*
X38806Y58774D01*
X39594Y58774D01*
X39594Y59266D01*
G01X36414Y58204D02*
X36414Y57416D01*
X36906Y57416D01*
X36906Y58204D01*
X36414Y58204D01*
G01X38785Y59350D02*
X38777Y59355D01*
X38777Y59365D01*
X38785Y59370D01*
X38793Y59365D01*
X38793Y59355D01*
X38785Y59350D01*
G01X39095Y59360D02*
X39095Y59670D01*
X39049Y59608D01*
G01X39049Y59360D02*
X39141Y59360D01*
G01X39340Y59567D02*
X39340Y59422D01*
X39355Y59386D01*
X39378Y59365D01*
X39405Y59360D01*
X39432Y59365D01*
X39455Y59386D01*
X39470Y59422D01*
G01X39470Y59360D02*
X39470Y59567D01*
G01X38863Y60155D02*
X38840Y60170D01*
X38814Y60181D01*
X38783Y60181D01*
X38748Y60165D01*
X38722Y60139D01*
X38702Y60108D01*
X38687Y60056D01*
X38683Y60010D01*
X38691Y59964D01*
X38702Y59932D01*
X38725Y59902D01*
X38752Y59881D01*
X38779Y59870D01*
X38806Y59870D01*
X38833Y59881D01*
X38856Y59896D01*
X38875Y59917D01*
G01X39005Y59932D02*
X39028Y59896D01*
X39058Y59876D01*
X39093Y59870D01*
X39124Y59876D01*
X39154Y59902D01*
X39173Y59932D01*
X39177Y59964D01*
X39170Y60000D01*
X39143Y60026D01*
X39116Y60036D01*
X39081Y60036D01*
G01X39116Y60036D02*
X39139Y60051D01*
X39158Y60077D01*
X39166Y60108D01*
X39158Y60139D01*
X39139Y60165D01*
X39104Y60181D01*
X39070Y60175D01*
X39035Y60155D01*
G01X38795Y59572D02*
X39425Y59572D01*
X39425Y59888D01*
X38795Y59888D01*
X38795Y59572D01*
G01X36595Y59160D02*
X36587Y59165D01*
X36587Y59175D01*
X36595Y59180D01*
X36603Y59175D01*
X36603Y59165D01*
X36595Y59160D01*
G01X36905Y59170D02*
X36905Y59480D01*
X36859Y59418D01*
G01X36859Y59170D02*
X36951Y59170D01*
G01X37150Y59377D02*
X37150Y59232D01*
X37165Y59196D01*
X37188Y59175D01*
X37215Y59170D01*
X37242Y59175D01*
X37265Y59196D01*
X37280Y59232D01*
G01X37280Y59170D02*
X37280Y59377D01*
G01X36975Y59854D02*
X36952Y59869D01*
X36926Y59880D01*
X36895Y59880D01*
X36860Y59864D01*
X36834Y59838D01*
X36814Y59807D01*
X36799Y59756D01*
X36795Y59709D01*
X36803Y59663D01*
X36814Y59632D01*
X36837Y59601D01*
X36864Y59580D01*
X36891Y59570D01*
X36918Y59570D01*
X36945Y59580D01*
X36968Y59595D01*
X36987Y59616D01*
G01X37128Y59828D02*
X37151Y59859D01*
X37178Y59874D01*
X37209Y59880D01*
X37247Y59869D01*
X37274Y59843D01*
X37282Y59812D01*
X37278Y59781D01*
X37262Y59756D01*
X37186Y59704D01*
X37151Y59668D01*
X37128Y59616D01*
X37120Y59570D01*
X37282Y59570D01*
G01X38215Y59888D02*
X37585Y59888D01*
X37585Y59572D01*
X38215Y59572D01*
X38215Y59888D01*
G01X36920Y58990D02*
X36897Y59006D01*
X36870Y59016D01*
X36839Y59016D01*
X36805Y59000D01*
X36778Y58975D01*
X36759Y58944D01*
X36744Y58892D01*
X36740Y58846D01*
X36747Y58799D01*
X36759Y58768D01*
X36782Y58737D01*
X36809Y58716D01*
X36836Y58706D01*
X36862Y58706D01*
X36889Y58716D01*
X36912Y58732D01*
X36931Y58752D01*
G01X37073Y58835D02*
X37100Y58871D01*
X37122Y58892D01*
X37153Y58902D01*
X37180Y58892D01*
X37199Y58871D01*
X37214Y58840D01*
X37218Y58804D01*
X37214Y58773D01*
X37199Y58742D01*
X37176Y58716D01*
X37149Y58706D01*
X37119Y58716D01*
X37092Y58747D01*
X37076Y58794D01*
X37073Y58846D01*
X37080Y58913D01*
X37092Y58949D01*
X37111Y58985D01*
X37138Y59011D01*
X37165Y59016D01*
X37192Y59006D01*
X37211Y58980D01*
G01X37456Y58706D02*
X37482Y58711D01*
X37513Y58727D01*
X37532Y58752D01*
X37540Y58789D01*
X37532Y58825D01*
X37509Y58856D01*
X37475Y58871D01*
X37436Y58871D01*
X37413Y58882D01*
X37394Y58908D01*
X37386Y58944D01*
X37398Y58980D01*
X37425Y59006D01*
X37456Y59016D01*
X37486Y59006D01*
X37513Y58980D01*
X37524Y58944D01*
X37517Y58908D01*
X37498Y58882D01*
X37475Y58871D01*
X37436Y58871D01*
X37402Y58856D01*
X37379Y58825D01*
X37371Y58789D01*
X37379Y58752D01*
X37398Y58727D01*
X37429Y58711D01*
X37456Y58706D01*
G01X37172Y58125D02*
X37172Y57495D01*
X37488Y57495D01*
X37488Y58125D01*
X37172Y58125D01*
G01X36200Y64909D02*
X36368Y65136D01*
G01X36284Y65177D02*
X36284Y64867D01*
G01X36368Y64909D02*
X36200Y65136D01*
G01X36169Y65022D02*
X36399Y65022D01*
G01X38910Y67555D02*
X38915Y67563D01*
X38925Y67563D01*
X38930Y67555D01*
X38925Y67547D01*
X38915Y67547D01*
X38910Y67555D01*
G01X38920Y67245D02*
X39230Y67245D01*
X39168Y67291D01*
G01X38920Y67291D02*
X38920Y67199D01*
G01X39127Y67000D02*
X38982Y67000D01*
X38946Y66985D01*
X38925Y66962D01*
X38920Y66935D01*
X38925Y66908D01*
X38946Y66885D01*
X38982Y66870D01*
G01X38920Y66870D02*
X39127Y66870D01*
G01X39185Y66567D02*
X39200Y66590D01*
X39210Y66616D01*
X39210Y66647D01*
X39195Y66682D01*
X39169Y66708D01*
X39138Y66728D01*
X39086Y66743D01*
X39040Y66747D01*
X38994Y66739D01*
X38962Y66728D01*
X38932Y66705D01*
X38911Y66678D01*
X38901Y66651D01*
X38901Y66624D01*
X38911Y66597D01*
X38926Y66574D01*
X38947Y66555D01*
G01X38937Y66406D02*
X38911Y66379D01*
X38901Y66349D01*
X38911Y66318D01*
X38942Y66291D01*
X38988Y66272D01*
X39035Y66264D01*
X39092Y66264D01*
X39138Y66272D01*
X39180Y66291D01*
X39200Y66314D01*
X39210Y66341D01*
X39200Y66372D01*
X39180Y66395D01*
X39148Y66410D01*
X39107Y66418D01*
X39071Y66410D01*
X39035Y66391D01*
X39014Y66368D01*
X39009Y66341D01*
X39019Y66310D01*
X39045Y66287D01*
X39092Y66264D01*
G01X38820Y71430D02*
X41020Y71430D01*
X41020Y73990D01*
X38820Y73990D01*
X38820Y71430D01*
G01X38648Y70261D02*
X38684Y70284D01*
X38705Y70314D01*
X38710Y70349D01*
X38705Y70380D01*
X38679Y70410D01*
X38648Y70429D01*
X38617Y70433D01*
X38581Y70426D01*
X38555Y70399D01*
X38545Y70372D01*
X38545Y70337D01*
G01X38545Y70372D02*
X38529Y70395D01*
X38503Y70414D01*
X38472Y70422D01*
X38441Y70414D01*
X38416Y70395D01*
X38400Y70360D01*
X38405Y70326D01*
X38426Y70291D01*
G01X38710Y70590D02*
X38400Y70590D01*
G01X38503Y70712D02*
X38622Y70590D01*
G01X38576Y70640D02*
X38710Y70720D01*
G01X38648Y70881D02*
X38684Y70904D01*
X38705Y70934D01*
X38710Y70969D01*
X38705Y71000D01*
X38679Y71030D01*
X38648Y71049D01*
X38617Y71053D01*
X38581Y71046D01*
X38555Y71019D01*
X38545Y70992D01*
X38545Y70957D01*
G01X38545Y70992D02*
X38529Y71015D01*
X38503Y71034D01*
X38472Y71042D01*
X38441Y71034D01*
X38416Y71015D01*
X38400Y70980D01*
X38405Y70946D01*
X38426Y70911D01*
G01X38720Y69112D02*
X38410Y69112D01*
X38410Y69208D01*
X38425Y69239D01*
X38446Y69258D01*
X38487Y69266D01*
X38528Y69258D01*
X38554Y69235D01*
X38570Y69208D01*
X38570Y69112D01*
G01X38570Y69208D02*
X38720Y69266D01*
G01X38461Y69426D02*
X38430Y69449D01*
X38415Y69476D01*
X38410Y69507D01*
X38420Y69545D01*
X38446Y69572D01*
X38477Y69580D01*
X38508Y69576D01*
X38534Y69560D01*
X38585Y69484D01*
X38621Y69449D01*
X38673Y69426D01*
X38720Y69418D01*
X38720Y69580D01*
G01X38720Y69801D02*
X38652Y69809D01*
X38596Y69820D01*
X38544Y69836D01*
X38487Y69855D01*
X38410Y69886D01*
X38410Y69732D01*
G01X39288Y70315D02*
X39288Y70945D01*
X38972Y70945D01*
X38972Y70315D01*
X39288Y70315D01*
G01X38560Y73827D02*
X38712Y73827D01*
G01X38630Y73935D02*
X38630Y73718D01*
G01X41040Y57208D02*
X41351Y57208D01*
X41351Y57112D01*
X41335Y57081D01*
X41314Y57062D01*
X41273Y57054D01*
X41232Y57062D01*
X41206Y57085D01*
X41190Y57112D01*
X41190Y57208D01*
G01X41190Y57112D02*
X41040Y57054D01*
G01X41040Y56775D02*
X41351Y56775D01*
X41128Y56917D01*
X41128Y56725D01*
G01X39770Y58589D02*
X40080Y58589D01*
X39858Y58731D01*
X39858Y58539D01*
G01X39770Y58390D02*
X40080Y58390D01*
G01X39977Y58268D02*
X39858Y58390D01*
G01X39904Y58340D02*
X39770Y58260D01*
G01X39770Y58023D02*
X39837Y58015D01*
X39894Y58004D01*
X39946Y57988D01*
X40002Y57969D01*
X40080Y57938D01*
X40080Y58092D01*
G01X39660Y57706D02*
X39970Y57706D01*
X39970Y57610D01*
X39954Y57579D01*
X39933Y57560D01*
X39892Y57552D01*
X39851Y57560D01*
X39825Y57583D01*
X39809Y57610D01*
X39809Y57706D01*
G01X39809Y57610D02*
X39660Y57552D01*
G01X39722Y57403D02*
X39685Y57380D01*
X39665Y57350D01*
X39660Y57315D01*
X39665Y57284D01*
X39690Y57254D01*
X39722Y57235D01*
X39752Y57231D01*
X39789Y57239D01*
X39814Y57265D01*
X39825Y57292D01*
X39825Y57327D01*
G01X39825Y57292D02*
X39840Y57269D01*
X39866Y57250D01*
X39897Y57242D01*
X39928Y57250D01*
X39954Y57269D01*
X39970Y57304D01*
X39964Y57338D01*
X39944Y57373D01*
G01X40388Y57065D02*
X40388Y57695D01*
X40072Y57695D01*
X40072Y57065D01*
X40388Y57065D01*
G01X41080Y58039D02*
X41390Y58039D01*
X41168Y58181D01*
X41168Y57989D01*
G01X41080Y57840D02*
X41390Y57840D01*
G01X41287Y57718D02*
X41168Y57840D01*
G01X41214Y57790D02*
X41080Y57710D01*
G01X41080Y57473D02*
X41147Y57465D01*
X41204Y57454D01*
X41256Y57438D01*
X41312Y57419D01*
X41390Y57388D01*
X41390Y57542D01*
G01X40642Y57695D02*
X40642Y57065D01*
X40958Y57065D01*
X40958Y57695D01*
X40642Y57695D01*
G01X40051Y58710D02*
X40051Y59020D01*
X39909Y58798D01*
X40101Y58798D01*
G01X40250Y58917D02*
X40250Y58772D01*
X40265Y58736D01*
X40288Y58715D01*
X40315Y58710D01*
X40342Y58715D01*
X40365Y58736D01*
X40380Y58772D01*
G01X40380Y58710D02*
X40380Y58917D01*
G01X40617Y58710D02*
X40625Y58777D01*
X40636Y58834D01*
X40652Y58886D01*
X40671Y58943D01*
X40702Y59020D01*
X40548Y59020D01*
G01X40077Y59350D02*
X40054Y59365D01*
X40027Y59376D01*
X39996Y59376D01*
X39962Y59360D01*
X39935Y59334D01*
X39916Y59303D01*
X39900Y59251D01*
X39897Y59205D01*
X39904Y59159D01*
X39916Y59128D01*
X39939Y59096D01*
X39966Y59076D01*
X39992Y59066D01*
X40019Y59066D01*
X40046Y59076D01*
X40069Y59091D01*
X40088Y59112D01*
G01X40348Y59066D02*
X40348Y59376D01*
X40207Y59153D01*
X40398Y59153D01*
G01X40547Y59102D02*
X40574Y59076D01*
X40605Y59066D01*
X40636Y59076D01*
X40662Y59107D01*
X40682Y59153D01*
X40689Y59200D01*
X40689Y59257D01*
X40682Y59303D01*
X40662Y59344D01*
X40639Y59365D01*
X40612Y59376D01*
X40582Y59365D01*
X40559Y59344D01*
X40544Y59314D01*
X40536Y59272D01*
X40544Y59236D01*
X40563Y59200D01*
X40586Y59179D01*
X40612Y59174D01*
X40643Y59184D01*
X40666Y59210D01*
X40689Y59257D01*
G01X40985Y59300D02*
X40977Y59305D01*
X40977Y59315D01*
X40985Y59320D01*
X40993Y59315D01*
X40993Y59305D01*
X40985Y59300D01*
G01X41295Y59310D02*
X41295Y59620D01*
X41249Y59558D01*
G01X41249Y59310D02*
X41341Y59310D01*
G01X41540Y59517D02*
X41540Y59372D01*
X41555Y59336D01*
X41578Y59315D01*
X41605Y59310D01*
X41632Y59315D01*
X41655Y59336D01*
X41670Y59372D01*
G01X41670Y59310D02*
X41670Y59517D01*
G01X41363Y59955D02*
X41340Y59970D01*
X41314Y59980D01*
X41283Y59980D01*
X41248Y59965D01*
X41221Y59939D01*
X41202Y59908D01*
X41187Y59856D01*
X41183Y59810D01*
X41191Y59764D01*
X41202Y59732D01*
X41225Y59701D01*
X41252Y59681D01*
X41279Y59671D01*
X41306Y59671D01*
X41333Y59681D01*
X41356Y59696D01*
X41375Y59717D01*
G01X41516Y59800D02*
X41543Y59836D01*
X41566Y59856D01*
X41597Y59867D01*
X41624Y59856D01*
X41643Y59836D01*
X41658Y59805D01*
X41662Y59769D01*
X41658Y59738D01*
X41643Y59707D01*
X41620Y59681D01*
X41593Y59671D01*
X41562Y59681D01*
X41535Y59712D01*
X41520Y59758D01*
X41516Y59810D01*
X41524Y59877D01*
X41535Y59913D01*
X41554Y59950D01*
X41581Y59975D01*
X41608Y59980D01*
X41635Y59970D01*
X41654Y59944D01*
G01X40225Y59522D02*
X40855Y59522D01*
X40855Y59838D01*
X40225Y59838D01*
X40225Y59522D01*
G01X39121Y63170D02*
X39121Y62948D01*
X39136Y62901D01*
X39167Y62870D01*
X39205Y62860D01*
X39243Y62870D01*
X39274Y62901D01*
X39289Y62948D01*
X39289Y63170D01*
G01X39515Y62860D02*
X39515Y63170D01*
X39469Y63108D01*
G01X39469Y62860D02*
X39561Y62860D01*
G01X39602Y68668D02*
X39625Y68699D01*
X39652Y68715D01*
X39683Y68720D01*
X39721Y68710D01*
X39748Y68684D01*
X39756Y68653D01*
X39752Y68622D01*
X39736Y68596D01*
X39660Y68544D01*
X39625Y68508D01*
X39602Y68456D01*
X39594Y68410D01*
X39756Y68410D01*
G01X39920Y68617D02*
X39920Y68472D01*
X39935Y68436D01*
X39958Y68415D01*
X39985Y68410D01*
X40012Y68415D01*
X40035Y68436D01*
X40050Y68472D01*
G01X40050Y68410D02*
X40050Y68617D01*
G01X40222Y68668D02*
X40245Y68699D01*
X40272Y68715D01*
X40303Y68720D01*
X40341Y68710D01*
X40368Y68684D01*
X40376Y68653D01*
X40372Y68622D01*
X40356Y68596D01*
X40280Y68544D01*
X40245Y68508D01*
X40222Y68456D01*
X40214Y68410D01*
X40376Y68410D01*
G01X39757Y69130D02*
X39734Y69145D01*
X39707Y69156D01*
X39676Y69156D01*
X39642Y69140D01*
X39615Y69114D01*
X39596Y69083D01*
X39580Y69032D01*
X39577Y68985D01*
X39584Y68938D01*
X39596Y68908D01*
X39619Y68876D01*
X39646Y68856D01*
X39672Y68846D01*
X39699Y68846D01*
X39726Y68856D01*
X39749Y68871D01*
X39768Y68892D01*
G01X39898Y68892D02*
X39921Y68866D01*
X39948Y68851D01*
X39982Y68846D01*
X40017Y68856D01*
X40044Y68876D01*
X40063Y68913D01*
X40067Y68954D01*
X40059Y68995D01*
X40040Y69021D01*
X40013Y69042D01*
X39986Y69047D01*
X39960Y69042D01*
X39925Y69021D01*
X39936Y69156D01*
X40040Y69156D01*
G01X40227Y68882D02*
X40254Y68856D01*
X40285Y68846D01*
X40316Y68856D01*
X40342Y68887D01*
X40362Y68933D01*
X40369Y68980D01*
X40369Y69037D01*
X40362Y69083D01*
X40342Y69124D01*
X40319Y69145D01*
X40292Y69156D01*
X40262Y69145D01*
X40239Y69124D01*
X40224Y69094D01*
X40216Y69052D01*
X40224Y69016D01*
X40243Y68980D01*
X40266Y68959D01*
X40292Y68954D01*
X40323Y68964D01*
X40346Y68990D01*
X40369Y69037D01*
G01X40975Y67390D02*
X40975Y67700D01*
X40929Y67638D01*
G01X40929Y67390D02*
X41021Y67390D01*
G01X41285Y67700D02*
X41254Y67690D01*
X41231Y67664D01*
X41216Y67633D01*
X41204Y67592D01*
X41201Y67545D01*
X41204Y67498D01*
X41216Y67457D01*
X41231Y67426D01*
X41254Y67400D01*
X41285Y67390D01*
X41316Y67400D01*
X41339Y67426D01*
X41354Y67457D01*
X41366Y67498D01*
X41369Y67545D01*
X41366Y67592D01*
X41354Y67633D01*
X41339Y67664D01*
X41316Y67690D01*
X41285Y67700D01*
G01X41530Y67597D02*
X41530Y67452D01*
X41545Y67416D01*
X41568Y67395D01*
X41595Y67390D01*
X41622Y67395D01*
X41645Y67416D01*
X41660Y67452D01*
G01X41660Y67390D02*
X41660Y67597D01*
G01X41324Y68082D02*
X41301Y68097D01*
X41274Y68108D01*
X41243Y68108D01*
X41209Y68092D01*
X41182Y68066D01*
X41163Y68035D01*
X41148Y67984D01*
X41144Y67937D01*
X41151Y67890D01*
X41163Y67860D01*
X41186Y67828D01*
X41213Y67808D01*
X41240Y67798D01*
X41266Y67798D01*
X41293Y67808D01*
X41316Y67823D01*
X41335Y67844D01*
G01X41465Y67860D02*
X41488Y67823D01*
X41519Y67803D01*
X41553Y67798D01*
X41584Y67803D01*
X41615Y67828D01*
X41634Y67860D01*
X41638Y67890D01*
X41630Y67927D01*
X41603Y67952D01*
X41576Y67963D01*
X41542Y67963D01*
G01X41576Y67963D02*
X41599Y67978D01*
X41618Y68004D01*
X41626Y68035D01*
X41618Y68066D01*
X41599Y68092D01*
X41565Y68108D01*
X41530Y68102D01*
X41496Y68082D01*
G01X41852Y67798D02*
X41860Y67865D01*
X41871Y67922D01*
X41886Y67973D01*
X41906Y68030D01*
X41936Y68108D01*
X41783Y68108D01*
G01X41804Y67474D02*
X41804Y66686D01*
X42296Y66686D01*
X42296Y67474D01*
X41804Y67474D01*
G01X40480Y67215D02*
X40790Y67215D01*
X40728Y67261D01*
G01X40480Y67261D02*
X40480Y67169D01*
G01X40790Y66905D02*
X40780Y66936D01*
X40754Y66959D01*
X40723Y66974D01*
X40682Y66986D01*
X40635Y66989D01*
X40588Y66986D01*
X40547Y66974D01*
X40516Y66959D01*
X40490Y66936D01*
X40480Y66905D01*
X40490Y66874D01*
X40516Y66851D01*
X40547Y66836D01*
X40588Y66824D01*
X40635Y66821D01*
X40682Y66824D01*
X40723Y66836D01*
X40754Y66851D01*
X40780Y66874D01*
X40790Y66905D01*
G01X40687Y66660D02*
X40542Y66660D01*
X40506Y66645D01*
X40485Y66622D01*
X40480Y66595D01*
X40485Y66568D01*
X40506Y66545D01*
X40542Y66530D01*
G01X40480Y66530D02*
X40687Y66530D01*
G01X39994Y67902D02*
X39971Y67917D01*
X39944Y67928D01*
X39913Y67928D01*
X39879Y67912D01*
X39852Y67886D01*
X39833Y67855D01*
X39818Y67804D01*
X39814Y67757D01*
X39821Y67710D01*
X39833Y67680D01*
X39856Y67649D01*
X39883Y67628D01*
X39910Y67618D01*
X39936Y67618D01*
X39963Y67628D01*
X39986Y67643D01*
X40005Y67664D01*
G01X40219Y67618D02*
X40219Y67928D01*
X40174Y67866D01*
G01X40174Y67618D02*
X40266Y67618D01*
G01X40445Y67664D02*
X40468Y67638D01*
X40495Y67623D01*
X40530Y67618D01*
X40564Y67628D01*
X40591Y67649D01*
X40610Y67685D01*
X40614Y67726D01*
X40606Y67767D01*
X40587Y67793D01*
X40560Y67814D01*
X40533Y67819D01*
X40506Y67814D01*
X40472Y67793D01*
X40484Y67928D01*
X40587Y67928D01*
G01X39864Y67234D02*
X39864Y66446D01*
X40356Y66446D01*
X40356Y67234D01*
X39864Y67234D01*
G01X39322Y67085D02*
X39322Y66455D01*
X39638Y66455D01*
X39638Y67085D01*
X39322Y67085D01*
G01X39615Y71570D02*
X39615Y71880D01*
X39569Y71818D01*
G01X39569Y71570D02*
X39661Y71570D01*
G01X39925Y71880D02*
X39894Y71870D01*
X39871Y71844D01*
X39856Y71813D01*
X39844Y71772D01*
X39841Y71725D01*
X39844Y71678D01*
X39856Y71637D01*
X39871Y71606D01*
X39894Y71580D01*
X39925Y71570D01*
X39956Y71580D01*
X39979Y71606D01*
X39994Y71637D01*
X40006Y71678D01*
X40009Y71725D01*
X40006Y71772D01*
X39994Y71813D01*
X39979Y71844D01*
X39956Y71870D01*
X39925Y71880D01*
G01X40170Y71570D02*
X40170Y71880D01*
G01X40292Y71777D02*
X40170Y71658D01*
G01X40220Y71704D02*
X40300Y71570D01*
G01X40058Y70944D02*
X40058Y71254D01*
X40154Y71254D01*
X40184Y71239D01*
X40204Y71218D01*
X40211Y71176D01*
X40204Y71135D01*
X40181Y71109D01*
X40154Y71094D01*
X40058Y71094D01*
G01X40154Y71094D02*
X40211Y70944D01*
G01X40372Y71202D02*
X40395Y71233D01*
X40422Y71249D01*
X40452Y71254D01*
X40490Y71244D01*
X40517Y71218D01*
X40525Y71187D01*
X40521Y71156D01*
X40506Y71130D01*
X40429Y71078D01*
X40395Y71042D01*
X40372Y70990D01*
X40364Y70944D01*
X40525Y70944D01*
G01X40670Y70990D02*
X40693Y70965D01*
X40720Y70949D01*
X40754Y70944D01*
X40789Y70954D01*
X40816Y70975D01*
X40835Y71011D01*
X40839Y71052D01*
X40831Y71094D01*
X40812Y71120D01*
X40785Y71140D01*
X40758Y71146D01*
X40732Y71140D01*
X40697Y71120D01*
X40708Y71254D01*
X40812Y71254D01*
G01X39888Y70315D02*
X39888Y70945D01*
X39572Y70945D01*
X39572Y70315D01*
X39888Y70315D01*
G01X39944Y69846D02*
X39156Y69846D01*
X39156Y69354D01*
X39944Y69354D01*
X39944Y69846D01*
G01X41128Y73927D02*
X41292Y73927D01*
G01X39638Y73532D02*
X39658Y73501D01*
X39680Y73480D01*
X39707Y73470D01*
X39738Y73480D01*
X39761Y73501D01*
X39784Y73532D01*
X39792Y73573D01*
X39792Y73780D01*
G01X39952Y73599D02*
X39979Y73635D01*
X40002Y73656D01*
X40033Y73666D01*
X40060Y73656D01*
X40079Y73635D01*
X40094Y73604D01*
X40098Y73568D01*
X40094Y73537D01*
X40079Y73506D01*
X40056Y73480D01*
X40029Y73470D01*
X39998Y73480D01*
X39971Y73511D01*
X39956Y73558D01*
X39952Y73610D01*
X39960Y73677D01*
X39971Y73713D01*
X39991Y73749D01*
X40017Y73775D01*
X40044Y73780D01*
X40071Y73770D01*
X40090Y73744D01*
G01X43871Y57200D02*
X43871Y56978D01*
X43886Y56931D01*
X43917Y56900D01*
X43955Y56890D01*
X43993Y56900D01*
X44024Y56931D01*
X44039Y56978D01*
X44039Y57200D01*
G01X44200Y56926D02*
X44227Y56900D01*
X44257Y56890D01*
X44288Y56900D01*
X44315Y56931D01*
X44334Y56978D01*
X44342Y57024D01*
X44342Y57081D01*
X44334Y57128D01*
X44315Y57169D01*
X44292Y57190D01*
X44265Y57200D01*
X44234Y57190D01*
X44211Y57169D01*
X44196Y57138D01*
X44188Y57097D01*
X44196Y57060D01*
X44215Y57024D01*
X44238Y57004D01*
X44265Y56999D01*
X44296Y57009D01*
X44319Y57035D01*
X44342Y57081D01*
G01X42626Y58790D02*
X42794Y59017D01*
G01X42710Y59058D02*
X42710Y58748D01*
G01X42794Y58790D02*
X42626Y59017D01*
G01X42595Y58903D02*
X42825Y58903D01*
G01X42985Y59660D02*
X42977Y59665D01*
X42977Y59675D01*
X42985Y59680D01*
X42993Y59675D01*
X42993Y59665D01*
X42985Y59660D01*
G01X43295Y59670D02*
X43295Y59980D01*
X43249Y59918D01*
G01X43249Y59670D02*
X43341Y59670D01*
G01X43540Y59877D02*
X43540Y59732D01*
X43555Y59696D01*
X43578Y59675D01*
X43605Y59670D01*
X43632Y59675D01*
X43655Y59696D01*
X43670Y59732D01*
G01X43670Y59670D02*
X43670Y59877D01*
G01X43975Y59924D02*
X43952Y59939D01*
X43926Y59950D01*
X43895Y59950D01*
X43860Y59934D01*
X43834Y59908D01*
X43814Y59877D01*
X43799Y59826D01*
X43795Y59779D01*
X43803Y59732D01*
X43814Y59701D01*
X43837Y59671D01*
X43864Y59650D01*
X43891Y59640D01*
X43918Y59640D01*
X43945Y59650D01*
X43968Y59665D01*
X43987Y59686D01*
G01X44117Y59701D02*
X44140Y59665D01*
X44170Y59645D01*
X44205Y59640D01*
X44236Y59645D01*
X44266Y59671D01*
X44285Y59701D01*
X44289Y59732D01*
X44281Y59769D01*
X44255Y59794D01*
X44228Y59805D01*
X44193Y59805D01*
G01X44228Y59805D02*
X44251Y59820D01*
X44270Y59846D01*
X44278Y59877D01*
X44270Y59908D01*
X44251Y59934D01*
X44216Y59950D01*
X44182Y59944D01*
X44147Y59924D01*
G01X44427Y59686D02*
X44450Y59660D01*
X44476Y59645D01*
X44511Y59640D01*
X44546Y59650D01*
X44572Y59671D01*
X44592Y59707D01*
X44595Y59748D01*
X44588Y59789D01*
X44568Y59815D01*
X44542Y59836D01*
X44515Y59841D01*
X44488Y59836D01*
X44454Y59815D01*
X44465Y59950D01*
X44568Y59950D01*
G01X44075Y59528D02*
X43445Y59528D01*
X43445Y59212D01*
X44075Y59212D01*
X44075Y59528D01*
G01X42414Y63048D02*
X42414Y62825D01*
X42429Y62779D01*
X42460Y62748D01*
X42498Y62738D01*
X42536Y62748D01*
X42567Y62779D01*
X42582Y62825D01*
X42582Y63048D01*
G01X42854Y62738D02*
X42854Y63048D01*
X42712Y62825D01*
X42904Y62825D01*
G01X42986Y63042D02*
X43774Y63042D01*
X43774Y62058D01*
X42986Y62058D01*
X42986Y63042D01*
G01X43015Y61140D02*
X43007Y61145D01*
X43007Y61155D01*
X43015Y61160D01*
X43023Y61155D01*
X43023Y61145D01*
X43015Y61140D01*
G01X43325Y61150D02*
X43325Y61460D01*
X43279Y61398D01*
G01X43279Y61150D02*
X43371Y61150D01*
G01X43570Y61357D02*
X43570Y61212D01*
X43585Y61176D01*
X43608Y61155D01*
X43635Y61150D01*
X43662Y61155D01*
X43685Y61176D01*
X43700Y61212D01*
G01X43700Y61150D02*
X43700Y61357D01*
G01X43985Y61424D02*
X43962Y61439D01*
X43936Y61450D01*
X43905Y61450D01*
X43870Y61434D01*
X43844Y61408D01*
X43824Y61377D01*
X43809Y61326D01*
X43805Y61279D01*
X43813Y61233D01*
X43824Y61202D01*
X43847Y61170D01*
X43874Y61150D01*
X43901Y61140D01*
X43928Y61140D01*
X43955Y61150D01*
X43978Y61165D01*
X43997Y61186D01*
G01X44211Y61140D02*
X44211Y61450D01*
X44165Y61388D01*
G01X44165Y61140D02*
X44257Y61140D01*
G01X44521Y61140D02*
X44548Y61145D01*
X44579Y61160D01*
X44598Y61186D01*
X44605Y61222D01*
X44598Y61258D01*
X44575Y61289D01*
X44540Y61305D01*
X44502Y61305D01*
X44479Y61315D01*
X44460Y61341D01*
X44452Y61377D01*
X44464Y61413D01*
X44490Y61439D01*
X44521Y61450D01*
X44552Y61439D01*
X44579Y61413D01*
X44590Y61377D01*
X44582Y61341D01*
X44563Y61315D01*
X44540Y61305D01*
X44502Y61305D01*
X44467Y61289D01*
X44444Y61258D01*
X44437Y61222D01*
X44444Y61186D01*
X44464Y61160D01*
X44494Y61145D01*
X44521Y61140D01*
G01X43705Y61858D02*
X43075Y61858D01*
X43075Y61542D01*
X43705Y61542D01*
X43705Y61858D01*
G01X42865Y64480D02*
X42857Y64485D01*
X42857Y64495D01*
X42865Y64500D01*
X42873Y64495D01*
X42873Y64485D01*
X42865Y64480D01*
G01X43175Y64490D02*
X43175Y64800D01*
X43129Y64738D01*
G01X43129Y64490D02*
X43221Y64490D01*
G01X43420Y64697D02*
X43420Y64552D01*
X43435Y64516D01*
X43458Y64495D01*
X43485Y64490D01*
X43512Y64495D01*
X43535Y64516D01*
X43550Y64552D01*
G01X43550Y64490D02*
X43550Y64697D01*
G01X42933Y65125D02*
X42910Y65140D01*
X42884Y65151D01*
X42853Y65151D01*
X42818Y65135D01*
X42791Y65109D01*
X42772Y65078D01*
X42757Y65026D01*
X42753Y64980D01*
X42761Y64934D01*
X42772Y64903D01*
X42795Y64872D01*
X42822Y64851D01*
X42849Y64841D01*
X42876Y64841D01*
X42903Y64851D01*
X42926Y64866D01*
X42945Y64887D01*
G01X43159Y64841D02*
X43159Y65151D01*
X43113Y65089D01*
G01X43113Y64841D02*
X43205Y64841D01*
G01X43385Y64903D02*
X43408Y64866D01*
X43438Y64846D01*
X43473Y64841D01*
X43504Y64846D01*
X43534Y64872D01*
X43553Y64903D01*
X43557Y64934D01*
X43550Y64970D01*
X43523Y64996D01*
X43496Y65006D01*
X43461Y65006D01*
G01X43496Y65006D02*
X43519Y65021D01*
X43538Y65047D01*
X43546Y65078D01*
X43538Y65109D01*
X43519Y65135D01*
X43484Y65151D01*
X43450Y65145D01*
X43415Y65125D01*
G01X43655Y64082D02*
X44285Y64082D01*
X44285Y64398D01*
X43655Y64398D01*
X43655Y64082D01*
G01X42325Y66040D02*
X42317Y66045D01*
X42317Y66055D01*
X42325Y66060D01*
X42333Y66055D01*
X42333Y66045D01*
X42325Y66040D01*
G01X42635Y66050D02*
X42635Y66360D01*
X42589Y66298D01*
G01X42589Y66050D02*
X42681Y66050D01*
G01X42880Y66257D02*
X42880Y66112D01*
X42895Y66076D01*
X42918Y66055D01*
X42945Y66050D01*
X42972Y66055D01*
X42995Y66076D01*
X43010Y66112D01*
G01X43010Y66050D02*
X43010Y66257D01*
G01X42370Y68090D02*
X42347Y68106D01*
X42320Y68116D01*
X42289Y68116D01*
X42255Y68100D01*
X42228Y68075D01*
X42209Y68044D01*
X42194Y67992D01*
X42190Y67946D01*
X42197Y67899D01*
X42209Y67868D01*
X42232Y67837D01*
X42259Y67816D01*
X42286Y67806D01*
X42312Y67806D01*
X42339Y67816D01*
X42362Y67832D01*
X42381Y67852D01*
G01X42523Y67935D02*
X42550Y67971D01*
X42572Y67992D01*
X42603Y68002D01*
X42630Y67992D01*
X42649Y67971D01*
X42664Y67940D01*
X42668Y67904D01*
X42664Y67873D01*
X42649Y67842D01*
X42626Y67816D01*
X42599Y67806D01*
X42569Y67816D01*
X42542Y67847D01*
X42526Y67894D01*
X42523Y67946D01*
X42530Y68013D01*
X42542Y68049D01*
X42561Y68085D01*
X42588Y68111D01*
X42615Y68116D01*
X42642Y68106D01*
X42661Y68080D01*
G01X42833Y67935D02*
X42860Y67971D01*
X42882Y67992D01*
X42913Y68002D01*
X42940Y67992D01*
X42959Y67971D01*
X42974Y67940D01*
X42978Y67904D01*
X42974Y67873D01*
X42959Y67842D01*
X42936Y67816D01*
X42909Y67806D01*
X42879Y67816D01*
X42852Y67847D01*
X42836Y67894D01*
X42833Y67946D01*
X42840Y68013D01*
X42852Y68049D01*
X42871Y68085D01*
X42898Y68111D01*
X42925Y68116D01*
X42951Y68106D01*
X42971Y68080D01*
G01X42533Y67305D02*
X42533Y66675D01*
X42848Y66675D01*
X42848Y67305D01*
X42533Y67305D01*
G01X44385Y66730D02*
X44377Y66735D01*
X44377Y66745D01*
X44385Y66750D01*
X44393Y66745D01*
X44393Y66735D01*
X44385Y66730D01*
G01X44695Y66740D02*
X44695Y67050D01*
X44649Y66988D01*
G01X44649Y66740D02*
X44741Y66740D01*
G01X44940Y66947D02*
X44940Y66802D01*
X44955Y66766D01*
X44978Y66745D01*
X45005Y66740D01*
X45032Y66745D01*
X45055Y66766D01*
X45070Y66802D01*
G01X45070Y66740D02*
X45070Y66947D01*
G01X44390Y68710D02*
X44367Y68726D01*
X44340Y68736D01*
X44309Y68736D01*
X44275Y68720D01*
X44248Y68695D01*
X44229Y68664D01*
X44214Y68612D01*
X44210Y68566D01*
X44217Y68519D01*
X44229Y68488D01*
X44252Y68457D01*
X44279Y68436D01*
X44306Y68426D01*
X44332Y68426D01*
X44359Y68436D01*
X44382Y68452D01*
X44401Y68472D01*
G01X44543Y68555D02*
X44570Y68591D01*
X44592Y68612D01*
X44623Y68622D01*
X44650Y68612D01*
X44669Y68591D01*
X44684Y68560D01*
X44688Y68524D01*
X44684Y68493D01*
X44669Y68462D01*
X44646Y68436D01*
X44619Y68426D01*
X44589Y68436D01*
X44562Y68467D01*
X44546Y68514D01*
X44543Y68566D01*
X44550Y68633D01*
X44562Y68669D01*
X44581Y68705D01*
X44608Y68731D01*
X44635Y68736D01*
X44662Y68726D01*
X44681Y68700D01*
G01X44860Y68462D02*
X44887Y68436D01*
X44918Y68426D01*
X44949Y68436D01*
X44975Y68467D01*
X44994Y68514D01*
X45002Y68560D01*
X45002Y68617D01*
X44994Y68664D01*
X44975Y68705D01*
X44952Y68726D01*
X44926Y68736D01*
X44895Y68726D01*
X44872Y68705D01*
X44856Y68674D01*
X44849Y68633D01*
X44856Y68596D01*
X44876Y68560D01*
X44899Y68540D01*
X44926Y68534D01*
X44956Y68545D01*
X44979Y68571D01*
X45002Y68617D01*
G01X44642Y67925D02*
X44642Y67295D01*
X44958Y67295D01*
X44958Y67925D01*
X44642Y67925D01*
G01X43910Y67899D02*
X43552Y67899D01*
X43477Y67874D01*
X43427Y67823D01*
X43410Y67760D01*
X43427Y67697D01*
X43477Y67646D01*
X43552Y67621D01*
X43910Y67621D01*
G01X43410Y67250D02*
X43910Y67250D01*
X43810Y67326D01*
G01X43410Y67326D02*
X43410Y67174D01*
G01X43410Y66740D02*
X43910Y66740D01*
X43810Y66816D01*
G01X43410Y66816D02*
X43410Y66664D01*
G01X46705Y59760D02*
X46705Y60070D01*
X46659Y60008D01*
G01X46659Y59760D02*
X46751Y59760D01*
G01X47015Y60070D02*
X46984Y60060D01*
X46961Y60034D01*
X46946Y60003D01*
X46934Y59962D01*
X46931Y59915D01*
X46934Y59869D01*
X46946Y59827D01*
X46961Y59796D01*
X46984Y59770D01*
X47015Y59760D01*
X47046Y59770D01*
X47069Y59796D01*
X47084Y59827D01*
X47096Y59869D01*
X47099Y59915D01*
X47096Y59962D01*
X47084Y60003D01*
X47069Y60034D01*
X47046Y60060D01*
X47015Y60070D01*
G01X47260Y59967D02*
X47260Y59822D01*
X47275Y59786D01*
X47298Y59765D01*
X47325Y59760D01*
X47352Y59765D01*
X47375Y59786D01*
X47390Y59822D01*
G01X47390Y59760D02*
X47390Y59967D01*
G01X47462Y60659D02*
X47439Y60674D01*
X47412Y60684D01*
X47381Y60684D01*
X47347Y60669D01*
X47320Y60643D01*
X47301Y60612D01*
X47286Y60560D01*
X47282Y60514D01*
X47289Y60468D01*
X47301Y60436D01*
X47324Y60406D01*
X47351Y60385D01*
X47378Y60374D01*
X47404Y60374D01*
X47431Y60385D01*
X47454Y60400D01*
X47473Y60421D01*
G01X47688Y60374D02*
X47688Y60684D01*
X47642Y60622D01*
G01X47642Y60374D02*
X47734Y60374D01*
G01X47925Y60504D02*
X47951Y60540D01*
X47974Y60560D01*
X48005Y60571D01*
X48032Y60560D01*
X48051Y60540D01*
X48066Y60509D01*
X48070Y60473D01*
X48066Y60442D01*
X48051Y60411D01*
X48028Y60385D01*
X48001Y60374D01*
X47971Y60385D01*
X47944Y60416D01*
X47929Y60462D01*
X47925Y60514D01*
X47932Y60581D01*
X47944Y60617D01*
X47963Y60654D01*
X47990Y60679D01*
X48017Y60684D01*
X48044Y60674D01*
X48063Y60648D01*
G01X46206Y60184D02*
X46994Y60184D01*
X46994Y60676D01*
X46206Y60676D01*
X46206Y60184D01*
G01X47849Y63770D02*
X47849Y63992D01*
X47834Y64039D01*
X47803Y64070D01*
X47765Y64080D01*
X47727Y64070D01*
X47696Y64039D01*
X47681Y63992D01*
X47681Y63770D01*
G01X47528Y63822D02*
X47505Y63791D01*
X47478Y63775D01*
X47447Y63770D01*
X47409Y63780D01*
X47382Y63806D01*
X47374Y63837D01*
X47378Y63868D01*
X47394Y63894D01*
X47470Y63946D01*
X47505Y63982D01*
X47528Y64034D01*
X47536Y64080D01*
X47374Y64080D01*
G01X45185Y66740D02*
X45185Y67050D01*
X45139Y66988D01*
G01X45139Y66740D02*
X45231Y66740D01*
G01X45495Y67050D02*
X45464Y67040D01*
X45441Y67014D01*
X45426Y66983D01*
X45414Y66942D01*
X45411Y66895D01*
X45414Y66849D01*
X45426Y66807D01*
X45441Y66776D01*
X45464Y66750D01*
X45495Y66740D01*
X45526Y66750D01*
X45549Y66776D01*
X45564Y66807D01*
X45576Y66849D01*
X45579Y66895D01*
X45576Y66942D01*
X45564Y66983D01*
X45549Y67014D01*
X45526Y67040D01*
X45495Y67050D01*
G01X45740Y66947D02*
X45740Y66802D01*
X45755Y66766D01*
X45778Y66745D01*
X45805Y66740D01*
X45832Y66745D01*
X45855Y66766D01*
X45870Y66802D01*
G01X45870Y66740D02*
X45870Y66947D01*
G01X45274Y68722D02*
X45251Y68737D01*
X45224Y68748D01*
X45193Y68748D01*
X45159Y68732D01*
X45132Y68706D01*
X45113Y68675D01*
X45098Y68624D01*
X45094Y68577D01*
X45101Y68530D01*
X45113Y68500D01*
X45136Y68469D01*
X45163Y68448D01*
X45190Y68438D01*
X45216Y68438D01*
X45243Y68448D01*
X45266Y68463D01*
X45285Y68484D01*
G01X45546Y68438D02*
X45546Y68748D01*
X45404Y68525D01*
X45595Y68525D01*
G01X45809Y68438D02*
X45809Y68748D01*
X45764Y68686D01*
G01X45764Y68438D02*
X45856Y68438D01*
G01X45234Y68084D02*
X45234Y67296D01*
X45726Y67296D01*
X45726Y68084D01*
X45234Y68084D01*
G01X47080Y68205D02*
X47085Y68213D01*
X47095Y68213D01*
X47100Y68205D01*
X47095Y68197D01*
X47085Y68197D01*
X47080Y68205D01*
G01X47090Y67895D02*
X47400Y67895D01*
X47338Y67941D01*
G01X47090Y67941D02*
X47090Y67849D01*
G01X47297Y67650D02*
X47152Y67650D01*
X47116Y67635D01*
X47095Y67612D01*
X47090Y67585D01*
X47095Y67558D01*
X47116Y67535D01*
X47152Y67520D01*
G01X47090Y67520D02*
X47297Y67520D01*
G01X47430Y68470D02*
X47407Y68486D01*
X47380Y68496D01*
X47349Y68496D01*
X47315Y68480D01*
X47288Y68455D01*
X47269Y68424D01*
X47254Y68372D01*
X47250Y68326D01*
X47257Y68279D01*
X47269Y68248D01*
X47292Y68217D01*
X47319Y68196D01*
X47346Y68186D01*
X47372Y68186D01*
X47399Y68196D01*
X47422Y68212D01*
X47441Y68232D01*
G01X47656Y68186D02*
X47656Y68496D01*
X47610Y68434D01*
G01X47610Y68186D02*
X47702Y68186D01*
G01X47966Y68186D02*
X47966Y68496D01*
X47920Y68434D01*
G01X47920Y68186D02*
X48012Y68186D01*
G01X47462Y67775D02*
X47462Y67145D01*
X47778Y67145D01*
X47778Y67775D01*
X47462Y67775D01*
G01X46280Y68835D02*
X46285Y68843D01*
X46295Y68843D01*
X46300Y68835D01*
X46295Y68827D01*
X46285Y68827D01*
X46280Y68835D01*
G01X46290Y68525D02*
X46600Y68525D01*
X46538Y68571D01*
G01X46290Y68571D02*
X46290Y68479D01*
G01X46497Y68280D02*
X46352Y68280D01*
X46316Y68265D01*
X46295Y68242D01*
X46290Y68215D01*
X46295Y68188D01*
X46316Y68165D01*
X46352Y68150D01*
G01X46290Y68150D02*
X46497Y68150D01*
G01X46515Y67387D02*
X46530Y67410D01*
X46541Y67436D01*
X46541Y67467D01*
X46525Y67502D01*
X46499Y67528D01*
X46468Y67548D01*
X46416Y67563D01*
X46370Y67567D01*
X46324Y67559D01*
X46292Y67548D01*
X46262Y67525D01*
X46241Y67498D01*
X46230Y67471D01*
X46230Y67444D01*
X46241Y67417D01*
X46256Y67394D01*
X46277Y67375D01*
G01X46230Y67161D02*
X46541Y67161D01*
X46478Y67207D01*
G01X46230Y67207D02*
X46230Y67115D01*
G01X46489Y66924D02*
X46520Y66901D01*
X46535Y66874D01*
X46541Y66843D01*
X46530Y66805D01*
X46504Y66778D01*
X46473Y66770D01*
X46442Y66774D01*
X46416Y66790D01*
X46365Y66866D01*
X46329Y66901D01*
X46277Y66924D01*
X46230Y66932D01*
X46230Y66770D01*
G01X45922Y67805D02*
X45922Y67175D01*
X46238Y67175D01*
X46238Y67805D01*
X45922Y67805D01*
G01X46556Y73570D02*
X46556Y73348D01*
X46571Y73301D01*
X46602Y73270D01*
X46640Y73260D01*
X46678Y73270D01*
X46709Y73301D01*
X46724Y73348D01*
X46724Y73570D01*
G01X46950Y73260D02*
X46950Y73570D01*
X46904Y73508D01*
G01X46904Y73260D02*
X46996Y73260D01*
G01X47260Y73570D02*
X47229Y73560D01*
X47206Y73534D01*
X47191Y73503D01*
X47180Y73462D01*
X47176Y73415D01*
X47180Y73368D01*
X47191Y73327D01*
X47206Y73296D01*
X47229Y73270D01*
X47260Y73260D01*
X47291Y73270D01*
X47314Y73296D01*
X47329Y73327D01*
X47340Y73368D01*
X47344Y73415D01*
X47340Y73462D01*
X47329Y73503D01*
X47314Y73534D01*
X47291Y73560D01*
X47260Y73570D01*
G01X50815Y57540D02*
X50807Y57545D01*
X50807Y57555D01*
X50815Y57560D01*
X50823Y57555D01*
X50823Y57545D01*
X50815Y57540D01*
G01X51125Y57550D02*
X51125Y57860D01*
X51079Y57798D01*
G01X51079Y57550D02*
X51171Y57550D01*
G01X51370Y57757D02*
X51370Y57612D01*
X51385Y57576D01*
X51408Y57555D01*
X51435Y57550D01*
X51462Y57555D01*
X51485Y57576D01*
X51500Y57612D01*
G01X51500Y57550D02*
X51500Y57757D01*
G01X50661Y59300D02*
X50661Y58942D01*
X50686Y58867D01*
X50737Y58817D01*
X50800Y58800D01*
X50863Y58817D01*
X50914Y58867D01*
X50939Y58942D01*
X50939Y59300D01*
G01X51310Y58800D02*
X51310Y59300D01*
X51234Y59200D01*
G01X51234Y58800D02*
X51386Y58800D01*
G01X51700Y59217D02*
X51738Y59267D01*
X51782Y59292D01*
X51833Y59300D01*
X51896Y59283D01*
X51940Y59242D01*
X51953Y59192D01*
X51947Y59142D01*
X51921Y59100D01*
X51795Y59017D01*
X51738Y58958D01*
X51700Y58875D01*
X51687Y58800D01*
X51953Y58800D01*
G01X50690Y61801D02*
X50522Y61574D01*
G01X50606Y61533D02*
X50606Y61843D01*
G01X50522Y61801D02*
X50690Y61574D01*
G01X50721Y61688D02*
X50491Y61688D01*
G01X50852Y62915D02*
X50852Y62285D01*
X51168Y62285D01*
X51168Y62915D01*
X50852Y62915D01*
G01X49465Y60320D02*
X49457Y60325D01*
X49457Y60335D01*
X49465Y60340D01*
X49473Y60335D01*
X49473Y60325D01*
X49465Y60320D01*
G01X49775Y60330D02*
X49775Y60640D01*
X49729Y60578D01*
G01X49729Y60330D02*
X49821Y60330D01*
G01X50020Y60537D02*
X50020Y60392D01*
X50035Y60356D01*
X50058Y60335D01*
X50085Y60330D01*
X50112Y60335D01*
X50135Y60356D01*
X50150Y60392D01*
G01X50150Y60330D02*
X50150Y60537D01*
G01X48735Y60764D02*
X48712Y60779D01*
X48686Y60790D01*
X48655Y60790D01*
X48620Y60774D01*
X48594Y60748D01*
X48574Y60717D01*
X48559Y60666D01*
X48555Y60619D01*
X48563Y60572D01*
X48574Y60542D01*
X48597Y60510D01*
X48624Y60490D01*
X48651Y60480D01*
X48678Y60480D01*
X48705Y60490D01*
X48728Y60505D01*
X48747Y60526D01*
G01X48888Y60738D02*
X48911Y60769D01*
X48938Y60784D01*
X48969Y60790D01*
X49007Y60779D01*
X49034Y60753D01*
X49041Y60722D01*
X49038Y60691D01*
X49022Y60666D01*
X48946Y60614D01*
X48911Y60578D01*
X48888Y60526D01*
X48881Y60480D01*
X49041Y60480D01*
G01X49198Y60738D02*
X49221Y60769D01*
X49248Y60784D01*
X49279Y60790D01*
X49317Y60779D01*
X49344Y60753D01*
X49352Y60722D01*
X49348Y60691D01*
X49332Y60666D01*
X49256Y60614D01*
X49221Y60578D01*
X49198Y60526D01*
X49191Y60480D01*
X49352Y60480D01*
G01X49115Y60358D02*
X48485Y60358D01*
X48485Y60042D01*
X49115Y60042D01*
X49115Y60358D01*
G01X50825Y60300D02*
X50817Y60305D01*
X50817Y60315D01*
X50825Y60320D01*
X50833Y60315D01*
X50833Y60305D01*
X50825Y60300D01*
G01X51135Y60310D02*
X51135Y60620D01*
X51089Y60558D01*
G01X51089Y60310D02*
X51181Y60310D01*
G01X51380Y60517D02*
X51380Y60372D01*
X51395Y60336D01*
X51418Y60315D01*
X51445Y60310D01*
X51472Y60315D01*
X51495Y60336D01*
X51510Y60372D01*
G01X51510Y60310D02*
X51510Y60517D01*
G01X51585Y64608D02*
X50955Y64608D01*
X50955Y64293D01*
X51585Y64293D01*
X51585Y64608D01*
G01X49545Y66990D02*
X49537Y66995D01*
X49537Y67005D01*
X49545Y67010D01*
X49553Y67005D01*
X49553Y66995D01*
X49545Y66990D01*
G01X49855Y67000D02*
X49855Y67310D01*
X49809Y67248D01*
G01X49809Y67000D02*
X49901Y67000D01*
G01X50100Y67207D02*
X50100Y67062D01*
X50115Y67026D01*
X50138Y67005D01*
X50165Y67000D01*
X50192Y67005D01*
X50215Y67026D01*
X50230Y67062D01*
G01X50230Y67000D02*
X50230Y67207D01*
G01X49693Y67705D02*
X49670Y67720D01*
X49644Y67730D01*
X49613Y67730D01*
X49578Y67715D01*
X49552Y67689D01*
X49532Y67658D01*
X49517Y67606D01*
X49513Y67560D01*
X49521Y67514D01*
X49532Y67482D01*
X49555Y67452D01*
X49582Y67431D01*
X49609Y67421D01*
X49636Y67421D01*
X49663Y67431D01*
X49686Y67446D01*
X49705Y67467D01*
G01X49919Y67421D02*
X49919Y67730D01*
X49873Y67668D01*
G01X49873Y67421D02*
X49965Y67421D01*
G01X48565Y67042D02*
X49195Y67042D01*
X49195Y67358D01*
X48565Y67358D01*
X48565Y67042D01*
G01X48990Y71689D02*
X49300Y71689D01*
X49078Y71831D01*
X49078Y71639D01*
G01X48990Y71433D02*
X49057Y71425D01*
X49114Y71414D01*
X49166Y71398D01*
X49222Y71379D01*
X49300Y71348D01*
X49300Y71502D01*
G01X48990Y71180D02*
X49300Y71180D01*
G01X49197Y71058D02*
X49078Y71180D01*
G01X49124Y71130D02*
X48990Y71050D01*
G01X49430Y71646D02*
X49740Y71646D01*
X49740Y71550D01*
X49724Y71519D01*
X49703Y71500D01*
X49662Y71492D01*
X49621Y71500D01*
X49595Y71523D01*
X49579Y71550D01*
X49579Y71646D01*
G01X49579Y71550D02*
X49430Y71492D01*
G01X49476Y71343D02*
X49450Y71320D01*
X49435Y71294D01*
X49430Y71259D01*
X49440Y71224D01*
X49461Y71198D01*
X49497Y71178D01*
X49538Y71175D01*
X49579Y71182D01*
X49605Y71202D01*
X49626Y71228D01*
X49631Y71255D01*
X49626Y71282D01*
X49605Y71316D01*
X49740Y71305D01*
X49740Y71202D01*
G01X50188Y71125D02*
X50188Y71755D01*
X49873Y71755D01*
X49873Y71125D01*
X50188Y71125D01*
G01X50840Y71369D02*
X51150Y71369D01*
X50928Y71511D01*
X50928Y71319D01*
G01X50840Y71113D02*
X50907Y71105D01*
X50964Y71094D01*
X51016Y71078D01*
X51073Y71059D01*
X51150Y71028D01*
X51150Y71182D01*
G01X50840Y70860D02*
X51150Y70860D01*
G01X51047Y70738D02*
X50928Y70860D01*
G01X50974Y70810D02*
X50840Y70730D01*
G01X50708Y71115D02*
X50708Y71745D01*
X50392Y71745D01*
X50392Y71115D01*
X50708Y71115D01*
G01X49360Y70126D02*
X49360Y70436D01*
X49437Y70436D01*
X49468Y70420D01*
X49491Y70399D01*
X49510Y70368D01*
X49525Y70332D01*
X49529Y70280D01*
X49525Y70229D01*
X49510Y70193D01*
X49491Y70162D01*
X49468Y70141D01*
X49437Y70126D01*
X49360Y70126D01*
G01X49754Y70126D02*
X49754Y70436D01*
X49709Y70374D01*
G01X49709Y70126D02*
X49800Y70126D01*
G01X49823Y70112D02*
X50217Y70112D01*
G01X50178Y70034D02*
X50178Y70506D01*
X49862Y70506D01*
X49862Y70034D01*
X50178Y70034D01*
G01X50830Y70146D02*
X50830Y70456D01*
X50907Y70456D01*
X50938Y70440D01*
X50960Y70419D01*
X50980Y70388D01*
X50995Y70352D01*
X50999Y70300D01*
X50995Y70249D01*
X50980Y70213D01*
X50960Y70182D01*
X50938Y70161D01*
X50907Y70146D01*
X50830Y70146D01*
G01X51152Y70404D02*
X51175Y70435D01*
X51202Y70450D01*
X51232Y70456D01*
X51271Y70445D01*
X51297Y70419D01*
X51305Y70388D01*
X51301Y70357D01*
X51286Y70332D01*
X51209Y70280D01*
X51175Y70244D01*
X51152Y70192D01*
X51144Y70146D01*
X51305Y70146D01*
G01X50363Y70112D02*
X50757Y70112D01*
G01X50718Y70034D02*
X50718Y70506D01*
X50402Y70506D01*
X50402Y70034D01*
X50718Y70034D01*
G01X49397Y73327D02*
X49448Y73285D01*
X49505Y73260D01*
X49555Y73260D01*
X49606Y73285D01*
X49644Y73327D01*
X49663Y73385D01*
X49650Y73443D01*
X49619Y73493D01*
X49562Y73527D01*
X49486Y73543D01*
X49441Y73577D01*
X49422Y73635D01*
X49435Y73693D01*
X49467Y73735D01*
X49511Y73760D01*
X49555Y73760D01*
X49600Y73743D01*
X49638Y73702D01*
G01X49913Y73760D02*
X49913Y73260D01*
X50167Y73260D01*
G01X50411Y73760D02*
X50411Y73402D01*
X50436Y73327D01*
X50487Y73277D01*
X50550Y73260D01*
X50613Y73277D01*
X50664Y73327D01*
X50689Y73402D01*
X50689Y73760D01*
G01X51098Y73510D02*
X51225Y73510D01*
X51225Y73360D01*
X51187Y73310D01*
X51142Y73277D01*
X51079Y73260D01*
X51016Y73277D01*
X50971Y73310D01*
X50933Y73360D01*
X50908Y73418D01*
X50895Y73485D01*
X50895Y73543D01*
X50908Y73593D01*
X50933Y73652D01*
X50971Y73702D01*
X51009Y73735D01*
X51060Y73760D01*
X51104Y73760D01*
X51155Y73743D01*
X51193Y73710D01*
G01X51437Y73327D02*
X51488Y73285D01*
X51545Y73260D01*
X51595Y73260D01*
X51646Y73285D01*
X51684Y73327D01*
X51703Y73385D01*
X51690Y73443D01*
X51659Y73493D01*
X51602Y73527D01*
X51526Y73543D01*
X51481Y73577D01*
X51462Y73635D01*
X51475Y73693D01*
X51507Y73735D01*
X51551Y73760D01*
X51595Y73760D01*
X51640Y73743D01*
X51678Y73702D01*
G01X52470Y73677D02*
X52508Y73727D01*
X52552Y73752D01*
X52603Y73760D01*
X52666Y73743D01*
X52710Y73702D01*
X52723Y73652D01*
X52717Y73602D01*
X52691Y73560D01*
X52565Y73477D01*
X52508Y73418D01*
X52470Y73335D01*
X52457Y73260D01*
X52723Y73260D01*
G01X53100Y73243D02*
X53087Y73252D01*
X53087Y73268D01*
X53100Y73277D01*
X53113Y73268D01*
X53113Y73252D01*
X53100Y73243D01*
G01X53610Y73260D02*
X53610Y73760D01*
X53534Y73660D01*
G01X53534Y73260D02*
X53686Y73260D01*
G01X50004Y72261D02*
X50035Y72236D01*
X50070Y72220D01*
X50100Y72220D01*
X50131Y72236D01*
X50154Y72261D01*
X50166Y72298D01*
X50158Y72334D01*
X50139Y72365D01*
X50104Y72385D01*
X50058Y72396D01*
X50031Y72416D01*
X50020Y72452D01*
X50028Y72489D01*
X50047Y72514D01*
X50074Y72530D01*
X50100Y72530D01*
X50127Y72520D01*
X50150Y72494D01*
G01X50318Y72220D02*
X50318Y72530D01*
X50410Y72530D01*
X50441Y72514D01*
X50464Y72478D01*
X50472Y72437D01*
X50464Y72396D01*
X50445Y72365D01*
X50410Y72349D01*
X50318Y72349D01*
G01X50628Y72220D02*
X50628Y72530D01*
X50724Y72530D01*
X50755Y72514D01*
X50774Y72494D01*
X50782Y72452D01*
X50774Y72411D01*
X50751Y72385D01*
X50724Y72370D01*
X50628Y72370D01*
G01X50724Y72370D02*
X50782Y72220D01*
G01X50969Y72530D02*
X51061Y72530D01*
G01X51015Y72530D02*
X51015Y72220D01*
G01X50969Y72220D02*
X51061Y72220D01*
G01X51237Y72220D02*
X51237Y72530D01*
X51413Y72220D01*
X51413Y72530D01*
G01X51658Y72375D02*
X51735Y72375D01*
X51735Y72282D01*
X51712Y72251D01*
X51685Y72230D01*
X51646Y72220D01*
X51608Y72230D01*
X51581Y72251D01*
X51558Y72282D01*
X51543Y72318D01*
X51535Y72360D01*
X51535Y72396D01*
X51543Y72427D01*
X51558Y72463D01*
X51581Y72494D01*
X51604Y72514D01*
X51635Y72530D01*
X51662Y72530D01*
X51692Y72520D01*
X51716Y72499D01*
G01X52182Y72478D02*
X52205Y72509D01*
X52232Y72525D01*
X52263Y72530D01*
X52301Y72520D01*
X52328Y72494D01*
X52336Y72463D01*
X52332Y72432D01*
X52316Y72406D01*
X52240Y72354D01*
X52205Y72318D01*
X52182Y72266D01*
X52175Y72220D01*
X52336Y72220D01*
G01X52565Y72530D02*
X52534Y72520D01*
X52511Y72494D01*
X52496Y72463D01*
X52484Y72422D01*
X52481Y72375D01*
X52484Y72329D01*
X52496Y72287D01*
X52511Y72256D01*
X52534Y72230D01*
X52565Y72220D01*
X52596Y72230D01*
X52619Y72256D01*
X52634Y72287D01*
X52646Y72329D01*
X52649Y72375D01*
X52646Y72422D01*
X52634Y72463D01*
X52619Y72494D01*
X52596Y72520D01*
X52565Y72530D01*
G01X52875Y72530D02*
X52844Y72520D01*
X52821Y72494D01*
X52806Y72463D01*
X52794Y72422D01*
X52791Y72375D01*
X52794Y72329D01*
X52806Y72287D01*
X52821Y72256D01*
X52844Y72230D01*
X52875Y72220D01*
X52906Y72230D01*
X52929Y72256D01*
X52944Y72287D01*
X52956Y72329D01*
X52959Y72375D01*
X52956Y72422D01*
X52944Y72463D01*
X52929Y72494D01*
X52906Y72520D01*
X52875Y72530D01*
G01X53120Y72256D02*
X53147Y72230D01*
X53177Y72220D01*
X53208Y72230D01*
X53235Y72261D01*
X53254Y72308D01*
X53262Y72354D01*
X53262Y72411D01*
X53254Y72458D01*
X53235Y72499D01*
X53212Y72520D01*
X53185Y72530D01*
X53154Y72520D01*
X53131Y72499D01*
X53116Y72468D01*
X53108Y72427D01*
X53116Y72390D01*
X53135Y72354D01*
X53158Y72334D01*
X53185Y72329D01*
X53216Y72339D01*
X53239Y72365D01*
X53262Y72411D01*
G01X49471Y73070D02*
X49471Y72848D01*
X49486Y72801D01*
X49517Y72770D01*
X49555Y72760D01*
X49593Y72770D01*
X49624Y72801D01*
X49639Y72848D01*
X49639Y73070D01*
G01X49949Y73044D02*
X49926Y73060D01*
X49900Y73070D01*
X49869Y73070D01*
X49834Y73054D01*
X49808Y73029D01*
X49788Y72998D01*
X49773Y72946D01*
X49769Y72900D01*
X49777Y72853D01*
X49788Y72822D01*
X49811Y72791D01*
X49838Y72770D01*
X49865Y72760D01*
X49892Y72760D01*
X49919Y72770D01*
X49942Y72786D01*
X49961Y72806D01*
G01X50094Y72801D02*
X50125Y72776D01*
X50160Y72760D01*
X50190Y72760D01*
X50221Y72776D01*
X50244Y72801D01*
X50256Y72838D01*
X50248Y72874D01*
X50229Y72905D01*
X50194Y72925D01*
X50148Y72936D01*
X50121Y72956D01*
X50110Y72992D01*
X50118Y73029D01*
X50137Y73054D01*
X50164Y73070D01*
X50190Y73070D01*
X50217Y73060D01*
X50240Y73034D01*
G01X50569Y73044D02*
X50546Y73060D01*
X50520Y73070D01*
X50489Y73070D01*
X50454Y73054D01*
X50428Y73029D01*
X50408Y72998D01*
X50393Y72946D01*
X50389Y72900D01*
X50397Y72853D01*
X50408Y72822D01*
X50431Y72791D01*
X50458Y72770D01*
X50485Y72760D01*
X50512Y72760D01*
X50539Y72770D01*
X50562Y72786D01*
X50581Y72806D01*
G01X50745Y72863D02*
X50845Y72863D01*
G01X51009Y72760D02*
X51105Y73070D01*
X51201Y72760D01*
G01X51166Y72868D02*
X51044Y72868D01*
G01X51334Y72801D02*
X51365Y72776D01*
X51400Y72760D01*
X51430Y72760D01*
X51461Y72776D01*
X51484Y72801D01*
X51496Y72838D01*
X51488Y72874D01*
X51469Y72905D01*
X51434Y72925D01*
X51388Y72936D01*
X51361Y72956D01*
X51350Y72992D01*
X51358Y73029D01*
X51377Y73054D01*
X51404Y73070D01*
X51430Y73070D01*
X51457Y73060D01*
X51480Y73034D01*
G01X51648Y73070D02*
X51648Y72760D01*
X51802Y72760D01*
G01X51985Y72863D02*
X52085Y72863D01*
G01X52245Y72760D02*
X52245Y73070D01*
X52345Y72812D01*
X52445Y73070D01*
X52445Y72760D01*
G01X52578Y73070D02*
X52578Y72760D01*
X52732Y72760D01*
G01X53080Y72657D02*
X52888Y72967D01*
X52888Y73018D01*
X52927Y73070D01*
X52965Y73070D01*
X53003Y73018D01*
X53003Y72967D01*
X52965Y72915D01*
X52888Y72863D01*
X52850Y72812D01*
X52850Y72708D01*
X52888Y72657D01*
X53003Y72657D01*
X53080Y72760D01*
G01X53298Y72915D02*
X53375Y72915D01*
X53375Y72822D01*
X53352Y72791D01*
X53325Y72770D01*
X53286Y72760D01*
X53248Y72770D01*
X53221Y72791D01*
X53198Y72822D01*
X53183Y72858D01*
X53175Y72900D01*
X53175Y72936D01*
X53183Y72967D01*
X53198Y73003D01*
X53221Y73034D01*
X53244Y73054D01*
X53275Y73070D01*
X53302Y73070D01*
X53333Y73060D01*
X53356Y73039D01*
G01X53505Y72760D02*
X53505Y73070D01*
G01X53666Y73070D02*
X53666Y72760D01*
G01X53666Y72915D02*
X53505Y72915D01*
G01X52630Y72000D02*
X52630Y56500D01*
X57500Y56500D01*
X57500Y72000D01*
X52630Y72000D01*
G01X51883Y57825D02*
X51860Y57840D01*
X51834Y57850D01*
X51803Y57850D01*
X51768Y57835D01*
X51742Y57809D01*
X51722Y57778D01*
X51707Y57726D01*
X51703Y57680D01*
X51711Y57634D01*
X51722Y57602D01*
X51745Y57571D01*
X51772Y57551D01*
X51799Y57540D01*
X51826Y57540D01*
X51853Y57551D01*
X51876Y57566D01*
X51895Y57587D01*
G01X52036Y57670D02*
X52063Y57706D01*
X52086Y57726D01*
X52117Y57737D01*
X52144Y57726D01*
X52163Y57706D01*
X52178Y57675D01*
X52182Y57639D01*
X52178Y57608D01*
X52163Y57577D01*
X52140Y57551D01*
X52113Y57540D01*
X52082Y57551D01*
X52055Y57582D01*
X52040Y57628D01*
X52036Y57680D01*
X52044Y57747D01*
X52055Y57783D01*
X52074Y57820D01*
X52101Y57845D01*
X52128Y57850D01*
X52155Y57840D01*
X52174Y57814D01*
G01X52465Y57540D02*
X52465Y57850D01*
X52323Y57628D01*
X52515Y57628D01*
G01X51475Y57972D02*
X52105Y57972D01*
X52105Y58288D01*
X51475Y58288D01*
X51475Y57972D01*
G01X51255Y59873D02*
X51885Y59873D01*
X51885Y60188D01*
X51255Y60188D01*
X51255Y59873D01*
G01X51300Y61985D02*
X51305Y61993D01*
X51315Y61993D01*
X51320Y61985D01*
X51315Y61977D01*
X51305Y61977D01*
X51300Y61985D01*
G01X51310Y61675D02*
X51620Y61675D01*
X51558Y61721D01*
G01X51310Y61721D02*
X51310Y61629D01*
G01X51517Y61430D02*
X51372Y61430D01*
X51336Y61415D01*
X51315Y61392D01*
X51310Y61365D01*
X51315Y61338D01*
X51336Y61315D01*
X51372Y61300D01*
G01X51310Y61300D02*
X51517Y61300D01*
G01X51615Y62497D02*
X51630Y62520D01*
X51641Y62546D01*
X51641Y62577D01*
X51625Y62612D01*
X51599Y62639D01*
X51568Y62658D01*
X51516Y62673D01*
X51470Y62677D01*
X51424Y62669D01*
X51393Y62658D01*
X51362Y62635D01*
X51341Y62608D01*
X51330Y62581D01*
X51330Y62554D01*
X51341Y62527D01*
X51356Y62504D01*
X51377Y62485D01*
G01X51330Y62271D02*
X51336Y62244D01*
X51351Y62214D01*
X51377Y62194D01*
X51413Y62187D01*
X51449Y62194D01*
X51480Y62217D01*
X51496Y62252D01*
X51496Y62290D01*
X51506Y62313D01*
X51532Y62332D01*
X51568Y62340D01*
X51604Y62329D01*
X51630Y62302D01*
X51641Y62271D01*
X51630Y62240D01*
X51604Y62214D01*
X51568Y62202D01*
X51532Y62210D01*
X51506Y62229D01*
X51496Y62252D01*
X51496Y62290D01*
X51480Y62325D01*
X51449Y62348D01*
X51413Y62355D01*
X51377Y62348D01*
X51351Y62329D01*
X51336Y62298D01*
X51330Y62271D01*
G01X51893Y60585D02*
X51870Y60600D01*
X51844Y60611D01*
X51813Y60611D01*
X51778Y60595D01*
X51751Y60569D01*
X51732Y60538D01*
X51717Y60486D01*
X51713Y60440D01*
X51721Y60394D01*
X51732Y60362D01*
X51755Y60332D01*
X51782Y60311D01*
X51809Y60300D01*
X51836Y60300D01*
X51863Y60311D01*
X51886Y60326D01*
X51905Y60347D01*
G01X52046Y60430D02*
X52073Y60466D01*
X52096Y60486D01*
X52127Y60497D01*
X52154Y60486D01*
X52173Y60466D01*
X52188Y60435D01*
X52192Y60399D01*
X52188Y60368D01*
X52173Y60337D01*
X52150Y60311D01*
X52123Y60300D01*
X52092Y60311D01*
X52065Y60342D01*
X52050Y60388D01*
X52046Y60440D01*
X52054Y60507D01*
X52065Y60543D01*
X52084Y60580D01*
X52111Y60605D01*
X52138Y60611D01*
X52165Y60600D01*
X52184Y60574D01*
G01X52345Y60347D02*
X52368Y60321D01*
X52394Y60306D01*
X52429Y60300D01*
X52464Y60311D01*
X52490Y60332D01*
X52509Y60368D01*
X52513Y60409D01*
X52506Y60450D01*
X52486Y60476D01*
X52460Y60497D01*
X52433Y60502D01*
X52406Y60497D01*
X52372Y60476D01*
X52383Y60611D01*
X52486Y60611D01*
G01X51265Y63900D02*
X51257Y63905D01*
X51257Y63915D01*
X51265Y63920D01*
X51273Y63915D01*
X51273Y63905D01*
X51265Y63900D01*
G01X51575Y63910D02*
X51575Y64220D01*
X51529Y64158D01*
G01X51529Y63910D02*
X51621Y63910D01*
G01X51820Y64117D02*
X51820Y63972D01*
X51835Y63936D01*
X51858Y63915D01*
X51885Y63910D01*
X51912Y63915D01*
X51935Y63936D01*
X51950Y63972D01*
G01X51950Y63910D02*
X51950Y64117D01*
G01X51465Y65014D02*
X51442Y65029D01*
X51416Y65040D01*
X51385Y65040D01*
X51350Y65024D01*
X51324Y64998D01*
X51304Y64967D01*
X51289Y64916D01*
X51285Y64869D01*
X51293Y64823D01*
X51304Y64792D01*
X51327Y64761D01*
X51354Y64740D01*
X51381Y64730D01*
X51408Y64730D01*
X51435Y64740D01*
X51458Y64755D01*
X51477Y64776D01*
G01X51691Y64730D02*
X51691Y65040D01*
X51645Y64978D01*
G01X51645Y64730D02*
X51737Y64730D01*
G01X52001Y65040D02*
X51970Y65029D01*
X51947Y65003D01*
X51932Y64972D01*
X51920Y64931D01*
X51917Y64884D01*
X51920Y64838D01*
X51932Y64797D01*
X51947Y64766D01*
X51970Y64740D01*
X52001Y64730D01*
X52032Y64740D01*
X52055Y64766D01*
X52070Y64797D01*
X52082Y64838D01*
X52085Y64884D01*
X52082Y64931D01*
X52070Y64972D01*
X52055Y65003D01*
X52032Y65029D01*
X52001Y65040D01*
G01X51250Y71356D02*
X51560Y71356D01*
X51560Y71260D01*
X51544Y71229D01*
X51523Y71210D01*
X51482Y71202D01*
X51441Y71210D01*
X51415Y71233D01*
X51399Y71260D01*
X51399Y71356D01*
G01X51399Y71260D02*
X51250Y71202D01*
G01X51379Y71042D02*
X51415Y71015D01*
X51436Y70992D01*
X51446Y70961D01*
X51436Y70934D01*
X51415Y70915D01*
X51384Y70900D01*
X51348Y70896D01*
X51317Y70900D01*
X51286Y70915D01*
X51260Y70938D01*
X51250Y70965D01*
X51260Y70996D01*
X51291Y71023D01*
X51337Y71038D01*
X51389Y71042D01*
X51456Y71034D01*
X51492Y71023D01*
X51529Y71004D01*
X51554Y70977D01*
X51560Y70950D01*
X51549Y70923D01*
X51523Y70904D01*
G01X51630Y70845D02*
X51940Y70845D01*
X51878Y70891D01*
G01X51630Y70891D02*
X51630Y70799D01*
G01X51837Y70600D02*
X51692Y70600D01*
X51656Y70585D01*
X51635Y70562D01*
X51630Y70535D01*
X51635Y70508D01*
X51656Y70485D01*
X51692Y70470D01*
G01X51630Y70470D02*
X51837Y70470D01*
G01X51920Y71680D02*
X51897Y71696D01*
X51870Y71706D01*
X51839Y71706D01*
X51805Y71690D01*
X51778Y71665D01*
X51759Y71634D01*
X51744Y71582D01*
X51740Y71536D01*
X51747Y71489D01*
X51759Y71458D01*
X51782Y71427D01*
X51809Y71406D01*
X51836Y71396D01*
X51862Y71396D01*
X51889Y71406D01*
X51912Y71422D01*
X51931Y71442D01*
G01X52073Y71654D02*
X52096Y71685D01*
X52122Y71701D01*
X52153Y71706D01*
X52192Y71696D01*
X52218Y71670D01*
X52226Y71639D01*
X52222Y71608D01*
X52207Y71582D01*
X52130Y71530D01*
X52096Y71494D01*
X52073Y71442D01*
X52065Y71396D01*
X52226Y71396D01*
G01X52456Y71706D02*
X52425Y71696D01*
X52402Y71670D01*
X52386Y71639D01*
X52375Y71598D01*
X52371Y71551D01*
X52375Y71504D01*
X52386Y71463D01*
X52402Y71432D01*
X52425Y71406D01*
X52456Y71396D01*
X52486Y71406D01*
X52509Y71432D01*
X52524Y71463D01*
X52536Y71504D01*
X52540Y71551D01*
X52536Y71598D01*
X52524Y71639D01*
X52509Y71670D01*
X52486Y71696D01*
X52456Y71706D01*
G01X52072Y71055D02*
X52072Y70425D01*
X52388Y70425D01*
X52388Y71055D01*
X52072Y71055D01*
G01X56492Y68342D02*
X56461Y68322D01*
X56440Y68300D01*
X56430Y68273D01*
X56440Y68242D01*
X56461Y68219D01*
X56492Y68196D01*
X56533Y68188D01*
X56740Y68188D01*
G01X56430Y67955D02*
X56740Y67955D01*
X56678Y68001D01*
G01X56430Y68001D02*
X56430Y67909D01*
G01X54558Y72031D02*
X54578Y72058D01*
X54583Y72089D01*
X54578Y72116D01*
X54552Y72139D01*
X54516Y72154D01*
X54273Y72154D01*
G01X54315Y72154D02*
X54294Y72139D01*
X54278Y72116D01*
X54273Y72089D01*
X54284Y72058D01*
X54304Y72039D01*
X54340Y72024D01*
X54377Y72016D01*
X54408Y72020D01*
X54444Y72035D01*
X54470Y72058D01*
X54480Y72089D01*
X54475Y72112D01*
X54454Y72139D01*
X54434Y72154D01*
G01X54480Y72330D02*
X54273Y72330D01*
G01X54325Y72330D02*
X54299Y72345D01*
X54278Y72368D01*
X54273Y72399D01*
X54278Y72426D01*
X54299Y72449D01*
X54335Y72460D01*
X54480Y72460D01*
G01X54170Y72774D02*
X54480Y72774D01*
G01X54434Y72774D02*
X54459Y72759D01*
X54475Y72736D01*
X54480Y72709D01*
X54470Y72678D01*
X54444Y72655D01*
X54413Y72640D01*
X54377Y72636D01*
X54340Y72640D01*
X54310Y72655D01*
X54284Y72678D01*
X54273Y72709D01*
X54278Y72736D01*
X54289Y72755D01*
X54310Y72774D01*
G01X54470Y73294D02*
X54263Y73294D01*
G01X54300Y73294D02*
X54279Y73279D01*
X54269Y73256D01*
X54263Y73229D01*
X54274Y73202D01*
X54294Y73179D01*
X54325Y73164D01*
X54367Y73156D01*
X54408Y73164D01*
X54439Y73179D01*
X54460Y73202D01*
X54470Y73229D01*
X54465Y73256D01*
X54449Y73279D01*
X54429Y73294D01*
G01X54160Y73604D02*
X54470Y73604D01*
G01X54424Y73604D02*
X54449Y73589D01*
X54465Y73566D01*
X54470Y73539D01*
X54460Y73508D01*
X54434Y73485D01*
X54403Y73470D01*
X54367Y73466D01*
X54331Y73470D01*
X54300Y73485D01*
X54274Y73508D01*
X54263Y73539D01*
X54269Y73566D01*
X54279Y73585D01*
X54300Y73604D01*
G01X54289Y73906D02*
X54269Y73880D01*
X54263Y73856D01*
X54274Y73826D01*
X54294Y73803D01*
X54331Y73788D01*
X54367Y73784D01*
X54403Y73788D01*
X54434Y73803D01*
X54460Y73826D01*
X54470Y73856D01*
X54460Y73883D01*
X54439Y73906D01*
G01X55400Y72010D02*
X54400Y72010D01*
X54400Y74010D01*
X55400Y74010D01*
X55400Y72010D01*
G01X36998Y61044D02*
X36998Y60748D01*
X37294Y60748D01*
G01X37149Y65123D02*
X37347Y65321D01*
G01X37294Y65472D02*
X36998Y65472D01*
X36998Y65176D01*
G01X41426Y60748D02*
X41722Y60748D01*
X41722Y61044D01*
G01X41722Y65176D02*
X41722Y65472D01*
X41426Y65472D01*
G01X43628Y56905D02*
X44552Y56905D01*
G01X43970Y58835D02*
G03X44210Y58833I120J0D01*
G01X44552Y58835D02*
X43628Y58835D01*
G01X44270Y66640D02*
X44270Y67860D01*
G01X43050Y67860D02*
X43050Y66640D01*
G01X44034Y68137D02*
G03X44034Y68137I0J30D01*
G01X45248Y61764D02*
X45248Y61468D01*
X45544Y61468D01*
G01X45544Y66192D02*
X45248Y66192D01*
X45248Y65896D01*
G01X51920Y59660D02*
X50700Y59660D01*
G01X50700Y58440D02*
X51920Y58440D01*
G01X50423Y59424D02*
G03X50423Y59424I-30J0D01*
G01X49821Y61817D02*
X49623Y61619D01*
G01X49676Y61468D02*
X49972Y61468D01*
X49972Y61764D01*
G01X49972Y65896D02*
X49972Y66192D01*
X49676Y66192D01*
M02*
