*
%LPD*%
%LNBOTTOM_ETCH*%
%FSLAX24Y24*%
%MOIN*%
%AD*%
%AMMACRO24*
20,1,0.06,-0.021213,-0.021213,0.021213,0.021213,0*
%
%ADD10C,0.025*%
%ADD11C,0.03*%
%ADD12C,0.01969*%
%ADD13R,0.03937X0.04331*%
%ADD14C,0.06*%
%ADD15C,0.026*%
%ADD16R,0.04331X0.03937*%
%ADD17R,0.044X0.012*%
%ADD18R,0.05118X0.05906*%
%ADD19R,0.06X0.1*%
%ADD20R,0.02X0.017*%
%ADD21R,0.016X0.042*%
%ADD22R,0.01969X0.07874*%
%ADD23R,0.05906X0.05118*%
%ADD24MACRO24*%
%ADD25R,0.06299X0.07087*%
%ADD26R,0.04724X0.1378*%
%ADD27R,0.00787X0.06299*%
%ADD28R,0.01378X0.02559*%
%ADD29R,0.02559X0.01378*%
%ADD30O,0.045X0.033*%
%ADD31C,0.01*%
%ADD32C,0.011*%
%ADD33C,0.012*%
%ADD34C,0.05*%
%ADD35C,0.014*%
%ADD36C,0.015*%
%ADD37C,0.016*%
%ADD38C,0.007*%
G54D10*
%SRX1Y1I0.0J0.0*%
G1X26710Y57500D3*
G1X26710Y73010D3*
G1X56500Y58910D3*
G1X56500Y73010D3*
G54D20*
G1X35360Y63870D3*
G1X35360Y64620D3*
G1X34660Y64250D3*
G1X42550Y70690D2*
G54D11*
G1X42970Y70690D1*
G1X43110Y70550D1*
G1X43110Y70195D1*
G1X43110Y73265D2*
G1X43035Y73190D1*
G1X42540Y73190D1*
G1X47200Y70195D2*
G1X47200Y71110D1*
G1X47200Y73265D2*
G1X47275Y73190D1*
G1X48860Y73190D1*
G1X26837Y69133D3*
G1X37743Y69133D3*
G54D21*
G1X35046Y67035D3*
G1X35302Y67035D3*
G1X35558Y67035D3*
G1X35814Y67035D3*
G1X35814Y68725D3*
G1X35558Y68725D3*
G1X35302Y68725D3*
G1X35046Y68725D3*
G54D30*
G1X54130Y57000D3*
G1X53130Y57000D3*
G1X54130Y60000D3*
G1X54130Y59500D3*
G1X54130Y59000D3*
G1X54130Y58500D3*
G1X54130Y58000D3*
G1X54130Y57500D3*
G1X53130Y57500D3*
G1X53130Y58000D3*
G1X53130Y58500D3*
G1X53130Y59000D3*
G1X53130Y59500D3*
G1X53130Y60000D3*
G1X54130Y63000D3*
G1X54130Y62500D3*
G1X54130Y62000D3*
G1X54130Y61500D3*
G1X54130Y61000D3*
G1X54130Y60500D3*
G1X53130Y60500D3*
G1X53130Y61000D3*
G1X53130Y61500D3*
G1X53130Y62000D3*
G1X53130Y62500D3*
G1X53130Y63000D3*
G1X54130Y66000D3*
G1X54130Y65500D3*
G1X54130Y65000D3*
G1X54130Y64500D3*
G1X54130Y64000D3*
G1X54130Y63500D3*
G1X53130Y63500D3*
G1X53130Y64000D3*
G1X53130Y64500D3*
G1X53130Y65000D3*
G1X53130Y65500D3*
G1X53130Y66000D3*
G1X54130Y69000D3*
G1X54130Y68500D3*
G1X54130Y68000D3*
G1X54130Y67500D3*
G1X54130Y67000D3*
G1X54130Y66500D3*
G1X53130Y66500D3*
G1X53130Y67000D3*
G1X53130Y67500D3*
G1X53130Y68000D3*
G1X53130Y68500D3*
G1X53130Y69000D3*
G1X54130Y71500D3*
G1X54130Y71000D3*
G1X54130Y70500D3*
G1X54130Y70000D3*
G1X54130Y69500D3*
G1X53130Y69500D3*
G1X53130Y70000D3*
G1X53130Y70500D3*
G1X53130Y71000D3*
G1X53130Y71500D3*
G54D12*
G1X27034Y67558D3*
G1X37546Y70708D3*
G1X35360Y64620D2*
G54D31*
G1X35360Y64950D1*
G1X35365Y65400D2*
G1X35365Y64955D1*
G1X35360Y64950D1*
G1X34660Y64250D2*
G1X34660Y64610D1*
G1X34695Y65400D2*
G1X34695Y64645D1*
G1X34660Y64610D1*
G1X40536Y58384D2*
G1X40532Y58380D1*
G1X40126Y58380D1*
G1X39950Y58204D1*
G1X39950Y57760D1*
G1X39340Y57150D1*
G1X37816Y57150D1*
G1X37556Y56890D1*
G1X37510Y56890D1*
G1X40230Y58130D2*
G1X40230Y57790D1*
G1X39340Y56900D1*
G1X37920Y56900D1*
G1X38760Y62445D2*
G1X38760Y62205D1*
G1X39395Y61570D1*
G1X40065Y61570D2*
G1X40065Y61605D1*
G1X39760Y61910D1*
G1X39570Y61910D1*
G1X39260Y62220D1*
G1X39260Y62445D1*
G54D13*
G1X29370Y56855D3*
G1X29870Y56855D3*
G1X29370Y57525D3*
G1X29870Y57525D3*
G1X31530Y56855D3*
G1X32030Y56855D3*
G1X32530Y56855D3*
G1X30370Y56855D3*
G1X31530Y57525D3*
G1X32030Y57525D3*
G1X32530Y57525D3*
G1X30370Y57525D3*
G1X33290Y63325D3*
G1X33290Y63995D3*
G1X34600Y72495D3*
G1X34600Y73165D3*
G1X36390Y67015D3*
G1X36390Y67685D3*
G1X40960Y62885D3*
G1X40960Y63555D3*
G1X49430Y65975D3*
G1X49430Y66645D3*
G1X49640Y67865D3*
G1X49640Y67195D3*
G1X49460Y70445D3*
G1X49460Y69775D3*
G1X52470Y65215D3*
G1X52470Y65885D3*
G1X52540Y63735D3*
G1X52540Y64405D3*
G1X52610Y68285D3*
G1X52610Y67615D3*
G1X52610Y68835D3*
G1X52120Y68955D3*
G1X52120Y68285D3*
G1X52610Y69505D3*
G1X54780Y67335D3*
G1X54780Y68005D3*
G54D22*
G1X38260Y62445D3*
G1X38760Y62445D3*
G1X38760Y64335D3*
G1X38260Y64335D3*
G1X39260Y62445D3*
G1X39760Y62445D3*
G1X39760Y64335D3*
G1X39260Y64335D3*
G1X47850Y65635D3*
G1X47350Y65635D3*
G1X47350Y63745D3*
G1X47850Y63745D3*
G1X48850Y65635D3*
G1X48350Y65635D3*
G1X48350Y63745D3*
G1X48850Y63745D3*
G1X38465Y57730D2*
G54D32*
G1X38465Y58705D1*
G1X38310Y58860D1*
G1X39135Y57730D2*
G1X39430Y57730D1*
G1X39657Y57957D1*
G54D23*
G1X37030Y67026D3*
G1X37030Y67774D3*
G1X49550Y73254D3*
G1X49550Y72506D3*
G54D14*
G1X28290Y57000D3*
G1X28290Y58000D3*
G1X39420Y72710D3*
G1X40438Y70462D3*
G1X40420Y72710D3*
G1X55730Y57500D3*
G1X55730Y64250D3*
G1X55730Y71000D3*
G1X54900Y73510D3*
G1X54900Y72510D3*
G1X30460Y63114D2*
G54D33*
G1X30184Y63114D1*
G1X29860Y62790D1*
G1X29105Y62790D1*
G1X30460Y63626D2*
G1X30194Y63626D1*
G1X29720Y64100D1*
G1X29720Y67100D1*
G1X33340Y70720D1*
G1X33340Y72685D1*
G1X30460Y63370D2*
G1X30040Y63370D1*
G1X30435Y73690D2*
G1X30010Y73690D1*
G1X33315Y62200D2*
G1X33305Y62210D1*
G1X32040Y62210D1*
G1X31648Y62602D1*
G1X30460Y62602D1*
G1X30460Y62858D2*
G1X30460Y62602D1*
G1X32660Y62858D2*
G1X33197Y62858D1*
G1X33315Y62740D1*
G1X32660Y62858D2*
G1X32660Y62602D1*
G1X30460Y64138D2*
G1X30460Y64785D1*
G1X30465Y64790D1*
G1X30460Y64138D2*
G1X30460Y63882D1*
G1X32660Y63626D2*
G1X32344Y63626D1*
G1X32130Y63840D1*
G1X32660Y63370D2*
G1X33245Y63370D1*
G1X33290Y63325D1*
G1X32415Y64790D2*
G1X32415Y65300D1*
G1X32415Y64790D2*
G1X32860Y64790D1*
G1X31745Y64790D2*
G1X31745Y63835D1*
G1X32466Y63114D1*
G1X32660Y63114D1*
G1X31135Y64790D2*
G1X31745Y64790D1*
G1X31745Y65300D2*
G1X31745Y64790D1*
G1X34145Y63300D2*
G1X34060Y63385D1*
G1X34060Y64030D1*
G1X33759Y64331D1*
G1X33043Y64331D1*
G1X32850Y64138D1*
G1X32660Y64138D1*
G1X32660Y63882D2*
G1X32660Y64138D1*
G1X31340Y73365D2*
G1X31340Y73455D1*
G1X31105Y73690D1*
G1X31340Y73365D2*
G1X31665Y73690D1*
G1X31340Y72900D2*
G1X31340Y73365D1*
G1X31340Y72900D2*
G1X31340Y72170D1*
G1X32335Y73690D2*
G1X32335Y72905D1*
G1X32340Y72900D1*
G1X32740Y73590D2*
G1X32710Y73560D1*
G1X32465Y73560D1*
G1X32335Y73690D1*
G1X33290Y63325D2*
G1X33695Y63325D1*
G1X33290Y63995D2*
G1X33420Y63865D1*
G1X33725Y63865D1*
G1X34600Y72495D2*
G1X33530Y72495D1*
G1X33340Y72685D1*
G1X33340Y72900D2*
G1X33340Y72685D1*
G1X34600Y73165D2*
G1X34075Y73165D1*
G1X38645Y65030D2*
G1X38760Y64915D1*
G1X38760Y64335D1*
G1X38760Y63760D1*
G1X40960Y62885D2*
G1X41313Y62885D1*
G1X41400Y62972D1*
G1X39315Y65030D2*
G1X39260Y64975D1*
G1X39260Y64335D1*
G1X39260Y63760D1*
G1X40960Y63555D2*
G1X41295Y63555D1*
G1X41405Y63445D1*
G54D24*
G1X37610Y73290D3*
G54D15*
G1X28975Y56855D3*
G1X28970Y57185D3*
G1X28440Y60410D3*
G1X27440Y60360D3*
G1X27940Y60360D3*
G1X29115Y60495D3*
G1X27930Y62190D3*
G1X30040Y63370D3*
G1X30010Y73690D3*
G1X31145Y56855D3*
G1X32895Y56855D3*
G1X30745Y56855D3*
G1X32980Y57710D3*
G1X32900Y57190D3*
G1X31140Y57200D3*
G1X30930Y57525D3*
G1X32487Y60937D3*
G1X32093Y60937D3*
G1X32130Y63840D3*
G1X32860Y64790D3*
G1X31340Y72170D3*
G1X32740Y73590D3*
G1X35811Y56728D3*
G1X35810Y57058D3*
G1X36040Y59980D3*
G1X36035Y59593D3*
G1X34310Y58915D3*
G1X35860Y58770D3*
G1X35800Y57668D3*
G1X35800Y58020D3*
G1X35750Y60240D3*
G1X36020Y61870D3*
G1X36020Y61530D3*
G1X33695Y63325D3*
G1X35360Y64950D3*
G1X33725Y63865D3*
G1X34660Y64610D3*
G1X35720Y64110D3*
G1X36095Y68725D3*
G1X35814Y67450D3*
G1X34785Y68725D3*
G1X35990Y67800D3*
G1X34075Y73165D3*
G1X37510Y56890D3*
G1X37920Y56900D3*
G1X37130Y57040D3*
G1X38310Y58860D3*
G1X37565Y59290D3*
G1X37430Y58540D3*
G1X38820Y61760D3*
G1X38043Y61310D3*
G1X38430Y61380D3*
G1X38770Y61390D3*
G1X36520Y60910D3*
G1X36220Y61170D3*
G1X37316Y62541D3*
G1X39130Y61077D3*
G1X37290Y62870D3*
G1X38140Y60994D3*
G1X38250Y63060D3*
G1X37835Y63090D3*
G1X38780Y63242D3*
G1X37253Y63675D3*
G1X37259Y63345D3*
G1X36210Y63740D3*
G1X37263Y64005D3*
G1X37260Y64842D3*
G1X38760Y63760D3*
G1X38190Y64930D3*
G1X39130Y71440D3*
G1X39787Y56993D3*
G1X41620Y58640D3*
G1X42020Y59725D3*
G1X40536Y58384D3*
G1X40230Y58130D3*
G1X40956Y58346D3*
G1X39657Y57957D3*
G1X39380Y58550D3*
G1X41540Y60504D3*
G1X41367Y60981D3*
G1X41400Y62972D3*
G1X39455Y61017D3*
G1X40730Y60994D3*
G1X40380Y60992D3*
G1X41477Y64933D3*
G1X41390Y64360D3*
G1X41188Y64660D3*
G1X40058Y64180D3*
G1X39770Y65227D3*
G1X39260Y63760D3*
G1X41405Y63445D3*
G1X41966Y65230D3*
G1X41450Y63800D3*
G1X39766Y64890D3*
G1X40581Y65240D3*
G1X39480Y67580D3*
G1X41090Y66190D3*
G1X40660Y66250D3*
G1X40410Y69600D3*
G1X42420Y57120D3*
G1X42390Y57600D3*
G1X44010Y58200D3*
G1X43800Y57860D3*
G1X44320Y58620D3*
G1X43930Y57500D3*
G1X42380Y59640D3*
G1X44570Y59280D3*
G1X44843Y59466D3*
G1X42700Y62190D3*
G1X45120Y61720D3*
G1X44237Y63030D3*
G1X44219Y62700D3*
G1X44060Y62380D3*
G1X44916Y61251D3*
G1X43066Y60580D3*
G1X42456Y61200D3*
G1X43066Y60956D3*
G1X42200Y60955D3*
G1X44534Y63176D3*
G1X43770Y64885D3*
G1X44514Y64677D3*
G1X42620Y65550D3*
G1X44216Y64824D3*
G1X44265Y63366D3*
G1X44408Y63663D3*
G1X44610Y66110D3*
G1X43930Y63290D3*
G1X43510Y63800D3*
G1X43370Y63460D3*
G1X43049Y63584D3*
G1X42765Y63810D3*
G1X43030Y64070D3*
G1X43900Y66070D3*
G1X44260Y66055D3*
G1X44394Y67356D3*
G1X44680Y66440D3*
G1X43286Y66330D3*
G1X43660Y67250D3*
G1X44330Y68180D3*
G1X45040Y69680D3*
G1X42550Y70690D3*
G1X42540Y73190D3*
G1X47983Y56710D3*
G1X45400Y57430D3*
G1X46010Y57496D3*
G1X45551Y58369D3*
G1X45894Y57849D3*
G1X47593Y57732D3*
G1X47281Y59316D3*
G1X46813Y57240D3*
G1X47308Y57525D3*
G1X46980Y57590D3*
G1X47090Y58935D3*
G1X47902Y59772D3*
G1X48027Y59459D3*
G1X46091Y59883D3*
G1X46416Y59680D3*
G1X46760Y59525D3*
G1X46511Y57560D3*
G1X46343Y57253D3*
G1X47120Y61740D3*
G1X45780Y60320D3*
G1X45221Y61406D3*
G1X47415Y61888D3*
G1X47740Y61770D3*
G1X46245Y63125D3*
G1X45632Y61760D3*
G1X46140Y62335D3*
G1X45530Y60780D3*
G1X45810Y62330D3*
G1X46619Y61878D3*
G1X48085Y61714D3*
G1X45520Y63160D3*
G1X46970Y62715D3*
G1X46766Y62294D3*
G1X45230Y66060D3*
G1X45490Y63988D3*
G1X46388Y65960D3*
G1X47850Y64320D3*
G1X45530Y63560D3*
G1X47229Y64581D3*
G1X46160Y63730D3*
G1X46036Y65887D3*
G1X46880Y64000D3*
G1X45494Y64415D3*
G1X46549Y64699D3*
G1X46611Y65715D3*
G1X45520Y64790D3*
G1X47510Y64830D3*
G1X45530Y65170D3*
G1X46870Y64535D3*
G1X45780Y64180D3*
G1X45310Y66520D3*
G1X46619Y67220D3*
G1X47200Y66925D3*
G1X46630Y67880D3*
G1X46857Y68185D3*
G1X47256Y67308D3*
G1X46450Y67510D3*
G1X48060Y67140D3*
G1X48066Y67900D3*
G1X47200Y71110D3*
G1X48380Y56710D3*
G1X48228Y59720D3*
G1X48560Y59350D3*
G1X48942Y57274D3*
G1X48699Y59730D3*
G1X51000Y59970D3*
G1X50370Y58600D3*
G1X49149Y58816D3*
G1X50370Y58970D3*
G1X50049Y58510D3*
G1X50060Y58180D3*
G1X51010Y61850D3*
G1X48360Y62312D3*
G1X49110Y62840D3*
G1X49310Y62510D3*
G1X49650Y62230D3*
G1X50080Y61430D3*
G1X48634Y61711D3*
G1X49690Y65210D3*
G1X50940Y65630D3*
G1X51060Y64840D3*
G1X50880Y64048D3*
G1X48350Y64300D3*
G1X48491Y65035D3*
G1X49130Y65396D3*
G1X49700Y64130D3*
G1X49690Y63779D3*
G1X48810Y67910D3*
G1X48564Y68159D3*
G1X48840Y68420D3*
G1X49237Y68602D3*
G1X48932Y67587D3*
G1X49826Y66664D3*
G1X48545Y67590D3*
G1X49250Y67790D3*
G1X49830Y66250D3*
G1X48180Y67590D3*
G1X50900Y69165D3*
G1X48882Y69450D3*
G1X50955Y71765D3*
G1X48965Y70445D3*
G1X50410Y69380D3*
G1X49910Y69610D3*
G1X50912Y69948D3*
G1X48860Y73190D3*
G1X49000Y72670D3*
G1X52350Y58780D3*
G1X52370Y59220D3*
G1X51310Y59050D3*
G1X51455Y62935D3*
G1X51620Y65681D3*
G1X51950Y65340D3*
G1X51950Y66100D3*
G1X51270Y65650D3*
G1X52415Y66380D3*
G1X52390Y66737D3*
G1X52141Y69319D3*
G1X54741Y63014D3*
G1X54970Y62640D3*
G1X55240Y64980D3*
G1X54950Y63270D3*
G1X39420Y72710D2*
G54D34*
G1X38840Y73290D1*
G1X37610Y73290D1*
G54D25*
G1X43779Y69110D3*
G1X44881Y69110D3*
G1X51109Y59800D3*
G1X52211Y59800D3*
G54D16*
G1X28445Y61550D3*
G1X29115Y61550D3*
G1X29105Y62190D3*
G1X28435Y62190D3*
G1X28445Y60960D3*
G1X29115Y60960D3*
G1X29105Y62790D3*
G1X28435Y62790D3*
G1X30465Y64790D3*
G1X31135Y64790D3*
G1X31745Y64790D3*
G1X32415Y64790D3*
G1X31745Y65300D3*
G1X32415Y65300D3*
G1X31105Y73690D3*
G1X30435Y73690D3*
G1X31665Y73690D3*
G1X32335Y73690D3*
G1X35355Y56830D3*
G1X34685Y56830D3*
G1X33385Y56830D3*
G1X34055Y56830D3*
G1X35355Y57940D3*
G1X34685Y57940D3*
G1X33385Y57940D3*
G1X34055Y57940D3*
G1X33985Y62200D3*
G1X33315Y62200D3*
G1X33315Y62740D3*
G1X33985Y62740D3*
G1X34145Y63300D3*
G1X34815Y63300D3*
G1X34695Y65400D3*
G1X35365Y65400D3*
G1X35095Y66480D3*
G1X35765Y66480D3*
G1X35775Y69250D3*
G1X35105Y69250D3*
G1X39135Y57730D3*
G1X38465Y57730D3*
G1X38645Y65030D3*
G1X39395Y61570D3*
G1X40065Y61570D3*
G1X39315Y65030D3*
G1X43125Y57120D3*
G1X43795Y57120D3*
G1X45095Y58140D3*
G1X44425Y58140D3*
G1X44445Y57600D3*
G1X45115Y57600D3*
G1X47255Y62330D3*
G1X47925Y62330D3*
G1X47675Y63010D3*
G1X48345Y63010D3*
G1X49725Y68420D3*
G1X50395Y68420D3*
G1X50955Y68430D3*
G1X51625Y68430D3*
G1X28445Y60960D2*
G54D35*
G1X28445Y60415D1*
G1X28440Y60410D1*
G1X28445Y61550D2*
G1X28445Y60960D1*
G1X29105Y62190D2*
G1X29105Y62790D1*
G1X29115Y61550D2*
G1X29115Y62180D1*
G1X29105Y62190D1*
G1X29115Y60960D2*
G1X29115Y60495D1*
G1X28435Y62190D2*
G1X28435Y62790D1*
G1X28435Y62190D2*
G1X27930Y62190D1*
G1X35302Y68725D2*
G1X35558Y68725D1*
G1X35302Y67035D2*
G1X35302Y66687D1*
G1X35095Y66480D1*
G1X35814Y68725D2*
G1X35814Y69211D1*
G1X35775Y69250D1*
G1X35558Y67035D2*
G1X35558Y66687D1*
G1X35765Y66480D1*
G1X35814Y67035D2*
G1X36370Y67035D1*
G1X36390Y67015D1*
G1X35558Y67035D2*
G1X35814Y67035D1*
G1X35046Y68725D2*
G1X35046Y69191D1*
G1X35105Y69250D1*
G1X35775Y69250D2*
G1X35775Y69821D1*
G1X35834Y69880D1*
G1X35105Y69250D2*
G1X35105Y69861D1*
G1X35086Y69880D1*
G1X36390Y67015D2*
G1X37019Y67015D1*
G1X37030Y67026D1*
G1X36390Y67685D2*
G1X36941Y67685D1*
G1X37030Y67774D1*
G1X50956Y58440D2*
G1X50956Y58696D1*
G1X51310Y59050D1*
G1X51704Y58440D2*
G1X52010Y58440D1*
G1X52350Y58780D1*
G1X52211Y59800D2*
G1X52161Y59750D1*
G1X52161Y59429D1*
G1X52370Y59220D1*
G54D17*
G1X30460Y62858D3*
G1X30460Y62602D3*
G1X32660Y62602D3*
G1X32660Y62858D3*
G1X30460Y64138D3*
G1X30460Y63882D3*
G1X30460Y63626D3*
G1X30460Y63370D3*
G1X30460Y63114D3*
G1X32660Y63114D3*
G1X32660Y63370D3*
G1X32660Y63626D3*
G1X32660Y63882D3*
G1X32660Y64138D3*
G54D26*
G1X43110Y70195D3*
G1X43110Y73265D3*
G1X47200Y70195D3*
G1X47200Y73265D3*
G1X45040Y69680D2*
G54D36*
G1X45040Y69269D1*
G1X44881Y69110D1*
G1X48882Y69450D2*
G1X49135Y69450D1*
G1X49460Y69775D1*
G1X49460Y70445D2*
G1X48965Y70445D1*
G1X49550Y73254D2*
G1X49486Y73190D1*
G1X48860Y73190D1*
G1X49000Y72670D2*
G1X49350Y72670D1*
G1X49514Y72506D1*
G1X49550Y72506D1*
G54D18*
G1X32664Y60390D3*
G1X31916Y60390D3*
G1X35834Y69880D3*
G1X35086Y69880D3*
G1X50956Y58440D3*
G1X51704Y58440D3*
G54D27*
G1X46179Y58248D3*
G1X46336Y58248D3*
G1X46494Y58248D3*
G1X46651Y58248D3*
G1X46809Y58248D3*
G1X46966Y58248D3*
G1X47124Y58248D3*
G1X47281Y58248D3*
G1X47439Y58248D3*
G1X47596Y58248D3*
G1X47754Y58248D3*
G1X47911Y58248D3*
G1X47911Y60452D3*
G1X47754Y60452D3*
G1X47596Y60452D3*
G1X47439Y60452D3*
G1X47281Y60452D3*
G1X47124Y60452D3*
G1X46966Y60452D3*
G1X46809Y60452D3*
G1X46651Y60452D3*
G1X46494Y60452D3*
G1X46336Y60452D3*
G1X46179Y60452D3*
G1X48069Y58248D3*
G1X48226Y58248D3*
G1X48384Y58248D3*
G1X48541Y58248D3*
G1X48699Y58248D3*
G1X48856Y58248D3*
G1X49014Y58248D3*
G1X49171Y58248D3*
G1X49329Y58248D3*
G1X49486Y58248D3*
G1X49644Y58248D3*
G1X49801Y58248D3*
G1X49801Y60452D3*
G1X49644Y60452D3*
G1X49486Y60452D3*
G1X49329Y60452D3*
G1X49171Y60452D3*
G1X49014Y60452D3*
G1X48856Y60452D3*
G1X48699Y60452D3*
G1X48541Y60452D3*
G1X48384Y60452D3*
G1X48226Y60452D3*
G1X48069Y60452D3*
G1X32664Y60390D2*
G54D37*
G1X32487Y60567D1*
G1X32487Y60937D1*
G1X31916Y60390D2*
G1X32093Y60567D1*
G1X32093Y60937D1*
G1X35814Y68725D2*
G1X35814Y68493D1*
G1X35046Y67725D1*
G1X35046Y67035D1*
G1X35814Y68725D2*
G1X36095Y68725D1*
G1X35814Y67035D2*
G1X35814Y67450D1*
G1X35990Y67800D2*
G1X36010Y67820D1*
G1X36255Y67820D1*
G1X36390Y67685D1*
G1X35046Y68725D2*
G1X34785Y68725D1*
G1X43110Y70195D2*
G1X43110Y69779D1*
G1X43779Y69110D1*
G54D28*
G1X50588Y65985D3*
G1X50844Y65985D3*
G1X50844Y67855D3*
G1X50588Y67855D3*
G1X51100Y65985D3*
G1X51356Y65985D3*
G1X51612Y65985D3*
G1X51612Y67855D3*
G1X51356Y67855D3*
G1X51100Y67855D3*
G54D19*
G1X30340Y66300D3*
G1X31340Y66300D3*
G1X32340Y66300D3*
G1X32340Y72900D3*
G1X31340Y72900D3*
G1X30340Y72900D3*
G1X33340Y66300D3*
G1X33340Y72900D3*
G1X28970Y57185D2*
G54D38*
G1X29605Y57185D1*
G1X29870Y56920D1*
G1X29870Y56855D1*
G1X29370Y56855D2*
G1X28975Y56855D1*
G1X29370Y57525D2*
G1X29370Y57572D1*
G1X30194Y58396D1*
G1X32304Y58396D1*
G1X33758Y59850D1*
G1X35360Y59850D1*
G1X35750Y60240D1*
G1X29870Y57525D2*
G1X29870Y57580D1*
G1X30546Y58256D1*
G1X32362Y58256D1*
G1X33816Y59710D1*
G1X35720Y59710D1*
G1X35990Y59980D1*
G1X36040Y59980D1*
G1X31530Y56855D2*
G1X31145Y56855D1*
G1X32030Y56855D2*
G1X32030Y56903D1*
G1X31733Y57200D1*
G1X31140Y57200D1*
G1X32530Y56855D2*
G1X32895Y56855D1*
G1X30370Y56855D2*
G1X30745Y56855D1*
G1X32980Y57710D2*
G1X33100Y57710D1*
G1X33330Y57940D1*
G1X33385Y57940D1*
G1X33385Y56830D2*
G1X33380Y56830D1*
G1X33020Y57190D1*
G1X32900Y57190D1*
G1X31530Y57525D2*
G1X31530Y57572D1*
G1X31934Y57976D1*
G1X32478Y57976D1*
G1X33932Y59430D1*
G1X35865Y59430D1*
G1X35938Y59358D1*
G1X36132Y59358D1*
G1X37035Y60260D1*
G1X43240Y60260D1*
G1X43629Y60649D1*
G1X43629Y61509D1*
G1X44537Y62417D1*
G1X44537Y63083D1*
G1X44534Y63086D1*
G1X44534Y63176D1*
G1X44265Y63366D2*
G1X44315Y63416D1*
G1X44634Y63416D1*
G1X44670Y63380D1*
G1X44672Y63380D1*
G1X44809Y63243D1*
G1X44809Y62491D1*
G1X43769Y61451D1*
G1X43769Y60591D1*
G1X43298Y60120D1*
G1X37093Y60120D1*
G1X36190Y59218D1*
G1X35880Y59218D1*
G1X35807Y59290D1*
G1X33990Y59290D1*
G1X32536Y57836D1*
G1X32294Y57836D1*
G1X32030Y57572D1*
G1X32030Y57525D1*
G1X30370Y57525D2*
G1X30962Y58116D1*
G1X32420Y58116D1*
G1X33874Y59570D1*
G1X35960Y59570D1*
G1X35983Y59593D1*
G1X36035Y59593D1*
G1X44408Y63663D2*
G1X44421Y63650D1*
G1X44680Y63650D1*
G1X44970Y63360D1*
G1X44970Y62454D1*
G1X43909Y61393D1*
G1X43909Y60533D1*
G1X43356Y59980D1*
G1X37151Y59980D1*
G1X36248Y59078D1*
G1X35822Y59078D1*
G1X35749Y59150D1*
G1X34048Y59150D1*
G1X32530Y57632D1*
G1X32530Y57525D1*
G1X42390Y57600D2*
G1X42390Y58300D1*
G1X41130Y59560D1*
G1X38220Y59560D1*
G1X37660Y59000D1*
G1X36592Y59000D1*
G1X36070Y58478D1*
G1X36070Y57606D1*
G1X35897Y57433D1*
G1X34658Y57433D1*
G1X34055Y56830D1*
G1X34685Y56830D2*
G1X34690Y56830D1*
G1X35153Y57293D1*
G1X35955Y57293D1*
G1X36210Y57548D1*
G1X36210Y58420D1*
G1X36650Y58860D1*
G1X37718Y58860D1*
G1X38278Y59420D1*
G1X41060Y59420D1*
G1X41620Y58860D1*
G1X41620Y58640D1*
G1X35355Y56830D2*
G1X35445Y56740D1*
G1X35799Y56740D1*
G1X35811Y56728D1*
G1X34310Y58915D2*
G1X34310Y58210D1*
G1X34055Y57955D1*
G1X34055Y57940D1*
G1X35860Y58770D2*
G1X35520Y58770D1*
G1X34690Y57940D1*
G1X34685Y57940D1*
G1X35800Y58020D2*
G1X35435Y58020D1*
G1X35355Y57940D1*
G1X38820Y61760D2*
G1X38756Y61824D1*
G1X37767Y61824D1*
G1X37603Y61661D1*
G1X37603Y61660D1*
G1X36617Y60675D1*
G1X36305Y60675D1*
G1X35655Y61325D1*
G1X35655Y63575D1*
G1X35360Y63870D1*
G1X38043Y61310D2*
G1X37846Y61310D1*
G1X37037Y60501D1*
G1X36791Y60255D1*
G1X36131Y60255D1*
G1X35190Y61196D1*
G1X35190Y61940D1*
G1X34930Y62200D1*
G1X33985Y62200D1*
G1X38430Y61380D2*
G1X38266Y61544D1*
G1X37883Y61544D1*
G1X36733Y60395D1*
G1X36189Y60395D1*
G1X35330Y61254D1*
G1X35330Y62410D1*
G1X35060Y62680D1*
G1X34045Y62680D1*
G1X33985Y62740D1*
G1X34815Y63300D2*
G1X35515Y62600D1*
G1X35515Y61267D1*
G1X36247Y60535D1*
G1X36675Y60535D1*
G1X37825Y61684D1*
G1X38536Y61684D1*
G1X38770Y61450D1*
G1X38770Y61390D1*
G1X36020Y61870D2*
G1X36020Y63550D1*
G1X36210Y63740D1*
G1X36020Y61530D2*
G1X36020Y61538D1*
G1X36360Y61878D1*
G1X36360Y63109D1*
G1X37018Y63767D1*
G1X37018Y63772D1*
G1X37156Y63910D1*
G1X37161Y63910D1*
G1X37251Y64000D1*
G1X37258Y64000D1*
G1X37263Y64005D1*
G1X37253Y63675D2*
G1X37258Y63670D1*
G1X37280Y63670D1*
G1X37600Y63350D1*
G1X37600Y61970D1*
G1X36540Y60910D1*
G1X36520Y60910D1*
G1X36220Y61170D2*
G1X36730Y61680D1*
G1X36730Y62880D1*
G1X37195Y63345D1*
G1X37259Y63345D1*
G1X38760Y62445D2*
G1X38760Y62710D1*
G1X39140Y63090D1*
G1X39499Y63090D1*
G1X40780Y64371D1*
G1X40780Y64798D1*
G1X41587Y65605D1*
G1X42193Y65605D1*
G1X42513Y65285D1*
G1X42538Y65260D1*
G1X44884Y65260D1*
G1X45004Y65380D1*
G1X45320Y65380D1*
G1X45530Y65170D1*
G1X38250Y63060D2*
G1X38250Y62455D1*
G1X38260Y62445D1*
G1X38780Y63242D2*
G1X39453Y63242D1*
G1X40640Y64429D1*
G1X40640Y64856D1*
G1X41529Y65745D1*
G1X42405Y65745D1*
G1X42600Y65550D1*
G1X42620Y65550D1*
G1X38190Y64930D2*
G1X38260Y64860D1*
G1X38260Y64335D1*
G1X49910Y69610D2*
G1X49910Y69570D1*
G1X49540Y69200D1*
G1X46712Y69200D1*
G1X46022Y68510D1*
G1X39190Y68510D1*
G1X37930Y67250D1*
G1X37930Y63210D1*
G1X37810Y63090D1*
G1X37835Y63090D1*
G1X43800Y57860D2*
G1X43760Y57900D1*
G1X43740Y57900D1*
G1X42040Y59600D1*
G1X42040Y59700D1*
G1X42020Y59720D1*
G1X42020Y59725D1*
G1X40956Y58346D2*
G1X40875Y58266D1*
G1X40866Y58266D1*
G1X40730Y58130D1*
G1X40230Y58130D1*
G1X39260Y62445D2*
G1X39260Y62653D1*
G1X40920Y64313D1*
G1X40920Y64740D1*
G1X41645Y65465D1*
G1X42135Y65465D1*
G1X42455Y65145D1*
G1X42480Y65120D1*
G1X45190Y65120D1*
G1X45520Y64790D1*
G1X43770Y64885D2*
G1X41533Y64885D1*
G1X41485Y64933D1*
G1X41477Y64933D1*
G1X44514Y64677D2*
G1X44348Y64510D1*
G1X43768Y64510D1*
G1X43615Y64510D1*
G1X43614Y64510D1*
G1X41544Y64510D1*
G1X41474Y64440D1*
G1X41470Y64440D1*
G1X41390Y64360D1*
G1X44216Y64824D2*
G1X44164Y64824D1*
G1X43990Y64650D1*
G1X43673Y64650D1*
G1X43672Y64650D1*
G1X41198Y64650D1*
G1X41188Y64660D1*
G1X45230Y66060D2*
G1X44892Y66060D1*
G1X44652Y65820D1*
G1X43370Y65820D1*
G1X42705Y66485D1*
G1X40425Y66485D1*
G1X40050Y66110D1*
G1X40050Y64189D1*
G1X40058Y64180D1*
G1X41450Y63800D2*
G1X41988Y64339D1*
G1X45418Y64339D1*
G1X45494Y64415D1*
G1X39766Y64890D2*
G1X39766Y64341D1*
G1X39760Y64335D1*
G1X40660Y66250D2*
G1X40700Y66250D1*
G1X40855Y66095D1*
G1X40855Y66093D1*
G1X40993Y65955D1*
G1X41187Y65955D1*
G1X41282Y66050D1*
G1X42742Y66050D1*
G1X43252Y65540D1*
G1X44769Y65540D1*
G1X44897Y65669D1*
G1X45631Y65669D1*
G1X46000Y65300D1*
G1X46000Y64490D1*
G1X46970Y63520D1*
G1X46970Y62715D1*
G1X40581Y65240D2*
G1X40611Y65270D1*
G1X40856Y65270D1*
G1X41471Y65885D1*
G1X42709Y65885D1*
G1X43194Y65400D1*
G1X44826Y65400D1*
G1X44955Y65529D1*
G1X45551Y65529D1*
G1X45830Y65250D1*
G1X45830Y64462D1*
G1X46730Y63562D1*
G1X46730Y62330D1*
G1X46766Y62294D1*
G1X46880Y64000D2*
G1X46688Y64000D1*
G1X46140Y64548D1*
G1X46140Y65358D1*
G1X45689Y65809D1*
G1X45071Y65809D1*
G1X44839Y65809D1*
G1X44710Y65680D1*
G1X43310Y65680D1*
G1X42800Y66190D1*
G1X41090Y66190D1*
G1X44425Y58140D2*
G1X44070Y58140D1*
G1X44010Y58200D1*
G1X42420Y57120D2*
G1X43125Y57120D1*
G1X44445Y57600D2*
G1X44365Y57520D1*
G1X43950Y57520D1*
G1X43930Y57500D1*
G1X43930Y57255D1*
G1X43795Y57120D1*
G1X42380Y59640D2*
G1X42420Y59640D1*
G1X42521Y59741D1*
G1X44939Y59741D1*
G1X45090Y59590D1*
G1X45090Y59410D1*
G1X45420Y59080D1*
G1X45712Y59080D1*
G1X45897Y58895D1*
G1X46215Y58895D1*
G1X46312Y58798D1*
G1X46953Y58798D1*
G1X47090Y58935D1*
G1X47983Y56710D2*
G1X47833Y56860D1*
G1X46082Y56860D1*
G1X45635Y57307D1*
G1X45635Y57578D1*
G1X45519Y57694D1*
G1X45506Y57706D1*
G1X45506Y57991D1*
G1X45800Y58285D1*
G1X45800Y58542D1*
G1X45562Y58780D1*
G1X45080Y58780D1*
G1X45070Y58790D1*
G1X44580Y59280D1*
G1X44570Y59280D1*
G1X44843Y59466D2*
G1X44843Y59407D1*
G1X44870Y59380D1*
G1X44870Y59188D1*
G1X45138Y58920D1*
G1X45620Y58920D1*
G1X45940Y58600D1*
G1X45940Y58227D1*
G1X45646Y57933D1*
G1X45646Y57764D1*
G1X45659Y57752D1*
G1X45775Y57636D1*
G1X45775Y57365D1*
G1X46140Y57000D1*
G1X48150Y57000D1*
G1X48380Y56770D1*
G1X48380Y56710D1*
G1X45221Y61406D2*
G1X45220Y61406D1*
G1X45141Y61485D1*
G1X45023Y61485D1*
G1X44818Y61690D1*
G1X44818Y61866D1*
G1X44905Y61953D1*
G1X44905Y61955D1*
G1X45990Y63040D1*
G1X45990Y63560D1*
G1X46160Y63730D1*
G1X44237Y63030D2*
G1X43160Y63030D1*
G1X43040Y63150D1*
G1X43040Y63575D1*
G1X43049Y63584D1*
G1X44219Y62700D2*
G1X44210Y62700D1*
G1X44150Y62640D1*
G1X43180Y62640D1*
G1X42765Y63055D1*
G1X42765Y63810D1*
G1X44060Y62380D2*
G1X43971Y62291D1*
G1X43209Y62291D1*
G1X42530Y62970D1*
G1X42530Y63907D1*
G1X42668Y64045D1*
G1X43005Y64045D1*
G1X43030Y64070D1*
G1X44916Y61251D2*
G1X44908Y61260D1*
G1X44900Y61260D1*
G1X44665Y61495D1*
G1X44665Y61925D1*
G1X45840Y63100D1*
G1X45840Y64120D1*
G1X45780Y64180D1*
G1X43066Y60580D2*
G1X43075Y60580D1*
G1X43335Y60840D1*
G1X43335Y61053D1*
G1X43168Y61220D1*
G1X42476Y61220D1*
G1X42456Y61200D1*
G1X43066Y60956D2*
G1X42236Y60956D1*
G1X42235Y60955D1*
G1X42200Y60955D1*
G1X43370Y63460D2*
G1X43390Y63480D1*
G1X43560Y63480D1*
G1X44011Y63931D1*
G1X44819Y63931D1*
G1X45520Y63230D1*
G1X45520Y63160D1*
G1X48840Y68420D2*
G1X48820Y68440D1*
G1X46780Y68440D1*
G1X44915Y66575D1*
G1X44915Y66342D1*
G1X44683Y66110D1*
G1X44610Y66110D1*
G1X49237Y68602D2*
G1X49169Y68670D1*
G1X46800Y68670D1*
G1X44680Y66550D1*
G1X44680Y66440D1*
G1X43900Y66070D2*
G1X43900Y66190D1*
G1X46770Y69060D1*
G1X50060Y69060D1*
G1X50380Y69380D1*
G1X50410Y69380D1*
G1X44260Y66055D2*
G1X44260Y66180D1*
G1X44445Y66365D1*
G1X44445Y66537D1*
G1X46788Y68880D1*
G1X50615Y68880D1*
G1X50900Y69165D1*
G1X46010Y57496D2*
G1X46105Y57591D1*
G1X46105Y57685D1*
G1X46336Y57916D1*
G1X46336Y58248D1*
G1X45400Y57430D2*
G1X45285Y57430D1*
G1X45115Y57600D1*
G1X45551Y58369D2*
G1X45550Y58370D1*
G1X45350Y58370D1*
G1X45120Y58140D1*
G1X45095Y58140D1*
G1X48560Y59350D2*
G1X48434Y59224D1*
G1X47750Y59224D1*
G1X47184Y58658D1*
G1X46258Y58658D1*
G1X46179Y58579D1*
G1X46179Y58248D1*
G1X45894Y57849D2*
G1X45931Y57849D1*
G1X46179Y58096D1*
G1X46179Y58248D1*
G1X47593Y57732D2*
G1X47566Y57732D1*
G1X47564Y57734D1*
G1X47438Y57734D1*
G1X47281Y57891D1*
G1X47281Y58248D1*
G1X47281Y59316D2*
G1X47280Y59317D1*
G1X47280Y59571D1*
G1X47281Y59572D1*
G1X47281Y60452D1*
G1X46809Y58248D2*
G1X46809Y57781D1*
G1X46746Y57718D1*
G1X46746Y57308D1*
G1X46813Y57240D1*
G1X47308Y57525D2*
G1X47308Y57654D1*
G1X47126Y57835D1*
G1X47126Y57845D1*
G1X47124Y57848D1*
G1X47124Y58248D1*
G1X46980Y57590D2*
G1X46966Y57604D1*
G1X46966Y58248D1*
G1X48384Y58248D2*
G1X48384Y58579D1*
G1X48299Y58664D1*
G1X47982Y58664D1*
G1X47911Y58593D1*
G1X47911Y58248D1*
G1X47754Y58248D2*
G1X47754Y58634D1*
G1X47924Y58804D1*
G1X48371Y58804D1*
G1X48541Y58633D1*
G1X48541Y58248D1*
G1X48856Y58248D2*
G1X48856Y58579D1*
G1X48491Y58944D1*
G1X47866Y58944D1*
G1X47596Y58674D1*
G1X47596Y58248D1*
G1X49014Y58248D2*
G1X49014Y58619D1*
G1X48549Y59084D1*
G1X47808Y59084D1*
G1X47456Y58732D1*
G1X47456Y58730D1*
G1X47439Y58712D1*
G1X47439Y58248D1*
G1X47090Y58935D2*
G1X47263Y58935D1*
G1X47533Y59204D1*
G1X47533Y59813D1*
G1X47762Y60042D1*
G1X47990Y60042D1*
G1X48069Y60121D1*
G1X48069Y60452D1*
G1X47902Y59772D2*
G1X47922Y59772D1*
G1X48226Y60076D1*
G1X48226Y60452D1*
G1X48027Y59459D2*
G1X48337Y59459D1*
G1X48464Y59586D1*
G1X48464Y59827D1*
G1X48541Y59905D1*
G1X48541Y60452D1*
G1X46091Y59883D2*
G1X46113Y59883D1*
G1X46336Y60106D1*
G1X46336Y60452D1*
G1X46416Y59680D2*
G1X46420Y59684D1*
G1X46420Y59770D1*
G1X46494Y59844D1*
G1X46494Y60452D1*
G1X46760Y59525D2*
G1X46760Y59540D1*
G1X46651Y59649D1*
G1X46651Y60452D1*
G1X47124Y60452D2*
G1X47124Y59519D1*
G1X47040Y59435D1*
G1X47040Y59242D1*
G1X46735Y58938D1*
G1X46370Y58938D1*
G1X46273Y59035D1*
G1X45955Y59035D1*
G1X45500Y59490D1*
G1X45500Y60750D1*
G1X45530Y60780D1*
G1X46511Y57560D2*
G1X46511Y57681D1*
G1X46651Y57822D1*
G1X46651Y58248D1*
G1X46494Y58248D2*
G1X46494Y57876D1*
G1X46245Y57627D1*
G1X46245Y57379D1*
G1X46333Y57291D1*
G1X46333Y57263D1*
G1X46343Y57253D1*
G1X47120Y61740D2*
G1X47110Y61750D1*
G1X47110Y62185D1*
G1X47255Y62330D1*
G1X47675Y63010D2*
G1X47850Y63185D1*
G1X47850Y63745D1*
G1X48360Y62312D2*
G1X48340Y62312D1*
G1X48322Y62330D1*
G1X47925Y62330D1*
G1X47415Y61888D2*
G1X47415Y61942D1*
G1X47567Y62094D1*
G1X47567Y62566D1*
G1X47350Y62783D1*
G1X47350Y63745D1*
G1X48850Y63745D2*
G1X48850Y63248D1*
G1X48730Y63128D1*
G1X48730Y62338D1*
G1X48341Y61949D1*
G1X47919Y61949D1*
G1X47740Y61770D1*
G1X46245Y63125D2*
G1X46245Y63097D1*
G1X45360Y62212D1*
G1X45360Y61700D1*
G1X46188Y60872D1*
G1X46734Y60872D1*
G1X46809Y60798D1*
G1X46809Y60452D1*
G1X45632Y61760D2*
G1X45673Y61720D1*
G1X45700Y61720D1*
G1X46408Y61012D1*
G1X46792Y61012D1*
G1X46966Y60838D1*
G1X46966Y60452D1*
G1X46140Y62335D2*
G1X46035Y62230D1*
G1X46035Y61955D1*
G1X46670Y61320D1*
G1X46890Y61320D1*
G1X47198Y61012D1*
G1X47422Y61012D1*
G1X47596Y60838D1*
G1X47596Y60452D1*
G1X45810Y62330D2*
G1X45810Y62170D1*
G1X45840Y62140D1*
G1X45840Y61870D1*
G1X46558Y61152D1*
G1X46850Y61152D1*
G1X47130Y60872D1*
G1X47364Y60872D1*
G1X47439Y60798D1*
G1X47439Y60452D1*
G1X46619Y61878D2*
G1X46660Y61837D1*
G1X46660Y61748D1*
G1X47256Y61152D1*
G1X47480Y61152D1*
G1X47754Y60879D1*
G1X47754Y60452D1*
G1X48085Y61714D2*
G1X48044Y61714D1*
G1X47911Y61581D1*
G1X47911Y60452D1*
G1X47850Y63745D2*
G1X47850Y64320D1*
G1X47229Y64581D2*
G1X47229Y65041D1*
G1X46986Y65284D1*
G1X46986Y65676D1*
G1X46986Y65870D1*
G1X46840Y66016D1*
G1X46840Y66911D1*
G1X46994Y67065D1*
G1X46994Y67386D1*
G1X47238Y67630D1*
G1X48140Y67630D1*
G1X48180Y67590D1*
G1X48069Y60452D2*
G1X48069Y61259D1*
G1X48320Y61510D1*
G1X48320Y61730D1*
G1X48870Y62280D1*
G1X48870Y63070D1*
G1X49090Y63290D1*
G1X49090Y64410D1*
G1X48900Y64600D1*
G1X47580Y64600D1*
G1X47280Y64300D1*
G1X46616Y64300D1*
G1X46300Y64616D1*
G1X46300Y65622D1*
G1X46036Y65887D1*
G1X46611Y65715D2*
G1X46611Y65704D1*
G1X46591Y65684D1*
G1X46591Y65231D1*
G1X46522Y65162D1*
G1X46522Y64726D1*
G1X46549Y64699D1*
G1X54780Y68005D2*
G1X55110Y67675D1*
G1X55110Y65490D1*
G1X54370Y64750D1*
G1X51800Y64750D1*
G1X51435Y65115D1*
G1X50955Y65115D1*
G1X50640Y64800D1*
G1X48370Y64800D1*
G1X47850Y65320D1*
G1X47850Y65390D1*
G1X47850Y65635D2*
G1X47850Y65390D1*
G1X47510Y64830D2*
G1X47510Y65050D1*
G1X47850Y65390D1*
G1X48066Y67900D2*
G1X48056Y67890D1*
G1X47300Y67890D1*
G1X46854Y67444D1*
G1X46854Y67123D1*
G1X46700Y66969D1*
G1X46700Y65958D1*
G1X46846Y65812D1*
G1X46846Y65618D1*
G1X46846Y64559D1*
G1X46870Y64535D1*
G1X47200Y66925D2*
G1X47200Y66920D1*
G1X47810Y66310D1*
G1X48920Y66310D1*
G1X49138Y66092D1*
G1X49138Y65720D1*
G1X49194Y65664D1*
G1X49566Y65664D1*
G1X49690Y65540D1*
G1X49690Y65210D1*
G1X46619Y67220D2*
G1X46610Y67220D1*
G1X46600Y67210D1*
G1X45990Y67210D1*
G1X45310Y66530D1*
G1X45310Y66520D1*
G1X48810Y67910D2*
G1X48800Y67900D1*
G1X48490Y67900D1*
G1X48255Y68135D1*
G1X47245Y68135D1*
G1X46990Y67880D1*
G1X46630Y67880D1*
G1X48564Y68159D2*
G1X48546Y68159D1*
G1X48430Y68275D1*
G1X46947Y68275D1*
G1X46857Y68185D1*
G1X54130Y57000D2*
G1X53680Y57000D1*
G1X53388Y56708D1*
G1X48780Y56708D1*
G1X48226Y57261D1*
G1X48226Y58248D1*
G1X53130Y57000D2*
G1X53000Y57000D1*
G1X52848Y56848D1*
G1X48838Y56848D1*
G1X48384Y57302D1*
G1X48384Y58248D1*
G1X54130Y57500D2*
G1X53617Y57500D1*
G1X53367Y57250D1*
G1X52940Y57250D1*
G1X52678Y56988D1*
G1X48896Y56988D1*
G1X48541Y57342D1*
G1X48541Y58248D1*
G1X48228Y59720D2*
G1X48220Y59729D1*
G1X48220Y59870D1*
G1X48384Y60034D1*
G1X48384Y60452D1*
G1X48942Y57274D2*
G1X48863Y57353D1*
G1X48863Y57357D1*
G1X48699Y57521D1*
G1X48699Y58248D1*
G1X48699Y59730D2*
G1X48699Y60452D1*
G1X49486Y58248D2*
G1X49486Y58623D1*
G1X49524Y58661D1*
G1X49524Y58662D1*
G1X49660Y58798D1*
G1X49938Y58798D1*
G1X49990Y58745D1*
G1X50146Y58745D1*
G1X50291Y58600D1*
G1X50370Y58600D1*
G1X53130Y58500D2*
G1X52970Y58500D1*
G1X52158Y57688D1*
G1X49674Y57688D1*
G1X49486Y57876D1*
G1X49486Y58248D1*
G1X53130Y58000D2*
G1X52970Y58000D1*
G1X52378Y57408D1*
G1X49558Y57408D1*
G1X49170Y57796D1*
G1X49170Y58190D1*
G1X49171Y58191D1*
G1X49171Y58248D1*
G1X49149Y58816D2*
G1X49171Y58794D1*
G1X49171Y58248D1*
G1X54130Y58500D2*
G1X53617Y58500D1*
G1X53367Y58250D1*
G1X52940Y58250D1*
G1X52238Y57548D1*
G1X49616Y57548D1*
G1X49329Y57835D1*
G1X49329Y58248D1*
G1X49329Y58663D1*
G1X49384Y58719D1*
G1X49384Y58720D1*
G1X49602Y58938D1*
G1X50338Y58938D1*
G1X50370Y58970D1*
G1X48069Y58248D2*
G1X48226Y58248D1*
G1X53130Y57500D2*
G1X52950Y57500D1*
G1X52578Y57128D1*
G1X49442Y57128D1*
G1X48856Y57714D1*
G1X48856Y58248D1*
G1X54130Y58000D2*
G1X53617Y58000D1*
G1X53367Y57750D1*
G1X52960Y57750D1*
G1X52478Y57268D1*
G1X49500Y57268D1*
G1X49014Y57754D1*
G1X49014Y58248D1*
G1X49014Y60452D2*
G1X49014Y59946D1*
G1X49074Y59885D1*
G1X49486Y59472D1*
G1X50116Y59472D1*
G1X50520Y59876D1*
G1X50520Y60277D1*
G1X50643Y60400D1*
G1X52090Y60400D1*
G1X52940Y61250D1*
G1X53380Y61250D1*
G1X54130Y60500D1*
G1X54130Y61000D2*
G1X53380Y61750D1*
G1X52902Y61750D1*
G1X51832Y60680D1*
G1X50759Y60680D1*
G1X50527Y60680D1*
G1X50390Y60542D1*
G1X50389Y60542D1*
G1X50240Y60393D1*
G1X50240Y59993D1*
G1X50000Y59752D1*
G1X49602Y59752D1*
G1X49329Y60026D1*
G1X49329Y60452D1*
G1X53130Y62000D2*
G1X52954Y62000D1*
G1X51894Y60940D1*
G1X50589Y60940D1*
G1X50332Y60682D1*
G1X50331Y60682D1*
G1X50100Y60451D1*
G1X50100Y60051D1*
G1X49942Y59892D1*
G1X49660Y59892D1*
G1X49486Y60066D1*
G1X49486Y60452D1*
G1X54130Y61500D2*
G1X53380Y62250D1*
G1X52966Y62250D1*
G1X51856Y61140D1*
G1X50591Y61140D1*
G1X50274Y60822D1*
G1X50273Y60822D1*
G1X49960Y60509D1*
G1X49960Y60109D1*
G1X49884Y60032D1*
G1X49718Y60032D1*
G1X49644Y60107D1*
G1X49644Y60452D1*
G1X49171Y60452D2*
G1X49171Y59986D1*
G1X49214Y59943D1*
G1X49544Y59612D1*
G1X50058Y59612D1*
G1X50380Y59935D1*
G1X50380Y60335D1*
G1X50585Y60540D1*
G1X52010Y60540D1*
G1X52970Y61500D1*
G1X53130Y61500D1*
G1X48856Y60452D2*
G1X48856Y59905D1*
G1X48934Y59827D1*
G1X49428Y59332D1*
G1X50174Y59332D1*
G1X50660Y59819D1*
G1X50660Y60180D1*
G1X50739Y60259D1*
G1X51101Y60259D1*
G1X51101Y60260D1*
G1X52290Y60260D1*
G1X53030Y61000D1*
G1X53130Y61000D1*
G1X54130Y59000D2*
G1X53617Y59000D1*
G1X53367Y58750D1*
G1X52950Y58750D1*
G1X52028Y57828D1*
G1X49732Y57828D1*
G1X49644Y57916D1*
G1X49644Y58248D1*
G1X50049Y58510D2*
G1X50027Y58510D1*
G1X49880Y58658D1*
G1X49718Y58658D1*
G1X49644Y58584D1*
G1X49644Y58248D1*
G1X53130Y59000D2*
G1X53000Y59000D1*
G1X51970Y57970D1*
G1X49950Y57970D1*
G1X49801Y58119D1*
G1X49801Y58248D1*
G1X49819Y58230D1*
G1X50010Y58230D1*
G1X50060Y58180D1*
G1X48345Y63010D2*
G1X48345Y63740D1*
G1X48350Y63745D1*
G1X49110Y62840D2*
G1X49070Y62800D1*
G1X49070Y62100D1*
G1X49329Y61841D1*
G1X49329Y60452D1*
G1X49310Y62510D2*
G1X49310Y62140D1*
G1X49486Y61964D1*
G1X49486Y60452D1*
G1X49650Y62230D2*
G1X49644Y62224D1*
G1X49644Y60452D1*
G1X53130Y62500D2*
G1X53018Y62500D1*
G1X51848Y61330D1*
G1X50550Y61330D1*
G1X49801Y60581D1*
G1X49801Y60452D1*
G1X50080Y61430D2*
G1X49801Y61151D1*
G1X49801Y60581D1*
G1X48634Y61711D2*
G1X48677Y61755D1*
G1X49060Y61755D1*
G1X49170Y61645D1*
G1X49170Y60454D1*
G1X49171Y60452D1*
G1X50940Y65630D2*
G1X50940Y65652D1*
G1X51100Y65812D1*
G1X51100Y65985D1*
G1X51950Y65340D2*
G1X51895Y65395D1*
G1X50843Y65395D1*
G1X50705Y65533D1*
G1X50705Y65727D1*
G1X50844Y65866D1*
G1X50844Y65985D1*
G1X51950Y66100D2*
G1X51950Y66118D1*
G1X51838Y66230D1*
G1X50758Y66230D1*
G1X50588Y66060D1*
G1X50588Y65985D1*
G1X49430Y65975D2*
G1X49555Y65975D1*
G1X49830Y66250D1*
G1X48350Y63745D2*
G1X48350Y64300D1*
G1X54780Y67335D2*
G1X54690Y67245D1*
G1X54690Y65640D1*
G1X54300Y65250D1*
G1X52966Y65250D1*
G1X52780Y65064D1*
G1X52780Y64980D1*
G1X52762Y64962D1*
G1X52762Y64960D1*
G1X52706Y64904D1*
G1X52704Y64904D1*
G1X52690Y64890D1*
G1X52068Y64890D1*
G1X51703Y65255D1*
G1X50897Y65255D1*
G1X50617Y64975D1*
G1X48551Y64975D1*
G1X48491Y65035D1*
G1X48400Y65126D1*
G1X48400Y65585D1*
G1X48350Y65635D1*
G1X49130Y65396D2*
G1X48954Y65396D1*
G1X48850Y65500D1*
G1X48850Y65635D1*
G1X53130Y63000D2*
G1X52160Y63000D1*
G1X51360Y63800D1*
G1X50500Y63800D1*
G1X50170Y64130D1*
G1X49700Y64130D1*
G1X49690Y63779D2*
G1X49692Y63779D1*
G1X49861Y63610D1*
G1X51260Y63610D1*
G1X52120Y62750D1*
G1X54410Y62750D1*
G1X54770Y62390D1*
G1X55090Y62390D1*
G1X55230Y62530D1*
G1X55230Y64970D1*
G1X55240Y64980D1*
G1X49640Y67195D2*
G1X49876Y67432D1*
G1X50165Y67432D1*
G1X50844Y67855D2*
G1X50844Y67970D1*
G1X50395Y68420D1*
G1X49725Y68420D2*
G1X49847Y68420D1*
G1X50139Y68128D1*
G1X50315Y68128D1*
G1X50588Y67855D1*
G1X50955Y68430D2*
G1X51100Y68285D1*
G1X51100Y67855D1*
G1X50165Y66664D2*
G1X49826Y66664D1*
G1X49430Y66645D2*
G1X49806Y66645D1*
G1X49826Y66664D1*
G1X50165Y66920D2*
G1X50165Y66664D1*
G1X49640Y67865D2*
G1X49894Y67610D1*
G1X50318Y67610D1*
G1X50388Y67540D1*
G1X50388Y67324D1*
G1X50240Y67176D1*
G1X50165Y67176D1*
G1X50165Y66408D2*
G1X49988Y66408D1*
G1X49830Y66250D1*
G1X49640Y67865D2*
G1X49325Y67865D1*
G1X49250Y67790D1*
G1X53130Y71500D2*
G1X51800Y71500D1*
G1X49910Y69610D1*
G1X50912Y69948D2*
G1X50928Y69948D1*
G1X52230Y71250D1*
G1X53680Y71250D1*
G1X53930Y71500D1*
G1X54130Y71500D1*
G1X51620Y65681D2*
G1X51620Y65850D1*
G1X51612Y65858D1*
G1X51612Y65985D1*
G1X52035Y67176D2*
G1X52047Y67164D1*
G1X52296Y67164D1*
G1X52820Y66640D1*
G1X52820Y66396D1*
G1X52966Y66250D1*
G1X53380Y66250D1*
G1X54130Y65500D1*
G1X53130Y64500D2*
G1X52635Y64500D1*
G1X52540Y64405D1*
G1X52470Y65885D2*
G1X52585Y66000D1*
G1X53130Y66000D1*
G1X51356Y65985D2*
G1X51356Y65736D1*
G1X51270Y65650D1*
G1X53130Y64000D2*
G1X52805Y64000D1*
G1X52540Y63735D1*
G1X53130Y65500D2*
G1X52755Y65500D1*
G1X52470Y65215D1*
G1X51612Y67855D2*
G1X51690Y67855D1*
G1X52120Y68285D1*
G1X51625Y68430D2*
G1X51356Y68161D1*
G1X51356Y67855D1*
G1X52415Y66380D2*
G1X52387Y66408D1*
G1X52035Y66408D1*
G1X52035Y66920D2*
G1X52207Y66920D1*
G1X52390Y66737D1*
G1X54130Y66000D2*
G1X53380Y66750D1*
G1X52908Y66750D1*
G1X52226Y67432D1*
G1X52035Y67432D1*
G1X53130Y69000D2*
G1X53115Y69000D1*
G1X52610Y69505D1*
G1X52610Y68285D2*
G1X52785Y68110D1*
G1X53020Y68110D1*
G1X53130Y68000D1*
G1X52141Y69319D2*
G1X52140Y69318D1*
G1X52140Y69240D1*
G1X52120Y69220D1*
G1X52120Y68955D1*
G1X53130Y68500D2*
G1X52970Y68500D1*
G1X52635Y68835D1*
G1X52610Y68835D1*
G1X53130Y67500D2*
G1X52725Y67500D1*
G1X52610Y67615D1*
G1X54741Y63014D2*
G1X54770Y63014D1*
G1X54770Y63050D1*
G1X54740Y63050D1*
G1X54290Y63500D1*
G1X54130Y63500D1*
G1X54970Y62640D2*
G1X54783Y62640D1*
G1X54423Y63000D1*
G1X54130Y63000D1*
G1X54950Y63270D2*
G1X54920Y63270D1*
G1X54190Y64000D1*
G1X54130Y64000D1*
G1X54130Y68000D2*
G1X54775Y68000D1*
G1X54780Y68005D1*
G1X54130Y67500D2*
G1X54615Y67500D1*
G1X54780Y67335D1*
G54D29*
G1X50165Y67432D3*
G1X50165Y67176D3*
G1X50165Y66920D3*
G1X50165Y66664D3*
G1X50165Y66408D3*
G1X52035Y66408D3*
G1X52035Y66664D3*
G1X52035Y66920D3*
G1X52035Y67176D3*
G1X52035Y67432D3*
M2*
