*
%LPD*%
%LNBOTTOM_SILKSCREEN*%
%FSLAX24Y24*%
%MOIN*%
%AD*%
%ADD39C,0.006*%
%ADD40C,0.00984*%
G54D39*
%SRX1Y1I0.0J0.0*%
G1X25710Y56500D2*
G1X57500Y56500D1*
G1X57500Y74010D1*
G1X25710Y74010D1*
G1X25710Y56500D1*
G1X27629Y62082D2*
G1X27606Y62046D1*
G1X27576Y62025D1*
G1X27541Y62020D1*
G1X27511Y62025D1*
G1X27480Y62051D1*
G1X27461Y62082D1*
G1X27457Y62113D1*
G1X27464Y62149D1*
G1X27491Y62175D1*
G1X27518Y62185D1*
G1X27553Y62185D1*
G1X27518Y62185D2*
G1X27495Y62201D1*
G1X27476Y62227D1*
G1X27468Y62258D1*
G1X27476Y62289D1*
G1X27495Y62314D1*
G1X27530Y62330D1*
G1X27564Y62325D1*
G1X27599Y62304D1*
G1X27189Y62020D2*
G1X27189Y62330D1*
G1X27331Y62108D1*
G1X27139Y62108D1*
G1X26990Y62020D2*
G1X26990Y62330D1*
G1X26868Y62227D2*
G1X26990Y62108D1*
G1X26940Y62154D2*
G1X26860Y62020D1*
G1X27935Y62650D2*
G1X27943Y62655D1*
G1X27943Y62665D1*
G1X27935Y62670D1*
G1X27927Y62665D1*
G1X27927Y62655D1*
G1X27935Y62650D1*
G1X27579Y62660D2*
G1X27579Y62970D1*
G1X27721Y62748D1*
G1X27529Y62748D1*
G1X27323Y62660D2*
G1X27315Y62727D1*
G1X27304Y62784D1*
G1X27288Y62836D1*
G1X27269Y62892D1*
G1X27238Y62970D1*
G1X27392Y62970D1*
G1X27070Y62867D2*
G1X27070Y62722D1*
G1X27055Y62686D1*
G1X27032Y62665D1*
G1X27005Y62660D1*
G1X26978Y62665D1*
G1X26955Y62686D1*
G1X26940Y62722D1*
G1X26940Y62660D2*
G1X26940Y62867D1*
G1X29460Y70850D2*
G1X26960Y70850D1*
G1X26960Y68350D1*
G1X29460Y68350D1*
G1X29528Y57505D2*
G1X29528Y56875D1*
G1X29212Y56875D1*
G1X29212Y57505D1*
G1X29528Y57505D1*
G1X30028Y57505D2*
G1X30028Y56875D1*
G1X29712Y56875D1*
G1X29712Y57505D1*
G1X30028Y57505D1*
G1X29306Y57851D2*
G1X29281Y57874D1*
G1X29265Y57900D1*
G1X29260Y57935D1*
G1X29270Y57970D1*
G1X29291Y57996D1*
G1X29327Y58016D1*
G1X29369Y58019D1*
G1X29410Y58012D1*
G1X29436Y57992D1*
G1X29456Y57966D1*
G1X29462Y57939D1*
G1X29456Y57912D1*
G1X29436Y57878D1*
G1X29570Y57889D1*
G1X29570Y57992D1*
G1X29260Y58180D2*
G1X29570Y58180D1*
G1X29467Y58303D2*
G1X29348Y58180D1*
G1X29394Y58230D2*
G1X29260Y58310D1*
G1X29309Y58414D2*
G1X29620Y58414D1*
G1X29620Y58510D1*
G1X29604Y58541D1*
G1X29583Y58560D1*
G1X29542Y58568D1*
G1X29501Y58560D1*
G1X29475Y58537D1*
G1X29459Y58510D1*
G1X29459Y58414D1*
G1X29459Y58510D2*
G1X29309Y58568D1*
G1X29309Y58801D2*
G1X29620Y58801D1*
G1X29558Y58755D1*
G1X29309Y58755D2*
G1X29309Y58847D1*
G1X29439Y59038D2*
G1X29475Y59065D1*
G1X29496Y59088D1*
G1X29506Y59119D1*
G1X29496Y59146D1*
G1X29475Y59165D1*
G1X29444Y59180D1*
G1X29408Y59184D1*
G1X29377Y59180D1*
G1X29346Y59165D1*
G1X29320Y59142D1*
G1X29309Y59115D1*
G1X29320Y59084D1*
G1X29351Y59057D1*
G1X29397Y59042D1*
G1X29449Y59038D1*
G1X29516Y59046D1*
G1X29552Y59057D1*
G1X29588Y59076D1*
G1X29614Y59103D1*
G1X29620Y59130D1*
G1X29609Y59157D1*
G1X29583Y59176D1*
G1X29807Y57861D2*
G1X29781Y57884D1*
G1X29765Y57910D1*
G1X29760Y57945D1*
G1X29770Y57980D1*
G1X29791Y58006D1*
G1X29827Y58026D1*
G1X29868Y58029D1*
G1X29910Y58022D1*
G1X29936Y58002D1*
G1X29956Y57976D1*
G1X29962Y57949D1*
G1X29956Y57922D1*
G1X29936Y57888D1*
G1X30070Y57899D1*
G1X30070Y58002D1*
G1X29760Y58190D2*
G1X30070Y58190D1*
G1X29967Y58312D2*
G1X29848Y58190D1*
G1X29894Y58240D2*
G1X29760Y58320D1*
G1X29810Y58424D2*
G1X30119Y58424D1*
G1X30119Y58520D1*
G1X30104Y58551D1*
G1X30083Y58570D1*
G1X30042Y58578D1*
G1X30001Y58570D1*
G1X29975Y58547D1*
G1X29959Y58520D1*
G1X29959Y58424D1*
G1X29959Y58520D2*
G1X29810Y58578D1*
G1X29810Y58811D2*
G1X30119Y58811D1*
G1X30058Y58765D1*
G1X29810Y58765D2*
G1X29810Y58857D1*
G1X29810Y59113D2*
G1X29877Y59121D1*
G1X29934Y59133D1*
G1X29985Y59148D1*
G1X30042Y59167D1*
G1X30119Y59198D1*
G1X30119Y59044D1*
G1X27965Y61340D2*
G1X27965Y61650D1*
G1X28011Y61588D1*
G1X28011Y61340D2*
G1X27919Y61340D1*
G1X27663Y61340D2*
G1X27655Y61407D1*
G1X27644Y61464D1*
G1X27628Y61516D1*
G1X27609Y61572D1*
G1X27578Y61650D1*
G1X27732Y61650D1*
G1X27410Y61340D2*
G1X27410Y61650D1*
G1X27288Y61547D2*
G1X27410Y61428D1*
G1X27360Y61474D2*
G1X27280Y61340D1*
G1X30258Y61401D2*
G1X30258Y61710D1*
G1X30162Y61710D1*
G1X30131Y61695D1*
G1X30112Y61674D1*
G1X30104Y61633D1*
G1X30112Y61592D1*
G1X30135Y61566D1*
G1X30162Y61550D1*
G1X30258Y61550D1*
G1X30162Y61550D2*
G1X30104Y61401D1*
G1X29944Y61659D2*
G1X29921Y61690D1*
G1X29894Y61705D1*
G1X29863Y61710D1*
G1X29825Y61700D1*
G1X29798Y61674D1*
G1X29791Y61643D1*
G1X29794Y61612D1*
G1X29810Y61586D1*
G1X29886Y61535D1*
G1X29921Y61499D1*
G1X29944Y61447D1*
G1X29952Y61401D1*
G1X29791Y61401D1*
G1X29634Y61530D2*
G1X29607Y61566D1*
G1X29584Y61586D1*
G1X29553Y61597D1*
G1X29527Y61586D1*
G1X29507Y61566D1*
G1X29492Y61535D1*
G1X29488Y61499D1*
G1X29492Y61468D1*
G1X29507Y61437D1*
G1X29530Y61411D1*
G1X29557Y61401D1*
G1X29588Y61411D1*
G1X29615Y61442D1*
G1X29630Y61488D1*
G1X29634Y61540D1*
G1X29626Y61607D1*
G1X29615Y61643D1*
G1X29596Y61680D1*
G1X29569Y61705D1*
G1X29542Y61710D1*
G1X29515Y61700D1*
G1X29496Y61674D1*
G1X29095Y61393D2*
G1X28465Y61393D1*
G1X28465Y61708D1*
G1X29095Y61708D1*
G1X29095Y61393D1*
G1X30256Y62020D2*
G1X30256Y62330D1*
G1X30160Y62330D1*
G1X30129Y62314D1*
G1X30110Y62293D1*
G1X30102Y62252D1*
G1X30110Y62211D1*
G1X30133Y62185D1*
G1X30160Y62169D1*
G1X30256Y62169D1*
G1X30160Y62169D2*
G1X30102Y62020D1*
G1X29942Y62278D2*
G1X29919Y62309D1*
G1X29892Y62324D1*
G1X29861Y62330D1*
G1X29823Y62319D1*
G1X29796Y62293D1*
G1X29788Y62262D1*
G1X29792Y62231D1*
G1X29808Y62206D1*
G1X29884Y62154D1*
G1X29919Y62118D1*
G1X29942Y62066D1*
G1X29949Y62020D1*
G1X29788Y62020D1*
G1X29624Y62056D2*
G1X29597Y62030D1*
G1X29567Y62020D1*
G1X29536Y62030D1*
G1X29509Y62061D1*
G1X29490Y62107D1*
G1X29482Y62154D1*
G1X29482Y62211D1*
G1X29490Y62257D1*
G1X29509Y62299D1*
G1X29532Y62319D1*
G1X29559Y62330D1*
G1X29590Y62319D1*
G1X29613Y62299D1*
G1X29628Y62268D1*
G1X29636Y62226D1*
G1X29628Y62190D1*
G1X29609Y62154D1*
G1X29586Y62133D1*
G1X29559Y62128D1*
G1X29528Y62138D1*
G1X29505Y62164D1*
G1X29482Y62211D1*
G1X28455Y62348D2*
G1X29085Y62348D1*
G1X29085Y62032D1*
G1X28455Y62032D1*
G1X28455Y62348D1*
G1X27879Y60800D2*
G1X27879Y61110D1*
G1X28021Y60888D1*
G1X27829Y60888D1*
G1X27623Y60800D2*
G1X27615Y60867D1*
G1X27604Y60924D1*
G1X27588Y60976D1*
G1X27569Y61032D1*
G1X27538Y61110D1*
G1X27692Y61110D1*
G1X27374Y60697D2*
G1X27374Y61007D1*
G1X27374Y60960D2*
G1X27355Y60986D1*
G1X27336Y61002D1*
G1X27305Y61007D1*
G1X27278Y61002D1*
G1X27251Y60976D1*
G1X27240Y60939D1*
G1X27236Y60903D1*
G1X27240Y60867D1*
G1X27251Y60831D1*
G1X27274Y60810D1*
G1X27305Y60800D1*
G1X27332Y60805D1*
G1X27359Y60821D1*
G1X27374Y60841D1*
G1X29987Y61095D2*
G1X30010Y61110D1*
G1X30037Y61120D1*
G1X30067Y61120D1*
G1X30102Y61105D1*
G1X30128Y61079D1*
G1X30148Y61048D1*
G1X30163Y60996D1*
G1X30167Y60950D1*
G1X30159Y60904D1*
G1X30148Y60872D1*
G1X30125Y60842D1*
G1X30098Y60821D1*
G1X30071Y60810D1*
G1X30044Y60810D1*
G1X30017Y60821D1*
G1X29994Y60836D1*
G1X29975Y60857D1*
G1X29834Y60940D2*
G1X29807Y60976D1*
G1X29784Y60996D1*
G1X29753Y61007D1*
G1X29727Y60996D1*
G1X29707Y60976D1*
G1X29692Y60945D1*
G1X29688Y60909D1*
G1X29692Y60878D1*
G1X29707Y60847D1*
G1X29730Y60821D1*
G1X29757Y60810D1*
G1X29788Y60821D1*
G1X29815Y60852D1*
G1X29830Y60898D1*
G1X29834Y60950D1*
G1X29826Y61017D1*
G1X29815Y61053D1*
G1X29796Y61090D1*
G1X29769Y61115D1*
G1X29742Y61120D1*
G1X29715Y61110D1*
G1X29696Y61084D1*
G1X29451Y60810D2*
G1X29451Y61120D1*
G1X29497Y61058D1*
G1X29497Y60810D2*
G1X29405Y60810D1*
G1X29095Y60803D2*
G1X28465Y60803D1*
G1X28465Y61118D1*
G1X29095Y61118D1*
G1X29095Y60803D1*
G1X29995Y62924D2*
G1X30018Y62939D1*
G1X30044Y62950D1*
G1X30075Y62950D1*
G1X30110Y62934D1*
G1X30136Y62908D1*
G1X30156Y62877D1*
G1X30171Y62826D1*
G1X30175Y62779D1*
G1X30167Y62732D1*
G1X30156Y62702D1*
G1X30133Y62670D1*
G1X30106Y62650D1*
G1X30079Y62640D1*
G1X30052Y62640D1*
G1X30025Y62650D1*
G1X30002Y62665D1*
G1X29983Y62686D1*
G1X29842Y62769D2*
G1X29815Y62805D1*
G1X29792Y62826D1*
G1X29761Y62836D1*
G1X29734Y62826D1*
G1X29715Y62805D1*
G1X29700Y62774D1*
G1X29696Y62738D1*
G1X29700Y62707D1*
G1X29715Y62676D1*
G1X29738Y62650D1*
G1X29765Y62640D1*
G1X29796Y62650D1*
G1X29823Y62681D1*
G1X29838Y62727D1*
G1X29842Y62779D1*
G1X29834Y62846D1*
G1X29823Y62882D1*
G1X29804Y62918D1*
G1X29777Y62944D1*
G1X29750Y62950D1*
G1X29723Y62939D1*
G1X29704Y62913D1*
G1X29532Y62898D2*
G1X29509Y62929D1*
G1X29482Y62944D1*
G1X29451Y62950D1*
G1X29413Y62939D1*
G1X29386Y62913D1*
G1X29378Y62882D1*
G1X29382Y62851D1*
G1X29398Y62826D1*
G1X29474Y62774D1*
G1X29509Y62738D1*
G1X29532Y62686D1*
G1X29540Y62640D1*
G1X29378Y62640D1*
G1X28455Y62948D2*
G1X29085Y62948D1*
G1X29085Y62632D1*
G1X28455Y62632D1*
G1X28455Y62948D1*
G1X30015Y64410D2*
G1X30015Y64720D1*
G1X30061Y64658D1*
G1X30061Y64410D2*
G1X29969Y64410D1*
G1X29713Y64410D2*
G1X29705Y64477D1*
G1X29694Y64534D1*
G1X29678Y64586D1*
G1X29659Y64642D1*
G1X29628Y64720D1*
G1X29782Y64720D1*
G1X29460Y64410D2*
G1X29460Y64720D1*
G1X29338Y64617D2*
G1X29460Y64498D1*
G1X29410Y64544D2*
G1X29330Y64410D1*
G1X30078Y64880D2*
G1X30078Y65190D1*
G1X29982Y65190D1*
G1X29951Y65175D1*
G1X29932Y65154D1*
G1X29924Y65113D1*
G1X29932Y65072D1*
G1X29955Y65046D1*
G1X29982Y65030D1*
G1X30078Y65030D1*
G1X29982Y65030D2*
G1X29924Y64880D1*
G1X29764Y65139D2*
G1X29741Y65170D1*
G1X29714Y65185D1*
G1X29683Y65190D1*
G1X29645Y65180D1*
G1X29618Y65154D1*
G1X29610Y65123D1*
G1X29614Y65092D1*
G1X29630Y65066D1*
G1X29706Y65015D1*
G1X29741Y64979D1*
G1X29764Y64927D1*
G1X29772Y64880D1*
G1X29610Y64880D1*
G1X29381Y64880D2*
G1X29354Y64886D1*
G1X29324Y64901D1*
G1X29304Y64927D1*
G1X29297Y64963D1*
G1X29304Y64999D1*
G1X29327Y65030D1*
G1X29362Y65046D1*
G1X29400Y65046D1*
G1X29423Y65056D1*
G1X29442Y65082D1*
G1X29450Y65118D1*
G1X29438Y65154D1*
G1X29412Y65180D1*
G1X29381Y65190D1*
G1X29350Y65180D1*
G1X29324Y65154D1*
G1X29312Y65118D1*
G1X29320Y65082D1*
G1X29339Y65056D1*
G1X29362Y65046D1*
G1X29400Y65046D1*
G1X29435Y65030D1*
G1X29458Y64999D1*
G1X29465Y64963D1*
G1X29458Y64927D1*
G1X29438Y64901D1*
G1X29408Y64886D1*
G1X29381Y64880D1*
G1X34220Y71980D2*
G1X34220Y67220D1*
G1X29460Y67220D1*
G1X29460Y71980D1*
G1X34220Y71980D1*
G1X29635Y73080D2*
G1X29635Y73390D1*
G1X29681Y73328D1*
G1X29681Y73080D2*
G1X29589Y73080D1*
G1X29390Y73287D2*
G1X29390Y73142D1*
G1X29375Y73106D1*
G1X29352Y73085D1*
G1X29325Y73080D1*
G1X29298Y73085D1*
G1X29275Y73106D1*
G1X29260Y73142D1*
G1X29260Y73080D2*
G1X29260Y73287D1*
G1X29555Y73814D2*
G1X29578Y73829D1*
G1X29604Y73840D1*
G1X29635Y73840D1*
G1X29670Y73824D1*
G1X29696Y73798D1*
G1X29716Y73767D1*
G1X29731Y73716D1*
G1X29735Y73669D1*
G1X29727Y73622D1*
G1X29716Y73592D1*
G1X29693Y73560D1*
G1X29666Y73540D1*
G1X29639Y73530D1*
G1X29612Y73530D1*
G1X29585Y73540D1*
G1X29562Y73555D1*
G1X29543Y73576D1*
G1X29413Y73576D2*
G1X29390Y73550D1*
G1X29364Y73535D1*
G1X29329Y73530D1*
G1X29294Y73540D1*
G1X29268Y73560D1*
G1X29248Y73597D1*
G1X29245Y73638D1*
G1X29252Y73679D1*
G1X29272Y73705D1*
G1X29298Y73726D1*
G1X29325Y73731D1*
G1X29352Y73726D1*
G1X29386Y73705D1*
G1X29375Y73840D1*
G1X29272Y73840D1*
G1X29027Y73530D2*
G1X29019Y73597D1*
G1X29008Y73654D1*
G1X28992Y73705D1*
G1X28973Y73762D1*
G1X28942Y73840D1*
G1X29096Y73840D1*
G1X31688Y57505D2*
G1X31688Y56875D1*
G1X31372Y56875D1*
G1X31372Y57505D1*
G1X31688Y57505D1*
G1X32188Y57505D2*
G1X32188Y56875D1*
G1X31872Y56875D1*
G1X31872Y57505D1*
G1X32188Y57505D1*
G1X32688Y57505D2*
G1X32688Y56875D1*
G1X32372Y56875D1*
G1X32372Y57505D1*
G1X32688Y57505D1*
G1X30528Y57505D2*
G1X30528Y56875D1*
G1X30213Y56875D1*
G1X30213Y57505D1*
G1X30528Y57505D1*
G1X31457Y57861D2*
G1X31431Y57884D1*
G1X31415Y57910D1*
G1X31410Y57945D1*
G1X31420Y57980D1*
G1X31441Y58006D1*
G1X31477Y58026D1*
G1X31518Y58029D1*
G1X31560Y58022D1*
G1X31586Y58002D1*
G1X31606Y57976D1*
G1X31612Y57949D1*
G1X31606Y57922D1*
G1X31586Y57888D1*
G1X31720Y57899D1*
G1X31720Y58002D1*
G1X31410Y58190D2*
G1X31720Y58190D1*
G1X31617Y58312D2*
G1X31498Y58190D1*
G1X31544Y58240D2*
G1X31410Y58320D1*
G1X31420Y58444D2*
G1X31729Y58444D1*
G1X31729Y58540D1*
G1X31714Y58571D1*
G1X31693Y58590D1*
G1X31652Y58598D1*
G1X31611Y58590D1*
G1X31585Y58567D1*
G1X31569Y58540D1*
G1X31569Y58444D1*
G1X31569Y58540D2*
G1X31420Y58598D1*
G1X31420Y58831D2*
G1X31729Y58831D1*
G1X31668Y58785D1*
G1X31420Y58785D2*
G1X31420Y58877D1*
G1X31678Y59068D2*
G1X31709Y59091D1*
G1X31724Y59118D1*
G1X31729Y59149D1*
G1X31719Y59187D1*
G1X31693Y59214D1*
G1X31662Y59221D1*
G1X31631Y59218D1*
G1X31606Y59202D1*
G1X31554Y59126D1*
G1X31518Y59091D1*
G1X31466Y59068D1*
G1X31420Y59061D1*
G1X31420Y59221D1*
G1X31987Y57861D2*
G1X31961Y57884D1*
G1X31945Y57910D1*
G1X31940Y57945D1*
G1X31950Y57980D1*
G1X31971Y58006D1*
G1X32007Y58026D1*
G1X32048Y58029D1*
G1X32090Y58022D1*
G1X32116Y58002D1*
G1X32136Y57976D1*
G1X32142Y57949D1*
G1X32136Y57922D1*
G1X32116Y57888D1*
G1X32250Y57899D1*
G1X32250Y58002D1*
G1X31940Y58190D2*
G1X32250Y58190D1*
G1X32147Y58312D2*
G1X32028Y58190D1*
G1X32074Y58240D2*
G1X31940Y58320D1*
G1X31980Y58474D2*
G1X32289Y58474D1*
G1X32289Y58570D1*
G1X32274Y58601D1*
G1X32253Y58620D1*
G1X32212Y58628D1*
G1X32171Y58620D1*
G1X32145Y58597D1*
G1X32129Y58570D1*
G1X32129Y58474D1*
G1X32129Y58570D2*
G1X31980Y58628D1*
G1X31980Y58861D2*
G1X32289Y58861D1*
G1X32228Y58815D1*
G1X31980Y58815D2*
G1X31980Y58907D1*
G1X31980Y59217D2*
G1X32289Y59217D1*
G1X32067Y59075D1*
G1X32067Y59267D1*
G1X32467Y57861D2*
G1X32441Y57884D1*
G1X32425Y57910D1*
G1X32420Y57945D1*
G1X32430Y57980D1*
G1X32451Y58006D1*
G1X32487Y58026D1*
G1X32528Y58029D1*
G1X32570Y58022D1*
G1X32596Y58002D1*
G1X32616Y57976D1*
G1X32622Y57949D1*
G1X32616Y57922D1*
G1X32596Y57888D1*
G1X32730Y57899D1*
G1X32730Y58002D1*
G1X32420Y58190D2*
G1X32730Y58190D1*
G1X32627Y58312D2*
G1X32508Y58190D1*
G1X32554Y58240D2*
G1X32420Y58320D1*
G1X32480Y58474D2*
G1X32790Y58474D1*
G1X32790Y58570D1*
G1X32774Y58601D1*
G1X32753Y58620D1*
G1X32712Y58628D1*
G1X32671Y58620D1*
G1X32645Y58597D1*
G1X32629Y58570D1*
G1X32629Y58474D1*
G1X32629Y58570D2*
G1X32480Y58628D1*
G1X32480Y58861D2*
G1X32790Y58861D1*
G1X32728Y58815D1*
G1X32480Y58815D2*
G1X32480Y58907D1*
G1X32526Y59087D2*
G1X32500Y59110D1*
G1X32485Y59136D1*
G1X32480Y59171D1*
G1X32490Y59206D1*
G1X32511Y59232D1*
G1X32547Y59251D1*
G1X32588Y59255D1*
G1X32629Y59248D1*
G1X32655Y59229D1*
G1X32676Y59202D1*
G1X32681Y59175D1*
G1X32676Y59148D1*
G1X32655Y59114D1*
G1X32790Y59125D1*
G1X32790Y59229D1*
G1X30306Y57841D2*
G1X30281Y57864D1*
G1X30265Y57891D1*
G1X30260Y57925D1*
G1X30270Y57960D1*
G1X30291Y57986D1*
G1X30327Y58006D1*
G1X30368Y58009D1*
G1X30410Y58002D1*
G1X30436Y57982D1*
G1X30456Y57956D1*
G1X30462Y57929D1*
G1X30456Y57902D1*
G1X30436Y57868D1*
G1X30570Y57879D1*
G1X30570Y57982D1*
G1X30260Y58170D2*
G1X30570Y58170D1*
G1X30467Y58292D2*
G1X30348Y58170D1*
G1X30394Y58220D2*
G1X30260Y58300D1*
G1X30300Y58434D2*
G1X30610Y58434D1*
G1X30610Y58530D1*
G1X30594Y58561D1*
G1X30573Y58580D1*
G1X30532Y58588D1*
G1X30491Y58580D1*
G1X30465Y58557D1*
G1X30449Y58530D1*
G1X30449Y58434D1*
G1X30449Y58530D2*
G1X30300Y58588D1*
G1X30300Y58821D2*
G1X30610Y58821D1*
G1X30548Y58775D1*
G1X30300Y58775D2*
G1X30300Y58867D1*
G1X30300Y59131D2*
G1X30305Y59158D1*
G1X30320Y59189D1*
G1X30346Y59208D1*
G1X30382Y59215D1*
G1X30418Y59208D1*
G1X30449Y59185D1*
G1X30465Y59150D1*
G1X30465Y59112D1*
G1X30475Y59089D1*
G1X30501Y59070D1*
G1X30537Y59062D1*
G1X30573Y59074D1*
G1X30599Y59100D1*
G1X30610Y59131D1*
G1X30599Y59162D1*
G1X30573Y59189D1*
G1X30537Y59200D1*
G1X30501Y59192D1*
G1X30475Y59173D1*
G1X30465Y59150D1*
G1X30465Y59112D1*
G1X30449Y59077D1*
G1X30418Y59054D1*
G1X30382Y59047D1*
G1X30346Y59054D1*
G1X30320Y59074D1*
G1X30305Y59104D1*
G1X30300Y59131D1*
G1X33035Y59700D2*
G1X33035Y60010D1*
G1X33081Y59948D1*
G1X33081Y59700D2*
G1X32989Y59700D1*
G1X32725Y60010D2*
G1X32756Y60000D1*
G1X32779Y59974D1*
G1X32794Y59943D1*
G1X32806Y59902D1*
G1X32809Y59855D1*
G1X32806Y59808D1*
G1X32794Y59767D1*
G1X32779Y59736D1*
G1X32756Y59710D1*
G1X32725Y59700D1*
G1X32694Y59710D1*
G1X32671Y59736D1*
G1X32656Y59767D1*
G1X32644Y59808D1*
G1X32641Y59855D1*
G1X32644Y59902D1*
G1X32656Y59943D1*
G1X32671Y59974D1*
G1X32694Y60000D1*
G1X32725Y60010D1*
G1X32480Y59907D2*
G1X32480Y59762D1*
G1X32465Y59726D1*
G1X32442Y59705D1*
G1X32415Y59700D1*
G1X32388Y59705D1*
G1X32365Y59726D1*
G1X32350Y59762D1*
G1X32350Y59700D2*
G1X32350Y59907D1*
G1X31803Y59980D2*
G1X31826Y59995D1*
G1X31853Y60006D1*
G1X31884Y60006D1*
G1X31918Y59990D1*
G1X31945Y59964D1*
G1X31964Y59933D1*
G1X31980Y59882D1*
G1X31983Y59835D1*
G1X31976Y59789D1*
G1X31964Y59758D1*
G1X31941Y59726D1*
G1X31914Y59706D1*
G1X31888Y59696D1*
G1X31861Y59696D1*
G1X31834Y59706D1*
G1X31811Y59721D1*
G1X31792Y59742D1*
G1X31662Y59742D2*
G1X31639Y59716D1*
G1X31612Y59701D1*
G1X31578Y59696D1*
G1X31543Y59706D1*
G1X31516Y59726D1*
G1X31497Y59763D1*
G1X31493Y59804D1*
G1X31501Y59845D1*
G1X31520Y59871D1*
G1X31547Y59892D1*
G1X31574Y59897D1*
G1X31600Y59892D1*
G1X31635Y59871D1*
G1X31624Y60006D1*
G1X31520Y60006D1*
G1X31352Y59758D2*
G1X31329Y59721D1*
G1X31298Y59701D1*
G1X31264Y59696D1*
G1X31233Y59701D1*
G1X31202Y59726D1*
G1X31183Y59758D1*
G1X31179Y59789D1*
G1X31187Y59825D1*
G1X31214Y59850D1*
G1X31241Y59861D1*
G1X31275Y59861D1*
G1X31241Y59861D2*
G1X31218Y59876D1*
G1X31198Y59902D1*
G1X31191Y59933D1*
G1X31198Y59964D1*
G1X31218Y59990D1*
G1X31252Y60006D1*
G1X31287Y60000D1*
G1X31321Y59980D1*
G1X33538Y61858D2*
G1X33515Y61889D1*
G1X33488Y61905D1*
G1X33457Y61910D1*
G1X33419Y61900D1*
G1X33392Y61874D1*
G1X33384Y61843D1*
G1X33388Y61812D1*
G1X33404Y61786D1*
G1X33480Y61734D1*
G1X33515Y61698D1*
G1X33538Y61646D1*
G1X33546Y61600D1*
G1X33384Y61600D1*
G1X33155Y61910D2*
G1X33186Y61900D1*
G1X33209Y61874D1*
G1X33224Y61843D1*
G1X33236Y61801D1*
G1X33239Y61755D1*
G1X33236Y61709D1*
G1X33224Y61667D1*
G1X33209Y61636D1*
G1X33186Y61610D1*
G1X33155Y61600D1*
G1X33124Y61610D1*
G1X33101Y61636D1*
G1X33086Y61667D1*
G1X33074Y61709D1*
G1X33071Y61755D1*
G1X33074Y61801D1*
G1X33086Y61843D1*
G1X33101Y61874D1*
G1X33124Y61900D1*
G1X33155Y61910D1*
G1X32845Y61910D2*
G1X32876Y61900D1*
G1X32899Y61874D1*
G1X32914Y61843D1*
G1X32926Y61801D1*
G1X32929Y61755D1*
G1X32926Y61709D1*
G1X32914Y61667D1*
G1X32899Y61636D1*
G1X32876Y61610D1*
G1X32845Y61600D1*
G1X32814Y61610D1*
G1X32791Y61636D1*
G1X32776Y61667D1*
G1X32764Y61709D1*
G1X32761Y61755D1*
G1X32764Y61801D1*
G1X32776Y61843D1*
G1X32791Y61874D1*
G1X32814Y61900D1*
G1X32845Y61910D1*
G1X31896Y60636D2*
G1X32684Y60636D1*
G1X32684Y60144D1*
G1X31896Y60144D1*
G1X31896Y60636D1*
G1X31954Y63430D2*
G1X31954Y63208D1*
G1X31939Y63161D1*
G1X31908Y63130D1*
G1X31870Y63120D1*
G1X31832Y63130D1*
G1X31801Y63161D1*
G1X31786Y63208D1*
G1X31786Y63430D1*
G1X31560Y63120D2*
G1X31560Y63430D1*
G1X31606Y63368D1*
G1X31606Y63120D2*
G1X31514Y63120D1*
G1X31323Y63249D2*
G1X31296Y63285D1*
G1X31273Y63306D1*
G1X31242Y63316D1*
G1X31216Y63306D1*
G1X31196Y63285D1*
G1X31181Y63254D1*
G1X31177Y63218D1*
G1X31181Y63187D1*
G1X31196Y63156D1*
G1X31219Y63130D1*
G1X31246Y63120D1*
G1X31277Y63130D1*
G1X31304Y63161D1*
G1X31319Y63208D1*
G1X31323Y63260D1*
G1X31315Y63327D1*
G1X31304Y63363D1*
G1X31284Y63399D1*
G1X31258Y63425D1*
G1X31231Y63430D1*
G1X31204Y63420D1*
G1X31185Y63394D1*
G1X31115Y64633D2*
G1X30485Y64633D1*
G1X30485Y64948D1*
G1X31115Y64948D1*
G1X31115Y64633D1*
G1X32395Y64633D2*
G1X31765Y64633D1*
G1X31765Y64948D1*
G1X32395Y64948D1*
G1X32395Y64633D1*
G1X31365Y65060D2*
G1X31373Y65065D1*
G1X31373Y65075D1*
G1X31365Y65080D1*
G1X31357Y65075D1*
G1X31357Y65065D1*
G1X31365Y65060D1*
G1X31009Y65070D2*
G1X31009Y65380D1*
G1X31151Y65158D1*
G1X30959Y65158D1*
G1X30753Y65070D2*
G1X30745Y65137D1*
G1X30734Y65194D1*
G1X30718Y65246D1*
G1X30699Y65303D1*
G1X30668Y65380D1*
G1X30822Y65380D1*
G1X30500Y65277D2*
G1X30500Y65132D1*
G1X30485Y65096D1*
G1X30462Y65075D1*
G1X30435Y65070D1*
G1X30408Y65075D1*
G1X30385Y65096D1*
G1X30370Y65132D1*
G1X30370Y65070D2*
G1X30370Y65277D1*
G1X31017Y65735D2*
G1X31040Y65750D1*
G1X31066Y65760D1*
G1X31097Y65760D1*
G1X31132Y65745D1*
G1X31158Y65719D1*
G1X31178Y65688D1*
G1X31193Y65636D1*
G1X31197Y65590D1*
G1X31189Y65544D1*
G1X31178Y65513D1*
G1X31155Y65482D1*
G1X31128Y65461D1*
G1X31101Y65451D1*
G1X31074Y65451D1*
G1X31047Y65461D1*
G1X31024Y65476D1*
G1X31005Y65497D1*
G1X30864Y65580D2*
G1X30837Y65616D1*
G1X30814Y65636D1*
G1X30783Y65647D1*
G1X30756Y65636D1*
G1X30737Y65616D1*
G1X30722Y65585D1*
G1X30718Y65549D1*
G1X30722Y65518D1*
G1X30737Y65487D1*
G1X30760Y65461D1*
G1X30787Y65451D1*
G1X30818Y65461D1*
G1X30845Y65492D1*
G1X30860Y65538D1*
G1X30864Y65590D1*
G1X30856Y65657D1*
G1X30845Y65693D1*
G1X30826Y65730D1*
G1X30799Y65755D1*
G1X30772Y65760D1*
G1X30745Y65750D1*
G1X30726Y65724D1*
G1X30565Y65513D2*
G1X30542Y65476D1*
G1X30512Y65456D1*
G1X30477Y65451D1*
G1X30447Y65456D1*
G1X30416Y65482D1*
G1X30397Y65513D1*
G1X30393Y65544D1*
G1X30401Y65580D1*
G1X30427Y65606D1*
G1X30454Y65616D1*
G1X30489Y65616D1*
G1X30454Y65616D2*
G1X30431Y65631D1*
G1X30412Y65657D1*
G1X30404Y65688D1*
G1X30412Y65719D1*
G1X30431Y65745D1*
G1X30466Y65760D1*
G1X30500Y65755D1*
G1X30535Y65735D1*
G1X32395Y65143D2*
G1X31765Y65143D1*
G1X31765Y65458D1*
G1X32395Y65458D1*
G1X32395Y65143D1*
G1X30455Y73848D2*
G1X31085Y73848D1*
G1X31085Y73532D1*
G1X30455Y73532D1*
G1X30455Y73848D1*
G1X32315Y73532D2*
G1X31685Y73532D1*
G1X31685Y73848D1*
G1X32315Y73848D1*
G1X32315Y73532D1*
G1X35259Y57116D2*
G1X35236Y57091D1*
G1X35210Y57075D1*
G1X35175Y57070D1*
G1X35140Y57080D1*
G1X35114Y57101D1*
G1X35094Y57137D1*
G1X35091Y57178D1*
G1X35098Y57220D1*
G1X35118Y57246D1*
G1X35144Y57266D1*
G1X35171Y57272D1*
G1X35198Y57266D1*
G1X35232Y57246D1*
G1X35221Y57380D1*
G1X35118Y57380D1*
G1X34930Y57070D2*
G1X34930Y57380D1*
G1X34808Y57277D2*
G1X34930Y57158D1*
G1X34880Y57204D2*
G1X34800Y57070D1*
G1X34705Y56988D2*
G1X35335Y56988D1*
G1X35335Y56672D1*
G1X34705Y56672D1*
G1X34705Y56988D1*
G1X33959Y57086D2*
G1X33936Y57061D1*
G1X33910Y57045D1*
G1X33875Y57040D1*
G1X33840Y57050D1*
G1X33814Y57071D1*
G1X33794Y57107D1*
G1X33791Y57148D1*
G1X33798Y57190D1*
G1X33818Y57216D1*
G1X33844Y57236D1*
G1X33871Y57242D1*
G1X33898Y57236D1*
G1X33932Y57216D1*
G1X33921Y57350D1*
G1X33818Y57350D1*
G1X33630Y57040D2*
G1X33630Y57350D1*
G1X33508Y57247D2*
G1X33630Y57128D1*
G1X33580Y57174D2*
G1X33500Y57040D1*
G1X34035Y56672D2*
G1X33405Y56672D1*
G1X33405Y56988D1*
G1X34035Y56988D1*
G1X34035Y56672D1*
G1X35416Y57420D2*
G1X35416Y57730D1*
G1X35320Y57730D1*
G1X35289Y57714D1*
G1X35270Y57693D1*
G1X35262Y57652D1*
G1X35270Y57611D1*
G1X35293Y57585D1*
G1X35320Y57569D1*
G1X35416Y57569D1*
G1X35320Y57569D2*
G1X35262Y57420D1*
G1X35029Y57420D2*
G1X35029Y57730D1*
G1X35075Y57668D1*
G1X35075Y57420D2*
G1X34983Y57420D1*
G1X34719Y57420D2*
G1X34719Y57730D1*
G1X34765Y57668D1*
G1X34765Y57420D2*
G1X34673Y57420D1*
G1X35259Y58226D2*
G1X35236Y58201D1*
G1X35210Y58185D1*
G1X35175Y58180D1*
G1X35140Y58190D1*
G1X35114Y58211D1*
G1X35094Y58247D1*
G1X35091Y58288D1*
G1X35098Y58330D1*
G1X35118Y58356D1*
G1X35144Y58376D1*
G1X35171Y58382D1*
G1X35198Y58376D1*
G1X35232Y58356D1*
G1X35221Y58490D1*
G1X35118Y58490D1*
G1X34930Y58180D2*
G1X34930Y58490D1*
G1X34808Y58387D2*
G1X34930Y58268D1*
G1X34880Y58314D2*
G1X34800Y58180D1*
G1X35246Y58550D2*
G1X35246Y58860D1*
G1X35150Y58860D1*
G1X35119Y58844D1*
G1X35100Y58823D1*
G1X35092Y58782D1*
G1X35100Y58741D1*
G1X35123Y58715D1*
G1X35150Y58699D1*
G1X35246Y58699D1*
G1X35150Y58699D2*
G1X35092Y58550D1*
G1X34924Y58586D2*
G1X34897Y58560D1*
G1X34867Y58550D1*
G1X34836Y58560D1*
G1X34809Y58591D1*
G1X34790Y58637D1*
G1X34782Y58684D1*
G1X34782Y58741D1*
G1X34790Y58787D1*
G1X34809Y58828D1*
G1X34832Y58849D1*
G1X34859Y58860D1*
G1X34890Y58849D1*
G1X34913Y58828D1*
G1X34928Y58798D1*
G1X34936Y58756D1*
G1X34928Y58720D1*
G1X34909Y58684D1*
G1X34886Y58663D1*
G1X34859Y58658D1*
G1X34828Y58668D1*
G1X34805Y58694D1*
G1X34782Y58741D1*
G1X34705Y58098D2*
G1X35335Y58098D1*
G1X35335Y57782D1*
G1X34705Y57782D1*
G1X34705Y58098D1*
G1X33969Y58226D2*
G1X33946Y58201D1*
G1X33920Y58185D1*
G1X33885Y58180D1*
G1X33850Y58190D1*
G1X33824Y58211D1*
G1X33804Y58247D1*
G1X33801Y58288D1*
G1X33808Y58330D1*
G1X33828Y58356D1*
G1X33854Y58376D1*
G1X33881Y58382D1*
G1X33908Y58376D1*
G1X33942Y58356D1*
G1X33931Y58490D1*
G1X33828Y58490D1*
G1X33640Y58180D2*
G1X33640Y58490D1*
G1X33518Y58387D2*
G1X33640Y58268D1*
G1X33590Y58314D2*
G1X33510Y58180D1*
G1X34108Y58561D2*
G1X34108Y58870D1*
G1X34012Y58870D1*
G1X33981Y58855D1*
G1X33962Y58834D1*
G1X33954Y58793D1*
G1X33962Y58752D1*
G1X33985Y58726D1*
G1X34012Y58710D1*
G1X34108Y58710D1*
G1X34012Y58710D2*
G1X33954Y58561D1*
G1X33721Y58561D2*
G1X33721Y58870D1*
G1X33767Y58809D1*
G1X33767Y58561D2*
G1X33675Y58561D1*
G1X33411Y58870D2*
G1X33442Y58860D1*
G1X33465Y58834D1*
G1X33480Y58803D1*
G1X33492Y58762D1*
G1X33495Y58716D1*
G1X33492Y58669D1*
G1X33480Y58628D1*
G1X33465Y58597D1*
G1X33442Y58571D1*
G1X33411Y58561D1*
G1X33380Y58571D1*
G1X33357Y58597D1*
G1X33342Y58628D1*
G1X33330Y58669D1*
G1X33327Y58716D1*
G1X33330Y58762D1*
G1X33342Y58803D1*
G1X33357Y58834D1*
G1X33380Y58860D1*
G1X33411Y58870D1*
G1X34035Y57782D2*
G1X33405Y57782D1*
G1X33405Y58098D1*
G1X34035Y58098D1*
G1X34035Y57782D1*
G1X34078Y57391D2*
G1X34078Y57700D1*
G1X33982Y57700D1*
G1X33951Y57685D1*
G1X33932Y57664D1*
G1X33924Y57623D1*
G1X33932Y57582D1*
G1X33955Y57556D1*
G1X33982Y57540D1*
G1X34078Y57540D1*
G1X33982Y57540D2*
G1X33924Y57391D1*
G1X33691Y57391D2*
G1X33691Y57700D1*
G1X33737Y57639D1*
G1X33737Y57391D2*
G1X33645Y57391D1*
G1X33465Y57453D2*
G1X33442Y57416D1*
G1X33412Y57396D1*
G1X33377Y57391D1*
G1X33346Y57396D1*
G1X33316Y57422D1*
G1X33297Y57453D1*
G1X33293Y57484D1*
G1X33301Y57520D1*
G1X33327Y57546D1*
G1X33354Y57556D1*
G1X33389Y57556D1*
G1X33354Y57556D2*
G1X33331Y57571D1*
G1X33312Y57597D1*
G1X33304Y57628D1*
G1X33312Y57659D1*
G1X33331Y57685D1*
G1X33366Y57700D1*
G1X33400Y57695D1*
G1X33435Y57675D1*
G1X34546Y61620D2*
G1X34546Y61930D1*
G1X34450Y61930D1*
G1X34419Y61914D1*
G1X34400Y61893D1*
G1X34392Y61852D1*
G1X34400Y61811D1*
G1X34423Y61785D1*
G1X34450Y61769D1*
G1X34546Y61769D1*
G1X34450Y61769D2*
G1X34392Y61620D1*
G1X34232Y61878D2*
G1X34209Y61909D1*
G1X34182Y61924D1*
G1X34151Y61930D1*
G1X34113Y61919D1*
G1X34086Y61893D1*
G1X34078Y61862D1*
G1X34082Y61831D1*
G1X34098Y61806D1*
G1X34174Y61754D1*
G1X34209Y61718D1*
G1X34232Y61666D1*
G1X34240Y61620D1*
G1X34078Y61620D1*
G1X33803Y61620D2*
G1X33803Y61930D1*
G1X33945Y61707D1*
G1X33753Y61707D1*
G1X33335Y62358D2*
G1X33965Y62358D1*
G1X33965Y62042D1*
G1X33335Y62042D1*
G1X33335Y62358D1*
G1X35948Y63138D2*
G1X35925Y63169D1*
G1X35898Y63185D1*
G1X35867Y63190D1*
G1X35829Y63180D1*
G1X35802Y63154D1*
G1X35794Y63123D1*
G1X35798Y63092D1*
G1X35814Y63066D1*
G1X35890Y63014D1*
G1X35925Y62978D1*
G1X35948Y62926D1*
G1X35956Y62880D1*
G1X35794Y62880D1*
G1X35565Y63190D2*
G1X35596Y63180D1*
G1X35619Y63154D1*
G1X35634Y63123D1*
G1X35646Y63081D1*
G1X35649Y63035D1*
G1X35646Y62989D1*
G1X35634Y62947D1*
G1X35619Y62916D1*
G1X35596Y62890D1*
G1X35565Y62880D1*
G1X35534Y62890D1*
G1X35511Y62916D1*
G1X35496Y62947D1*
G1X35484Y62989D1*
G1X35481Y63035D1*
G1X35484Y63081D1*
G1X35496Y63123D1*
G1X35511Y63154D1*
G1X35534Y63180D1*
G1X35565Y63190D1*
G1X35255Y63190D2*
G1X35286Y63180D1*
G1X35309Y63154D1*
G1X35324Y63123D1*
G1X35336Y63081D1*
G1X35339Y63035D1*
G1X35336Y62989D1*
G1X35324Y62947D1*
G1X35309Y62916D1*
G1X35286Y62890D1*
G1X35255Y62880D1*
G1X35224Y62890D1*
G1X35201Y62916D1*
G1X35186Y62947D1*
G1X35174Y62989D1*
G1X35171Y63035D1*
G1X35174Y63081D1*
G1X35186Y63123D1*
G1X35201Y63154D1*
G1X35224Y63180D1*
G1X35255Y63190D1*
G1X35058Y62598D2*
G1X35035Y62629D1*
G1X35008Y62645D1*
G1X34977Y62650D1*
G1X34939Y62640D1*
G1X34912Y62614D1*
G1X34904Y62583D1*
G1X34908Y62552D1*
G1X34924Y62526D1*
G1X35000Y62474D1*
G1X35035Y62438D1*
G1X35058Y62386D1*
G1X35066Y62340D1*
G1X34904Y62340D1*
G1X34675Y62650D2*
G1X34706Y62640D1*
G1X34729Y62614D1*
G1X34744Y62583D1*
G1X34756Y62542D1*
G1X34759Y62495D1*
G1X34756Y62449D1*
G1X34744Y62407D1*
G1X34729Y62376D1*
G1X34706Y62350D1*
G1X34675Y62340D1*
G1X34644Y62350D1*
G1X34621Y62376D1*
G1X34606Y62407D1*
G1X34594Y62449D1*
G1X34591Y62495D1*
G1X34594Y62542D1*
G1X34606Y62583D1*
G1X34621Y62614D1*
G1X34644Y62640D1*
G1X34675Y62650D1*
G1X34365Y62650D2*
G1X34396Y62640D1*
G1X34419Y62614D1*
G1X34434Y62583D1*
G1X34446Y62542D1*
G1X34449Y62495D1*
G1X34446Y62449D1*
G1X34434Y62407D1*
G1X34419Y62376D1*
G1X34396Y62350D1*
G1X34365Y62340D1*
G1X34334Y62350D1*
G1X34311Y62376D1*
G1X34296Y62407D1*
G1X34284Y62449D1*
G1X34281Y62495D1*
G1X34284Y62542D1*
G1X34296Y62583D1*
G1X34311Y62614D1*
G1X34334Y62640D1*
G1X34365Y62650D1*
G1X35078Y62711D2*
G1X35078Y63021D1*
G1X34982Y63021D1*
G1X34951Y63005D1*
G1X34932Y62984D1*
G1X34924Y62943D1*
G1X34932Y62902D1*
G1X34955Y62876D1*
G1X34982Y62860D1*
G1X35078Y62860D1*
G1X34982Y62860D2*
G1X34924Y62711D1*
G1X34775Y62773D2*
G1X34752Y62736D1*
G1X34722Y62716D1*
G1X34687Y62711D1*
G1X34656Y62716D1*
G1X34626Y62742D1*
G1X34607Y62773D1*
G1X34603Y62804D1*
G1X34610Y62840D1*
G1X34637Y62866D1*
G1X34664Y62876D1*
G1X34699Y62876D1*
G1X34664Y62876D2*
G1X34641Y62891D1*
G1X34622Y62917D1*
G1X34614Y62948D1*
G1X34622Y62979D1*
G1X34641Y63005D1*
G1X34676Y63021D1*
G1X34710Y63015D1*
G1X34745Y62995D1*
G1X34454Y62969D2*
G1X34431Y63000D1*
G1X34404Y63015D1*
G1X34373Y63021D1*
G1X34335Y63010D1*
G1X34308Y62984D1*
G1X34300Y62953D1*
G1X34304Y62922D1*
G1X34320Y62896D1*
G1X34396Y62845D1*
G1X34431Y62809D1*
G1X34454Y62757D1*
G1X34462Y62711D1*
G1X34300Y62711D1*
G1X33965Y62582D2*
G1X33335Y62582D1*
G1X33335Y62898D1*
G1X33965Y62898D1*
G1X33965Y62582D1*
G1X36079Y64690D2*
G1X36079Y64468D1*
G1X36064Y64421D1*
G1X36033Y64390D1*
G1X35995Y64380D1*
G1X35957Y64390D1*
G1X35926Y64421D1*
G1X35911Y64468D1*
G1X35911Y64690D1*
G1X35758Y64509D2*
G1X35731Y64545D1*
G1X35708Y64566D1*
G1X35677Y64576D1*
G1X35650Y64566D1*
G1X35631Y64545D1*
G1X35616Y64514D1*
G1X35612Y64478D1*
G1X35616Y64447D1*
G1X35631Y64416D1*
G1X35654Y64390D1*
G1X35681Y64380D1*
G1X35712Y64390D1*
G1X35739Y64421D1*
G1X35754Y64468D1*
G1X35758Y64520D1*
G1X35750Y64587D1*
G1X35739Y64623D1*
G1X35720Y64659D1*
G1X35693Y64685D1*
G1X35666Y64690D1*
G1X35639Y64680D1*
G1X35620Y64654D1*
G1X33859Y64632D2*
G1X33836Y64596D1*
G1X33806Y64575D1*
G1X33771Y64570D1*
G1X33741Y64575D1*
G1X33710Y64601D1*
G1X33691Y64632D1*
G1X33687Y64663D1*
G1X33694Y64699D1*
G1X33721Y64725D1*
G1X33748Y64735D1*
G1X33783Y64735D1*
G1X33748Y64735D2*
G1X33725Y64751D1*
G1X33706Y64777D1*
G1X33698Y64808D1*
G1X33706Y64839D1*
G1X33725Y64864D1*
G1X33760Y64880D1*
G1X33794Y64875D1*
G1X33829Y64854D1*
G1X33419Y64570D2*
G1X33419Y64880D1*
G1X33561Y64658D1*
G1X33369Y64658D1*
G1X33220Y64570D2*
G1X33220Y64880D1*
G1X33098Y64777D2*
G1X33220Y64658D1*
G1X33170Y64704D2*
G1X33090Y64570D1*
G1X33838Y64950D2*
G1X33838Y65261D1*
G1X33742Y65261D1*
G1X33711Y65245D1*
G1X33692Y65224D1*
G1X33684Y65183D1*
G1X33692Y65142D1*
G1X33715Y65116D1*
G1X33742Y65100D1*
G1X33838Y65100D1*
G1X33742Y65100D2*
G1X33684Y64950D1*
G1X33535Y65012D2*
G1X33512Y64976D1*
G1X33482Y64956D1*
G1X33447Y64950D1*
G1X33416Y64956D1*
G1X33386Y64982D1*
G1X33367Y65012D1*
G1X33363Y65044D1*
G1X33370Y65080D1*
G1X33397Y65106D1*
G1X33424Y65116D1*
G1X33459Y65116D1*
G1X33424Y65116D2*
G1X33401Y65131D1*
G1X33382Y65157D1*
G1X33374Y65188D1*
G1X33382Y65219D1*
G1X33401Y65245D1*
G1X33436Y65261D1*
G1X33470Y65255D1*
G1X33505Y65235D1*
G1X33141Y65261D2*
G1X33172Y65250D1*
G1X33195Y65224D1*
G1X33210Y65193D1*
G1X33222Y65152D1*
G1X33225Y65106D1*
G1X33222Y65059D1*
G1X33210Y65018D1*
G1X33195Y64987D1*
G1X33172Y64961D1*
G1X33141Y64950D1*
G1X33110Y64961D1*
G1X33087Y64987D1*
G1X33072Y65018D1*
G1X33061Y65059D1*
G1X33057Y65106D1*
G1X33061Y65152D1*
G1X33072Y65193D1*
G1X33087Y65224D1*
G1X33110Y65250D1*
G1X33141Y65261D1*
G1X36399Y65982D2*
G1X36376Y65946D1*
G1X36346Y65925D1*
G1X36311Y65920D1*
G1X36281Y65925D1*
G1X36250Y65951D1*
G1X36231Y65982D1*
G1X36227Y66013D1*
G1X36234Y66049D1*
G1X36261Y66075D1*
G1X36288Y66085D1*
G1X36323Y66085D1*
G1X36288Y66085D2*
G1X36265Y66101D1*
G1X36246Y66127D1*
G1X36238Y66158D1*
G1X36246Y66189D1*
G1X36265Y66214D1*
G1X36300Y66230D1*
G1X36334Y66225D1*
G1X36369Y66204D1*
G1X36089Y65982D2*
G1X36066Y65946D1*
G1X36036Y65925D1*
G1X36001Y65920D1*
G1X35970Y65925D1*
G1X35940Y65951D1*
G1X35921Y65982D1*
G1X35917Y66013D1*
G1X35924Y66049D1*
G1X35951Y66075D1*
G1X35978Y66085D1*
G1X36013Y66085D1*
G1X35978Y66085D2*
G1X35955Y66101D1*
G1X35936Y66127D1*
G1X35928Y66158D1*
G1X35936Y66189D1*
G1X35955Y66214D1*
G1X35990Y66230D1*
G1X36024Y66225D1*
G1X36059Y66204D1*
G1X35695Y66230D2*
G1X35726Y66220D1*
G1X35749Y66194D1*
G1X35764Y66163D1*
G1X35776Y66122D1*
G1X35779Y66075D1*
G1X35776Y66028D1*
G1X35764Y65987D1*
G1X35749Y65956D1*
G1X35726Y65930D1*
G1X35695Y65920D1*
G1X35664Y65930D1*
G1X35641Y65956D1*
G1X35626Y65987D1*
G1X35614Y66028D1*
G1X35611Y66075D1*
G1X35614Y66122D1*
G1X35626Y66163D1*
G1X35641Y66194D1*
G1X35664Y66220D1*
G1X35695Y66230D1*
G1X35450Y65920D2*
G1X35450Y66230D1*
G1X35328Y66127D2*
G1X35450Y66008D1*
G1X35400Y66054D2*
G1X35320Y65920D1*
G1X35078Y65920D2*
G1X35078Y66230D1*
G1X34982Y66230D1*
G1X34951Y66215D1*
G1X34932Y66194D1*
G1X34924Y66153D1*
G1X34932Y66112D1*
G1X34955Y66086D1*
G1X34982Y66070D1*
G1X35078Y66070D1*
G1X34982Y66070D2*
G1X34924Y65920D1*
G1X34764Y66179D2*
G1X34741Y66210D1*
G1X34714Y66225D1*
G1X34683Y66230D1*
G1X34645Y66220D1*
G1X34618Y66194D1*
G1X34610Y66163D1*
G1X34614Y66132D1*
G1X34630Y66106D1*
G1X34706Y66055D1*
G1X34741Y66019D1*
G1X34764Y65967D1*
G1X34772Y65920D1*
G1X34610Y65920D1*
G1X34465Y65982D2*
G1X34442Y65946D1*
G1X34412Y65926D1*
G1X34377Y65920D1*
G1X34346Y65926D1*
G1X34316Y65952D1*
G1X34297Y65982D1*
G1X34293Y66014D1*
G1X34300Y66050D1*
G1X34327Y66076D1*
G1X34354Y66086D1*
G1X34389Y66086D1*
G1X34354Y66086D2*
G1X34331Y66101D1*
G1X34312Y66127D1*
G1X34304Y66158D1*
G1X34312Y66189D1*
G1X34331Y66215D1*
G1X34366Y66230D1*
G1X34400Y66225D1*
G1X34435Y66205D1*
G1X35888Y63330D2*
G1X35888Y63641D1*
G1X35792Y63641D1*
G1X35761Y63625D1*
G1X35742Y63604D1*
G1X35734Y63563D1*
G1X35742Y63522D1*
G1X35765Y63496D1*
G1X35792Y63480D1*
G1X35888Y63480D1*
G1X35792Y63480D2*
G1X35734Y63330D1*
G1X35585Y63392D2*
G1X35562Y63356D1*
G1X35532Y63336D1*
G1X35497Y63330D1*
G1X35466Y63336D1*
G1X35436Y63362D1*
G1X35417Y63392D1*
G1X35413Y63424D1*
G1X35420Y63460D1*
G1X35447Y63486D1*
G1X35474Y63496D1*
G1X35509Y63496D1*
G1X35474Y63496D2*
G1X35451Y63511D1*
G1X35432Y63537D1*
G1X35424Y63568D1*
G1X35432Y63599D1*
G1X35451Y63625D1*
G1X35486Y63641D1*
G1X35520Y63635D1*
G1X35555Y63615D1*
G1X35191Y63330D2*
G1X35191Y63641D1*
G1X35237Y63579D1*
G1X35237Y63330D2*
G1X35145Y63330D1*
G1X34795Y63142D2*
G1X34165Y63142D1*
G1X34165Y63458D1*
G1X34795Y63458D1*
G1X34795Y63142D1*
G1X36405Y64870D2*
G1X36413Y64875D1*
G1X36413Y64885D1*
G1X36405Y64890D1*
G1X36397Y64885D1*
G1X36397Y64875D1*
G1X36405Y64870D1*
G1X36095Y64880D2*
G1X36095Y65190D1*
G1X36141Y65128D1*
G1X36141Y64880D2*
G1X36049Y64880D1*
G1X35850Y65087D2*
G1X35850Y64942D1*
G1X35835Y64906D1*
G1X35812Y64885D1*
G1X35785Y64880D1*
G1X35758Y64885D1*
G1X35735Y64906D1*
G1X35720Y64942D1*
G1X35720Y64880D2*
G1X35720Y65087D1*
G1X36357Y65575D2*
G1X36380Y65590D1*
G1X36407Y65600D1*
G1X36437Y65600D1*
G1X36472Y65585D1*
G1X36498Y65559D1*
G1X36518Y65528D1*
G1X36533Y65476D1*
G1X36537Y65430D1*
G1X36529Y65384D1*
G1X36518Y65353D1*
G1X36495Y65322D1*
G1X36468Y65301D1*
G1X36441Y65291D1*
G1X36414Y65291D1*
G1X36387Y65301D1*
G1X36364Y65316D1*
G1X36345Y65337D1*
G1X36204Y65549D2*
G1X36181Y65580D1*
G1X36154Y65595D1*
G1X36123Y65600D1*
G1X36085Y65590D1*
G1X36058Y65564D1*
G1X36050Y65533D1*
G1X36054Y65502D1*
G1X36070Y65476D1*
G1X36146Y65425D1*
G1X36181Y65389D1*
G1X36204Y65337D1*
G1X36212Y65291D1*
G1X36050Y65291D1*
G1X35775Y65291D2*
G1X35775Y65600D1*
G1X35917Y65378D1*
G1X35725Y65378D1*
G1X35345Y65242D2*
G1X34715Y65242D1*
G1X34715Y65558D1*
G1X35345Y65558D1*
G1X35345Y65242D1*
G1X34625Y63770D2*
G1X34633Y63775D1*
G1X34633Y63785D1*
G1X34625Y63790D1*
G1X34617Y63785D1*
G1X34617Y63775D1*
G1X34625Y63770D1*
G1X34315Y63780D2*
G1X34315Y64090D1*
G1X34361Y64028D1*
G1X34361Y63780D2*
G1X34269Y63780D1*
G1X34070Y63987D2*
G1X34070Y63842D1*
G1X34055Y63806D1*
G1X34032Y63785D1*
G1X34005Y63780D1*
G1X33978Y63785D1*
G1X33955Y63806D1*
G1X33940Y63842D1*
G1X33940Y63780D2*
G1X33940Y63987D1*
G1X34230Y64460D2*
G1X34253Y64476D1*
G1X34280Y64486D1*
G1X34311Y64486D1*
G1X34345Y64470D1*
G1X34372Y64445D1*
G1X34391Y64414D1*
G1X34406Y64362D1*
G1X34410Y64316D1*
G1X34403Y64269D1*
G1X34391Y64238D1*
G1X34368Y64207D1*
G1X34341Y64186D1*
G1X34314Y64176D1*
G1X34288Y64176D1*
G1X34261Y64186D1*
G1X34238Y64202D1*
G1X34219Y64222D1*
G1X34089Y64222D2*
G1X34066Y64197D1*
G1X34039Y64181D1*
G1X34004Y64176D1*
G1X33970Y64186D1*
G1X33943Y64207D1*
G1X33924Y64243D1*
G1X33920Y64284D1*
G1X33928Y64326D1*
G1X33947Y64352D1*
G1X33974Y64372D1*
G1X34001Y64378D1*
G1X34028Y64372D1*
G1X34062Y64352D1*
G1X34050Y64486D1*
G1X33947Y64486D1*
G1X33779Y64222D2*
G1X33756Y64197D1*
G1X33729Y64181D1*
G1X33694Y64176D1*
G1X33660Y64186D1*
G1X33633Y64207D1*
G1X33614Y64243D1*
G1X33610Y64284D1*
G1X33618Y64326D1*
G1X33637Y64352D1*
G1X33664Y64372D1*
G1X33691Y64378D1*
G1X33718Y64372D1*
G1X33752Y64352D1*
G1X33741Y64486D1*
G1X33637Y64486D1*
G1X33448Y63975D2*
G1X33448Y63345D1*
G1X33132Y63345D1*
G1X33132Y63975D1*
G1X33448Y63975D1*
G1X35126Y68909D2*
G1X34899Y68741D1*
G1X34858Y68825D2*
G1X35168Y68825D1*
G1X35126Y68741D2*
G1X34899Y68909D1*
G1X35013Y68940D2*
G1X35013Y68710D1*
G1X34380Y68244D2*
G1X34602Y68244D1*
G1X34649Y68229D1*
G1X34680Y68198D1*
G1X34690Y68160D1*
G1X34680Y68122D1*
G1X34649Y68091D1*
G1X34602Y68076D1*
G1X34380Y68076D1*
G1X34690Y67850D2*
G1X34380Y67850D1*
G1X34442Y67896D1*
G1X34690Y67896D2*
G1X34690Y67804D1*
G1X34628Y67624D2*
G1X34664Y67601D1*
G1X34685Y67571D1*
G1X34690Y67536D1*
G1X34685Y67506D1*
G1X34659Y67475D1*
G1X34628Y67456D1*
G1X34597Y67452D1*
G1X34561Y67460D1*
G1X34535Y67486D1*
G1X34525Y67513D1*
G1X34525Y67548D1*
G1X34525Y67513D2*
G1X34509Y67490D1*
G1X34483Y67471D1*
G1X34452Y67463D1*
G1X34421Y67471D1*
G1X34396Y67490D1*
G1X34380Y67525D1*
G1X34385Y67559D1*
G1X34406Y67594D1*
G1X35745Y66322D2*
G1X35115Y66322D1*
G1X35115Y66638D1*
G1X35745Y66638D1*
G1X35745Y66322D1*
G1X35099Y71390D2*
G1X35099Y71168D1*
G1X35084Y71121D1*
G1X35053Y71090D1*
G1X35015Y71080D1*
G1X34977Y71090D1*
G1X34946Y71121D1*
G1X34931Y71168D1*
G1X34931Y71390D1*
G1X34705Y71080D2*
G1X34705Y71390D1*
G1X34751Y71328D1*
G1X34751Y71080D2*
G1X34659Y71080D1*
G1X34395Y71080D2*
G1X34368Y71085D1*
G1X34338Y71101D1*
G1X34318Y71126D1*
G1X34311Y71163D1*
G1X34318Y71199D1*
G1X34341Y71230D1*
G1X34376Y71245D1*
G1X34414Y71245D1*
G1X34437Y71256D1*
G1X34456Y71282D1*
G1X34464Y71318D1*
G1X34452Y71354D1*
G1X34426Y71380D1*
G1X34395Y71390D1*
G1X34364Y71380D1*
G1X34338Y71354D1*
G1X34326Y71318D1*
G1X34334Y71282D1*
G1X34353Y71256D1*
G1X34376Y71245D1*
G1X34414Y71245D1*
G1X34449Y71230D1*
G1X34472Y71199D1*
G1X34479Y71163D1*
G1X34472Y71126D1*
G1X34452Y71101D1*
G1X34422Y71085D1*
G1X34395Y71080D1*
G1X35335Y70320D2*
G1X35335Y70630D1*
G1X35381Y70568D1*
G1X35381Y70320D2*
G1X35289Y70320D1*
G1X35025Y70630D2*
G1X35056Y70620D1*
G1X35079Y70594D1*
G1X35094Y70563D1*
G1X35106Y70522D1*
G1X35109Y70475D1*
G1X35106Y70428D1*
G1X35094Y70387D1*
G1X35079Y70356D1*
G1X35056Y70330D1*
G1X35025Y70320D1*
G1X34994Y70330D1*
G1X34971Y70356D1*
G1X34956Y70387D1*
G1X34944Y70428D1*
G1X34941Y70475D1*
G1X34944Y70522D1*
G1X34956Y70563D1*
G1X34971Y70594D1*
G1X34994Y70620D1*
G1X35025Y70630D1*
G1X34780Y70527D2*
G1X34780Y70382D1*
G1X34765Y70346D1*
G1X34742Y70325D1*
G1X34715Y70320D1*
G1X34688Y70325D1*
G1X34665Y70346D1*
G1X34650Y70382D1*
G1X34650Y70320D2*
G1X34650Y70527D1*
G1X36413Y70610D2*
G1X36436Y70625D1*
G1X36463Y70636D1*
G1X36494Y70636D1*
G1X36528Y70620D1*
G1X36555Y70594D1*
G1X36574Y70563D1*
G1X36590Y70512D1*
G1X36593Y70465D1*
G1X36586Y70418D1*
G1X36574Y70388D1*
G1X36551Y70356D1*
G1X36524Y70336D1*
G1X36498Y70326D1*
G1X36471Y70326D1*
G1X36444Y70336D1*
G1X36421Y70351D1*
G1X36402Y70372D1*
G1X36142Y70326D2*
G1X36142Y70636D1*
G1X36283Y70413D1*
G1X36092Y70413D1*
G1X35885Y70326D2*
G1X35878Y70393D1*
G1X35866Y70450D1*
G1X35851Y70501D1*
G1X35832Y70558D1*
G1X35801Y70636D1*
G1X35954Y70636D1*
G1X35066Y70126D2*
G1X35854Y70126D1*
G1X35854Y69634D1*
G1X35066Y69634D1*
G1X35066Y70126D1*
G1X35125Y69408D2*
G1X35755Y69408D1*
G1X35755Y69092D1*
G1X35125Y69092D1*
G1X35125Y69408D1*
G1X35030Y72441D2*
G1X35340Y72441D1*
G1X35118Y72299D1*
G1X35118Y72491D1*
G1X35030Y72697D2*
G1X35097Y72705D1*
G1X35154Y72716D1*
G1X35206Y72732D1*
G1X35262Y72751D1*
G1X35340Y72782D1*
G1X35340Y72628D1*
G1X35340Y73015D2*
G1X35330Y72984D1*
G1X35304Y72961D1*
G1X35273Y72946D1*
G1X35232Y72934D1*
G1X35185Y72931D1*
G1X35138Y72934D1*
G1X35097Y72946D1*
G1X35066Y72961D1*
G1X35040Y72984D1*
G1X35030Y73015D1*
G1X35040Y73046D1*
G1X35066Y73069D1*
G1X35097Y73084D1*
G1X35138Y73096D1*
G1X35185Y73099D1*
G1X35232Y73096D1*
G1X35273Y73084D1*
G1X35304Y73069D1*
G1X35330Y73046D1*
G1X35340Y73015D1*
G1X34927Y73256D2*
G1X35237Y73256D1*
G1X35190Y73256D2*
G1X35216Y73275D1*
G1X35232Y73294D1*
G1X35237Y73325D1*
G1X35232Y73352D1*
G1X35206Y73379D1*
G1X35170Y73390D1*
G1X35133Y73394D1*
G1X35097Y73390D1*
G1X35061Y73379D1*
G1X35040Y73356D1*
G1X35030Y73325D1*
G1X35035Y73298D1*
G1X35051Y73271D1*
G1X35071Y73256D1*
G1X35794Y72555D2*
G1X35809Y72532D1*
G1X35820Y72506D1*
G1X35820Y72475D1*
G1X35804Y72440D1*
G1X35778Y72414D1*
G1X35747Y72394D1*
G1X35696Y72379D1*
G1X35649Y72375D1*
G1X35602Y72383D1*
G1X35572Y72394D1*
G1X35540Y72417D1*
G1X35520Y72444D1*
G1X35510Y72471D1*
G1X35510Y72498D1*
G1X35520Y72525D1*
G1X35535Y72548D1*
G1X35556Y72567D1*
G1X35639Y72708D2*
G1X35675Y72735D1*
G1X35696Y72758D1*
G1X35706Y72789D1*
G1X35696Y72816D1*
G1X35675Y72835D1*
G1X35644Y72850D1*
G1X35608Y72854D1*
G1X35577Y72850D1*
G1X35546Y72835D1*
G1X35520Y72812D1*
G1X35510Y72785D1*
G1X35520Y72754D1*
G1X35551Y72727D1*
G1X35597Y72712D1*
G1X35649Y72708D1*
G1X35716Y72716D1*
G1X35752Y72727D1*
G1X35788Y72746D1*
G1X35814Y72773D1*
G1X35820Y72800D1*
G1X35809Y72827D1*
G1X35783Y72846D1*
G1X35820Y73091D2*
G1X35809Y73060D1*
G1X35783Y73037D1*
G1X35752Y73022D1*
G1X35711Y73010D1*
G1X35664Y73007D1*
G1X35618Y73010D1*
G1X35577Y73022D1*
G1X35546Y73037D1*
G1X35520Y73060D1*
G1X35510Y73091D1*
G1X35520Y73122D1*
G1X35546Y73145D1*
G1X35577Y73160D1*
G1X35618Y73172D1*
G1X35664Y73175D1*
G1X35711Y73172D1*
G1X35752Y73160D1*
G1X35783Y73145D1*
G1X35809Y73122D1*
G1X35820Y73091D1*
G1X34758Y73145D2*
G1X34758Y72515D1*
G1X34442Y72515D1*
G1X34442Y73145D1*
G1X34758Y73145D1*
G1X34975Y73560D2*
G1X34983Y73565D1*
G1X34983Y73575D1*
G1X34975Y73580D1*
G1X34967Y73575D1*
G1X34967Y73565D1*
G1X34975Y73560D1*
G1X34665Y73880D2*
G1X34696Y73870D1*
G1X34719Y73844D1*
G1X34734Y73813D1*
G1X34746Y73772D1*
G1X34749Y73725D1*
G1X34746Y73678D1*
G1X34734Y73637D1*
G1X34719Y73606D1*
G1X34696Y73580D1*
G1X34665Y73570D1*
G1X34634Y73580D1*
G1X34611Y73606D1*
G1X34596Y73637D1*
G1X34584Y73678D1*
G1X34581Y73725D1*
G1X34584Y73772D1*
G1X34596Y73813D1*
G1X34611Y73844D1*
G1X34634Y73870D1*
G1X34665Y73880D1*
G1X34355Y73570D2*
G1X34355Y73880D1*
G1X34401Y73818D1*
G1X34401Y73570D2*
G1X34309Y73570D1*
G1X34110Y73777D2*
G1X34110Y73632D1*
G1X34095Y73596D1*
G1X34072Y73575D1*
G1X34045Y73570D1*
G1X34018Y73575D1*
G1X33995Y73596D1*
G1X33980Y73632D1*
G1X33980Y73570D2*
G1X33980Y73777D1*
G1X33667Y73865D2*
G1X33690Y73880D1*
G1X33716Y73890D1*
G1X33747Y73890D1*
G1X33782Y73875D1*
G1X33808Y73849D1*
G1X33828Y73818D1*
G1X33843Y73766D1*
G1X33847Y73720D1*
G1X33839Y73674D1*
G1X33828Y73642D1*
G1X33805Y73612D1*
G1X33778Y73591D1*
G1X33751Y73580D1*
G1X33724Y73580D1*
G1X33697Y73591D1*
G1X33674Y73606D1*
G1X33655Y73627D1*
G1X33525Y73627D2*
G1X33502Y73601D1*
G1X33476Y73586D1*
G1X33441Y73580D1*
G1X33406Y73591D1*
G1X33380Y73612D1*
G1X33360Y73648D1*
G1X33357Y73689D1*
G1X33364Y73730D1*
G1X33384Y73756D1*
G1X33410Y73777D1*
G1X33437Y73782D1*
G1X33464Y73777D1*
G1X33498Y73756D1*
G1X33487Y73890D1*
G1X33384Y73890D1*
G1X33131Y73580D2*
G1X33104Y73586D1*
G1X33074Y73601D1*
G1X33054Y73627D1*
G1X33047Y73663D1*
G1X33054Y73699D1*
G1X33077Y73730D1*
G1X33112Y73746D1*
G1X33150Y73746D1*
G1X33173Y73756D1*
G1X33192Y73782D1*
G1X33200Y73818D1*
G1X33188Y73854D1*
G1X33162Y73880D1*
G1X33131Y73890D1*
G1X33100Y73880D1*
G1X33074Y73854D1*
G1X33062Y73818D1*
G1X33070Y73782D1*
G1X33089Y73756D1*
G1X33112Y73746D1*
G1X33150Y73746D1*
G1X33185Y73730D1*
G1X33208Y73699D1*
G1X33215Y73663D1*
G1X33208Y73627D1*
G1X33188Y73601D1*
G1X33158Y73586D1*
G1X33131Y73580D1*
G1X39195Y58020D2*
G1X39203Y58025D1*
G1X39203Y58035D1*
G1X39195Y58040D1*
G1X39187Y58035D1*
G1X39187Y58025D1*
G1X39195Y58020D1*
G1X38958Y58288D2*
G1X38935Y58319D1*
G1X38908Y58335D1*
G1X38877Y58340D1*
G1X38839Y58330D1*
G1X38812Y58304D1*
G1X38804Y58273D1*
G1X38808Y58242D1*
G1X38824Y58216D1*
G1X38900Y58164D1*
G1X38935Y58128D1*
G1X38958Y58076D1*
G1X38966Y58030D1*
G1X38804Y58030D1*
G1X38648Y58288D2*
G1X38625Y58319D1*
G1X38598Y58335D1*
G1X38567Y58340D1*
G1X38529Y58330D1*
G1X38502Y58304D1*
G1X38494Y58273D1*
G1X38498Y58242D1*
G1X38514Y58216D1*
G1X38590Y58164D1*
G1X38625Y58128D1*
G1X38648Y58076D1*
G1X38656Y58030D1*
G1X38494Y58030D1*
G1X38330Y58237D2*
G1X38330Y58092D1*
G1X38315Y58056D1*
G1X38292Y58035D1*
G1X38265Y58030D1*
G1X38238Y58035D1*
G1X38215Y58056D1*
G1X38200Y58092D1*
G1X38200Y58030D2*
G1X38200Y58237D1*
G1X39005Y57404D2*
G1X39028Y57419D1*
G1X39054Y57429D1*
G1X39085Y57429D1*
G1X39120Y57414D1*
G1X39146Y57388D1*
G1X39166Y57357D1*
G1X39181Y57306D1*
G1X39185Y57259D1*
G1X39177Y57213D1*
G1X39166Y57181D1*
G1X39143Y57151D1*
G1X39116Y57130D1*
G1X39089Y57120D1*
G1X39062Y57120D1*
G1X39035Y57130D1*
G1X39012Y57145D1*
G1X38993Y57166D1*
G1X38863Y57166D2*
G1X38840Y57140D1*
G1X38814Y57125D1*
G1X38779Y57120D1*
G1X38744Y57130D1*
G1X38718Y57151D1*
G1X38698Y57187D1*
G1X38695Y57228D1*
G1X38702Y57269D1*
G1X38722Y57295D1*
G1X38748Y57316D1*
G1X38775Y57321D1*
G1X38802Y57316D1*
G1X38836Y57295D1*
G1X38825Y57429D1*
G1X38722Y57429D1*
G1X38542Y57378D2*
G1X38519Y57409D1*
G1X38492Y57424D1*
G1X38461Y57429D1*
G1X38423Y57419D1*
G1X38396Y57393D1*
G1X38388Y57362D1*
G1X38392Y57331D1*
G1X38408Y57306D1*
G1X38484Y57254D1*
G1X38519Y57218D1*
G1X38542Y57166D1*
G1X38550Y57120D1*
G1X38388Y57120D1*
G1X38485Y57888D2*
G1X39115Y57888D1*
G1X39115Y57572D1*
G1X38485Y57572D1*
G1X38485Y57888D1*
G1X38107Y64330D2*
G75*
G3X38107Y64330I-57J0D1*
G74*
G1X37677Y63915D2*
G1X37900Y63915D1*
G1X37946Y63899D1*
G1X37977Y63869D1*
G1X37987Y63830D1*
G1X37977Y63792D1*
G1X37946Y63761D1*
G1X37900Y63746D1*
G1X37677Y63746D1*
G1X37941Y63605D2*
G1X37967Y63582D1*
G1X37982Y63555D1*
G1X37987Y63520D1*
G1X37977Y63486D1*
G1X37956Y63459D1*
G1X37920Y63440D1*
G1X37879Y63436D1*
G1X37838Y63444D1*
G1X37812Y63463D1*
G1X37791Y63490D1*
G1X37786Y63517D1*
G1X37791Y63543D1*
G1X37812Y63578D1*
G1X37677Y63566D1*
G1X37677Y63463D1*
G1X39285Y65360D2*
G1X39293Y65365D1*
G1X39293Y65375D1*
G1X39285Y65380D1*
G1X39277Y65375D1*
G1X39277Y65365D1*
G1X39285Y65360D1*
G1X38975Y65370D2*
G1X38975Y65680D1*
G1X39021Y65618D1*
G1X39021Y65370D2*
G1X38929Y65370D1*
G1X38730Y65577D2*
G1X38730Y65432D1*
G1X38715Y65396D1*
G1X38692Y65375D1*
G1X38665Y65370D1*
G1X38638Y65375D1*
G1X38615Y65396D1*
G1X38600Y65432D1*
G1X38600Y65370D2*
G1X38600Y65577D1*
G1X39165Y66084D2*
G1X39188Y66099D1*
G1X39214Y66110D1*
G1X39245Y66110D1*
G1X39280Y66094D1*
G1X39306Y66068D1*
G1X39326Y66037D1*
G1X39341Y65986D1*
G1X39345Y65939D1*
G1X39337Y65892D1*
G1X39326Y65862D1*
G1X39303Y65830D1*
G1X39276Y65810D1*
G1X39249Y65800D1*
G1X39222Y65800D1*
G1X39195Y65810D1*
G1X39172Y65825D1*
G1X39153Y65846D1*
G1X38939Y65800D2*
G1X38939Y66110D1*
G1X38985Y66048D1*
G1X38985Y65800D2*
G1X38893Y65800D1*
G1X38694Y65836D2*
G1X38667Y65810D1*
G1X38637Y65800D1*
G1X38606Y65810D1*
G1X38579Y65841D1*
G1X38560Y65887D1*
G1X38552Y65934D1*
G1X38552Y65991D1*
G1X38560Y66037D1*
G1X38579Y66079D1*
G1X38602Y66099D1*
G1X38629Y66110D1*
G1X38660Y66099D1*
G1X38683Y66079D1*
G1X38698Y66048D1*
G1X38706Y66006D1*
G1X38698Y65970D1*
G1X38679Y65934D1*
G1X38656Y65913D1*
G1X38629Y65908D1*
G1X38598Y65918D1*
G1X38575Y65944D1*
G1X38552Y65991D1*
G1X38665Y65188D2*
G1X39295Y65188D1*
G1X39295Y64873D1*
G1X38665Y64873D1*
G1X38665Y65188D1*
G1X37470Y66695D2*
G1X37780Y66695D1*
G1X37718Y66649D1*
G1X37470Y66649D2*
G1X37470Y66741D1*
G1X37780Y67005D2*
G1X37770Y66974D1*
G1X37744Y66951D1*
G1X37713Y66936D1*
G1X37672Y66924D1*
G1X37625Y66921D1*
G1X37578Y66924D1*
G1X37537Y66936D1*
G1X37506Y66951D1*
G1X37480Y66974D1*
G1X37470Y67005D1*
G1X37480Y67036D1*
G1X37506Y67059D1*
G1X37537Y67074D1*
G1X37578Y67086D1*
G1X37625Y67089D1*
G1X37672Y67086D1*
G1X37713Y67074D1*
G1X37744Y67059D1*
G1X37770Y67036D1*
G1X37780Y67005D1*
G1X37677Y67250D2*
G1X37532Y67250D1*
G1X37496Y67265D1*
G1X37475Y67288D1*
G1X37470Y67315D1*
G1X37475Y67342D1*
G1X37496Y67365D1*
G1X37532Y67380D1*
G1X37470Y67380D2*
G1X37677Y67380D1*
G1X37780Y67707D2*
G1X37795Y67684D1*
G1X37806Y67657D1*
G1X37806Y67626D1*
G1X37790Y67592D1*
G1X37764Y67565D1*
G1X37733Y67546D1*
G1X37682Y67530D1*
G1X37635Y67527D1*
G1X37588Y67534D1*
G1X37558Y67546D1*
G1X37526Y67569D1*
G1X37506Y67596D1*
G1X37496Y67622D1*
G1X37496Y67649D1*
G1X37506Y67676D1*
G1X37521Y67699D1*
G1X37542Y67718D1*
G1X37496Y67978D2*
G1X37806Y67978D1*
G1X37583Y67837D1*
G1X37583Y68028D1*
G1X37625Y68170D2*
G1X37661Y68196D1*
G1X37682Y68220D1*
G1X37692Y68250D1*
G1X37682Y68277D1*
G1X37661Y68296D1*
G1X37630Y68312D1*
G1X37594Y68315D1*
G1X37563Y68312D1*
G1X37532Y68296D1*
G1X37506Y68273D1*
G1X37496Y68246D1*
G1X37506Y68216D1*
G1X37537Y68189D1*
G1X37583Y68174D1*
G1X37635Y68170D1*
G1X37702Y68177D1*
G1X37738Y68189D1*
G1X37774Y68208D1*
G1X37800Y68235D1*
G1X37806Y68262D1*
G1X37795Y68288D1*
G1X37769Y68308D1*
G1X37276Y67794D2*
G1X37276Y67006D1*
G1X36784Y67006D1*
G1X36784Y67794D1*
G1X37276Y67794D1*
G1X36825Y66380D2*
G1X36833Y66385D1*
G1X36833Y66395D1*
G1X36825Y66400D1*
G1X36817Y66395D1*
G1X36817Y66385D1*
G1X36825Y66380D1*
G1X36515Y66390D2*
G1X36515Y66700D1*
G1X36561Y66638D1*
G1X36561Y66390D2*
G1X36469Y66390D1*
G1X36270Y66597D2*
G1X36270Y66452D1*
G1X36255Y66416D1*
G1X36232Y66395D1*
G1X36205Y66390D1*
G1X36178Y66395D1*
G1X36155Y66416D1*
G1X36140Y66452D1*
G1X36140Y66390D2*
G1X36140Y66597D1*
G1X36720Y68410D2*
G1X36743Y68426D1*
G1X36770Y68436D1*
G1X36801Y68436D1*
G1X36835Y68420D1*
G1X36862Y68395D1*
G1X36881Y68364D1*
G1X36896Y68312D1*
G1X36900Y68266D1*
G1X36893Y68219D1*
G1X36881Y68188D1*
G1X36858Y68157D1*
G1X36831Y68136D1*
G1X36804Y68126D1*
G1X36778Y68126D1*
G1X36751Y68136D1*
G1X36728Y68152D1*
G1X36709Y68172D1*
G1X36567Y68255D2*
G1X36540Y68291D1*
G1X36518Y68312D1*
G1X36487Y68322D1*
G1X36460Y68312D1*
G1X36441Y68291D1*
G1X36426Y68260D1*
G1X36422Y68224D1*
G1X36426Y68193D1*
G1X36441Y68162D1*
G1X36464Y68136D1*
G1X36491Y68126D1*
G1X36521Y68136D1*
G1X36548Y68167D1*
G1X36564Y68214D1*
G1X36567Y68266D1*
G1X36560Y68333D1*
G1X36548Y68369D1*
G1X36529Y68405D1*
G1X36502Y68431D1*
G1X36475Y68436D1*
G1X36448Y68426D1*
G1X36429Y68400D1*
G1X36192Y68126D2*
G1X36184Y68193D1*
G1X36173Y68250D1*
G1X36158Y68302D1*
G1X36138Y68358D1*
G1X36108Y68436D1*
G1X36261Y68436D1*
G1X36548Y67665D2*
G1X36548Y67035D1*
G1X36232Y67035D1*
G1X36232Y67665D1*
G1X36548Y67665D1*
G1X36895Y68880D2*
G1X36903Y68885D1*
G1X36903Y68895D1*
G1X36895Y68900D1*
G1X36887Y68895D1*
G1X36887Y68885D1*
G1X36895Y68880D1*
G1X36585Y68890D2*
G1X36585Y69200D1*
G1X36631Y69138D1*
G1X36631Y68890D2*
G1X36539Y68890D1*
G1X36340Y69097D2*
G1X36340Y68952D1*
G1X36325Y68916D1*
G1X36302Y68895D1*
G1X36275Y68890D1*
G1X36248Y68895D1*
G1X36225Y68916D1*
G1X36210Y68952D1*
G1X36210Y68890D2*
G1X36210Y69097D1*
G1X38591Y70902D2*
G1X38810Y71121D1*
G1X38756Y71175D1*
G1X38723Y71186D1*
G1X38692Y71187D1*
G1X38657Y71179D1*
G1X38620Y71164D1*
G1X38581Y71130D1*
G1X38547Y71091D1*
G1X38532Y71055D1*
G1X38524Y71019D1*
G1X38526Y70988D1*
G1X38536Y70956D1*
G1X38591Y70902D1*
G1X38312Y71180D2*
G1X38531Y71400D1*
G1X38520Y71323D1*
G1X38344Y71148D2*
G1X38279Y71213D1*
G1X38185Y71373D2*
G1X38151Y71371D1*
G1X38121Y71379D1*
G1X38093Y71400D1*
G1X38076Y71431D1*
G1X38071Y71465D1*
G1X38083Y71504D1*
G1X38110Y71536D1*
G1X38144Y71560D1*
G1X38176Y71564D1*
G1X38210Y71560D1*
G1X38232Y71545D1*
G1X38248Y71522D1*
G1X38258Y71483D1*
G1X38344Y71586D1*
G1X38271Y71660D1*
G1X37964Y72229D2*
G1X38671Y72936D1*
G1X40085Y71522D1*
G1X39378Y70815D1*
G1X37964Y72229D1*
G1X36795Y69574D2*
G1X36818Y69589D1*
G1X36844Y69600D1*
G1X36875Y69600D1*
G1X36910Y69584D1*
G1X36936Y69558D1*
G1X36956Y69527D1*
G1X36971Y69476D1*
G1X36975Y69429D1*
G1X36967Y69382D1*
G1X36956Y69352D1*
G1X36933Y69320D1*
G1X36906Y69300D1*
G1X36879Y69290D1*
G1X36852Y69290D1*
G1X36825Y69300D1*
G1X36802Y69315D1*
G1X36783Y69336D1*
G1X36577Y69290D2*
G1X36569Y69357D1*
G1X36558Y69414D1*
G1X36542Y69465D1*
G1X36523Y69522D1*
G1X36492Y69600D1*
G1X36646Y69600D1*
G1X36259Y69600D2*
G1X36290Y69589D1*
G1X36313Y69563D1*
G1X36328Y69532D1*
G1X36340Y69491D1*
G1X36343Y69444D1*
G1X36340Y69398D1*
G1X36328Y69357D1*
G1X36313Y69326D1*
G1X36290Y69300D1*
G1X36259Y69290D1*
G1X36228Y69300D1*
G1X36205Y69326D1*
G1X36190Y69357D1*
G1X36178Y69398D1*
G1X36175Y69444D1*
G1X36178Y69491D1*
G1X36190Y69532D1*
G1X36205Y69563D1*
G1X36228Y69589D1*
G1X36259Y69600D1*
G1X41075Y61320D2*
G1X41075Y61630D1*
G1X41121Y61568D1*
G1X41121Y61320D2*
G1X41029Y61320D1*
G1X40838Y61578D2*
G1X40815Y61609D1*
G1X40788Y61625D1*
G1X40757Y61630D1*
G1X40719Y61620D1*
G1X40692Y61594D1*
G1X40684Y61563D1*
G1X40688Y61532D1*
G1X40704Y61506D1*
G1X40780Y61454D1*
G1X40815Y61418D1*
G1X40838Y61366D1*
G1X40846Y61320D1*
G1X40684Y61320D1*
G1X40455Y61630D2*
G1X40486Y61620D1*
G1X40509Y61594D1*
G1X40524Y61563D1*
G1X40536Y61522D1*
G1X40539Y61475D1*
G1X40536Y61428D1*
G1X40524Y61387D1*
G1X40509Y61356D1*
G1X40486Y61330D1*
G1X40455Y61320D1*
G1X40424Y61330D1*
G1X40401Y61356D1*
G1X40386Y61387D1*
G1X40374Y61428D1*
G1X40371Y61475D1*
G1X40374Y61522D1*
G1X40386Y61563D1*
G1X40401Y61594D1*
G1X40424Y61620D1*
G1X40455Y61630D1*
G1X40918Y61730D2*
G1X40918Y62041D1*
G1X40822Y62041D1*
G1X40791Y62025D1*
G1X40772Y62004D1*
G1X40764Y61963D1*
G1X40772Y61922D1*
G1X40795Y61896D1*
G1X40822Y61880D1*
G1X40918Y61880D1*
G1X40822Y61880D2*
G1X40764Y61730D1*
G1X40531Y61730D2*
G1X40531Y62041D1*
G1X40577Y61979D1*
G1X40577Y61730D2*
G1X40485Y61730D1*
G1X40045Y61412D2*
G1X39415Y61412D1*
G1X39415Y61728D1*
G1X40045Y61728D1*
G1X40045Y61412D1*
G1X40360Y62665D2*
G1X40365Y62657D1*
G1X40375Y62657D1*
G1X40380Y62665D1*
G1X40375Y62673D1*
G1X40365Y62673D1*
G1X40360Y62665D1*
G1X40370Y62975D2*
G1X40680Y62975D1*
G1X40618Y62929D1*
G1X40370Y62929D2*
G1X40370Y63021D1*
G1X40577Y63220D2*
G1X40432Y63220D1*
G1X40396Y63235D1*
G1X40375Y63258D1*
G1X40370Y63285D1*
G1X40375Y63312D1*
G1X40396Y63335D1*
G1X40432Y63350D1*
G1X40370Y63350D2*
G1X40577Y63350D1*
G1X41118Y63535D2*
G1X41118Y62905D1*
G1X40803Y62905D1*
G1X40803Y63535D1*
G1X41118Y63535D1*
G1X40614Y63715D2*
G1X40629Y63692D1*
G1X40640Y63666D1*
G1X40640Y63635D1*
G1X40624Y63600D1*
G1X40598Y63574D1*
G1X40567Y63554D1*
G1X40516Y63539D1*
G1X40469Y63535D1*
G1X40422Y63543D1*
G1X40392Y63554D1*
G1X40360Y63577D1*
G1X40340Y63604D1*
G1X40329Y63631D1*
G1X40329Y63658D1*
G1X40340Y63685D1*
G1X40355Y63708D1*
G1X40376Y63727D1*
G1X40329Y63933D2*
G1X40397Y63941D1*
G1X40454Y63952D1*
G1X40505Y63968D1*
G1X40562Y63987D1*
G1X40640Y64018D1*
G1X40640Y63864D1*
G1X42378Y69108D2*
G1X42355Y69139D1*
G1X42328Y69155D1*
G1X42297Y69160D1*
G1X42259Y69150D1*
G1X42232Y69124D1*
G1X42224Y69093D1*
G1X42228Y69062D1*
G1X42244Y69036D1*
G1X42320Y68984D1*
G1X42355Y68948D1*
G1X42378Y68896D1*
G1X42386Y68850D1*
G1X42224Y68850D1*
G1X42068Y69108D2*
G1X42045Y69139D1*
G1X42018Y69155D1*
G1X41987Y69160D1*
G1X41949Y69150D1*
G1X41922Y69124D1*
G1X41914Y69093D1*
G1X41918Y69062D1*
G1X41934Y69036D1*
G1X42010Y68984D1*
G1X42045Y68948D1*
G1X42068Y68896D1*
G1X42076Y68850D1*
G1X41914Y68850D1*
G1X41685Y69160D2*
G1X41716Y69150D1*
G1X41739Y69124D1*
G1X41754Y69093D1*
G1X41766Y69052D1*
G1X41769Y69005D1*
G1X41766Y68958D1*
G1X41754Y68917D1*
G1X41739Y68886D1*
G1X41716Y68860D1*
G1X41685Y68850D1*
G1X41654Y68860D1*
G1X41631Y68886D1*
G1X41616Y68917D1*
G1X41604Y68958D1*
G1X41601Y69005D1*
G1X41604Y69052D1*
G1X41616Y69093D1*
G1X41631Y69124D1*
G1X41654Y69150D1*
G1X41685Y69160D1*
G1X41440Y69057D2*
G1X41440Y68912D1*
G1X41425Y68876D1*
G1X41402Y68855D1*
G1X41375Y68850D1*
G1X41348Y68855D1*
G1X41325Y68876D1*
G1X41310Y68912D1*
G1X41310Y68850D2*
G1X41310Y69057D1*
G1X39370Y70370D2*
G1X40490Y71490D1*
G1X42102Y69565D2*
G1X42125Y69581D1*
G1X42152Y69591D1*
G1X42183Y69591D1*
G1X42217Y69576D1*
G1X42244Y69550D1*
G1X42263Y69519D1*
G1X42278Y69467D1*
G1X42282Y69420D1*
G1X42275Y69374D1*
G1X42263Y69343D1*
G1X42240Y69312D1*
G1X42213Y69291D1*
G1X42186Y69281D1*
G1X42160Y69281D1*
G1X42133Y69291D1*
G1X42110Y69307D1*
G1X42091Y69328D1*
G1X41961Y69343D2*
G1X41938Y69307D1*
G1X41907Y69286D1*
G1X41873Y69281D1*
G1X41842Y69286D1*
G1X41811Y69312D1*
G1X41792Y69343D1*
G1X41788Y69374D1*
G1X41796Y69410D1*
G1X41823Y69436D1*
G1X41850Y69446D1*
G1X41884Y69446D1*
G1X41850Y69446D2*
G1X41827Y69462D1*
G1X41807Y69488D1*
G1X41800Y69519D1*
G1X41807Y69550D1*
G1X41827Y69576D1*
G1X41861Y69591D1*
G1X41896Y69586D1*
G1X41930Y69565D1*
G1X41566Y69281D2*
G1X41540Y69286D1*
G1X41509Y69302D1*
G1X41490Y69328D1*
G1X41482Y69364D1*
G1X41490Y69400D1*
G1X41513Y69431D1*
G1X41547Y69446D1*
G1X41586Y69446D1*
G1X41609Y69457D1*
G1X41628Y69482D1*
G1X41635Y69519D1*
G1X41624Y69555D1*
G1X41597Y69581D1*
G1X41566Y69591D1*
G1X41536Y69581D1*
G1X41509Y69555D1*
G1X41497Y69519D1*
G1X41505Y69482D1*
G1X41524Y69457D1*
G1X41547Y69446D1*
G1X41586Y69446D1*
G1X41620Y69431D1*
G1X41643Y69400D1*
G1X41651Y69364D1*
G1X41643Y69328D1*
G1X41624Y69302D1*
G1X41593Y69286D1*
G1X41566Y69281D1*
G1X45138Y73758D2*
G1X45138Y69702D1*
G1X41082Y69702D1*
G1X41082Y73758D1*
G1X45138Y73758D1*
G1X45055Y56620D2*
G1X45055Y56930D1*
G1X45101Y56868D1*
G1X45101Y56620D2*
G1X45009Y56620D1*
G1X44818Y56878D2*
G1X44795Y56909D1*
G1X44768Y56925D1*
G1X44737Y56930D1*
G1X44699Y56920D1*
G1X44672Y56894D1*
G1X44664Y56863D1*
G1X44668Y56832D1*
G1X44684Y56806D1*
G1X44760Y56754D1*
G1X44795Y56718D1*
G1X44818Y56666D1*
G1X44826Y56620D1*
G1X44664Y56620D1*
G1X44500Y56620D2*
G1X44500Y56930D1*
G1X44378Y56827D2*
G1X44500Y56708D1*
G1X44450Y56754D2*
G1X44370Y56620D1*
G1X45148Y57030D2*
G1X45148Y57340D1*
G1X45052Y57340D1*
G1X45021Y57325D1*
G1X45002Y57304D1*
G1X44994Y57263D1*
G1X45002Y57222D1*
G1X45025Y57196D1*
G1X45052Y57180D1*
G1X45148Y57180D1*
G1X45052Y57180D2*
G1X44994Y57030D1*
G1X44834Y57289D2*
G1X44811Y57320D1*
G1X44784Y57335D1*
G1X44753Y57340D1*
G1X44715Y57330D1*
G1X44688Y57304D1*
G1X44680Y57273D1*
G1X44684Y57242D1*
G1X44700Y57216D1*
G1X44776Y57165D1*
G1X44811Y57129D1*
G1X44834Y57077D1*
G1X44842Y57030D1*
G1X44680Y57030D1*
G1X44451Y57340D2*
G1X44482Y57330D1*
G1X44505Y57304D1*
G1X44520Y57273D1*
G1X44532Y57232D1*
G1X44535Y57186D1*
G1X44532Y57139D1*
G1X44520Y57098D1*
G1X44505Y57067D1*
G1X44482Y57041D1*
G1X44451Y57030D1*
G1X44420Y57041D1*
G1X44397Y57067D1*
G1X44382Y57098D1*
G1X44370Y57139D1*
G1X44367Y57186D1*
G1X44370Y57232D1*
G1X44382Y57273D1*
G1X44397Y57304D1*
G1X44420Y57330D1*
G1X44451Y57340D1*
G1X43605Y56550D2*
G1X43605Y56860D1*
G1X43651Y56798D1*
G1X43651Y56550D2*
G1X43559Y56550D1*
G1X43295Y56860D2*
G1X43326Y56850D1*
G1X43349Y56824D1*
G1X43364Y56793D1*
G1X43376Y56751D1*
G1X43379Y56705D1*
G1X43376Y56659D1*
G1X43364Y56617D1*
G1X43349Y56586D1*
G1X43326Y56560D1*
G1X43295Y56550D1*
G1X43264Y56560D1*
G1X43241Y56586D1*
G1X43226Y56617D1*
G1X43214Y56659D1*
G1X43211Y56705D1*
G1X43214Y56751D1*
G1X43226Y56793D1*
G1X43241Y56824D1*
G1X43264Y56850D1*
G1X43295Y56860D1*
G1X42985Y56860D2*
G1X43016Y56850D1*
G1X43039Y56824D1*
G1X43054Y56793D1*
G1X43066Y56751D1*
G1X43069Y56705D1*
G1X43066Y56659D1*
G1X43054Y56617D1*
G1X43039Y56586D1*
G1X43016Y56560D1*
G1X42985Y56550D1*
G1X42954Y56560D1*
G1X42931Y56586D1*
G1X42916Y56617D1*
G1X42904Y56659D1*
G1X42901Y56705D1*
G1X42904Y56751D1*
G1X42916Y56793D1*
G1X42931Y56824D1*
G1X42954Y56850D1*
G1X42985Y56860D1*
G1X43775Y56962D2*
G1X43145Y56962D1*
G1X43145Y57278D1*
G1X43775Y57278D1*
G1X43775Y56962D1*
G1X45235Y58430D2*
G1X45235Y58740D1*
G1X45281Y58678D1*
G1X45281Y58430D2*
G1X45189Y58430D1*
G1X44998Y58688D2*
G1X44975Y58719D1*
G1X44948Y58735D1*
G1X44917Y58740D1*
G1X44879Y58730D1*
G1X44852Y58704D1*
G1X44844Y58673D1*
G1X44848Y58642D1*
G1X44864Y58616D1*
G1X44940Y58564D1*
G1X44975Y58528D1*
G1X44998Y58476D1*
G1X45006Y58430D1*
G1X44844Y58430D1*
G1X44680Y58430D2*
G1X44680Y58740D1*
G1X44558Y58637D2*
G1X44680Y58518D1*
G1X44630Y58564D2*
G1X44550Y58430D1*
G1X45466Y58830D2*
G1X45466Y59140D1*
G1X45370Y59140D1*
G1X45339Y59124D1*
G1X45320Y59103D1*
G1X45312Y59062D1*
G1X45320Y59021D1*
G1X45343Y58995D1*
G1X45370Y58979D1*
G1X45466Y58979D1*
G1X45370Y58979D2*
G1X45312Y58830D1*
G1X45079Y58830D2*
G1X45079Y59140D1*
G1X45125Y59078D1*
G1X45125Y58830D2*
G1X45033Y58830D1*
G1X44834Y58866D2*
G1X44807Y58840D1*
G1X44777Y58830D1*
G1X44746Y58840D1*
G1X44719Y58871D1*
G1X44700Y58917D1*
G1X44692Y58964D1*
G1X44692Y59021D1*
G1X44700Y59067D1*
G1X44719Y59109D1*
G1X44742Y59129D1*
G1X44769Y59140D1*
G1X44800Y59129D1*
G1X44823Y59109D1*
G1X44838Y59078D1*
G1X44846Y59036D1*
G1X44838Y59000D1*
G1X44819Y58964D1*
G1X44796Y58943D1*
G1X44769Y58938D1*
G1X44738Y58948D1*
G1X44715Y58974D1*
G1X44692Y59021D1*
G1X44445Y58298D2*
G1X45075Y58298D1*
G1X45075Y57982D1*
G1X44445Y57982D1*
G1X44445Y58298D1*
G1X45095Y57442D2*
G1X44465Y57442D1*
G1X44465Y57758D1*
G1X45095Y57758D1*
G1X45095Y57442D1*
G1X43668Y57400D2*
G1X43668Y57711D1*
G1X43572Y57711D1*
G1X43541Y57695D1*
G1X43522Y57674D1*
G1X43514Y57633D1*
G1X43522Y57592D1*
G1X43545Y57566D1*
G1X43572Y57550D1*
G1X43668Y57550D1*
G1X43572Y57550D2*
G1X43514Y57400D1*
G1X43354Y57659D2*
G1X43331Y57690D1*
G1X43304Y57705D1*
G1X43273Y57711D1*
G1X43235Y57700D1*
G1X43208Y57674D1*
G1X43200Y57643D1*
G1X43204Y57612D1*
G1X43220Y57586D1*
G1X43296Y57535D1*
G1X43331Y57499D1*
G1X43354Y57447D1*
G1X43362Y57400D1*
G1X43200Y57400D1*
G1X42971Y57400D2*
G1X42971Y57711D1*
G1X43017Y57649D1*
G1X43017Y57400D2*
G1X42925Y57400D1*
G1X46445Y68380D2*
G1X46445Y68690D1*
G1X46491Y68628D1*
G1X46491Y68380D2*
G1X46399Y68380D1*
G1X46135Y68690D2*
G1X46166Y68680D1*
G1X46189Y68654D1*
G1X46204Y68623D1*
G1X46216Y68582D1*
G1X46219Y68535D1*
G1X46216Y68488D1*
G1X46204Y68447D1*
G1X46189Y68416D1*
G1X46166Y68390D1*
G1X46135Y68380D1*
G1X46104Y68390D1*
G1X46081Y68416D1*
G1X46066Y68447D1*
G1X46054Y68488D1*
G1X46051Y68535D1*
G1X46054Y68582D1*
G1X46066Y68623D1*
G1X46081Y68654D1*
G1X46104Y68680D1*
G1X46135Y68690D1*
G1X45890Y68587D2*
G1X45890Y68442D1*
G1X45875Y68406D1*
G1X45852Y68385D1*
G1X45825Y68380D1*
G1X45798Y68385D1*
G1X45775Y68406D1*
G1X45760Y68442D1*
G1X45760Y68380D2*
G1X45760Y68587D1*
G1X45523Y68323D2*
G1X45507Y68390D1*
G1X45278Y68638D2*
G1X45255Y68669D1*
G1X45228Y68685D1*
G1X45197Y68690D1*
G1X45159Y68680D1*
G1X45132Y68654D1*
G1X45124Y68623D1*
G1X45128Y68592D1*
G1X45144Y68566D1*
G1X45220Y68514D1*
G1X45255Y68478D1*
G1X45278Y68426D1*
G1X45286Y68380D1*
G1X45124Y68380D1*
G1X44895Y68690D2*
G1X44926Y68680D1*
G1X44949Y68654D1*
G1X44964Y68623D1*
G1X44976Y68582D1*
G1X44979Y68535D1*
G1X44976Y68488D1*
G1X44964Y68447D1*
G1X44949Y68416D1*
G1X44926Y68390D1*
G1X44895Y68380D1*
G1X44864Y68390D1*
G1X44841Y68416D1*
G1X44826Y68447D1*
G1X44814Y68488D1*
G1X44811Y68535D1*
G1X44814Y68582D1*
G1X44826Y68623D1*
G1X44841Y68654D1*
G1X44864Y68680D1*
G1X44895Y68690D1*
G1X44681Y68690D2*
G1X44585Y68380D1*
G1X44489Y68690D1*
G1X44960Y68795D2*
G1X43700Y68795D1*
G1X43700Y69425D1*
G1X44960Y69425D1*
G1X44960Y68795D1*
G1X43470Y69917D2*
G1X43622Y69917D1*
G1X43540Y70025D2*
G1X43540Y69808D1*
G1X43518Y73587D2*
G1X43682Y73587D1*
G1X45542Y60047D2*
G1X45764Y60047D1*
G1X45810Y60032D1*
G1X45841Y60001D1*
G1X45851Y59963D1*
G1X45841Y59925D1*
G1X45810Y59894D1*
G1X45764Y59879D1*
G1X45542Y59879D1*
G1X45851Y59661D2*
G1X45784Y59653D1*
G1X45728Y59642D1*
G1X45676Y59626D1*
G1X45619Y59607D1*
G1X45542Y59576D1*
G1X45542Y59730D1*
G1X47535Y61260D2*
G1X47543Y61265D1*
G1X47543Y61275D1*
G1X47535Y61280D1*
G1X47527Y61275D1*
G1X47527Y61265D1*
G1X47535Y61260D1*
G1X47225Y61270D2*
G1X47225Y61580D1*
G1X47271Y61518D1*
G1X47271Y61270D2*
G1X47179Y61270D1*
G1X46980Y61477D2*
G1X46980Y61332D1*
G1X46965Y61296D1*
G1X46942Y61275D1*
G1X46915Y61270D1*
G1X46888Y61275D1*
G1X46865Y61296D1*
G1X46850Y61332D1*
G1X46850Y61270D2*
G1X46850Y61477D1*
G1X48427Y61525D2*
G1X48450Y61540D1*
G1X48476Y61550D1*
G1X48507Y61550D1*
G1X48542Y61535D1*
G1X48569Y61509D1*
G1X48588Y61478D1*
G1X48603Y61426D1*
G1X48607Y61380D1*
G1X48599Y61334D1*
G1X48588Y61302D1*
G1X48565Y61271D1*
G1X48538Y61251D1*
G1X48511Y61241D1*
G1X48484Y61241D1*
G1X48457Y61251D1*
G1X48434Y61266D1*
G1X48415Y61287D1*
G1X48201Y61241D2*
G1X48201Y61550D1*
G1X48247Y61489D1*
G1X48247Y61241D2*
G1X48155Y61241D1*
G1X47845Y61241D2*
G1X47845Y61550D1*
G1X47987Y61328D1*
G1X47795Y61328D1*
G1X47905Y62172D2*
G1X47275Y62172D1*
G1X47275Y62488D1*
G1X47905Y62488D1*
G1X47905Y62172D1*
G1X47185Y62990D2*
G1X47193Y62995D1*
G1X47193Y63005D1*
G1X47185Y63010D1*
G1X47177Y63005D1*
G1X47177Y62995D1*
G1X47185Y62990D1*
G1X46875Y63000D2*
G1X46875Y63310D1*
G1X46921Y63248D1*
G1X46921Y63000D2*
G1X46829Y63000D1*
G1X46630Y63207D2*
G1X46630Y63062D1*
G1X46615Y63026D1*
G1X46592Y63005D1*
G1X46565Y63000D1*
G1X46538Y63005D1*
G1X46515Y63026D1*
G1X46500Y63062D1*
G1X46500Y63000D2*
G1X46500Y63207D1*
G1X48325Y62853D2*
G1X47695Y62853D1*
G1X47695Y63168D1*
G1X48325Y63168D1*
G1X48325Y62853D1*
G1X46997Y63685D2*
G1X47020Y63700D1*
G1X47046Y63710D1*
G1X47077Y63710D1*
G1X47112Y63695D1*
G1X47139Y63669D1*
G1X47158Y63638D1*
G1X47173Y63586D1*
G1X47177Y63540D1*
G1X47169Y63494D1*
G1X47158Y63463D1*
G1X47135Y63431D1*
G1X47108Y63411D1*
G1X47081Y63401D1*
G1X47054Y63401D1*
G1X47027Y63411D1*
G1X47004Y63426D1*
G1X46985Y63447D1*
G1X46771Y63401D2*
G1X46771Y63710D1*
G1X46817Y63649D1*
G1X46817Y63401D2*
G1X46725Y63401D1*
G1X46469Y63401D2*
G1X46461Y63468D1*
G1X46450Y63524D1*
G1X46434Y63576D1*
G1X46415Y63633D1*
G1X46384Y63710D1*
G1X46538Y63710D1*
G1X48088Y68918D2*
G1X48065Y68949D1*
G1X48038Y68965D1*
G1X48007Y68970D1*
G1X47969Y68960D1*
G1X47942Y68934D1*
G1X47934Y68903D1*
G1X47938Y68872D1*
G1X47954Y68846D1*
G1X48030Y68794D1*
G1X48065Y68758D1*
G1X48088Y68706D1*
G1X48096Y68660D1*
G1X47934Y68660D1*
G1X47778Y68918D2*
G1X47755Y68949D1*
G1X47728Y68965D1*
G1X47697Y68970D1*
G1X47659Y68960D1*
G1X47632Y68934D1*
G1X47624Y68903D1*
G1X47628Y68872D1*
G1X47644Y68846D1*
G1X47720Y68794D1*
G1X47755Y68758D1*
G1X47778Y68706D1*
G1X47786Y68660D1*
G1X47624Y68660D1*
G1X47395Y68970D2*
G1X47426Y68960D1*
G1X47449Y68934D1*
G1X47464Y68903D1*
G1X47476Y68862D1*
G1X47479Y68815D1*
G1X47476Y68768D1*
G1X47464Y68727D1*
G1X47449Y68696D1*
G1X47426Y68670D1*
G1X47395Y68660D1*
G1X47364Y68670D1*
G1X47341Y68696D1*
G1X47326Y68727D1*
G1X47314Y68768D1*
G1X47311Y68815D1*
G1X47314Y68862D1*
G1X47326Y68903D1*
G1X47341Y68934D1*
G1X47364Y68960D1*
G1X47395Y68970D1*
G1X47150Y68867D2*
G1X47150Y68722D1*
G1X47135Y68686D1*
G1X47112Y68665D1*
G1X47085Y68660D1*
G1X47058Y68665D1*
G1X47035Y68686D1*
G1X47020Y68722D1*
G1X47020Y68660D2*
G1X47020Y68867D1*
G1X45983Y69195D2*
G1X46006Y69211D1*
G1X46032Y69221D1*
G1X46063Y69221D1*
G1X46098Y69205D1*
G1X46124Y69180D1*
G1X46144Y69149D1*
G1X46159Y69097D1*
G1X46163Y69050D1*
G1X46155Y69004D1*
G1X46144Y68973D1*
G1X46121Y68942D1*
G1X46094Y68921D1*
G1X46067Y68911D1*
G1X46040Y68911D1*
G1X46013Y68921D1*
G1X45990Y68937D1*
G1X45971Y68957D1*
G1X45841Y68973D2*
G1X45818Y68937D1*
G1X45788Y68916D1*
G1X45753Y68911D1*
G1X45723Y68916D1*
G1X45692Y68942D1*
G1X45673Y68973D1*
G1X45669Y69004D1*
G1X45676Y69040D1*
G1X45703Y69066D1*
G1X45730Y69076D1*
G1X45765Y69076D1*
G1X45730Y69076D2*
G1X45707Y69092D1*
G1X45688Y69118D1*
G1X45680Y69149D1*
G1X45688Y69180D1*
G1X45707Y69205D1*
G1X45742Y69221D1*
G1X45776Y69216D1*
G1X45811Y69195D1*
G1X45512Y68947D2*
G1X45485Y68921D1*
G1X45455Y68911D1*
G1X45424Y68921D1*
G1X45397Y68952D1*
G1X45378Y68999D1*
G1X45370Y69045D1*
G1X45370Y69102D1*
G1X45378Y69149D1*
G1X45397Y69190D1*
G1X45420Y69211D1*
G1X45447Y69221D1*
G1X45478Y69211D1*
G1X45501Y69190D1*
G1X45516Y69159D1*
G1X45524Y69118D1*
G1X45516Y69081D1*
G1X45497Y69045D1*
G1X45474Y69025D1*
G1X45447Y69019D1*
G1X45416Y69030D1*
G1X45393Y69056D1*
G1X45370Y69102D1*
G1X46608Y69917D2*
G1X46772Y69917D1*
G1X47829Y69403D2*
G1X47852Y69419D1*
G1X47879Y69429D1*
G1X47910Y69429D1*
G1X47944Y69414D1*
G1X47971Y69388D1*
G1X47990Y69357D1*
G1X48006Y69305D1*
G1X48009Y69258D1*
G1X48002Y69212D1*
G1X47990Y69181D1*
G1X47967Y69150D1*
G1X47940Y69129D1*
G1X47914Y69119D1*
G1X47887Y69119D1*
G1X47860Y69129D1*
G1X47837Y69145D1*
G1X47818Y69166D1*
G1X47688Y69181D2*
G1X47665Y69145D1*
G1X47634Y69124D1*
G1X47600Y69119D1*
G1X47569Y69124D1*
G1X47538Y69150D1*
G1X47519Y69181D1*
G1X47515Y69212D1*
G1X47523Y69248D1*
G1X47550Y69274D1*
G1X47577Y69284D1*
G1X47611Y69284D1*
G1X47577Y69284D2*
G1X47554Y69300D1*
G1X47535Y69326D1*
G1X47527Y69357D1*
G1X47535Y69388D1*
G1X47554Y69414D1*
G1X47588Y69429D1*
G1X47623Y69424D1*
G1X47657Y69403D1*
G1X47366Y69248D2*
G1X47340Y69284D1*
G1X47317Y69305D1*
G1X47286Y69315D1*
G1X47259Y69305D1*
G1X47240Y69284D1*
G1X47225Y69253D1*
G1X47221Y69217D1*
G1X47225Y69186D1*
G1X47240Y69155D1*
G1X47263Y69129D1*
G1X47290Y69119D1*
G1X47320Y69129D1*
G1X47347Y69160D1*
G1X47363Y69207D1*
G1X47366Y69258D1*
G1X47359Y69326D1*
G1X47347Y69362D1*
G1X47328Y69398D1*
G1X47301Y69424D1*
G1X47274Y69429D1*
G1X47248Y69419D1*
G1X47228Y69393D1*
G1X45172Y69702D2*
G1X45172Y73758D1*
G1X49228Y73758D1*
G1X49228Y69702D1*
G1X45172Y69702D1*
G1X46710Y73577D2*
G1X46862Y73577D1*
G1X46780Y73685D2*
G1X46780Y73468D1*
G1X51595Y57270D2*
G1X51595Y57580D1*
G1X51641Y57518D1*
G1X51641Y57270D2*
G1X51549Y57270D1*
G1X51285Y57580D2*
G1X51316Y57570D1*
G1X51339Y57544D1*
G1X51354Y57513D1*
G1X51366Y57471D1*
G1X51369Y57425D1*
G1X51366Y57379D1*
G1X51354Y57337D1*
G1X51339Y57306D1*
G1X51316Y57280D1*
G1X51285Y57270D1*
G1X51254Y57280D1*
G1X51231Y57306D1*
G1X51216Y57337D1*
G1X51204Y57379D1*
G1X51201Y57425D1*
G1X51204Y57471D1*
G1X51216Y57513D1*
G1X51231Y57544D1*
G1X51254Y57570D1*
G1X51285Y57580D1*
G1X51040Y57477D2*
G1X51040Y57332D1*
G1X51025Y57296D1*
G1X51002Y57275D1*
G1X50975Y57270D1*
G1X50948Y57275D1*
G1X50925Y57296D1*
G1X50910Y57332D1*
G1X50910Y57270D2*
G1X50910Y57477D1*
G1X51513Y58030D2*
G1X51536Y58045D1*
G1X51563Y58056D1*
G1X51594Y58056D1*
G1X51628Y58040D1*
G1X51655Y58014D1*
G1X51674Y57983D1*
G1X51690Y57932D1*
G1X51693Y57885D1*
G1X51686Y57838D1*
G1X51674Y57808D1*
G1X51651Y57776D1*
G1X51624Y57756D1*
G1X51598Y57746D1*
G1X51571Y57746D1*
G1X51544Y57756D1*
G1X51521Y57771D1*
G1X51502Y57792D1*
G1X51241Y57746D2*
G1X51241Y58056D1*
G1X51383Y57833D1*
G1X51192Y57833D1*
G1X50931Y57746D2*
G1X50931Y58056D1*
G1X51073Y57833D1*
G1X50882Y57833D1*
G1X50936Y58686D2*
G1X51724Y58686D1*
G1X51724Y58194D1*
G1X50936Y58194D1*
G1X50936Y58686D1*
G1X48907Y63250D2*
G75*
G3X48907Y63250I-57J0D1*
G74*
G1X49543Y64485D2*
G1X49320Y64485D1*
G1X49274Y64501D1*
G1X49243Y64531D1*
G1X49233Y64570D1*
G1X49243Y64608D1*
G1X49274Y64639D1*
G1X49320Y64654D1*
G1X49543Y64654D1*
G1X49295Y64795D2*
G1X49259Y64818D1*
G1X49238Y64849D1*
G1X49233Y64883D1*
G1X49238Y64914D1*
G1X49264Y64945D1*
G1X49295Y64964D1*
G1X49326Y64968D1*
G1X49362Y64960D1*
G1X49388Y64933D1*
G1X49398Y64906D1*
G1X49398Y64872D1*
G1X49398Y64906D2*
G1X49414Y64929D1*
G1X49439Y64949D1*
G1X49470Y64956D1*
G1X49501Y64949D1*
G1X49527Y64929D1*
G1X49543Y64895D1*
G1X49538Y64860D1*
G1X49517Y64826D1*
G1X52084Y67904D2*
G1X52084Y65936D1*
G1X50116Y65936D1*
G1X50116Y67904D1*
G1X52084Y67904D1*
G1X49272Y65995D2*
G1X49272Y66625D1*
G1X49588Y66625D1*
G1X49588Y65995D1*
G1X49272Y65995D1*
G1X50637Y68100D2*
G75*
G3X50637Y68100I-57J0D1*
G74*
G1X50608Y67381D2*
G1X50830Y67381D1*
G1X50877Y67366D1*
G1X50908Y67335D1*
G1X50918Y67297D1*
G1X50908Y67259D1*
G1X50877Y67228D1*
G1X50830Y67213D1*
G1X50608Y67213D1*
G1X50918Y66987D2*
G1X50913Y66960D1*
G1X50897Y66930D1*
G1X50871Y66910D1*
G1X50835Y66903D1*
G1X50799Y66910D1*
G1X50768Y66933D1*
G1X50753Y66968D1*
G1X50753Y67006D1*
G1X50742Y67029D1*
G1X50716Y67048D1*
G1X50680Y67056D1*
G1X50644Y67044D1*
G1X50618Y67018D1*
G1X50608Y66987D1*
G1X50618Y66956D1*
G1X50644Y66930D1*
G1X50680Y66918D1*
G1X50716Y66926D1*
G1X50742Y66945D1*
G1X50753Y66968D1*
G1X50753Y67006D1*
G1X50768Y67041D1*
G1X50799Y67064D1*
G1X50835Y67071D1*
G1X50871Y67064D1*
G1X50897Y67044D1*
G1X50913Y67014D1*
G1X50918Y66987D1*
G1X48410Y66135D2*
G1X48415Y66127D1*
G1X48425Y66127D1*
G1X48430Y66135D1*
G1X48425Y66143D1*
G1X48415Y66143D1*
G1X48410Y66135D1*
G1X48420Y66445D2*
G1X48730Y66445D1*
G1X48668Y66399D1*
G1X48420Y66399D2*
G1X48420Y66491D1*
G1X48627Y66690D2*
G1X48482Y66690D1*
G1X48446Y66705D1*
G1X48425Y66728D1*
G1X48420Y66755D1*
G1X48425Y66782D1*
G1X48446Y66805D1*
G1X48482Y66820D1*
G1X48420Y66820D2*
G1X48627Y66820D1*
G1X49085Y66213D2*
G1X49100Y66190D1*
G1X49110Y66164D1*
G1X49110Y66133D1*
G1X49095Y66098D1*
G1X49069Y66072D1*
G1X49038Y66052D1*
G1X48986Y66037D1*
G1X48940Y66033D1*
G1X48894Y66041D1*
G1X48863Y66052D1*
G1X48832Y66075D1*
G1X48811Y66102D1*
G1X48801Y66129D1*
G1X48801Y66156D1*
G1X48811Y66183D1*
G1X48826Y66206D1*
G1X48847Y66225D1*
G1X48863Y66355D2*
G1X48826Y66378D1*
G1X48806Y66408D1*
G1X48801Y66443D1*
G1X48806Y66474D1*
G1X48832Y66504D1*
G1X48863Y66523D1*
G1X48894Y66527D1*
G1X48930Y66520D1*
G1X48956Y66493D1*
G1X48966Y66466D1*
G1X48966Y66431D1*
G1X48966Y66466D2*
G1X48981Y66489D1*
G1X49007Y66508D1*
G1X49038Y66516D1*
G1X49069Y66508D1*
G1X49095Y66489D1*
G1X49110Y66454D1*
G1X49105Y66420D1*
G1X49085Y66385D1*
G1X49110Y66749D2*
G1X49100Y66718D1*
G1X49074Y66695D1*
G1X49043Y66680D1*
G1X49002Y66668D1*
G1X48956Y66665D1*
G1X48909Y66668D1*
G1X48868Y66680D1*
G1X48837Y66695D1*
G1X48811Y66718D1*
G1X48801Y66749D1*
G1X48811Y66780D1*
G1X48837Y66803D1*
G1X48868Y66818D1*
G1X48909Y66830D1*
G1X48956Y66833D1*
G1X49002Y66830D1*
G1X49043Y66818D1*
G1X49074Y66803D1*
G1X49100Y66780D1*
G1X49110Y66749D1*
G1X50345Y68690D2*
G1X50353Y68695D1*
G1X50353Y68705D1*
G1X50345Y68710D1*
G1X50337Y68705D1*
G1X50337Y68695D1*
G1X50345Y68690D1*
G1X50035Y68700D2*
G1X50035Y69010D1*
G1X50081Y68948D1*
G1X50081Y68700D2*
G1X49989Y68700D1*
G1X49790Y68907D2*
G1X49790Y68762D1*
G1X49775Y68726D1*
G1X49752Y68705D1*
G1X49725Y68700D1*
G1X49698Y68705D1*
G1X49675Y68726D1*
G1X49660Y68762D1*
G1X49660Y68700D2*
G1X49660Y68907D1*
G1X49987Y69335D2*
G1X50010Y69350D1*
G1X50036Y69360D1*
G1X50067Y69360D1*
G1X50102Y69345D1*
G1X50128Y69319D1*
G1X50148Y69288D1*
G1X50163Y69236D1*
G1X50167Y69190D1*
G1X50159Y69144D1*
G1X50148Y69112D1*
G1X50125Y69082D1*
G1X50098Y69061D1*
G1X50071Y69050D1*
G1X50044Y69050D1*
G1X50017Y69061D1*
G1X49994Y69076D1*
G1X49975Y69097D1*
G1X49845Y69112D2*
G1X49822Y69076D1*
G1X49792Y69056D1*
G1X49757Y69050D1*
G1X49726Y69056D1*
G1X49696Y69082D1*
G1X49677Y69112D1*
G1X49673Y69144D1*
G1X49680Y69180D1*
G1X49707Y69206D1*
G1X49734Y69216D1*
G1X49769Y69216D1*
G1X49734Y69216D2*
G1X49711Y69231D1*
G1X49692Y69257D1*
G1X49684Y69288D1*
G1X49692Y69319D1*
G1X49711Y69345D1*
G1X49746Y69360D1*
G1X49780Y69355D1*
G1X49815Y69335D1*
G1X49451Y69050D2*
G1X49451Y69360D1*
G1X49497Y69298D1*
G1X49497Y69050D2*
G1X49405Y69050D1*
G1X50375Y68262D2*
G1X49745Y68262D1*
G1X49745Y68578D1*
G1X50375Y68578D1*
G1X50375Y68262D1*
G1X49115Y66920D2*
G1X49123Y66925D1*
G1X49123Y66935D1*
G1X49115Y66940D1*
G1X49107Y66935D1*
G1X49107Y66925D1*
G1X49115Y66920D1*
G1X48805Y66930D2*
G1X48805Y67240D1*
G1X48851Y67178D1*
G1X48851Y66930D2*
G1X48759Y66930D1*
G1X48560Y67137D2*
G1X48560Y66992D1*
G1X48545Y66956D1*
G1X48522Y66935D1*
G1X48495Y66930D1*
G1X48468Y66935D1*
G1X48445Y66956D1*
G1X48430Y66992D1*
G1X48430Y66930D2*
G1X48430Y67137D1*
G1X48911Y67448D2*
G1X48934Y67464D1*
G1X48961Y67474D1*
G1X48992Y67474D1*
G1X49026Y67459D1*
G1X49053Y67433D1*
G1X49072Y67402D1*
G1X49088Y67350D1*
G1X49091Y67304D1*
G1X49084Y67257D1*
G1X49072Y67226D1*
G1X49049Y67195D1*
G1X49022Y67174D1*
G1X48996Y67164D1*
G1X48969Y67164D1*
G1X48942Y67174D1*
G1X48919Y67190D1*
G1X48900Y67210D1*
G1X48770Y67226D2*
G1X48747Y67190D1*
G1X48716Y67169D1*
G1X48682Y67164D1*
G1X48651Y67169D1*
G1X48620Y67195D1*
G1X48601Y67226D1*
G1X48597Y67257D1*
G1X48605Y67293D1*
G1X48632Y67319D1*
G1X48659Y67329D1*
G1X48693Y67329D1*
G1X48659Y67329D2*
G1X48636Y67345D1*
G1X48616Y67371D1*
G1X48609Y67402D1*
G1X48616Y67433D1*
G1X48636Y67459D1*
G1X48670Y67474D1*
G1X48705Y67469D1*
G1X48739Y67448D1*
G1X48448Y67422D2*
G1X48425Y67453D1*
G1X48398Y67469D1*
G1X48368Y67474D1*
G1X48330Y67464D1*
G1X48303Y67438D1*
G1X48295Y67407D1*
G1X48299Y67376D1*
G1X48314Y67350D1*
G1X48391Y67298D1*
G1X48425Y67262D1*
G1X48448Y67210D1*
G1X48456Y67164D1*
G1X48295Y67164D1*
G1X49482Y67215D2*
G1X49482Y67845D1*
G1X49798Y67845D1*
G1X49798Y67215D1*
G1X49482Y67215D1*
G1X51515Y68690D2*
G1X51523Y68695D1*
G1X51523Y68705D1*
G1X51515Y68710D1*
G1X51507Y68705D1*
G1X51507Y68695D1*
G1X51515Y68690D1*
G1X51205Y68700D2*
G1X51205Y69010D1*
G1X51251Y68948D1*
G1X51251Y68700D2*
G1X51159Y68700D1*
G1X50960Y68907D2*
G1X50960Y68762D1*
G1X50945Y68726D1*
G1X50922Y68705D1*
G1X50895Y68700D1*
G1X50868Y68705D1*
G1X50845Y68726D1*
G1X50830Y68762D1*
G1X50830Y68700D2*
G1X50830Y68907D1*
G1X51605Y68272D2*
G1X50975Y68272D1*
G1X50975Y68588D1*
G1X51605Y68588D1*
G1X51605Y68272D1*
G1X49770Y69895D2*
G1X50080Y69895D1*
G1X50018Y69849D1*
G1X49770Y69849D2*
G1X49770Y69941D1*
G1X49832Y70121D2*
G1X49796Y70144D1*
G1X49775Y70174D1*
G1X49770Y70209D1*
G1X49775Y70240D1*
G1X49801Y70270D1*
G1X49832Y70289D1*
G1X49863Y70293D1*
G1X49899Y70286D1*
G1X49925Y70259D1*
G1X49935Y70232D1*
G1X49935Y70197D1*
G1X49935Y70232D2*
G1X49951Y70255D1*
G1X49977Y70274D1*
G1X50008Y70282D1*
G1X50039Y70274D1*
G1X50064Y70255D1*
G1X50080Y70220D1*
G1X50075Y70186D1*
G1X50054Y70151D1*
G1X49770Y70450D2*
G1X50080Y70450D1*
G1X49977Y70572D2*
G1X49858Y70450D1*
G1X49904Y70500D2*
G1X49770Y70580D1*
G1X49770Y70825D2*
G1X50080Y70825D1*
G1X50018Y70779D1*
G1X49770Y70779D2*
G1X49770Y70871D1*
G1X49713Y71127D2*
G1X49780Y71143D1*
G1X49770Y71445D2*
G1X50080Y71445D1*
G1X50018Y71399D1*
G1X49770Y71399D2*
G1X49770Y71491D1*
G1X49760Y71686D2*
G1X50080Y71824D1*
G1X50080Y71686D2*
G1X50070Y71663D1*
G1X50054Y71652D1*
G1X50023Y71644D1*
G1X49992Y71652D1*
G1X49977Y71663D1*
G1X49966Y71686D1*
G1X49977Y71709D1*
G1X49992Y71720D1*
G1X50023Y71728D1*
G1X50054Y71720D1*
G1X50070Y71709D1*
G1X50080Y71686D1*
G1X49873Y71824D2*
G1X49863Y71801D1*
G1X49848Y71790D1*
G1X49816Y71782D1*
G1X49786Y71790D1*
G1X49770Y71801D1*
G1X49760Y71824D1*
G1X49770Y71847D1*
G1X49786Y71858D1*
G1X49816Y71866D1*
G1X49848Y71858D1*
G1X49863Y71847D1*
G1X49873Y71824D1*
G1X50220Y69852D2*
G1X50531Y69852D1*
G1X50531Y69948D1*
G1X50515Y69979D1*
G1X50494Y69998D1*
G1X50453Y70006D1*
G1X50412Y69998D1*
G1X50386Y69975D1*
G1X50370Y69948D1*
G1X50370Y69852D1*
G1X50370Y69948D2*
G1X50220Y70006D1*
G1X50479Y70166D2*
G1X50510Y70189D1*
G1X50525Y70216D1*
G1X50531Y70247D1*
G1X50520Y70285D1*
G1X50494Y70312D1*
G1X50463Y70320D1*
G1X50432Y70316D1*
G1X50406Y70300D1*
G1X50355Y70224D1*
G1X50319Y70189D1*
G1X50267Y70166D1*
G1X50220Y70158D1*
G1X50220Y70320D1*
G1X50479Y70476D2*
G1X50510Y70499D1*
G1X50525Y70526D1*
G1X50531Y70557D1*
G1X50520Y70595D1*
G1X50494Y70622D1*
G1X50463Y70630D1*
G1X50432Y70626D1*
G1X50406Y70610D1*
G1X50355Y70534D1*
G1X50319Y70499D1*
G1X50267Y70476D1*
G1X50220Y70469D1*
G1X50220Y70630D1*
G1X49302Y69795D2*
G1X49302Y70425D1*
G1X49618Y70425D1*
G1X49618Y69795D1*
G1X49302Y69795D1*
G1X51257Y69645D2*
G1X51280Y69660D1*
G1X51306Y69670D1*
G1X51337Y69670D1*
G1X51372Y69655D1*
G1X51398Y69629D1*
G1X51418Y69598D1*
G1X51433Y69546D1*
G1X51437Y69500D1*
G1X51429Y69454D1*
G1X51418Y69422D1*
G1X51395Y69392D1*
G1X51368Y69371D1*
G1X51341Y69360D1*
G1X51314Y69360D1*
G1X51287Y69371D1*
G1X51264Y69386D1*
G1X51245Y69407D1*
G1X51115Y69422D2*
G1X51092Y69386D1*
G1X51062Y69366D1*
G1X51027Y69360D1*
G1X50996Y69366D1*
G1X50966Y69392D1*
G1X50947Y69422D1*
G1X50943Y69454D1*
G1X50951Y69490D1*
G1X50977Y69516D1*
G1X51004Y69526D1*
G1X51039Y69526D1*
G1X51004Y69526D2*
G1X50981Y69541D1*
G1X50962Y69567D1*
G1X50954Y69598D1*
G1X50962Y69629D1*
G1X50981Y69655D1*
G1X51016Y69670D1*
G1X51050Y69665D1*
G1X51085Y69645D1*
G1X50805Y69422D2*
G1X50782Y69386D1*
G1X50752Y69366D1*
G1X50717Y69360D1*
G1X50686Y69366D1*
G1X50656Y69392D1*
G1X50637Y69422D1*
G1X50633Y69454D1*
G1X50640Y69490D1*
G1X50667Y69516D1*
G1X50694Y69526D1*
G1X50729Y69526D1*
G1X50694Y69526D2*
G1X50671Y69541D1*
G1X50652Y69567D1*
G1X50644Y69598D1*
G1X50652Y69629D1*
G1X50671Y69655D1*
G1X50706Y69670D1*
G1X50740Y69665D1*
G1X50775Y69645D1*
G1X50675Y72600D2*
G1X50675Y72910D1*
G1X50721Y72848D1*
G1X50721Y72600D2*
G1X50629Y72600D1*
G1X50365Y72910D2*
G1X50396Y72900D1*
G1X50419Y72874D1*
G1X50434Y72843D1*
G1X50446Y72802D1*
G1X50449Y72755D1*
G1X50446Y72708D1*
G1X50434Y72667D1*
G1X50419Y72636D1*
G1X50396Y72610D1*
G1X50365Y72600D1*
G1X50334Y72610D1*
G1X50311Y72636D1*
G1X50296Y72667D1*
G1X50284Y72708D1*
G1X50281Y72755D1*
G1X50284Y72802D1*
G1X50296Y72843D1*
G1X50311Y72874D1*
G1X50334Y72900D1*
G1X50365Y72910D1*
G1X50120Y72807D2*
G1X50120Y72662D1*
G1X50105Y72626D1*
G1X50082Y72605D1*
G1X50055Y72600D1*
G1X50028Y72605D1*
G1X50005Y72626D1*
G1X49990Y72662D1*
G1X49990Y72600D2*
G1X49990Y72807D1*
G1X50585Y73377D2*
G1X50608Y73392D1*
G1X50635Y73402D1*
G1X50666Y73402D1*
G1X50700Y73387D1*
G1X50727Y73361D1*
G1X50746Y73330D1*
G1X50762Y73278D1*
G1X50765Y73232D1*
G1X50758Y73186D1*
G1X50746Y73154D1*
G1X50723Y73124D1*
G1X50696Y73103D1*
G1X50670Y73092D1*
G1X50643Y73092D1*
G1X50616Y73103D1*
G1X50593Y73118D1*
G1X50574Y73139D1*
G1X50314Y73092D2*
G1X50314Y73402D1*
G1X50455Y73180D1*
G1X50264Y73180D1*
G1X50050Y73402D2*
G1X50080Y73392D1*
G1X50103Y73366D1*
G1X50119Y73335D1*
G1X50130Y73294D1*
G1X50134Y73248D1*
G1X50130Y73201D1*
G1X50119Y73160D1*
G1X50103Y73129D1*
G1X50080Y73103D1*
G1X50050Y73092D1*
G1X50019Y73103D1*
G1X49996Y73129D1*
G1X49980Y73160D1*
G1X49969Y73201D1*
G1X49965Y73248D1*
G1X49969Y73294D1*
G1X49980Y73335D1*
G1X49996Y73366D1*
G1X50019Y73392D1*
G1X50050Y73402D1*
G1X49304Y72486D2*
G1X49304Y73274D1*
G1X49796Y73274D1*
G1X49796Y72486D1*
G1X49304Y72486D1*
G1X51030Y60115D2*
G1X52290Y60115D1*
G1X52290Y59485D1*
G1X51030Y59485D1*
G1X51030Y60115D1*
G1X51948Y60578D2*
G1X51925Y60609D1*
G1X51898Y60625D1*
G1X51867Y60630D1*
G1X51829Y60620D1*
G1X51802Y60594D1*
G1X51794Y60563D1*
G1X51798Y60532D1*
G1X51814Y60506D1*
G1X51890Y60454D1*
G1X51925Y60418D1*
G1X51948Y60366D1*
G1X51956Y60320D1*
G1X51794Y60320D1*
G1X51638Y60578D2*
G1X51615Y60609D1*
G1X51588Y60625D1*
G1X51557Y60630D1*
G1X51519Y60620D1*
G1X51492Y60594D1*
G1X51484Y60563D1*
G1X51488Y60532D1*
G1X51504Y60506D1*
G1X51580Y60454D1*
G1X51615Y60418D1*
G1X51638Y60366D1*
G1X51646Y60320D1*
G1X51484Y60320D1*
G1X51320Y60527D2*
G1X51320Y60382D1*
G1X51305Y60346D1*
G1X51282Y60325D1*
G1X51255Y60320D1*
G1X51228Y60325D1*
G1X51205Y60346D1*
G1X51190Y60382D1*
G1X51190Y60320D2*
G1X51190Y60527D1*
G1X51789Y61063D2*
G1X51812Y61079D1*
G1X51839Y61089D1*
G1X51869Y61089D1*
G1X51904Y61074D1*
G1X51931Y61048D1*
G1X51950Y61017D1*
G1X51965Y60965D1*
G1X51969Y60919D1*
G1X51961Y60872D1*
G1X51950Y60841D1*
G1X51927Y60810D1*
G1X51900Y60789D1*
G1X51873Y60779D1*
G1X51846Y60779D1*
G1X51819Y60789D1*
G1X51796Y60805D1*
G1X51777Y60826D1*
G1X51636Y61037D2*
G1X51613Y61068D1*
G1X51586Y61084D1*
G1X51555Y61089D1*
G1X51517Y61079D1*
G1X51490Y61053D1*
G1X51482Y61022D1*
G1X51486Y60991D1*
G1X51502Y60965D1*
G1X51578Y60913D1*
G1X51613Y60877D1*
G1X51636Y60826D1*
G1X51644Y60779D1*
G1X51482Y60779D1*
G1X51318Y60815D2*
G1X51291Y60789D1*
G1X51261Y60779D1*
G1X51230Y60789D1*
G1X51203Y60820D1*
G1X51184Y60867D1*
G1X51176Y60913D1*
G1X51176Y60970D1*
G1X51184Y61017D1*
G1X51203Y61058D1*
G1X51226Y61079D1*
G1X51253Y61089D1*
G1X51284Y61079D1*
G1X51307Y61058D1*
G1X51322Y61027D1*
G1X51330Y60986D1*
G1X51322Y60950D1*
G1X51303Y60913D1*
G1X51280Y60893D1*
G1X51253Y60888D1*
G1X51222Y60898D1*
G1X51199Y60924D1*
G1X51176Y60970D1*
G1X52654Y62815D2*
G1X52669Y62792D1*
G1X52680Y62766D1*
G1X52680Y62735D1*
G1X52664Y62700D1*
G1X52638Y62674D1*
G1X52607Y62654D1*
G1X52556Y62639D1*
G1X52509Y62635D1*
G1X52462Y62643D1*
G1X52432Y62654D1*
G1X52400Y62677D1*
G1X52380Y62704D1*
G1X52370Y62731D1*
G1X52370Y62758D1*
G1X52380Y62785D1*
G1X52395Y62808D1*
G1X52416Y62827D1*
G1X52628Y62968D2*
G1X52659Y62991D1*
G1X52674Y63018D1*
G1X52680Y63049D1*
G1X52669Y63087D1*
G1X52643Y63114D1*
G1X52612Y63122D1*
G1X52581Y63118D1*
G1X52556Y63102D1*
G1X52504Y63026D1*
G1X52468Y62991D1*
G1X52416Y62968D1*
G1X52370Y62960D1*
G1X52370Y63122D1*
G1X52370Y63351D2*
G1X52375Y63378D1*
G1X52390Y63409D1*
G1X52416Y63428D1*
G1X52452Y63435D1*
G1X52488Y63428D1*
G1X52519Y63405D1*
G1X52535Y63370D1*
G1X52535Y63332D1*
G1X52545Y63309D1*
G1X52571Y63290D1*
G1X52607Y63282D1*
G1X52643Y63294D1*
G1X52669Y63320D1*
G1X52680Y63351D1*
G1X52669Y63382D1*
G1X52643Y63409D1*
G1X52607Y63420D1*
G1X52571Y63412D1*
G1X52545Y63393D1*
G1X52535Y63370D1*
G1X52535Y63332D1*
G1X52519Y63297D1*
G1X52488Y63274D1*
G1X52452Y63267D1*
G1X52416Y63274D1*
G1X52390Y63294D1*
G1X52375Y63324D1*
G1X52370Y63351D1*
G1X51970Y64785D2*
G1X52280Y64785D1*
G1X52218Y64739D1*
G1X51970Y64739D2*
G1X51970Y64831D1*
G1X52177Y65030D2*
G1X52032Y65030D1*
G1X51996Y65045D1*
G1X51975Y65068D1*
G1X51970Y65095D1*
G1X51975Y65122D1*
G1X51996Y65145D1*
G1X52032Y65160D1*
G1X51970Y65160D2*
G1X52177Y65160D1*
G1X53734Y65315D2*
G1X53749Y65292D1*
G1X53759Y65266D1*
G1X53759Y65235D1*
G1X53744Y65200D1*
G1X53718Y65174D1*
G1X53687Y65154D1*
G1X53636Y65139D1*
G1X53589Y65135D1*
G1X53543Y65143D1*
G1X53511Y65154D1*
G1X53481Y65177D1*
G1X53460Y65204D1*
G1X53450Y65231D1*
G1X53450Y65258D1*
G1X53460Y65285D1*
G1X53475Y65308D1*
G1X53496Y65327D1*
G1X53708Y65468D2*
G1X53739Y65491D1*
G1X53754Y65518D1*
G1X53759Y65549D1*
G1X53749Y65587D1*
G1X53723Y65614D1*
G1X53692Y65622D1*
G1X53661Y65618D1*
G1X53636Y65602D1*
G1X53584Y65526D1*
G1X53548Y65491D1*
G1X53496Y65468D1*
G1X53450Y65460D1*
G1X53450Y65622D1*
G1X53450Y65843D2*
G1X53517Y65851D1*
G1X53574Y65862D1*
G1X53625Y65878D1*
G1X53682Y65897D1*
G1X53759Y65928D1*
G1X53759Y65774D1*
G1X52628Y65865D2*
G1X52628Y65235D1*
G1X52312Y65235D1*
G1X52312Y65865D1*
G1X52628Y65865D1*
G1X51920Y63785D2*
G1X52230Y63785D1*
G1X52168Y63739D1*
G1X51920Y63739D2*
G1X51920Y63831D1*
G1X52127Y64030D2*
G1X51982Y64030D1*
G1X51946Y64045D1*
G1X51925Y64068D1*
G1X51920Y64095D1*
G1X51925Y64122D1*
G1X51946Y64145D1*
G1X51982Y64160D1*
G1X51920Y64160D2*
G1X52127Y64160D1*
G1X52698Y64385D2*
G1X52698Y63755D1*
G1X52382Y63755D1*
G1X52382Y64385D1*
G1X52698Y64385D1*
G1X53480Y67135D2*
G1X53790Y67135D1*
G1X53728Y67089D1*
G1X53480Y67089D2*
G1X53480Y67181D1*
G1X53687Y67380D2*
G1X53542Y67380D1*
G1X53506Y67395D1*
G1X53485Y67418D1*
G1X53480Y67445D1*
G1X53485Y67472D1*
G1X53506Y67495D1*
G1X53542Y67510D1*
G1X53480Y67510D2*
G1X53687Y67510D1*
G1X53755Y67833D2*
G1X53770Y67810D1*
G1X53780Y67784D1*
G1X53780Y67753D1*
G1X53765Y67718D1*
G1X53739Y67692D1*
G1X53708Y67672D1*
G1X53656Y67657D1*
G1X53610Y67653D1*
G1X53564Y67661D1*
G1X53532Y67672D1*
G1X53502Y67695D1*
G1X53481Y67722D1*
G1X53470Y67749D1*
G1X53470Y67776D1*
G1X53481Y67803D1*
G1X53496Y67826D1*
G1X53517Y67845D1*
G1X53729Y67986D2*
G1X53760Y68009D1*
G1X53775Y68036D1*
G1X53780Y68067D1*
G1X53770Y68105D1*
G1X53744Y68132D1*
G1X53713Y68140D1*
G1X53682Y68136D1*
G1X53656Y68120D1*
G1X53605Y68044D1*
G1X53569Y68009D1*
G1X53517Y67986D1*
G1X53470Y67978D1*
G1X53470Y68140D1*
G1X53532Y68285D2*
G1X53496Y68308D1*
G1X53476Y68338D1*
G1X53470Y68373D1*
G1X53476Y68404D1*
G1X53502Y68434D1*
G1X53532Y68453D1*
G1X53564Y68457D1*
G1X53600Y68450D1*
G1X53626Y68423D1*
G1X53636Y68396D1*
G1X53636Y68361D1*
G1X53636Y68396D2*
G1X53651Y68419D1*
G1X53677Y68438D1*
G1X53708Y68446D1*
G1X53739Y68438D1*
G1X53765Y68419D1*
G1X53780Y68384D1*
G1X53775Y68350D1*
G1X53755Y68315D1*
G1X52453Y67635D2*
G1X52453Y68265D1*
G1X52768Y68265D1*
G1X52768Y67635D1*
G1X52453Y67635D1*
G1X52453Y68855D2*
G1X52453Y69485D1*
G1X52768Y69485D1*
G1X52768Y68855D1*
G1X52453Y68855D1*
G1X51962Y68305D2*
G1X51962Y68935D1*
G1X52278Y68935D1*
G1X52278Y68305D1*
G1X51962Y68305D1*
G1X52470Y69915D2*
G1X52780Y69915D1*
G1X52718Y69869D1*
G1X52470Y69869D2*
G1X52470Y69961D1*
G1X52677Y70160D2*
G1X52532Y70160D1*
G1X52496Y70175D1*
G1X52475Y70198D1*
G1X52470Y70225D1*
G1X52475Y70252D1*
G1X52496Y70275D1*
G1X52532Y70290D1*
G1X52470Y70290D2*
G1X52677Y70290D1*
G1X52765Y70583D2*
G1X52780Y70560D1*
G1X52791Y70534D1*
G1X52791Y70503D1*
G1X52775Y70468D1*
G1X52749Y70442D1*
G1X52718Y70422D1*
G1X52666Y70407D1*
G1X52620Y70403D1*
G1X52574Y70411D1*
G1X52542Y70422D1*
G1X52512Y70445D1*
G1X52491Y70472D1*
G1X52480Y70499D1*
G1X52480Y70526D1*
G1X52491Y70553D1*
G1X52506Y70576D1*
G1X52527Y70595D1*
G1X52739Y70736D2*
G1X52770Y70759D1*
G1X52785Y70786D1*
G1X52791Y70817D1*
G1X52780Y70855D1*
G1X52754Y70882D1*
G1X52723Y70890D1*
G1X52692Y70886D1*
G1X52666Y70870D1*
G1X52615Y70794D1*
G1X52579Y70759D1*
G1X52527Y70736D1*
G1X52480Y70729D1*
G1X52480Y70890D1*
G1X52527Y71035D2*
G1X52501Y71058D1*
G1X52486Y71084D1*
G1X52480Y71119D1*
G1X52491Y71154D1*
G1X52512Y71180D1*
G1X52548Y71200D1*
G1X52589Y71203D1*
G1X52630Y71196D1*
G1X52656Y71176D1*
G1X52677Y71150D1*
G1X52682Y71123D1*
G1X52677Y71096D1*
G1X52656Y71062D1*
G1X52791Y71073D1*
G1X52791Y71176D1*
G1X51990Y69615D2*
G1X51995Y69607D1*
G1X52005Y69607D1*
G1X52010Y69615D1*
G1X52005Y69623D1*
G1X51995Y69623D1*
G1X51990Y69615D1*
G1X52000Y69925D2*
G1X52310Y69925D1*
G1X52248Y69879D1*
G1X52000Y69879D2*
G1X52000Y69971D1*
G1X52207Y70170D2*
G1X52062Y70170D1*
G1X52026Y70185D1*
G1X52005Y70208D1*
G1X52000Y70235D1*
G1X52005Y70262D1*
G1X52026Y70285D1*
G1X52062Y70300D1*
G1X52000Y70300D2*
G1X52207Y70300D1*
G1X51885Y69723D2*
G1X51900Y69700D1*
G1X51911Y69674D1*
G1X51911Y69643D1*
G1X51895Y69608D1*
G1X51869Y69582D1*
G1X51838Y69562D1*
G1X51786Y69547D1*
G1X51740Y69543D1*
G1X51694Y69551D1*
G1X51662Y69562D1*
G1X51632Y69585D1*
G1X51611Y69612D1*
G1X51600Y69639D1*
G1X51600Y69666D1*
G1X51611Y69693D1*
G1X51626Y69716D1*
G1X51647Y69735D1*
G1X51662Y69865D2*
G1X51626Y69888D1*
G1X51606Y69918D1*
G1X51600Y69953D1*
G1X51606Y69984D1*
G1X51632Y70014D1*
G1X51662Y70033D1*
G1X51694Y70037D1*
G1X51730Y70030D1*
G1X51756Y70003D1*
G1X51766Y69976D1*
G1X51766Y69941D1*
G1X51766Y69976D2*
G1X51781Y69999D1*
G1X51807Y70018D1*
G1X51838Y70026D1*
G1X51869Y70018D1*
G1X51895Y69999D1*
G1X51911Y69964D1*
G1X51905Y69930D1*
G1X51885Y69895D1*
G1X51600Y70305D2*
G1X51911Y70305D1*
G1X51688Y70163D1*
G1X51688Y70355D1*
G1X55180Y66265D2*
G1X55490Y66265D1*
G1X55428Y66219D1*
G1X55180Y66219D2*
G1X55180Y66311D1*
G1X55438Y66502D2*
G1X55469Y66525D1*
G1X55485Y66552D1*
G1X55490Y66583D1*
G1X55480Y66621D1*
G1X55454Y66648D1*
G1X55423Y66656D1*
G1X55392Y66652D1*
G1X55366Y66636D1*
G1X55314Y66560D1*
G1X55278Y66525D1*
G1X55226Y66502D1*
G1X55180Y66494D1*
G1X55180Y66656D1*
G1X55490Y66885D2*
G1X55480Y66854D1*
G1X55454Y66831D1*
G1X55423Y66816D1*
G1X55382Y66804D1*
G1X55335Y66801D1*
G1X55288Y66804D1*
G1X55247Y66816D1*
G1X55216Y66831D1*
G1X55190Y66854D1*
G1X55180Y66885D1*
G1X55190Y66916D1*
G1X55216Y66939D1*
G1X55247Y66954D1*
G1X55288Y66966D1*
G1X55335Y66969D1*
G1X55382Y66966D1*
G1X55423Y66954D1*
G1X55454Y66939D1*
G1X55480Y66916D1*
G1X55490Y66885D1*
G1X55170Y67126D2*
G1X55490Y67264D1*
G1X55180Y67505D2*
G1X55185Y67474D1*
G1X55206Y67448D1*
G1X55237Y67424D1*
G1X55273Y67409D1*
G1X55314Y67402D1*
G1X55356Y67402D1*
G1X55397Y67409D1*
G1X55433Y67424D1*
G1X55464Y67448D1*
G1X55485Y67474D1*
G1X55490Y67505D1*
G1X55485Y67536D1*
G1X55464Y67562D1*
G1X55433Y67586D1*
G1X55397Y67601D1*
G1X55356Y67608D1*
G1X55314Y67608D1*
G1X55273Y67601D1*
G1X55237Y67586D1*
G1X55206Y67562D1*
G1X55185Y67536D1*
G1X55180Y67505D1*
G1X55180Y67738D2*
G1X55490Y67738D1*
G1X55490Y67830D1*
G1X55474Y67861D1*
G1X55438Y67884D1*
G1X55397Y67892D1*
G1X55356Y67884D1*
G1X55325Y67865D1*
G1X55309Y67830D1*
G1X55309Y67738D1*
G1X55490Y68125D2*
G1X55180Y68125D1*
G1X55490Y68037D2*
G1X55490Y68213D1*
G1X55710Y67684D2*
G1X56019Y67684D1*
G1X56019Y67780D1*
G1X56004Y67811D1*
G1X55983Y67830D1*
G1X55942Y67838D1*
G1X55901Y67830D1*
G1X55875Y67807D1*
G1X55859Y67780D1*
G1X55859Y67684D1*
G1X55859Y67780D2*
G1X55710Y67838D1*
G1X55968Y67998D2*
G1X55999Y68021D1*
G1X56014Y68048D1*
G1X56019Y68079D1*
G1X56009Y68117D1*
G1X55983Y68144D1*
G1X55952Y68152D1*
G1X55921Y68148D1*
G1X55896Y68132D1*
G1X55844Y68056D1*
G1X55808Y68021D1*
G1X55756Y67998D1*
G1X55710Y67990D1*
G1X55710Y68152D1*
G1X54938Y67985D2*
G1X54938Y67355D1*
G1X54622Y67355D1*
G1X54622Y67985D1*
G1X54938Y67985D1*
G1X32445Y62365D2*
G1X30675Y62365D1*
G1X31680Y64375D2*
G75*
G2X31440Y64373I-120J0D1*
G74*
G1X30675Y64375D2*
G1X32445Y64375D1*
G1X33078Y64138D2*
G75*
G3X33078Y64138I-30J0D1*
G1X34820Y68000D2*
G2X34822Y67760I0J-120D1*
G74*
G1X34820Y67270D2*
G1X34820Y68490D1*
G1X36040Y68490D2*
G1X36040Y67270D1*
G1X39797Y63784D2*
G54D40*
G1X39797Y62996D1*
G1X38223Y62996D1*
G1X38223Y63587D1*
G1X38419Y63784D1*
G1X39797Y63784D1*
G1X49762Y59941D2*
G1X49762Y58759D1*
G1X46218Y58759D1*
G1X46218Y59744D1*
G1X46415Y59941D1*
G1X49762Y59941D1*
G1X47313Y64296D2*
G1X47313Y65084D1*
G1X48887Y65084D1*
G1X48887Y64493D1*
G1X48691Y64296D1*
G1X47313Y64296D1*
M2*
