*
%LPD*%
%LNPLANE2*%
%FSLAX24Y24*%
%MOIN*%
%AD*%
%ADD10C,0.025*%
%ADD11C,0.03*%
%ADD12C,0.01969*%
%ADD14C,0.06*%
%ADD15C,0.026*%
%ADD33C,0.012*%
%ADD63C,0.033*%
%ADD64C,0.055*%
%ADD65C,0.08004*%
%ADD66C,0.04604*%
%ADD67C,0.07504*%
%ADD68C,0.0791*%
%ADD69C,0.10904*%
G54D10*
%SRX1Y1I0.0J0.0*%
G36*
G1X25770Y58770D2*
G1X25770Y71990D1*
G75*
G2X25790Y72010I20J0D1*
G1X27710Y72010D1*
G1X27710Y73880D1*
G2X27730Y73900I20J0D1*
G1X29800Y73900D1*
G2X29831Y73835I-1J-40D1*
G3X30189Y73835I179J-145D1*
G2X30220Y73900I31J25D1*
G1X38190Y73900D1*
G2X38210Y73880I0J-20D1*
G1X38210Y70140D1*
G2X38190Y70120I-20J0D1*
G1X35610Y70120D1*
G1X35610Y67740D1*
G1X35753Y67740D1*
G2X35772Y67726I-1J-20D1*
G3X36208Y67726I218J74D1*
G2X36227Y67740I19J-6D1*
G1X37330Y67740D1*
G2X37350Y67720I0J-20D1*
G1X37350Y66090D1*
G2X37330Y66070I-20J0D1*
G1X34770Y66070D1*
G1X34770Y64871D1*
G2X34720Y64832I-41J-1D1*
G3X34720Y64388I-60J-222D1*
G2X34770Y64349I9J-39D1*
G1X34770Y58770D1*
G2X34750Y58750I-20J0D1*
G1X25790Y58750D1*
G2X25770Y58770I0J20D1*
G37*
G36*
G1X27710Y56660D2*
G1X27710Y58440D1*
G2X27730Y58460I20J0D1*
G1X34750Y58460D1*
G2X34770Y58440I0J-20D1*
G1X34770Y56660D1*
G2X34750Y56640I-20J0D1*
G1X33101Y56640D1*
G2X33070Y56706I-1J40D1*
G3X33069Y57007I-176J149D1*
G2X33069Y57034I15J13D1*
G3X32727Y57038I-170J156D1*
G2X32726Y57012I-15J-13D1*
G3X32720Y56706I168J-157D1*
G2X32690Y56640I-31J-27D1*
G1X31350Y56640D1*
G2X31320Y56706I0J39D1*
G3X31309Y57016I-176J148D1*
G2X31309Y57044I14J14D1*
G3X30975Y57039I-170J155D1*
G2X30976Y57012I-15J-15D1*
G1X30974Y57011D1*
G2X30916Y57011I-29J27D1*
G3X30570Y56706I-171J-156D1*
G2X30540Y56640I-31J-27D1*
G1X29181Y56640D1*
G2X29151Y56706I0J39D1*
G3X29146Y57010I-176J149D1*
G2X29146Y57036I15J13D1*
G3X28800Y57031I-176J148D1*
G2X28800Y57004I-16J-14D1*
G3X28800Y56706I176J-149D1*
G2X28770Y56640I-31J-27D1*
G1X28555Y56640D1*
G2X28529Y56711I-1J40D1*
G3X28051Y56711I-239J289D1*
G2X28025Y56640I-26J-32D1*
G1X27730Y56640D1*
G2X27710Y56660I0J20D1*
G37*
G36*
G1X35170Y56670D2*
G1X35170Y65740D1*
G2X35190Y65760I20J0D1*
G1X37570Y65760D1*
G1X37570Y67740D1*
G2X37590Y67760I20J0D1*
G1X39249Y67760D1*
G2X39283Y67699I-1J-40D1*
G3X39677Y67699I197J-119D1*
G2X39711Y67760I34J21D1*
G1X40730Y67760D1*
G2X40750Y67740I0J-20D1*
G1X40750Y66780D1*
G1X45153Y66780D1*
G2X45176Y66707I0J-41D1*
G3X45162Y66344I134J-187D1*
G2X45150Y66276I-26J-31D1*
G3X45378Y66236I79J-216D1*
G2X45390Y66304I25J30D1*
G3X45444Y66707I-81J215D1*
G2X45467Y66780I22J32D1*
G1X46200Y66779D1*
G1X46200Y67340D1*
G2X46271Y67365I39J-1D1*
G3X46380Y67291I178J145D1*
G2X46394Y67268I-6J-20D1*
G3X46689Y67439I224J-49D1*
G2X46675Y67462I5J19D1*
G3X46661Y67602I-226J48D1*
G2X46688Y67657I36J15D1*
G3X46858Y67912I-58J222D1*
G2X46892Y67957I39J5D1*
G3X47085Y68215I-36J227D1*
G2X47125Y68260I39J4D1*
G1X48301Y68260D1*
G2X48340Y68211I0J-41D1*
G3X48552Y67929I224J-53D1*
G1X48560Y67928D1*
G1X48580Y67909D1*
G1X48580Y67901D1*
G3X48584Y67868I230J11D1*
G2X48545Y67820I-40J-8D1*
G3X48390Y67760I0J-231D1*
G2X48336Y67760I-27J29D1*
G3X48295Y67790I-157J-171D1*
G1X48290Y67792D1*
G1X48284Y67803D1*
G2X48282Y67820I16J10D1*
G3X47952Y67700I-216J80D1*
G1X47956Y67698D1*
G1X47965Y67683D1*
G1X47966Y67674D1*
G1X47964Y67670D1*
G3X48016Y67428I216J-81D1*
G2X47998Y67362I-29J-28D1*
G3X48224Y67302I62J-223D1*
G2X48242Y67368I28J27D1*
G3X48336Y67420I-62J222D1*
G2X48390Y67420I27J-30D1*
G3X48772Y67632I155J169D1*
G2X48811Y67680I39J7D1*
G3X48965Y67740I-1J230D1*
G2X49030Y67722I26J-30D1*
G3X49095Y67960I219J67D1*
G2X49030Y67978I-27J29D1*
G3X48821Y68140I-220J-69D1*
G1X48814Y68140D1*
G1X48794Y68160D1*
G1X48794Y68168D1*
G1X48794Y68170D1*
G2X48816Y68191I20J1D1*
G3X49000Y68254I24J229D1*
G1X49006Y68260D1*
G1X50330Y68260D1*
G1X50330Y69113D1*
G2X50376Y69152I39J-1D1*
G3X50376Y69608I34J228D1*
G2X50330Y69647I-6J39D1*
G1X50330Y73850D1*
G2X50350Y73870I20J0D1*
G1X54635Y73870D1*
G2X54661Y73799I0J-41D1*
G3X55139Y73799I239J-289D1*
G2X55165Y73870I25J31D1*
G1X55480Y73870D1*
G2X55500Y73850I0J-20D1*
G1X55500Y72010D1*
G1X56980Y72010D1*
G2X57000Y71990I0J-20D1*
G1X57000Y60220D1*
G2X56980Y60200I-20J0D1*
G1X54304Y60200D1*
G1X54299Y60205D1*
G3X54282Y60217I-163J-212D1*
G2X54282Y60283I23J33D1*
G3X54282Y60717I-153J217D1*
G2X54282Y60783I23J33D1*
G3X54282Y61217I-153J217D1*
G2X54282Y61283I23J33D1*
G3X54282Y61717I-153J217D1*
G2X54282Y61783I23J33D1*
G3X54282Y62217I-153J217D1*
G2X54282Y62283I23J33D1*
G3X54282Y62717I-153J217D1*
G2X54282Y62783I23J33D1*
G3X54282Y63217I-153J217D1*
G2X54282Y63283I23J33D1*
G3X54282Y63717I-153J217D1*
G2X54282Y63783I23J33D1*
G3X54282Y64217I-153J217D1*
G2X54282Y64283I23J33D1*
G3X54282Y64717I-153J217D1*
G2X54282Y64783I23J33D1*
G3X54282Y65217I-153J217D1*
G2X54282Y65283I23J33D1*
G3X54282Y65717I-153J217D1*
G2X54282Y65783I23J33D1*
G3X54282Y66217I-153J217D1*
G2X54282Y66283I23J33D1*
G3X54282Y66717I-153J217D1*
G2X54282Y66783I23J33D1*
G3X54282Y67217I-153J217D1*
G2X54282Y67283I23J33D1*
G3X54282Y67717I-153J217D1*
G2X54282Y67783I23J33D1*
G3X54282Y68217I-153J217D1*
G2X54282Y68283I23J33D1*
G3X54282Y68717I-153J217D1*
G2X54282Y68783I23J33D1*
G3X54282Y69217I-153J217D1*
G2X54282Y69283I23J33D1*
G3X54282Y69717I-153J217D1*
G2X54282Y69783I23J33D1*
G3X54282Y70217I-153J217D1*
G2X54282Y70283I23J33D1*
G3X54282Y70717I-153J217D1*
G2X54282Y70783I23J33D1*
G3X54282Y71217I-153J217D1*
G2X54282Y71283I23J33D1*
G3X53978Y71283I-152J217D1*
G2X53978Y71217I-24J-33D1*
G3X53978Y70783I152J-217D1*
G2X53978Y70717I-24J-33D1*
G3X53978Y70283I152J-217D1*
G2X53978Y70217I-24J-33D1*
G3X53978Y69783I152J-217D1*
G2X53978Y69717I-24J-33D1*
G3X53978Y69283I152J-217D1*
G2X53978Y69217I-24J-33D1*
G3X53978Y68783I152J-217D1*
G2X53978Y68717I-24J-33D1*
G3X53978Y68283I152J-217D1*
G2X53978Y68217I-24J-33D1*
G3X53978Y67783I152J-217D1*
G2X53978Y67717I-24J-33D1*
G3X53978Y67283I152J-217D1*
G2X53978Y67217I-24J-33D1*
G3X53978Y66783I152J-217D1*
G2X53978Y66717I-24J-33D1*
G3X53978Y66283I152J-217D1*
G2X53978Y66217I-24J-33D1*
G3X53978Y65783I152J-217D1*
G2X53978Y65717I-24J-33D1*
G3X53978Y65283I152J-217D1*
G2X53978Y65217I-24J-33D1*
G3X53978Y64783I152J-217D1*
G2X53978Y64717I-24J-33D1*
G3X53978Y64283I152J-217D1*
G2X53978Y64217I-24J-33D1*
G3X53978Y63783I152J-217D1*
G2X53978Y63717I-24J-33D1*
G3X53978Y63283I152J-217D1*
G2X53978Y63217I-24J-33D1*
G3X53978Y62783I152J-217D1*
G2X53978Y62717I-24J-33D1*
G3X53978Y62283I152J-217D1*
G2X53978Y62217I-24J-33D1*
G3X53978Y61783I152J-217D1*
G2X53978Y61717I-24J-33D1*
G3X53978Y61283I152J-217D1*
G2X53978Y61217I-24J-33D1*
G3X53978Y60783I152J-217D1*
G2X53978Y60717I-24J-33D1*
G3X53978Y60283I152J-217D1*
G2X53978Y60217I-24J-33D1*
G3X53961Y60205I146J-226D1*
G1X53956Y60200D1*
G1X53304Y60200D1*
G1X53299Y60205D1*
G3X53282Y60217I-163J-212D1*
G2X53282Y60283I23J33D1*
G3X53282Y60717I-153J217D1*
G2X53282Y60783I23J33D1*
G3X53282Y61217I-153J217D1*
G2X53282Y61283I23J33D1*
G3X53282Y61717I-153J217D1*
G2X53282Y61783I23J33D1*
G3X53282Y62217I-153J217D1*
G2X53282Y62283I23J33D1*
G3X53282Y62717I-153J217D1*
G2X53282Y62783I23J33D1*
G3X53282Y63217I-153J217D1*
G2X53282Y63283I23J33D1*
G3X53282Y63717I-153J217D1*
G2X53282Y63783I23J33D1*
G3X53282Y64217I-153J217D1*
G2X53282Y64283I23J33D1*
G3X53282Y64717I-153J217D1*
G2X53282Y64783I23J33D1*
G3X53282Y65217I-153J217D1*
G2X53282Y65283I23J33D1*
G3X53282Y65717I-153J217D1*
G2X53282Y65783I23J33D1*
G3X53282Y66217I-153J217D1*
G2X53282Y66283I23J33D1*
G3X53282Y66717I-153J217D1*
G2X53282Y66783I23J33D1*
G3X53282Y67217I-153J217D1*
G2X53282Y67283I23J33D1*
G3X53282Y67717I-153J217D1*
G2X53282Y67783I23J33D1*
G3X53282Y68217I-153J217D1*
G2X53282Y68283I23J33D1*
G3X53282Y68717I-153J217D1*
G2X53282Y68783I23J33D1*
G3X53282Y69217I-153J217D1*
G2X53282Y69283I23J33D1*
G3X53282Y69717I-153J217D1*
G2X53282Y69783I23J33D1*
G3X53282Y70217I-153J217D1*
G2X53282Y70283I23J33D1*
G3X53282Y70717I-153J217D1*
G2X53282Y70783I23J33D1*
G3X53282Y71217I-153J217D1*
G2X53282Y71283I23J33D1*
G3X52978Y71283I-152J217D1*
G2X52978Y71217I-24J-33D1*
G3X52978Y70783I152J-217D1*
G2X52978Y70717I-24J-33D1*
G3X52978Y70283I152J-217D1*
G2X52978Y70217I-24J-33D1*
G3X52978Y69783I152J-217D1*
G2X52978Y69717I-24J-33D1*
G3X52978Y69283I152J-217D1*
G2X52978Y69217I-24J-33D1*
G3X52978Y68783I152J-217D1*
G2X52978Y68717I-24J-33D1*
G3X52978Y68283I152J-217D1*
G2X52978Y68217I-24J-33D1*
G3X52978Y67783I152J-217D1*
G2X52978Y67717I-24J-33D1*
G3X52978Y67283I152J-217D1*
G2X52978Y67217I-24J-33D1*
G3X52978Y66783I152J-217D1*
G2X52978Y66717I-24J-33D1*
G3X52978Y66283I152J-217D1*
G2X52978Y66217I-24J-33D1*
G3X52978Y65783I152J-217D1*
G2X52978Y65717I-24J-33D1*
G3X52978Y65283I152J-217D1*
G2X52978Y65217I-24J-33D1*
G3X52978Y64783I152J-217D1*
G2X52978Y64717I-24J-33D1*
G3X52978Y64283I152J-217D1*
G2X52978Y64217I-24J-33D1*
G3X52978Y63783I152J-217D1*
G2X52978Y63717I-24J-33D1*
G3X52978Y63283I152J-217D1*
G2X52978Y63217I-24J-33D1*
G3X52978Y62783I152J-217D1*
G2X52978Y62717I-24J-33D1*
G3X52978Y62283I152J-217D1*
G2X52978Y62217I-24J-33D1*
G3X52978Y61783I152J-217D1*
G2X52978Y61717I-24J-33D1*
G3X52978Y61283I152J-217D1*
G2X52978Y61217I-24J-33D1*
G3X52978Y60783I152J-217D1*
G2X52978Y60717I-24J-33D1*
G3X52978Y60283I152J-217D1*
G2X52978Y60217I-24J-33D1*
G3X52961Y60205I146J-226D1*
G1X52956Y60200D1*
G1X51009Y60200D1*
G3X50991Y60200I-9J-234D1*
G1X46038Y60200D1*
G2X46000Y60252I0J39D1*
G3X45560Y60252I-220J68D1*
G2X45522Y60200I-39J-13D1*
G1X41010Y60200D1*
G1X41010Y58616D1*
G2X40968Y58576I-41J-1D1*
G3X40790Y58506I-13J-231D1*
G2X40728Y58511I-29J28D1*
G3X40306Y58396I-192J-128D1*
G2X40261Y58358I-41J1D1*
G3X40460Y58118I-31J-229D1*
G2X40505Y58155I39J-3D1*
G3X40702Y58224I30J227D1*
G2X40764Y58218I28J-28D1*
G3X40968Y58116I191J127D1*
G2X41010Y58076I1J-40D1*
G1X41010Y56670D1*
G2X40990Y56650I-20J0D1*
G1X38090Y56650D1*
G2X38065Y56721I0J39D1*
G3X37742Y57046I-145J178D1*
G2X37681Y57044I-32J24D1*
G3X37355Y56720I-171J-155D1*
G2X37328Y56650I-27J-30D1*
G1X36078Y56650D1*
G2X36039Y56696I0J39D1*
G3X35983Y56881I-229J31D1*
G2X35983Y56907I15J13D1*
G3X35637Y56906I-174J151D1*
G2X35637Y56880I-16J-13D1*
G3X35583Y56696I174J-151D1*
G2X35543Y56650I-40J-6D1*
G1X35190Y56650D1*
G2X35170Y56670I0J20D1*
G37*
G36*
G1X41040Y67040D2*
G1X41040Y68000D1*
G1X36104Y68000D1*
G1X36100Y68002D1*
G3X35880Y68002I-110J-203D1*
G1X35876Y68000D1*
G1X35870Y68000D1*
G2X35850Y68020I0J20D1*
G1X35850Y69870D1*
G2X35870Y69890I20J0D1*
G1X38600Y69890D1*
G1X38600Y73860D1*
G2X38620Y73880I20J0D1*
G1X49970Y73880D1*
G2X49990Y73860I0J-20D1*
G1X49990Y69877D1*
G2X49944Y69838I-40J0D1*
G3X49944Y69382I-34J-228D1*
G2X49990Y69343I5J-40D1*
G1X49990Y68570D1*
G2X49970Y68550I-20J0D1*
G1X49506Y68550D1*
G2X49467Y68592I0J39D1*
G3X49011Y68648I-231J11D1*
G2X48952Y68621I-40J7D1*
G3X48656Y68558I-112J-201D1*
G2X48640Y68550I-17J12D1*
G1X45910Y68550D1*
G1X45910Y67040D1*
G2X45890Y67020I-20J0D1*
G1X43852Y67020D1*
G2X43824Y67088I0J39D1*
G3X43496Y67088I-164J162D1*
G2X43468Y67020I-29J-29D1*
G1X41060Y67020D1*
G2X41040Y67040I0J20D1*
G37*
G36*
G1X41330Y56660D2*
G1X41330Y59950D1*
G2X41350Y59970I20J0D1*
G1X41844Y59970D1*
G2X41870Y59900I-1J-40D1*
G3X42135Y59526I149J-175D1*
G2X42188Y59513I19J-35D1*
G3X42265Y59840I192J127D1*
G2X42212Y59852I-20J34D1*
G3X42170Y59900I-193J-127D1*
G2X42196Y59970I26J30D1*
G1X45825Y59970D1*
G2X45865Y59923I0J-41D1*
G3X46144Y59659I226J-40D1*
G2X46192Y59629I9J-39D1*
G3X46495Y59464I224J51D1*
G2X46546Y59441I13J-38D1*
G3X46682Y59741I213J83D1*
G2X46631Y59764I-14J37D1*
G3X46364Y59904I-215J-84D1*
G2X46316Y59934I-9J39D1*
G3X46313Y59945I-234J-58D1*
G1X46312Y59947D1*
G1X46312Y59950D1*
G2X46332Y59970I20J0D1*
G1X47683Y59970D1*
G2X47715Y59907I-1J-40D1*
G3X47801Y59565I186J-135D1*
G2X47811Y59540I-9J-19D1*
G3X48128Y59666I215J-81D1*
G2X48118Y59691I8J18D1*
G3X48089Y59907I-216J81D1*
G2X48122Y59970I32J23D1*
G1X48517Y59970D1*
G2X48544Y59900I0J-41D1*
G3X48496Y59621I154J-171D1*
G2X48476Y59564I-36J-20D1*
G3X48762Y59460I84J-215D1*
G2X48783Y59516I34J18D1*
G3X48854Y59900I-84J214D1*
G2X48880Y59970I26J29D1*
G1X50759Y59970D1*
G1X50770Y59959D1*
G1X50771Y59952D1*
G3X51230Y59952I229J18D1*
G1X51230Y59959D1*
G1X51241Y59970D1*
G1X52690Y59970D1*
G2X52710Y59950I0J-20D1*
G1X52710Y56660D1*
G2X52690Y56640I-20J0D1*
G1X48649Y56640D1*
G2X48609Y56684I-1J40D1*
G3X48211Y56866I-229J25D1*
G2X48152Y56866I-30J27D1*
G3X47754Y56684I-170J-157D1*
G2X47715Y56640I-40J-5D1*
G1X41350Y56640D1*
G2X41330Y56660I0J20D1*
G37*
G36*
G1X46271Y67655D2*
G2X46200Y67680I-32J25D1*
G1X46200Y68240D1*
G2X46220Y68260I20J0D1*
G1X46589Y68260D1*
G2X46629Y68215I0J-41D1*
G3X46629Y68153I228J-31D1*
G2X46595Y68108I-40J-6D1*
G3X46419Y67788I35J-228D1*
G2X46393Y67733I-38J-17D1*
G3X46271Y67655I56J-224D1*
G37*
%LPC*%
G36*
G1X35964Y57830D2*
G2X35636Y57830I-164J-162D1*
G3X35636Y57858I-15J14D1*
G2X35964Y57858I164J162D1*
G3X35964Y57830I14J-14D1*
G37*
G36*
G1X36198Y59756D2*
G2X35877Y59760I-163J-164D1*
G3X35877Y59817I-28J28D1*
G2X35810Y59972I163J162D1*
G3X35767Y60010I-40J-2D1*
G2X35980Y60248I-18J229D1*
G3X36023Y60210I39J1D1*
G2X36198Y59813I16J-230D1*
G3X36198Y59756I28J-29D1*
G37*
G36*
G1X43231Y60740D2*
G2X42900Y60740I-166J-160D1*
G3X42900Y60796I-29J28D1*
G2X43231Y60796I165J160D1*
G3X43231Y60740I29J-28D1*
G37*
G36*
G1X36494Y61139D2*
G2X36290Y60903I25J-229D1*
G3X36246Y60941I-40J-2D1*
G2X36004Y61251I-27J229D1*
G3X35975Y61304I-38J14D1*
G2X35851Y61686I45J225D1*
G3X35851Y61714I-16J14D1*
G2X36189Y61714I169J156D1*
G3X36189Y61686I15J-14D1*
G2X36236Y61449I-169J-157D1*
G3X36265Y61396I37J-15D1*
G2X36450Y61177I-46J-226D1*
G3X36494Y61139I39J1D1*
G37*
G36*
G1X42430Y60950D2*
G2X42205Y61185I-230J5D1*
G3X42226Y61205I0J20D1*
G2X42451Y60970I230J-5D1*
G3X42430Y60950I-1J-21D1*
G37*
G36*
G1X38346Y61096D2*
G2X37930Y61088I-207J-102D1*
G3X37922Y61113I-19J8D1*
G2X38179Y61495I121J196D1*
G3X38237Y61505I24J32D1*
G2X38581Y61553I192J-126D1*
G3X38609Y61554I13J15D1*
G2X38626Y61570I168J-162D1*
G3X38634Y61625I-25J31D1*
G2X38964Y61580I186J134D1*
G3X38956Y61525I24J-32D1*
G2X38994Y61338I-186J-136D1*
G3X39048Y61292I38J-9D1*
G2X38906Y61129I82J-215D1*
G3X38852Y61175I-39J8D1*
G2X38619Y61217I-82J214D1*
G3X38591Y61216I-14J-16D1*
G2X38389Y61153I-162J163D1*
G3X38346Y61096I-8J-40D1*
G37*
G36*
G1X45133Y61172D2*
G2X44981Y61472I-217J79D1*
G3X45005Y61485I5J18D1*
G2X45010Y61497I219J-85D1*
G3X45002Y61522I-19J8D1*
G2X45331Y61629I117J197D1*
G3X45339Y61604I18J-9D1*
G2X45157Y61185I-118J-198D1*
G3X45133Y61172I-6J-19D1*
G37*
G36*
G1X47953Y61902D2*
G2X47900Y61577I131J-189D1*
G3X47872Y61582I-17J-12D1*
G2X47534Y61668I-133J188D1*
G3X47508Y61677I-18J-10D1*
G2X47621Y61990I-94J210D1*
G3X47647Y61981I17J9D1*
G2X47925Y61907I92J-211D1*
G3X47953Y61902I16J11D1*
G37*
G36*
G1X46807Y62011D2*
G2X46556Y62100I-189J-132D1*
G3X46578Y62161I-11J38D1*
G2X46749Y62523I188J132D1*
G3X46779Y62586I-3J40D1*
G2X46987Y62485I191J128D1*
G3X46957Y62423I3J-40D1*
G2X46829Y62072I-192J-130D1*
G3X46807Y62011I10J-39D1*
G37*
G36*
G1X49590Y62452D2*
G2X49420Y62246I59J-223D1*
G3X49370Y62288I-41J3D1*
G2X49087Y62567I-61J222D1*
G3X49057Y62616I-39J9D1*
G2X49333Y62783I52J223D1*
G3X49363Y62734I38J-10D1*
G2X49540Y62494I-53J-225D1*
G3X49590Y62452I40J-4D1*
G37*
G36*
G1X45964Y62159D2*
G2X45959Y62505I-155J170D1*
G3X45986Y62506I12J15D1*
G2X45991Y62160I154J-171D1*
G3X45964Y62159I-13J-16D1*
G37*
G36*
G1X44282Y62440D2*
G2X43973Y62593I-223J-60D1*
G3X43997Y62641I-15J37D1*
G2X44055Y62861I221J59D1*
G3X44056Y62888I-15J14D1*
G2X44007Y63024I181J142D1*
G3X43961Y63062I-40J-2D1*
G2X44047Y63488I-32J227D1*
G3X44074Y63494I10J17D1*
G2X44175Y63578I191J-128D1*
G3X44186Y63602I-8J18D1*
G2X44498Y63451I222J61D1*
G3X44487Y63428I8J-18D1*
G1X44489Y63420D1*
G3X44510Y63404I19J4D1*
G2X44473Y62954I24J-229D1*
G3X44450Y62942I-5J-19D1*
G2X44402Y62869I-214J87D1*
G3X44400Y62843I13J-15D1*
G2X44306Y62487I-182J-143D1*
G3X44282Y62440I14J-38D1*
G37*
G36*
G1X54987Y62870D2*
G2X54758Y62730I-17J-230D1*
G3X54724Y62785I-37J15D1*
G2X54703Y63242I17J229D1*
G3X54720Y63262I-4J19D1*
G2X54988Y63043I230J7D1*
G3X54971Y63022I3J-20D1*
G2X54953Y62925I-230J-8D1*
G3X54987Y62870I36J-16D1*
G37*
G36*
G1X37386Y63079D2*
G2X37168Y63065I-97J-209D1*
G3X37164Y63136I-22J34D1*
G2X37084Y63494I95J209D1*
G3X37083Y63520I-15J12D1*
G2X37085Y63832I170J154D1*
G3X37086Y63858I-16J13D1*
G2X37432Y63848I177J147D1*
G3X37431Y63822I15J-14D1*
G2X37429Y63526I-178J-147D1*
G3X37430Y63500I14J-13D1*
G2X37381Y63150I-170J-155D1*
G3X37386Y63079I21J-35D1*
G37*
G36*
G1X38084Y63219D2*
G2X38063Y62926I165J-160D1*
G3X38001Y62931I-34J-24D1*
G2X38022Y63224I-166J159D1*
G3X38084Y63219I33J23D1*
G37*
G36*
G1X45679Y63326D2*
G2X45370Y63334I-159J-167D1*
G3X45371Y63394I-26J30D1*
G2X45680Y63386I158J167D1*
G3X45679Y63326I26J-31D1*
G37*
G36*
G1X41595Y63574D2*
G2X41253Y63618I-191J-129D1*
G3X41260Y63670I-26J29D1*
G2X41602Y63627I189J129D1*
G3X41595Y63574I25J-31D1*
G37*
G36*
G1X43586Y63541D2*
G2X43162Y63361I-216J-81D1*
G3X43136Y63371I-19J-9D1*
G2X42822Y63547I-88J212D1*
G3X42780Y63580I-39J-7D1*
G2X42761Y64040I-15J229D1*
G3X42800Y64079I-2J40D1*
G2X43138Y63867I229J-9D1*
G3X43141Y63795I19J-36D1*
G2X43256Y63683I-93J-211D1*
G3X43282Y63673I18J8D1*
G1X43290Y63676D1*
G3X43301Y63703I-8J18D1*
G2X43606Y63591I208J97D1*
G3X43586Y63541I17J-36D1*
G37*
G36*
G1X49858Y63936D2*
G2X49531Y63945I-168J-157D1*
G3X49532Y63973I-14J14D1*
G2X49859Y63964I167J157D1*
G3X49858Y63936I13J-15D1*
G37*
G36*
G1X45765Y64410D2*
G2X45552Y64150I15J-230D1*
G3X45509Y64185I-40J-6D1*
G2X45340Y64586I-15J229D1*
G3X45344Y64642I-27J30D1*
G2X45361Y64956I176J147D1*
G3X45362Y65012I-29J28D1*
G2X45689Y65004I167J158D1*
G3X45688Y64948I28J-29D1*
G2X45674Y64619I-168J-158D1*
G3X45670Y64563I27J-31D1*
G2X45722Y64444I-177J-148D1*
G3X45765Y64410I39J5D1*
G37*
G36*
G1X41446Y64583D2*
G2X41162Y64392I-57J-224D1*
G3X41132Y64437I-40J5D1*
G2X41204Y64890I56J223D1*
G3X41247Y64930I2J39D1*
G2X41461Y64703I230J2D1*
G3X41418Y64663I-3J-40D1*
G2X41416Y64628I-231J-5D1*
G3X41446Y64583I39J-6D1*
G37*
G36*
G1X47045Y64385D2*
G2X46655Y64452I-175J150D1*
G3X46608Y64477I-38J-14D1*
G2X46764Y64782I-59J222D1*
G3X46812Y64758I37J14D1*
G2X47001Y64724I57J-223D1*
G3X47054Y64731I22J32D1*
G2X47239Y64811I174J-151D1*
G3X47281Y64848I2J40D1*
G2X47500Y64600I229J-18D1*
G3X47458Y64563I-3J-41D1*
G2X47098Y64392I-230J17D1*
G3X47045Y64385I-23J-33D1*
G37*
G36*
G1X44453Y64899D2*
G2X44301Y64590I61J-222D1*
G3X44277Y64602I-20J-9D1*
G2X44009Y64724I-61J221D1*
G3X43943Y64733I-36J-18D1*
G2X43977Y64985I-174J151D1*
G3X44043Y64976I35J17D1*
G2X44430Y64910I173J-153D1*
G3X44453Y64899I18J8D1*
G37*
G36*
G1X51889Y65562D2*
G2X51730Y65409I60J-223D1*
G3X51682Y65459I-38J11D1*
G2X51840Y65612I-62J221D1*
G3X51889Y65562I37J-12D1*
G37*
G36*
G1X44446Y65920D2*
G2X44100Y65890I-187J134D1*
G3X44046Y65892I-29J-30D1*
G2X44060Y66235I-147J177D1*
G3X44114Y66233I28J29D1*
G2X44396Y66241I146J-178D1*
G3X44424Y66245I12J16D1*
G2X44476Y66297I186J-135D1*
G3X44482Y66324I-12J16D1*
G2X44814Y66253I198J116D1*
G3X44809Y66226I11J-17D1*
G2X44474Y65924I-200J-117D1*
G3X44446Y65920I-12J-17D1*
G37*
G36*
G1X40926Y66351D2*
G2X40888Y66080I163J-162D1*
G3X40824Y66089I-36J-19D1*
G2X40862Y66360I-164J161D1*
G3X40926Y66351I35J18D1*
G37*
G36*
G1X52576Y66544D2*
G2X52232Y66520I-162J-165D1*
G3X52229Y66573I-33J24D1*
G2X52573Y66597I161J164D1*
G3X52576Y66544I32J-25D1*
G37*
G36*
G1X44793Y59222D2*
G2X44598Y59509I-224J58D1*
G3X44620Y59523I2J20D1*
G2X44815Y59237I222J-58D1*
G3X44793Y59222I-3J-21D1*
G37*
G36*
G1X47298Y59034D2*
G2X47045Y59161I-209J-99D1*
G3X47073Y59217I-9J39D1*
G2X47326Y59090I208J98D1*
G3X47298Y59034I8J-40D1*
G37*
G36*
G1X50228Y58338D2*
G2X49882Y58326I-168J-157D1*
G3X49881Y58352I-15J12D1*
G2X50150Y58717I168J157D1*
G3X50176Y58724I9J18D1*
G2X50202Y58758I195J-123D1*
G3X50202Y58812I-30J27D1*
G2X50538Y58812I168J158D1*
G3X50538Y58758I29J-27D1*
G2X50269Y58393I-168J-158D1*
G3X50243Y58386I-10J-19D1*
G2X50227Y58364I-196J125D1*
G3X50228Y58338I14J-13D1*
G37*
G36*
G1X44028Y57708D2*
G2X43722Y57598I-98J-209D1*
G3X43703Y57651I-37J17D1*
G2X44008Y57762I96J208D1*
G3X44028Y57708I36J-18D1*
G37*
G36*
G1X47029Y57320D2*
G2X46610Y57132I-216J-80D1*
G3X46540Y57134I-36J-19D1*
G2X46113Y57236I-198J119D1*
G3X46064Y57272I-40J-4D1*
G2X45802Y57594I-54J223D1*
G3X45785Y57646I-37J17D1*
G2X46102Y57750I109J201D1*
G3X46120Y57698I35J-17D1*
G2X46240Y57490I-110J-203D1*
G3X46267Y57470I20J-2D1*
G1X46276Y57473D1*
G3X46289Y57498I-7J19D1*
G2X46704Y57685I221J61D1*
G3X46773Y57690I33J21D1*
G2X47164Y57728I207J-100D1*
G3X47191Y57723I16J11D1*
G2X47343Y57753I118J-199D1*
G3X47365Y57769I2J19D1*
G2X47558Y57504I227J-38D1*
G3X47536Y57488I-3J-20D1*
G2X47124Y57387I-228J36D1*
G3X47098Y57392I-16J-13D1*
G2X47054Y57372I-117J198D1*
G3X47029Y57320I12J-39D1*
G37*
G36*
G1X42512Y57331D2*
G2X42302Y57318I-93J-212D1*
G3X42298Y57389I-21J34D1*
G2X42508Y57402I92J211D1*
G3X42512Y57331I20J-35D1*
G37*
G74*
G54D65*
G1X55730Y71000D3*
G1X55730Y64250D3*
G54D66*
G1X32740Y73590D3*
G1X34075Y73165D3*
G1X34785Y68725D3*
G1X32860Y64790D3*
G1X33725Y63865D3*
G1X32130Y63840D3*
G1X30040Y63370D3*
G1X27930Y62190D3*
G1X32093Y60937D3*
G1X29115Y60495D3*
G1X28440Y60410D3*
G1X27940Y60360D3*
G1X32980Y57710D3*
G1X39657Y57957D3*
G1X37430Y58540D3*
G1X39380Y58550D3*
G1X38310Y58860D3*
G1X41540Y60504D3*
G1X45530Y60780D3*
G1X41367Y60981D3*
G1X40380Y60992D3*
G1X50080Y61430D3*
G1X48634Y61711D3*
G1X45632Y61760D3*
G1X48360Y62312D3*
G1X51455Y62935D3*
G1X46245Y63125D3*
G1X38780Y63242D3*
G1X46160Y63730D3*
G1X36210Y63740D3*
G1X38760Y63760D3*
G1X46880Y64000D3*
G1X50880Y64048D3*
G1X35720Y64110D3*
G1X40058Y64180D3*
G1X48350Y64300D3*
G1X39766Y64890D3*
G1X38190Y64930D3*
G1X48491Y65035D3*
G1X49690Y65210D3*
G1X41966Y65230D3*
G1X40581Y65240D3*
G1X49130Y65396D3*
G1X42620Y65550D3*
G1X50940Y65630D3*
G1X46611Y65715D3*
G1X46036Y65887D3*
G1X51950Y66100D3*
G1X49830Y66250D3*
G1X47200Y66925D3*
G1X50900Y69165D3*
G1X52141Y69319D3*
G1X50912Y69948D3*
G1X55240Y64980D3*
G1X44330Y68180D3*
G1X48882Y69450D3*
G1X40410Y69600D3*
G1X45040Y69680D3*
G1X48965Y70445D3*
G1X42550Y70690D3*
G1X47200Y71110D3*
G1X39130Y71440D3*
G1X49000Y72670D3*
G1X42540Y73190D3*
G1X52370Y59220D3*
G1X51310Y59050D3*
G1X49149Y58816D3*
G1X44320Y58620D3*
G1X45551Y58369D3*
G1X45400Y57430D3*
G1X48942Y57274D3*
G54D67*
G1X37610Y73290D3*
G1X28290Y58000D3*
G1X54900Y72510D3*
G1X40438Y70462D3*
G1X39420Y72710D3*
G1X40420Y72710D3*
G54D68*
G1X37546Y70708D3*
G1X27034Y67558D3*
G54D69*
G1X26837Y69133D3*
G1X37743Y69133D3*
%LPD*%
G54D10*
G1X26710Y57500D3*
G1X26710Y73010D3*
G1X56500Y58910D3*
G1X56500Y73010D3*
G54D11*
G1X26837Y69133D3*
G1X37743Y69133D3*
G54D12*
G1X27034Y67558D3*
G1X37546Y70708D3*
G54D64*
G1X28290Y57000D3*
G1X28290Y58000D3*
G1X39420Y72710D3*
G1X37610Y73290D3*
G1X40438Y70462D3*
G1X40420Y72710D3*
G1X54900Y73510D3*
G1X54900Y72510D3*
G54D15*
G1X28975Y56855D3*
G1X28970Y57185D3*
G1X28440Y60410D3*
G1X27440Y60360D3*
G1X27940Y60360D3*
G1X29115Y60495D3*
G1X27930Y62190D3*
G1X30040Y63370D3*
G1X30010Y73690D3*
G1X31145Y56855D3*
G1X32895Y56855D3*
G1X30745Y56855D3*
G1X32980Y57710D3*
G1X32900Y57190D3*
G1X31140Y57200D3*
G1X30930Y57525D3*
G1X32487Y60937D3*
G1X32093Y60937D3*
G1X32130Y63840D3*
G1X32860Y64790D3*
G1X31340Y72170D3*
G1X32740Y73590D3*
G1X35811Y56728D3*
G1X35810Y57058D3*
G1X36040Y59980D3*
G1X36035Y59593D3*
G1X34310Y58915D3*
G1X35860Y58770D3*
G1X35800Y57668D3*
G1X35800Y58020D3*
G1X35750Y60240D3*
G1X36020Y61870D3*
G1X36020Y61530D3*
G1X33695Y63325D3*
G1X35360Y64950D3*
G1X33725Y63865D3*
G1X34660Y64610D3*
G1X35720Y64110D3*
G1X36095Y68725D3*
G1X35814Y67450D3*
G1X34785Y68725D3*
G1X35990Y67800D3*
G1X34075Y73165D3*
G1X37510Y56890D3*
G1X37920Y56900D3*
G1X37130Y57040D3*
G1X38310Y58860D3*
G1X37565Y59290D3*
G1X37430Y58540D3*
G1X38820Y61760D3*
G1X38043Y61310D3*
G1X38430Y61380D3*
G1X38770Y61390D3*
G1X36520Y60910D3*
G1X36220Y61170D3*
G1X37316Y62541D3*
G1X39130Y61077D3*
G1X37290Y62870D3*
G1X38140Y60994D3*
G1X38250Y63060D3*
G1X37835Y63090D3*
G1X38780Y63242D3*
G1X37253Y63675D3*
G1X37259Y63345D3*
G1X36210Y63740D3*
G1X37263Y64005D3*
G1X37260Y64842D3*
G1X38760Y63760D3*
G1X38190Y64930D3*
G1X39130Y71440D3*
G1X39787Y56993D3*
G1X41620Y58640D3*
G1X42020Y59725D3*
G1X40536Y58384D3*
G1X40230Y58130D3*
G1X40956Y58346D3*
G1X39657Y57957D3*
G1X39380Y58550D3*
G1X41540Y60504D3*
G1X41367Y60981D3*
G1X41400Y62972D3*
G1X39455Y61017D3*
G1X40730Y60994D3*
G1X40380Y60992D3*
G1X41477Y64933D3*
G1X41390Y64360D3*
G1X41188Y64660D3*
G1X40058Y64180D3*
G1X39770Y65227D3*
G1X39260Y63760D3*
G1X41405Y63445D3*
G1X41966Y65230D3*
G1X41450Y63800D3*
G1X39766Y64890D3*
G1X40581Y65240D3*
G1X39480Y67580D3*
G1X41090Y66190D3*
G1X40660Y66250D3*
G1X40410Y69600D3*
G1X42420Y57120D3*
G1X42390Y57600D3*
G1X44010Y58200D3*
G1X43800Y57860D3*
G1X44320Y58620D3*
G1X43930Y57500D3*
G1X42380Y59640D3*
G1X44570Y59280D3*
G1X44843Y59466D3*
G1X42700Y62190D3*
G1X45120Y61720D3*
G1X44237Y63030D3*
G1X44219Y62700D3*
G1X44060Y62380D3*
G1X44916Y61251D3*
G1X43066Y60580D3*
G1X42456Y61200D3*
G1X43066Y60956D3*
G1X42200Y60955D3*
G1X44534Y63176D3*
G1X43770Y64885D3*
G1X44514Y64677D3*
G1X42620Y65550D3*
G1X44216Y64824D3*
G1X44265Y63366D3*
G1X44408Y63663D3*
G1X44610Y66110D3*
G1X43930Y63290D3*
G1X43510Y63800D3*
G1X43370Y63460D3*
G1X43049Y63584D3*
G1X42765Y63810D3*
G1X43030Y64070D3*
G1X43900Y66070D3*
G1X44260Y66055D3*
G1X44394Y67356D3*
G1X44680Y66440D3*
G1X43286Y66330D3*
G1X43660Y67250D3*
G1X44330Y68180D3*
G1X45040Y69680D3*
G1X42550Y70690D3*
G1X42540Y73190D3*
G1X47983Y56710D3*
G1X45400Y57430D3*
G1X46010Y57496D3*
G1X45551Y58369D3*
G1X45894Y57849D3*
G1X47593Y57732D3*
G1X47281Y59316D3*
G1X46813Y57240D3*
G1X47308Y57525D3*
G1X46980Y57590D3*
G1X47090Y58935D3*
G1X47902Y59772D3*
G1X48027Y59459D3*
G1X46091Y59883D3*
G1X46416Y59680D3*
G1X46760Y59525D3*
G1X46511Y57560D3*
G1X46343Y57253D3*
G1X47120Y61740D3*
G1X45780Y60320D3*
G1X45221Y61406D3*
G1X47415Y61888D3*
G1X47740Y61770D3*
G1X46245Y63125D3*
G1X45632Y61760D3*
G1X46140Y62335D3*
G1X45530Y60780D3*
G1X45810Y62330D3*
G1X46619Y61878D3*
G1X48085Y61714D3*
G1X45520Y63160D3*
G1X46970Y62715D3*
G1X46766Y62294D3*
G1X45230Y66060D3*
G1X45490Y63988D3*
G1X46388Y65960D3*
G1X47850Y64320D3*
G1X45530Y63560D3*
G1X47229Y64581D3*
G1X46160Y63730D3*
G1X46036Y65887D3*
G1X46880Y64000D3*
G1X45494Y64415D3*
G1X46549Y64699D3*
G1X46611Y65715D3*
G1X45520Y64790D3*
G1X47510Y64830D3*
G1X45530Y65170D3*
G1X46870Y64535D3*
G1X45780Y64180D3*
G1X45310Y66520D3*
G1X46619Y67220D3*
G1X47200Y66925D3*
G1X46630Y67880D3*
G1X46857Y68185D3*
G1X47256Y67308D3*
G1X46450Y67510D3*
G1X48060Y67140D3*
G1X48066Y67900D3*
G1X47200Y71110D3*
G1X48380Y56710D3*
G1X48228Y59720D3*
G1X48560Y59350D3*
G1X48942Y57274D3*
G1X48699Y59730D3*
G1X51000Y59970D3*
G1X50370Y58600D3*
G1X49149Y58816D3*
G1X50370Y58970D3*
G1X50049Y58510D3*
G1X50060Y58180D3*
G1X51010Y61850D3*
G1X48360Y62312D3*
G1X49110Y62840D3*
G1X49310Y62510D3*
G1X49650Y62230D3*
G1X50080Y61430D3*
G1X48634Y61711D3*
G1X49690Y65210D3*
G1X50940Y65630D3*
G1X51060Y64840D3*
G1X50880Y64048D3*
G1X48350Y64300D3*
G1X48491Y65035D3*
G1X49130Y65396D3*
G1X49700Y64130D3*
G1X49690Y63779D3*
G1X48810Y67910D3*
G1X48564Y68159D3*
G1X48840Y68420D3*
G1X49237Y68602D3*
G1X48932Y67587D3*
G1X49826Y66664D3*
G1X48545Y67590D3*
G1X49250Y67790D3*
G1X49830Y66250D3*
G1X48180Y67590D3*
G1X50900Y69165D3*
G1X48882Y69450D3*
G1X50955Y71765D3*
G1X48965Y70445D3*
G1X50410Y69380D3*
G1X49910Y69610D3*
G1X50912Y69948D3*
G1X48860Y73190D3*
G1X49000Y72670D3*
G1X52350Y58780D3*
G1X52370Y59220D3*
G1X51310Y59050D3*
G1X51455Y62935D3*
G1X51620Y65681D3*
G1X51950Y65340D3*
G1X51950Y66100D3*
G1X51270Y65650D3*
G1X52415Y66380D3*
G1X52390Y66737D3*
G1X52141Y69319D3*
G1X54741Y63014D3*
G1X54970Y62640D3*
G1X55240Y64980D3*
G1X54950Y63270D3*
G54D63*
G1X54130Y57000D3*
G1X53130Y57000D3*
G1X54130Y60000D3*
G1X54130Y59500D3*
G1X54130Y59000D3*
G1X54130Y58500D3*
G1X54130Y58000D3*
G1X54130Y57500D3*
G1X53130Y57500D3*
G1X53130Y58000D3*
G1X53130Y58500D3*
G1X53130Y59000D3*
G1X53130Y59500D3*
G1X53130Y60000D3*
G1X54130Y63000D3*
G1X54130Y62500D3*
G1X54130Y62000D3*
G1X54130Y61500D3*
G1X54130Y61000D3*
G1X54130Y60500D3*
G1X53130Y60500D3*
G1X53130Y61000D3*
G1X53130Y61500D3*
G1X53130Y62000D3*
G1X53130Y62500D3*
G1X53130Y63000D3*
G1X54130Y66000D3*
G1X54130Y65500D3*
G1X54130Y65000D3*
G1X54130Y64500D3*
G1X54130Y64000D3*
G1X54130Y63500D3*
G1X53130Y63500D3*
G1X53130Y64000D3*
G1X53130Y64500D3*
G1X53130Y65000D3*
G1X53130Y65500D3*
G1X53130Y66000D3*
G1X54130Y69000D3*
G1X54130Y68500D3*
G1X54130Y68000D3*
G1X54130Y67500D3*
G1X54130Y67000D3*
G1X54130Y66500D3*
G1X53130Y66500D3*
G1X53130Y67000D3*
G1X53130Y67500D3*
G1X53130Y68000D3*
G1X53130Y68500D3*
G1X53130Y69000D3*
G1X54130Y71500D3*
G1X54130Y71000D3*
G1X54130Y70500D3*
G1X54130Y70000D3*
G1X54130Y69500D3*
G1X53130Y69500D3*
G1X53130Y70000D3*
G1X53130Y70500D3*
G1X53130Y71000D3*
G1X53130Y71500D3*
G54D14*
G1X55730Y57500D3*
G1X55730Y64250D3*
G1X55730Y71000D3*
G1X28290Y57000D2*
G54D33*
G1X28290Y57395D1*
G1X27895Y57000D2*
G1X28290Y57000D1*
G1X28685Y57000D1*
G1X28290Y57605D2*
G1X28290Y58000D1*
G1X28290Y58395D1*
G1X27895Y58000D2*
G1X28290Y58000D1*
G1X28685Y58000D1*
G1X52845Y66000D2*
G1X53130Y66000D1*
G1X53415Y66000D1*
G1X52845Y64500D2*
G1X53130Y64500D1*
G1X53415Y64500D1*
G1X52845Y69000D2*
G1X53130Y69000D1*
G1X53415Y69000D1*
G1X52845Y68000D2*
G1X53130Y68000D1*
G1X53415Y68000D1*
G1X52845Y71000D2*
G1X53130Y71000D1*
G1X53415Y71000D1*
M2*
