*
%LPD*%
%LNTOP_ETCH*%
%FSLAX24Y24*%
%MOIN*%
%AD*%
%AMMACRO24*
20,1,0.06,-0.021213,-0.021213,0.021213,0.021213,0*
%
%ADD10C,0.025*%
%ADD11C,0.03*%
%ADD12C,0.01969*%
%ADD13R,0.03937X0.04331*%
%ADD14C,0.06*%
%ADD15C,0.026*%
%ADD16R,0.04331X0.03937*%
%ADD18R,0.05118X0.05906*%
%ADD23R,0.05906X0.05118*%
%ADD24MACRO24*%
%ADD30O,0.045X0.033*%
%ADD31C,0.01*%
%ADD32C,0.011*%
%ADD33C,0.012*%
%ADD35C,0.014*%
%ADD36C,0.015*%
%ADD37C,0.016*%
%ADD38C,0.007*%
%ADD70C,0.085*%
%ADD71R,0.058X0.009*%
%ADD72R,0.009X0.058*%
%ADD73R,0.016X0.03*%
%ADD74R,0.03X0.016*%
%ADD75R,0.08X0.051*%
%ADD76R,0.051X0.08*%
%ADD77R,0.027X0.053*%
%ADD78R,0.078X0.022*%
%ADD79R,0.0315X0.02362*%
%ADD80R,0.02402X0.05433*%
%ADD81R,0.03543X0.04331*%
%ADD82R,0.01181X0.02559*%
%ADD83R,0.02559X0.01181*%
%ADD84C,0.04*%
G54D10*
%SRX1Y1I0.0J0.0*%
G1X26710Y57500D3*
G1X26710Y73010D3*
G1X56500Y58910D3*
G1X56500Y73010D3*
G54D83*
G1X37822Y57366D3*
G1X37822Y57563D3*
G1X37822Y57760D3*
G1X37822Y57957D3*
G1X37822Y58154D3*
G1X39298Y58154D3*
G1X39298Y57957D3*
G1X39298Y57760D3*
G1X39298Y57563D3*
G1X39298Y57366D3*
G54D77*
G1X26940Y59850D3*
G1X26940Y63730D3*
G1X28440Y59850D3*
G1X27940Y59850D3*
G1X27440Y59850D3*
G1X27440Y63730D3*
G1X27940Y63730D3*
G1X28440Y63730D3*
G54D18*
G1X38826Y59020D3*
G1X39176Y69600D3*
G1X39574Y59020D3*
G1X39924Y69600D3*
G1X46974Y60430D3*
G1X46226Y60430D3*
G54D73*
G1X44034Y66690D3*
G1X43660Y66690D3*
G1X43286Y66690D3*
G1X43286Y67810D3*
G1X43660Y67810D3*
G1X44034Y67810D3*
G1X42550Y70690D2*
G54D11*
G1X41850Y70690D1*
G1X41850Y73190D2*
G1X42540Y73190D1*
G1X26837Y69133D3*
G1X37743Y69133D3*
G1X48100Y69440D2*
G54D36*
G1X48872Y69440D1*
G1X48882Y69450D1*
G1X48100Y73190D2*
G1X48860Y73190D1*
G54D23*
G1X36660Y57436D3*
G1X36660Y58184D3*
G1X42050Y66706D3*
G1X42050Y67454D3*
G1X40110Y66466D3*
G1X40110Y67214D3*
G1X45480Y67316D3*
G1X45480Y68064D3*
G54D74*
G1X50750Y58676D3*
G1X50750Y59050D3*
G1X50750Y59424D3*
G1X51870Y59424D3*
G1X51870Y59050D3*
G1X51870Y58676D3*
G54D12*
G1X27034Y67558D3*
G1X37546Y70708D3*
G1X27440Y59850D2*
G54D37*
G1X27440Y59275D1*
G1X27335Y59170D1*
G1X27440Y59850D2*
G1X27440Y60360D1*
G1X27940Y59850D2*
G1X27940Y59235D1*
G1X28005Y59170D1*
G1X27940Y59850D2*
G1X27940Y60360D1*
G1X32487Y60937D2*
G1X32487Y60310D1*
G1X32487Y61570D2*
G1X32487Y60937D1*
G1X32881Y61570D2*
G1X32881Y61331D1*
G1X32487Y60937D1*
G1X32093Y61570D2*
G1X32093Y60937D1*
G1X32093Y60310D2*
G1X32093Y60937D1*
G1X31699Y60310D2*
G1X31699Y60543D1*
G1X32093Y60937D1*
G1X44034Y67810D2*
G1X44034Y67776D1*
G1X44280Y67530D1*
G1X44280Y67320D1*
G1X44280Y66970D1*
G1X44034Y66724D1*
G1X44034Y66690D1*
G1X44280Y67320D2*
G1X44358Y67320D1*
G1X44394Y67356D1*
G1X43286Y66690D2*
G1X43286Y66330D1*
G1X43660Y66690D2*
G1X43286Y66690D1*
G1X43660Y67810D2*
G1X43660Y67250D1*
G1X50750Y59424D2*
G1X50750Y59460D1*
G1X50930Y59640D1*
G1X51670Y59640D1*
G1X50750Y59050D2*
G1X51310Y59050D1*
G1X51870Y58676D2*
G1X52246Y58676D1*
G1X51870Y59050D2*
G1X51870Y58676D1*
G1X52246Y58676D2*
G1X52350Y58780D1*
G1X53130Y60000D2*
G1X53030Y60000D1*
G1X52370Y59340D1*
G1X52370Y59220D1*
G1X51870Y59424D2*
G1X52166Y59424D1*
G1X52370Y59220D1*
G1X51670Y59640D2*
G1X51870Y59440D1*
G1X51870Y59424D1*
G54D13*
G1X29370Y56855D3*
G1X29870Y56855D3*
G1X29370Y57525D3*
G1X29870Y57525D3*
G1X31530Y56855D3*
G1X32030Y56855D3*
G1X32530Y56855D3*
G1X30370Y56855D3*
G1X31530Y57525D3*
G1X32030Y57525D3*
G1X32530Y57525D3*
G1X30370Y57525D3*
G1X35990Y62295D3*
G1X35990Y62965D3*
G1X37330Y57475D3*
G1X37330Y58145D3*
G1X39130Y70965D3*
G1X39130Y70295D3*
G1X40230Y57045D3*
G1X40800Y57045D3*
G1X40230Y57715D3*
G1X40800Y57715D3*
G1X39480Y66435D3*
G1X39480Y67105D3*
G1X39730Y70965D3*
G1X39730Y70295D3*
G1X42690Y66655D3*
G1X42690Y67325D3*
G1X44800Y67275D3*
G1X44800Y67945D3*
G1X47620Y67125D3*
G1X47620Y67795D3*
G1X46080Y67155D3*
G1X46080Y67825D3*
G1X51010Y62265D3*
G1X51010Y62935D3*
G1X50030Y71775D3*
G1X50030Y71105D3*
G1X50550Y71765D3*
G1X50550Y71095D3*
G1X52230Y70405D3*
G1X52230Y71075D3*
G54D79*
G1X50020Y70605D3*
G1X50020Y69935D3*
G1X50560Y70605D3*
G1X50560Y69935D3*
G54D72*
G1X39045Y60504D3*
G1X38888Y60504D3*
G1X38730Y60504D3*
G1X38573Y60504D3*
G1X38415Y60504D3*
G1X38258Y60504D3*
G1X38100Y60504D3*
G1X37943Y60504D3*
G1X37785Y60504D3*
G1X37628Y60504D3*
G1X37470Y60504D3*
G1X37470Y65716D3*
G1X37628Y65716D3*
G1X37785Y65716D3*
G1X37943Y65716D3*
G1X38100Y65716D3*
G1X38258Y65716D3*
G1X38415Y65716D3*
G1X38573Y65716D3*
G1X38730Y65716D3*
G1X38888Y65716D3*
G1X39045Y65716D3*
G1X41250Y60504D3*
G1X41092Y60504D3*
G1X40935Y60504D3*
G1X40777Y60504D3*
G1X40620Y60504D3*
G1X40462Y60504D3*
G1X40305Y60504D3*
G1X40147Y60504D3*
G1X39990Y60504D3*
G1X39832Y60504D3*
G1X39675Y60504D3*
G1X39518Y60504D3*
G1X39360Y60504D3*
G1X39202Y60504D3*
G1X39202Y65716D3*
G1X39360Y65716D3*
G1X39518Y65716D3*
G1X39675Y65716D3*
G1X39832Y65716D3*
G1X39990Y65716D3*
G1X40147Y65716D3*
G1X40305Y65716D3*
G1X40462Y65716D3*
G1X40620Y65716D3*
G1X40777Y65716D3*
G1X40935Y65716D3*
G1X41092Y65716D3*
G1X41250Y65716D3*
G1X47925Y61224D3*
G1X47768Y61224D3*
G1X47610Y61224D3*
G1X47453Y61224D3*
G1X47295Y61224D3*
G1X47138Y61224D3*
G1X46980Y61224D3*
G1X46823Y61224D3*
G1X46665Y61224D3*
G1X46508Y61224D3*
G1X46350Y61224D3*
G1X46193Y61224D3*
G1X46035Y61224D3*
G1X45878Y61224D3*
G1X45720Y61224D3*
G1X45720Y66436D3*
G1X45878Y66436D3*
G1X46035Y66436D3*
G1X46193Y66436D3*
G1X46350Y66436D3*
G1X46508Y66436D3*
G1X46665Y66436D3*
G1X46823Y66436D3*
G1X46980Y66436D3*
G1X47138Y66436D3*
G1X47295Y66436D3*
G1X47453Y66436D3*
G1X47610Y66436D3*
G1X47768Y66436D3*
G1X47925Y66436D3*
G1X49500Y61224D3*
G1X49342Y61224D3*
G1X49185Y61224D3*
G1X49027Y61224D3*
G1X48870Y61224D3*
G1X48712Y61224D3*
G1X48555Y61224D3*
G1X48397Y61224D3*
G1X48240Y61224D3*
G1X48082Y61224D3*
G1X48082Y66436D3*
G1X48240Y66436D3*
G1X48397Y66436D3*
G1X48555Y66436D3*
G1X48712Y66436D3*
G1X48870Y66436D3*
G1X49027Y66436D3*
G1X49185Y66436D3*
G1X49342Y66436D3*
G1X49500Y66436D3*
G1X28970Y57185D2*
G54D38*
G1X29605Y57185D1*
G1X29870Y56920D1*
G1X29870Y56855D1*
G1X29370Y56855D2*
G1X28975Y56855D1*
G1X29370Y57525D2*
G1X29870Y57525D1*
G1X30370Y57525D2*
G1X29870Y57525D1*
G1X31530Y56855D2*
G1X31145Y56855D1*
G1X32030Y56855D2*
G1X32030Y56903D1*
G1X31733Y57200D1*
G1X31140Y57200D1*
G1X32530Y56855D2*
G1X32895Y56855D1*
G1X30745Y56855D2*
G1X30370Y56855D1*
G1X33385Y57940D2*
G1X33330Y57940D1*
G1X33100Y57710D1*
G1X32980Y57710D1*
G1X33385Y56830D2*
G1X33025Y57190D1*
G1X32900Y57190D1*
G1X31530Y57525D2*
G1X30930Y57525D1*
G1X32030Y57525D2*
G1X31530Y57525D1*
G1X32530Y57525D2*
G1X32030Y57525D1*
G1X30930Y57525D2*
G1X30370Y57525D1*
G1X36020Y61870D2*
G1X35140Y60990D1*
G1X33260Y60990D1*
G1X32881Y60611D1*
G1X32881Y60310D1*
G1X35811Y56728D2*
G1X35799Y56740D1*
G1X35445Y56740D1*
G1X35355Y56830D1*
G1X34685Y56830D2*
G1X34710Y56830D1*
G1X35010Y57130D1*
G1X35690Y57130D1*
G1X35762Y57058D1*
G1X35810Y57058D1*
G1X34055Y56830D2*
G1X34685Y56830D1*
G1X36520Y60910D2*
G1X36280Y60910D1*
G1X35920Y60550D1*
G1X34850Y60550D1*
G1X34671Y60371D1*
G1X34671Y59999D1*
G1X34615Y59943D1*
G1X34296Y59943D1*
G1X34062Y60178D1*
G1X34062Y60310D1*
G1X36035Y59593D2*
G1X36042Y59600D1*
G1X36370Y59600D1*
G1X37274Y60504D1*
G1X37470Y60504D1*
G1X35800Y57668D2*
G1X35780Y57648D1*
G1X34902Y57648D1*
G1X34685Y57865D1*
G1X34685Y57940D1*
G1X34055Y57940D2*
G1X34685Y57940D1*
G1X35800Y58020D2*
G1X35435Y58020D1*
G1X35355Y57940D1*
G1X35750Y60240D2*
G1X36420Y60240D1*
G1X36755Y60575D1*
G1X36755Y61007D1*
G1X36754Y61008D1*
G1X36754Y61220D1*
G1X33668Y60310D2*
G1X33668Y60443D1*
G1X33935Y60710D1*
G1X35760Y60710D1*
G1X36220Y61170D1*
G1X34062Y61570D2*
G1X34062Y61782D1*
G1X35705Y63425D1*
G1X36754Y63425D1*
G1X33668Y61570D2*
G1X33670Y61568D1*
G1X33670Y61370D1*
G1X33870Y61170D1*
G1X34640Y61170D1*
G1X34740Y61270D1*
G1X34740Y62262D1*
G1X35754Y63276D1*
G1X36259Y63276D1*
G1X36330Y63205D1*
G1X36330Y63065D1*
G1X36442Y62952D1*
G1X36754Y62952D1*
G1X36754Y64055D2*
G1X36136Y64055D1*
G1X34092Y62010D1*
G1X33520Y62010D1*
G1X33274Y61764D1*
G1X33274Y61570D1*
G1X33274Y60310D2*
G1X33274Y60614D1*
G1X33510Y60850D1*
G1X35340Y60850D1*
G1X36020Y61530D1*
G1X36754Y62638D2*
G1X36332Y62638D1*
G1X35990Y62295D1*
G1X36754Y62795D2*
G1X36160Y62795D1*
G1X35990Y62965D1*
G1X35415Y64510D2*
G1X35415Y64495D1*
G1X35720Y64190D1*
G1X35720Y64110D1*
G1X36040Y59980D2*
G1X36450Y59980D1*
G1X37139Y60669D1*
G1X37139Y61305D1*
G1X37066Y61378D1*
G1X36754Y61378D1*
G1X37943Y60504D2*
G1X37943Y60107D1*
G1X37565Y59730D1*
G1X37565Y59290D1*
G1X39045Y60504D2*
G1X39045Y60000D1*
G1X38775Y59730D1*
G1X38258Y60504D2*
G1X38258Y59753D1*
G1X38235Y59730D1*
G1X38888Y60504D2*
G1X38888Y61175D1*
G1X39005Y61293D1*
G1X39005Y61575D1*
G1X38820Y61760D1*
G1X38043Y61310D2*
G1X38157Y61310D1*
G1X38415Y61051D1*
G1X38415Y60504D1*
G1X38573Y60504D2*
G1X38573Y61237D1*
G1X38430Y61380D1*
G1X38730Y60504D2*
G1X38730Y61350D1*
G1X38770Y61390D1*
G1X38780Y63242D2*
G1X38773Y63242D1*
G1X37066Y61535D1*
G1X36754Y61535D1*
G1X37316Y62541D2*
G1X37220Y62638D1*
G1X36754Y62638D1*
G1X38100Y60504D2*
G1X37943Y60504D1*
G1X39130Y61077D2*
G1X39130Y61050D1*
G1X39045Y60965D1*
G1X39045Y60504D1*
G1X38140Y60994D2*
G1X38076Y60930D1*
G1X37899Y60930D1*
G1X37785Y60816D1*
G1X37785Y60504D1*
G1X37290Y62870D2*
G1X37215Y62795D1*
G1X36754Y62795D1*
G1X38258Y60504D2*
G1X38258Y60842D1*
G1X38140Y60960D1*
G1X38140Y60994D1*
G1X37253Y63675D2*
G1X37161Y63582D1*
G1X36754Y63582D1*
G1X37259Y63345D2*
G1X37182Y63268D1*
G1X36754Y63268D1*
G1X36754Y63740D2*
G1X36210Y63740D1*
G1X37263Y64005D2*
G1X37258Y64000D1*
G1X37251Y64000D1*
G1X37148Y63897D1*
G1X36754Y63897D1*
G1X36754Y64842D2*
G1X37260Y64842D1*
G1X36754Y64842D2*
G1X36412Y64842D1*
G1X36085Y64515D1*
G1X36085Y64510D1*
G1X39360Y65716D2*
G1X39360Y65364D1*
G1X38987Y64990D1*
G1X38250Y64990D1*
G1X38190Y64930D1*
G1X38250Y63060D2*
G1X37955Y63355D1*
G1X37955Y65027D1*
G1X38093Y65165D1*
G1X38964Y65165D1*
G1X39202Y65404D1*
G1X39202Y65716D1*
G1X36754Y63110D2*
G1X37815Y63110D1*
G1X37835Y63090D1*
G1X42020Y59725D2*
G1X41955Y59725D1*
G1X41561Y60119D1*
G1X41008Y60119D1*
G1X40935Y60192D1*
G1X40935Y60504D1*
G1X41966Y62008D2*
G1X42278Y62008D1*
G1X42440Y61846D1*
G1X42440Y61562D1*
G1X42691Y61311D1*
G1X42691Y59579D1*
G1X42432Y59320D1*
G1X41510Y59320D1*
G1X40573Y58384D1*
G1X40536Y58384D1*
G1X41966Y62165D2*
G1X42318Y62165D1*
G1X42580Y61904D1*
G1X42580Y61620D1*
G1X42831Y61369D1*
G1X42831Y59521D1*
G1X42490Y59180D1*
G1X41568Y59180D1*
G1X40956Y58568D1*
G1X40956Y58346D1*
G1X40620Y60504D2*
G1X40620Y59935D1*
G1X40875Y59680D1*
G1X39202Y60504D2*
G1X39202Y59972D1*
G1X39445Y59730D1*
G1X40462Y60504D2*
G1X40462Y59937D1*
G1X40205Y59680D1*
G1X40777Y60504D2*
G1X40777Y60152D1*
G1X40950Y59979D1*
G1X41371Y59979D1*
G1X41860Y59490D1*
G1X42270Y59490D1*
G1X42380Y59600D1*
G1X42380Y59640D1*
G1X41477Y64933D2*
G1X41390Y65020D1*
G1X41150Y65020D1*
G1X40730Y64600D1*
G1X40730Y62184D1*
G1X41378Y61535D1*
G1X41966Y61535D1*
G1X41390Y64360D2*
G1X41390Y64350D1*
G1X41030Y63990D1*
G1X41030Y62350D1*
G1X41530Y61850D1*
G1X41966Y61850D1*
G1X41188Y64660D2*
G1X41150Y64660D1*
G1X40890Y64400D1*
G1X40890Y62292D1*
G1X41489Y61693D1*
G1X41966Y61693D1*
G1X40935Y60504D2*
G1X40935Y60866D1*
G1X41070Y61002D1*
G1X41070Y61118D1*
G1X41067Y61118D1*
G1X40058Y62127D1*
G1X40058Y64180D1*
G1X41540Y60504D2*
G1X41540Y60822D1*
G1X41602Y60884D1*
G1X41602Y61114D1*
G1X40470Y62246D1*
G1X40470Y64598D1*
G1X41062Y65191D1*
G1X41392Y65191D1*
G1X41660Y65458D1*
G1X41660Y67749D1*
G1X42325Y68415D1*
G1X46085Y68415D1*
G1X46620Y67880D1*
G1X46630Y67880D1*
G1X41250Y60504D2*
G1X41540Y60504D1*
G1X46857Y68185D2*
G1X46855Y68185D1*
G1X46485Y68555D1*
G1X42267Y68555D1*
G1X41520Y67807D1*
G1X41520Y65516D1*
G1X41334Y65331D1*
G1X41004Y65331D1*
G1X40330Y64656D1*
G1X40330Y62188D1*
G1X41302Y61216D1*
G1X41302Y61046D1*
G1X41367Y60981D1*
G1X41092Y60504D2*
G1X41092Y60816D1*
G1X41165Y60889D1*
G1X41275Y60889D1*
G1X41367Y60981D1*
G1X39455Y61017D2*
G1X39404Y61017D1*
G1X39202Y60816D1*
G1X39202Y60504D1*
G1X40730Y60994D2*
G1X40730Y60980D1*
G1X40620Y60870D1*
G1X40620Y60504D1*
G1X41966Y62952D2*
G1X41420Y62952D1*
G1X41400Y62972D1*
G1X40380Y60992D2*
G1X40380Y60990D1*
G1X40462Y60908D1*
G1X40462Y60504D1*
G1X42456Y61200D2*
G1X42440Y61216D1*
G1X42440Y61256D1*
G1X42318Y61378D1*
G1X41966Y61378D1*
G1X41966Y61220D2*
G1X41966Y61154D1*
G1X42165Y60955D1*
G1X42200Y60955D1*
G1X39832Y65716D2*
G1X39832Y66188D1*
G1X40110Y66466D1*
G1X43104Y62904D2*
G1X43104Y62916D1*
G1X42910Y63110D1*
G1X41966Y63110D1*
G1X39675Y65716D2*
G1X39675Y66240D1*
G1X39480Y66435D1*
G1X39770Y65227D2*
G1X39770Y65260D1*
G1X39675Y65355D1*
G1X39675Y65716D1*
G1X41966Y63425D2*
G1X41425Y63425D1*
G1X41405Y63445D1*
G1X41966Y65000D2*
G1X41966Y65230D1*
G1X41090Y66190D2*
G1X41090Y65718D1*
G1X41092Y65716D1*
G1X41450Y63800D2*
G1X41450Y63786D1*
G1X41654Y63582D1*
G1X41966Y63582D1*
G1X39766Y64890D2*
G1X39740Y64890D1*
G1X39518Y65113D1*
G1X39518Y65716D1*
G1X43370Y63460D2*
G1X43250Y63340D1*
G1X42600Y63340D1*
G1X42390Y63550D1*
G1X42390Y63785D1*
G1X42278Y63897D1*
G1X41966Y63897D1*
G1X43049Y63584D2*
G1X43035Y63570D1*
G1X42640Y63570D1*
G1X42530Y63680D1*
G1X42530Y63843D1*
G1X42318Y64055D1*
G1X41966Y64055D1*
G1X42765Y63810D2*
G1X42765Y63835D1*
G1X42388Y64212D1*
G1X41966Y64212D1*
G1X43030Y64070D2*
G1X42980Y64070D1*
G1X42680Y64370D1*
G1X41966Y64370D1*
G1X40777Y65716D2*
G1X40777Y66083D1*
G1X40660Y66200D1*
G1X40660Y66250D1*
G1X40581Y65240D2*
G1X40581Y65281D1*
G1X40620Y65320D1*
G1X40620Y65716D1*
G1X43900Y66070D2*
G1X43810Y66070D1*
G1X42425Y64685D1*
G1X41966Y64685D1*
G1X41966Y64842D2*
G1X42340Y64842D1*
G1X43803Y66305D1*
G1X44007Y66305D1*
G1X44257Y66055D1*
G1X44260Y66055D1*
G1X39480Y67105D2*
G1X39480Y67580D1*
G1X40110Y67214D2*
G1X39744Y67580D1*
G1X39480Y67580D1*
G1X54950Y63270D2*
G1X55130Y63450D1*
G1X55130Y64370D1*
G1X55480Y64720D1*
G1X55480Y70580D1*
G1X54240Y71820D1*
G1X51232Y71820D1*
G1X50965Y72086D1*
G1X45646Y72086D1*
G1X43000Y69440D1*
G1X41850Y69440D1*
G1X43160Y57620D2*
G1X42410Y57620D1*
G1X42390Y57600D1*
G1X43800Y57860D2*
G1X44030Y57860D1*
G1X44770Y57120D1*
G1X45020Y57120D1*
G1X54130Y62000D2*
G1X54270Y62000D1*
G1X54490Y61780D1*
G1X54490Y57890D1*
G1X54350Y57750D1*
G1X52930Y57750D1*
G1X52210Y57030D1*
G1X48590Y57030D1*
G1X48535Y57085D1*
G1X48225Y57085D1*
G1X48085Y56945D1*
G1X47886Y56945D1*
G1X47661Y56720D1*
G1X45420Y56720D1*
G1X45020Y57120D1*
G1X45020Y57620D2*
G1X45310Y57620D1*
G1X45320Y57610D1*
G1X45290Y58120D2*
G1X45020Y58120D1*
G1X43160Y57120D2*
G1X42420Y57120D1*
G1X44570Y59280D2*
G1X44570Y59470D1*
G1X44378Y59662D1*
G1X43254Y59662D1*
G1X43066Y59850D1*
G1X43066Y60580D1*
G1X44843Y59466D2*
G1X44834Y59466D1*
G1X44498Y59802D1*
G1X43418Y59802D1*
G1X43301Y59919D1*
G1X43301Y60677D1*
G1X43066Y60912D1*
G1X43066Y60956D1*
G1X45004Y63830D2*
G1X44599Y63830D1*
G1X44509Y63920D1*
G1X44210Y63920D1*
G1X43515Y63225D1*
G1X43425Y63225D1*
G1X43104Y62904D1*
G1X42700Y62190D2*
G1X43104Y62190D1*
G1X43104Y62196D1*
G1X43055Y61700D2*
G1X43055Y62196D1*
G1X43104Y62196D1*
G1X43725Y61700D2*
G1X43623Y61700D1*
G1X43383Y61940D1*
G1X43383Y62632D1*
G1X43656Y62904D1*
G1X45004Y61940D2*
G1X45004Y61836D1*
G1X45120Y61720D1*
G1X43930Y63290D2*
G1X43930Y63179D1*
G1X43656Y62904D1*
G1X45004Y62098D2*
G1X44692Y62098D1*
G1X44619Y62025D1*
G1X44619Y61856D1*
G1X45006Y61469D1*
G1X45157Y61469D1*
G1X45220Y61406D1*
G1X45221Y61406D1*
G1X45004Y62413D2*
G1X45337Y62413D1*
G1X45610Y62140D1*
G1X45610Y61782D1*
G1X45632Y61760D1*
G1X49110Y62840D2*
G1X48670Y62840D1*
G1X48250Y63260D1*
G1X46712Y63260D1*
G1X46338Y62885D1*
G1X45004Y62885D1*
G1X44237Y63030D2*
G1X44382Y62885D1*
G1X45004Y62885D1*
G1X49310Y62510D2*
G1X49281Y62481D1*
G1X48737Y62481D1*
G1X48128Y63090D1*
G1X46740Y63090D1*
G1X46378Y62728D1*
G1X45004Y62728D1*
G1X44219Y62700D2*
G1X44246Y62728D1*
G1X45004Y62728D1*
G1X44060Y62380D2*
G1X44080Y62360D1*
G1X44482Y62360D1*
G1X44692Y62570D1*
G1X45004Y62570D1*
G1X49650Y62230D2*
G1X49610Y62230D1*
G1X49585Y62255D1*
G1X48765Y62255D1*
G1X48070Y62950D1*
G1X46860Y62950D1*
G1X46480Y62570D1*
G1X45004Y62570D1*
G1X45004Y62255D2*
G1X44652Y62255D1*
G1X44479Y62083D1*
G1X44479Y61701D1*
G1X44916Y61264D1*
G1X44916Y61251D1*
G1X44534Y63176D2*
G1X44606Y63176D1*
G1X44630Y63200D1*
G1X45004Y63200D1*
G1X43770Y64885D2*
G1X43945Y64885D1*
G1X44465Y65405D1*
G1X45004Y65405D1*
G1X44514Y64677D2*
G1X44615Y64777D1*
G1X44615Y65038D1*
G1X44666Y65090D1*
G1X45004Y65090D1*
G1X45310Y66520D2*
G1X45310Y66540D1*
G1X45175Y66675D1*
G1X44383Y66675D1*
G1X44153Y66445D1*
G1X43745Y66445D1*
G1X42850Y65550D1*
G1X42620Y65550D1*
G1X44216Y64824D2*
G1X44216Y64850D1*
G1X44614Y65247D1*
G1X45004Y65247D1*
G1X44265Y63366D2*
G1X44315Y63416D1*
G1X44634Y63416D1*
G1X44692Y63358D1*
G1X45004Y63358D1*
G1X44408Y63663D2*
G1X44417Y63672D1*
G1X45004Y63672D1*
G1X45004Y65562D2*
G1X44688Y65562D1*
G1X44619Y65631D1*
G1X44619Y66101D1*
G1X44610Y66110D1*
G1X44680Y66440D2*
G1X44995Y66125D1*
G1X44995Y65729D1*
G1X45004Y65720D1*
G1X44305Y64240D2*
G1X44461Y64083D1*
G1X44543Y64083D1*
G1X44639Y63988D1*
G1X45004Y63988D1*
G1X45490Y63988D1*
G1X43510Y63800D2*
G1X43510Y64115D1*
G1X43635Y64240D1*
G1X45530Y63560D2*
G1X45485Y63515D1*
G1X45004Y63515D1*
G1X45520Y63160D2*
G1X45433Y63160D1*
G1X45316Y63043D1*
G1X45004Y63043D1*
G1X50049Y58510D2*
G1X50019Y58480D1*
G1X49736Y58480D1*
G1X49026Y57770D1*
G1X48512Y57770D1*
G1X47967Y57225D1*
G1X47770Y57225D1*
G1X47545Y57000D1*
G1X46721Y57000D1*
G1X46578Y57143D1*
G1X46578Y57492D1*
G1X46511Y57560D1*
G1X46343Y57253D2*
G1X46343Y57129D1*
G1X46612Y56860D1*
G1X47603Y56860D1*
G1X47828Y57085D1*
G1X48025Y57085D1*
G1X48570Y57630D1*
G1X49084Y57630D1*
G1X49634Y58180D1*
G1X50060Y58180D1*
G1X54741Y63014D2*
G1X54770Y63014D1*
G1X54770Y63050D1*
G1X54700Y62980D1*
G1X54700Y57580D1*
G1X54370Y57250D1*
G1X52910Y57250D1*
G1X52550Y56890D1*
G1X48532Y56890D1*
G1X48477Y56945D1*
G1X48283Y56945D1*
G1X48048Y56710D1*
G1X47983Y56710D1*
G1X45320Y57610D2*
G1X45896Y57610D1*
G1X46010Y57496D1*
G1X45400Y57430D2*
G1X45400Y57530D1*
G1X45320Y57610D1*
G1X46823Y61224D2*
G1X46823Y60912D1*
G1X46750Y60839D1*
G1X45921Y60839D1*
G1X45490Y60408D1*
G1X45490Y59020D1*
G1X46180Y58330D1*
G1X46180Y57607D1*
G1X46069Y57496D1*
G1X46010Y57496D1*
G1X45894Y57849D2*
G1X45894Y57886D1*
G1X45660Y58120D1*
G1X45290Y58120D1*
G1X45551Y58369D2*
G1X45539Y58369D1*
G1X45290Y58120D1*
G1X46813Y57240D2*
G1X46903Y57150D1*
G1X47497Y57150D1*
G1X47712Y57365D1*
G1X47909Y57365D1*
G1X48454Y57910D1*
G1X48968Y57910D1*
G1X49870Y58812D1*
G1X50137Y58812D1*
G1X50350Y58600D1*
G1X50370Y58600D1*
G1X49149Y58816D2*
G1X48973Y58640D1*
G1X48134Y58640D1*
G1X47324Y57830D1*
G1X47324Y57541D1*
G1X47308Y57525D1*
G1X50370Y58970D2*
G1X49830Y58970D1*
G1X48910Y58050D1*
G1X48396Y58050D1*
G1X47851Y57505D1*
G1X47654Y57505D1*
G1X47439Y57290D1*
G1X47211Y57290D1*
G1X46980Y57521D1*
G1X46980Y57590D1*
G1X54130Y59500D2*
G1X53380Y60250D1*
G1X52966Y60250D1*
G1X52866Y60350D1*
G1X50706Y60350D1*
G1X49416Y59060D1*
G1X49052Y59060D1*
G1X48792Y58800D1*
G1X47982Y58800D1*
G1X47852Y58930D1*
G1X47095Y58930D1*
G1X47090Y58935D1*
G1X53130Y60500D2*
G1X50658Y60500D1*
G1X49358Y59200D1*
G1X48994Y59200D1*
G1X48734Y58940D1*
G1X48040Y58940D1*
G1X47780Y59200D1*
G1X47780Y59604D1*
G1X47902Y59726D1*
G1X47902Y59772D1*
G1X54130Y60000D2*
G1X53380Y60750D1*
G1X50710Y60750D1*
G1X49300Y59340D1*
G1X48936Y59340D1*
G1X48676Y59080D1*
G1X48470Y59080D1*
G1X48091Y59459D1*
G1X48027Y59459D1*
G1X46091Y59883D2*
G1X46168Y59960D1*
G1X47274Y59960D1*
G1X48153Y60839D1*
G1X48324Y60839D1*
G1X48397Y60912D1*
G1X48397Y61224D1*
G1X46416Y59680D2*
G1X46420Y59680D1*
G1X46500Y59760D1*
G1X47272Y59760D1*
G1X48211Y60699D1*
G1X48972Y60699D1*
G1X49185Y60912D1*
G1X49185Y61224D1*
G1X46760Y59525D2*
G1X46785Y59550D1*
G1X47260Y59550D1*
G1X48269Y60559D1*
G1X49168Y60559D1*
G1X49500Y60891D1*
G1X49500Y61224D1*
G1X47138Y61224D2*
G1X47138Y60594D1*
G1X46974Y60430D1*
G1X47120Y61740D2*
G1X47146Y61714D1*
G1X47170Y61714D1*
G1X47295Y61589D1*
G1X47295Y61224D1*
G1X45780Y60320D2*
G1X46116Y60320D1*
G1X46226Y60430D1*
G1X47415Y61888D2*
G1X47453Y61851D1*
G1X47453Y61224D1*
G1X47610Y61224D2*
G1X47610Y61640D1*
G1X47740Y61770D1*
G1X46140Y62335D2*
G1X46035Y62230D1*
G1X46035Y61224D1*
G1X45530Y60780D2*
G1X45530Y60790D1*
G1X45720Y60980D1*
G1X45720Y61224D1*
G1X45810Y62330D2*
G1X45810Y62170D1*
G1X45878Y62102D1*
G1X45878Y61224D1*
G1X46508Y61224D2*
G1X46508Y61738D1*
G1X46619Y61849D1*
G1X46619Y61878D1*
G1X46665Y61224D2*
G1X46665Y61592D1*
G1X46854Y61781D1*
G1X46854Y61914D1*
G1X47070Y62130D1*
G1X47720Y62130D1*
G1X48085Y61765D1*
G1X48085Y61714D1*
G1X46970Y62715D2*
G1X47625Y62715D1*
G1X48350Y61990D1*
G1X49530Y61990D1*
G1X50030Y61490D1*
G1X50030Y61480D1*
G1X50080Y61430D1*
G1X46193Y61224D2*
G1X46193Y62053D1*
G1X46855Y62715D1*
G1X46970Y62715D1*
G1X46350Y61224D2*
G1X46350Y61942D1*
G1X46702Y62294D1*
G1X46766Y62294D1*
G1X48634Y61711D2*
G1X48590Y61711D1*
G1X48531Y61770D1*
G1X48372Y61770D1*
G1X47848Y62294D1*
G1X46766Y62294D1*
G1X50940Y65630D2*
G1X50940Y65663D1*
G1X50603Y66000D1*
G1X49728Y66000D1*
G1X49499Y65771D1*
G1X48783Y65771D1*
G1X48492Y65480D1*
G1X46110Y65480D1*
G1X45801Y65789D1*
G1X45801Y65984D1*
G1X45878Y66061D1*
G1X45878Y66436D1*
G1X51620Y65571D2*
G1X51444Y65395D1*
G1X50843Y65395D1*
G1X50705Y65533D1*
G1X50705Y65700D1*
G1X50545Y65860D1*
G1X49786Y65860D1*
G1X49557Y65631D1*
G1X48841Y65631D1*
G1X48550Y65340D1*
G1X46040Y65340D1*
G1X45661Y65719D1*
G1X45661Y66042D1*
G1X45720Y66101D1*
G1X45720Y66436D1*
G1X46388Y65960D2*
G1X46388Y65963D1*
G1X46350Y66000D1*
G1X46350Y66436D1*
G1X47229Y64581D2*
G1X47229Y64389D1*
G1X47110Y64270D1*
G1X46700Y64270D1*
G1X46160Y63730D1*
G1X46193Y66436D2*
G1X46193Y66098D1*
G1X46036Y65941D1*
G1X46036Y65887D1*
G1X46880Y64000D2*
G1X47175Y64000D1*
G1X47950Y64775D1*
G1X50216Y64775D1*
G1X46611Y65715D2*
G1X46636Y65740D1*
G1X46648Y65740D1*
G1X46668Y65760D1*
G1X48574Y65760D1*
G1X48725Y65911D1*
G1X49331Y65911D1*
G1X49500Y66080D1*
G1X49500Y66436D1*
G1X46549Y64699D2*
G1X45789Y64699D1*
G1X45505Y64415D1*
G1X45494Y64415D1*
G1X47510Y64830D2*
G1X47390Y64950D1*
G1X45680Y64950D1*
G1X45520Y64790D1*
G1X48491Y65035D2*
G1X48406Y65120D1*
G1X45580Y65120D1*
G1X45530Y65170D1*
G1X46245Y63125D2*
G1X46550Y63430D1*
G1X48873Y63430D1*
G1X49890Y62413D1*
G1X50216Y62413D1*
G1X45520Y63160D2*
G1X45948Y63160D1*
G1X46358Y63570D1*
G1X49040Y63570D1*
G1X49600Y64130D1*
G1X49700Y64130D1*
G1X46870Y64535D2*
G1X46865Y64535D1*
G1X46740Y64410D1*
G1X46642Y64410D1*
G1X46622Y64390D1*
G1X46190Y64390D1*
G1X46040Y64240D1*
G1X45840Y64240D1*
G1X45780Y64180D1*
G1X47200Y66925D2*
G1X47181Y66925D1*
G1X47176Y66930D1*
G1X46840Y66930D1*
G1X46619Y67151D1*
G1X46619Y67220D1*
G1X46035Y66436D2*
G1X46035Y66748D1*
G1X45962Y66821D1*
G1X45636Y66821D1*
G1X45580Y66765D1*
G1X45580Y66410D1*
G1X45230Y66060D1*
G1X47256Y67308D2*
G1X47248Y67308D1*
G1X47248Y67307D1*
G1X47513Y67307D1*
G1X47620Y67200D1*
G1X47620Y67125D1*
G1X47768Y66436D2*
G1X47768Y66978D1*
G1X47620Y67125D1*
G1X46350Y66436D2*
G1X46350Y66830D1*
G1X46110Y67070D1*
G1X46110Y67125D1*
G1X46080Y67155D1*
G1X46450Y67510D2*
G1X46420Y67510D1*
G1X48060Y67140D2*
G1X48060Y67355D1*
G1X47620Y67795D1*
G1X47925Y66436D2*
G1X47925Y67005D1*
G1X48060Y67140D1*
G1X46420Y67510D2*
G1X46180Y67750D1*
G1X46180Y67755D1*
G1X46110Y67825D1*
G1X46080Y67825D1*
G1X46508Y66436D2*
G1X46508Y66907D1*
G1X46384Y67031D1*
G1X46384Y67474D1*
G1X46420Y67510D1*
G1X54970Y62640D2*
G1X54920Y62590D1*
G1X54920Y57290D1*
G1X54380Y56750D1*
G1X48420Y56750D1*
G1X48380Y56710D1*
G1X48228Y59720D2*
G1X48211Y59737D1*
G1X48211Y59739D1*
G1X48210Y59740D1*
G1X48210Y59970D1*
G1X48440Y60200D1*
G1X48465Y60200D1*
G1X48560Y59350D2*
G1X48651Y59350D1*
G1X49209Y59908D1*
G1X49390Y59908D1*
G1X49640Y60157D1*
G1X49640Y61554D1*
G1X49584Y61609D1*
G1X49100Y61609D1*
G1X49027Y61536D1*
G1X49027Y61224D1*
G1X48699Y59730D2*
G1X48699Y59758D1*
G1X49135Y60193D1*
G1X49135Y60200D1*
G1X51235Y60030D2*
G1X51060Y60030D1*
G1X51000Y59970D1*
G1X50216Y62098D2*
G1X50842Y62098D1*
G1X51010Y62265D1*
G1X51010Y61850D1*
G1X51010Y62935D2*
G1X51455Y62935D1*
G1X54130Y62500D2*
G1X54040Y62500D1*
G1X53790Y62250D1*
G1X52640Y62250D1*
G1X51970Y61580D1*
G1X50576Y61580D1*
G1X50216Y61940D1*
G1X50216Y65405D2*
G1X49885Y65405D1*
G1X49690Y65210D1*
G1X54130Y65000D2*
G1X54106Y65024D1*
G1X53520Y65024D1*
G1X53294Y65250D1*
G1X52966Y65250D1*
G1X52816Y65100D1*
G1X51858Y65100D1*
G1X51715Y65243D1*
G1X51715Y65437D1*
G1X51870Y65592D1*
G1X51870Y65810D1*
G1X51760Y65920D1*
G1X51160Y65920D1*
G1X51026Y65786D1*
G1X51026Y65716D1*
G1X50940Y65630D1*
G1X50216Y64302D2*
G1X50788Y64302D1*
G1X50935Y64450D1*
G1X50935Y64715D1*
G1X51060Y64840D1*
G1X51605Y64450D2*
G1X51282Y64128D1*
G1X51008Y64128D1*
G1X50928Y64048D1*
G1X50880Y64048D1*
G1X50812Y64048D1*
G1X50715Y64145D1*
G1X50216Y64145D1*
G1X50216Y65562D2*
G1X49710Y65562D1*
G1X49544Y65396D1*
G1X49130Y65396D1*
G1X54130Y69000D2*
G1X54630Y68500D1*
G1X54630Y64020D1*
G1X54360Y63750D1*
G1X52918Y63750D1*
G1X52840Y63672D1*
G1X50216Y63672D1*
G1X50216Y63358D2*
G1X52312Y63358D1*
G1X52920Y62750D1*
G1X54294Y62750D1*
G1X54460Y62916D1*
G1X54460Y63110D1*
G1X54715Y63365D1*
G1X54715Y63367D1*
G1X54853Y63505D1*
G1X54855Y63505D1*
G1X54910Y63560D1*
G1X54910Y69220D1*
G1X54130Y70000D1*
G1X54130Y69500D2*
G1X54770Y68860D1*
G1X54770Y63726D1*
G1X54294Y63250D1*
G1X52966Y63250D1*
G1X52701Y63515D1*
G1X50216Y63515D1*
G1X54130Y68500D2*
G1X54490Y68140D1*
G1X54490Y64446D1*
G1X54294Y64250D1*
G1X52966Y64250D1*
G1X52529Y63813D1*
G1X50735Y63813D1*
G1X50560Y63988D1*
G1X50216Y63988D1*
G1X50216Y63830D2*
G1X49741Y63830D1*
G1X49690Y63779D1*
G1X48810Y67910D2*
G1X48925Y68025D1*
G1X50715Y68025D1*
G1X52360Y66380D1*
G1X52415Y66380D1*
G1X52390Y66737D2*
G1X50947Y68180D1*
G1X48585Y68180D1*
G1X48564Y68159D1*
G1X53130Y66500D2*
G1X51289Y68341D1*
G1X48919Y68341D1*
G1X48840Y68420D1*
G1X49237Y68602D2*
G1X51528Y68602D1*
G1X53130Y67000D1*
G1X49027Y66436D2*
G1X48870Y66436D1*
G1X48870Y66855D1*
G1X49215Y67200D1*
G1X48932Y67587D2*
G1X48932Y67488D1*
G1X49215Y67205D1*
G1X49215Y67200D1*
G1X48712Y66436D2*
G1X48712Y67033D1*
G1X48545Y67200D1*
G1X48545Y67590D1*
G1X48712Y66436D2*
G1X48712Y66124D1*
G1X48785Y66051D1*
G1X49112Y66051D1*
G1X49185Y66124D1*
G1X49185Y66436D1*
G1X48180Y67590D2*
G1X48180Y67681D1*
G1X48301Y67802D1*
G1X48301Y68399D1*
G1X48974Y69071D1*
G1X50471Y69071D1*
G1X50800Y69400D1*
G1X51092Y69400D1*
G1X51442Y69750D1*
G1X53380Y69750D1*
G1X54130Y70500D1*
G1X48066Y67900D2*
G1X48130Y67964D1*
G1X48130Y68550D1*
G1X48791Y69211D1*
G1X49881Y69211D1*
G1X50350Y69680D1*
G1X50976Y69680D1*
G1X51376Y70080D1*
G1X52560Y70080D1*
G1X52730Y70250D1*
G1X53380Y70250D1*
G1X54130Y71000D1*
G1X50030Y71775D2*
G1X50540Y71775D1*
G1X50550Y71765D1*
G1X50955Y71765D1*
G1X50410Y69380D2*
G1X50410Y69400D1*
G1X50550Y69540D1*
G1X51034Y69540D1*
G1X51434Y69940D1*
G1X53070Y69940D1*
G1X53130Y70000D1*
G1X50900Y69165D2*
G1X51055Y69165D1*
G1X51444Y69554D1*
G1X53076Y69554D1*
G1X53130Y69500D1*
G1X50020Y69935D2*
G1X49910Y69825D1*
G1X49910Y69610D1*
G1X50560Y69935D2*
G1X50899Y69935D1*
G1X50912Y69948D1*
G1X50030Y71105D2*
G1X50030Y70615D1*
G1X50020Y70605D1*
G1X50550Y71095D2*
G1X50550Y70615D1*
G1X50560Y70605D1*
G1X54130Y64500D2*
G1X54110Y64520D1*
G1X54010Y64520D1*
G1X53780Y64750D1*
G1X52960Y64750D1*
G1X52800Y64910D1*
G1X51850Y64910D1*
G1X51575Y65185D1*
G1X51575Y65495D1*
G1X51620Y65540D1*
G1X51620Y65571D1*
G1X51620Y65681D1*
G1X51950Y65340D2*
G1X52500Y65340D1*
G1X52910Y65750D1*
G1X53294Y65750D1*
G1X54044Y66500D1*
G1X54130Y66500D1*
G1X54130Y67000D2*
G1X54044Y67000D1*
G1X53294Y66250D1*
G1X52960Y66250D1*
G1X52830Y66120D1*
G1X51970Y66120D1*
G1X51950Y66100D1*
G1X52230Y71075D2*
G1X52305Y71000D1*
G1X53130Y71000D1*
G1X52230Y70405D2*
G1X52325Y70500D1*
G1X53130Y70500D1*
G1X55240Y64980D2*
G1X55240Y70460D1*
G1X54200Y71500D1*
G1X54130Y71500D1*
G54D30*
G1X54130Y57000D3*
G1X53130Y57000D3*
G1X54130Y60000D3*
G1X54130Y59500D3*
G1X54130Y59000D3*
G1X54130Y58500D3*
G1X54130Y58000D3*
G1X54130Y57500D3*
G1X53130Y57500D3*
G1X53130Y58000D3*
G1X53130Y58500D3*
G1X53130Y59000D3*
G1X53130Y59500D3*
G1X53130Y60000D3*
G1X54130Y63000D3*
G1X54130Y62500D3*
G1X54130Y62000D3*
G1X54130Y61500D3*
G1X54130Y61000D3*
G1X54130Y60500D3*
G1X53130Y60500D3*
G1X53130Y61000D3*
G1X53130Y61500D3*
G1X53130Y62000D3*
G1X53130Y62500D3*
G1X53130Y63000D3*
G1X54130Y66000D3*
G1X54130Y65500D3*
G1X54130Y65000D3*
G1X54130Y64500D3*
G1X54130Y64000D3*
G1X54130Y63500D3*
G1X53130Y63500D3*
G1X53130Y64000D3*
G1X53130Y64500D3*
G1X53130Y65000D3*
G1X53130Y65500D3*
G1X53130Y66000D3*
G1X54130Y69000D3*
G1X54130Y68500D3*
G1X54130Y68000D3*
G1X54130Y67500D3*
G1X54130Y67000D3*
G1X54130Y66500D3*
G1X53130Y66500D3*
G1X53130Y67000D3*
G1X53130Y67500D3*
G1X53130Y68000D3*
G1X53130Y68500D3*
G1X53130Y69000D3*
G1X54130Y71500D3*
G1X54130Y71000D3*
G1X54130Y70500D3*
G1X54130Y70000D3*
G1X54130Y69500D3*
G1X53130Y69500D3*
G1X53130Y70000D3*
G1X53130Y70500D3*
G1X53130Y71000D3*
G1X53130Y71500D3*
G54D71*
G1X36754Y61220D3*
G1X36754Y61378D3*
G1X36754Y61535D3*
G1X36754Y61693D3*
G1X36754Y61850D3*
G1X36754Y62008D3*
G1X36754Y62165D3*
G1X36754Y62323D3*
G1X36754Y62480D3*
G1X36754Y62638D3*
G1X36754Y62795D3*
G1X36754Y62952D3*
G1X36754Y63110D3*
G1X36754Y63268D3*
G1X36754Y63425D3*
G1X36754Y63582D3*
G1X36754Y63740D3*
G1X36754Y63897D3*
G1X36754Y64055D3*
G1X36754Y64212D3*
G1X36754Y64370D3*
G1X36754Y64527D3*
G1X36754Y64685D3*
G1X36754Y64842D3*
G1X36754Y65000D3*
G1X41966Y62952D3*
G1X41966Y62795D3*
G1X41966Y62638D3*
G1X41966Y62480D3*
G1X41966Y62323D3*
G1X41966Y62165D3*
G1X41966Y62008D3*
G1X41966Y61850D3*
G1X41966Y61693D3*
G1X41966Y61535D3*
G1X41966Y61378D3*
G1X41966Y61220D3*
G1X41966Y65000D3*
G1X41966Y64842D3*
G1X41966Y64685D3*
G1X41966Y64527D3*
G1X41966Y64370D3*
G1X41966Y64212D3*
G1X41966Y64055D3*
G1X41966Y63897D3*
G1X41966Y63740D3*
G1X41966Y63582D3*
G1X41966Y63425D3*
G1X41966Y63268D3*
G1X41966Y63110D3*
G1X45004Y61940D3*
G1X45004Y62098D3*
G1X45004Y62255D3*
G1X45004Y62413D3*
G1X45004Y62570D3*
G1X45004Y62728D3*
G1X45004Y62885D3*
G1X45004Y63043D3*
G1X45004Y63200D3*
G1X45004Y63358D3*
G1X45004Y63515D3*
G1X45004Y63672D3*
G1X45004Y63830D3*
G1X45004Y63988D3*
G1X45004Y64145D3*
G1X45004Y64302D3*
G1X45004Y64460D3*
G1X45004Y64617D3*
G1X45004Y64775D3*
G1X45004Y64932D3*
G1X45004Y65090D3*
G1X45004Y65247D3*
G1X45004Y65405D3*
G1X45004Y65562D3*
G1X45004Y65720D3*
G1X50216Y63043D3*
G1X50216Y62885D3*
G1X50216Y62728D3*
G1X50216Y62570D3*
G1X50216Y62413D3*
G1X50216Y62255D3*
G1X50216Y62098D3*
G1X50216Y61940D3*
G1X50216Y65720D3*
G1X50216Y65562D3*
G1X50216Y65405D3*
G1X50216Y65247D3*
G1X50216Y65090D3*
G1X50216Y64932D3*
G1X50216Y64775D3*
G1X50216Y64617D3*
G1X50216Y64460D3*
G1X50216Y64302D3*
G1X50216Y64145D3*
G1X50216Y63988D3*
G1X50216Y63830D3*
G1X50216Y63672D3*
G1X50216Y63515D3*
G1X50216Y63358D3*
G1X50216Y63200D3*
G54D14*
G1X28290Y57000D3*
G1X28290Y58000D3*
G1X39420Y72710D3*
G1X40438Y70462D3*
G1X40420Y72710D3*
G1X55730Y57500D3*
G1X55730Y64250D3*
G1X55730Y71000D3*
G1X54900Y73510D3*
G1X54900Y72510D3*
G54D76*
G1X51310Y59050D3*
G54D24*
G1X37610Y73290D3*
G54D15*
G1X28975Y56855D3*
G1X28970Y57185D3*
G1X28440Y60410D3*
G1X27440Y60360D3*
G1X27940Y60360D3*
G1X29115Y60495D3*
G1X27930Y62190D3*
G1X30040Y63370D3*
G1X30010Y73690D3*
G1X31145Y56855D3*
G1X32895Y56855D3*
G1X30745Y56855D3*
G1X32980Y57710D3*
G1X32900Y57190D3*
G1X31140Y57200D3*
G1X30930Y57525D3*
G1X32487Y60937D3*
G1X32093Y60937D3*
G1X32130Y63840D3*
G1X32860Y64790D3*
G1X31340Y72170D3*
G1X32740Y73590D3*
G1X35811Y56728D3*
G1X35810Y57058D3*
G1X36040Y59980D3*
G1X36035Y59593D3*
G1X34310Y58915D3*
G1X35860Y58770D3*
G1X35800Y57668D3*
G1X35800Y58020D3*
G1X35750Y60240D3*
G1X36020Y61870D3*
G1X36020Y61530D3*
G1X33695Y63325D3*
G1X35360Y64950D3*
G1X33725Y63865D3*
G1X34660Y64610D3*
G1X35720Y64110D3*
G1X36095Y68725D3*
G1X35814Y67450D3*
G1X34785Y68725D3*
G1X35990Y67800D3*
G1X34075Y73165D3*
G1X37510Y56890D3*
G1X37920Y56900D3*
G1X37130Y57040D3*
G1X38310Y58860D3*
G1X37565Y59290D3*
G1X37430Y58540D3*
G1X38820Y61760D3*
G1X38043Y61310D3*
G1X38430Y61380D3*
G1X38770Y61390D3*
G1X36520Y60910D3*
G1X36220Y61170D3*
G1X37316Y62541D3*
G1X39130Y61077D3*
G1X37290Y62870D3*
G1X38140Y60994D3*
G1X38250Y63060D3*
G1X37835Y63090D3*
G1X38780Y63242D3*
G1X37253Y63675D3*
G1X37259Y63345D3*
G1X36210Y63740D3*
G1X37263Y64005D3*
G1X37260Y64842D3*
G1X38760Y63760D3*
G1X38190Y64930D3*
G1X39130Y71440D3*
G1X39787Y56993D3*
G1X41620Y58640D3*
G1X42020Y59725D3*
G1X40536Y58384D3*
G1X40230Y58130D3*
G1X40956Y58346D3*
G1X39657Y57957D3*
G1X39380Y58550D3*
G1X41540Y60504D3*
G1X41367Y60981D3*
G1X41400Y62972D3*
G1X39455Y61017D3*
G1X40730Y60994D3*
G1X40380Y60992D3*
G1X41477Y64933D3*
G1X41390Y64360D3*
G1X41188Y64660D3*
G1X40058Y64180D3*
G1X39770Y65227D3*
G1X39260Y63760D3*
G1X41405Y63445D3*
G1X41966Y65230D3*
G1X41450Y63800D3*
G1X39766Y64890D3*
G1X40581Y65240D3*
G1X39480Y67580D3*
G1X41090Y66190D3*
G1X40660Y66250D3*
G1X40410Y69600D3*
G1X42420Y57120D3*
G1X42390Y57600D3*
G1X44010Y58200D3*
G1X43800Y57860D3*
G1X44320Y58620D3*
G1X43930Y57500D3*
G1X42380Y59640D3*
G1X44570Y59280D3*
G1X44843Y59466D3*
G1X42700Y62190D3*
G1X45120Y61720D3*
G1X44237Y63030D3*
G1X44219Y62700D3*
G1X44060Y62380D3*
G1X44916Y61251D3*
G1X43066Y60580D3*
G1X42456Y61200D3*
G1X43066Y60956D3*
G1X42200Y60955D3*
G1X44534Y63176D3*
G1X43770Y64885D3*
G1X44514Y64677D3*
G1X42620Y65550D3*
G1X44216Y64824D3*
G1X44265Y63366D3*
G1X44408Y63663D3*
G1X44610Y66110D3*
G1X43930Y63290D3*
G1X43510Y63800D3*
G1X43370Y63460D3*
G1X43049Y63584D3*
G1X42765Y63810D3*
G1X43030Y64070D3*
G1X43900Y66070D3*
G1X44260Y66055D3*
G1X44394Y67356D3*
G1X44680Y66440D3*
G1X43286Y66330D3*
G1X43660Y67250D3*
G1X44330Y68180D3*
G1X45040Y69680D3*
G1X42550Y70690D3*
G1X42540Y73190D3*
G1X47983Y56710D3*
G1X45400Y57430D3*
G1X46010Y57496D3*
G1X45551Y58369D3*
G1X45894Y57849D3*
G1X47593Y57732D3*
G1X47281Y59316D3*
G1X46813Y57240D3*
G1X47308Y57525D3*
G1X46980Y57590D3*
G1X47090Y58935D3*
G1X47902Y59772D3*
G1X48027Y59459D3*
G1X46091Y59883D3*
G1X46416Y59680D3*
G1X46760Y59525D3*
G1X46511Y57560D3*
G1X46343Y57253D3*
G1X47120Y61740D3*
G1X45780Y60320D3*
G1X45221Y61406D3*
G1X47415Y61888D3*
G1X47740Y61770D3*
G1X46245Y63125D3*
G1X45632Y61760D3*
G1X46140Y62335D3*
G1X45530Y60780D3*
G1X45810Y62330D3*
G1X46619Y61878D3*
G1X48085Y61714D3*
G1X45520Y63160D3*
G1X46970Y62715D3*
G1X46766Y62294D3*
G1X45230Y66060D3*
G1X45490Y63988D3*
G1X46388Y65960D3*
G1X47850Y64320D3*
G1X45530Y63560D3*
G1X47229Y64581D3*
G1X46160Y63730D3*
G1X46036Y65887D3*
G1X46880Y64000D3*
G1X45494Y64415D3*
G1X46549Y64699D3*
G1X46611Y65715D3*
G1X45520Y64790D3*
G1X47510Y64830D3*
G1X45530Y65170D3*
G1X46870Y64535D3*
G1X45780Y64180D3*
G1X45310Y66520D3*
G1X46619Y67220D3*
G1X47200Y66925D3*
G1X46630Y67880D3*
G1X46857Y68185D3*
G1X47256Y67308D3*
G1X46450Y67510D3*
G1X48060Y67140D3*
G1X48066Y67900D3*
G1X47200Y71110D3*
G1X48380Y56710D3*
G1X48228Y59720D3*
G1X48560Y59350D3*
G1X48942Y57274D3*
G1X48699Y59730D3*
G1X51000Y59970D3*
G1X50370Y58600D3*
G1X49149Y58816D3*
G1X50370Y58970D3*
G1X50049Y58510D3*
G1X50060Y58180D3*
G1X51010Y61850D3*
G1X48360Y62312D3*
G1X49110Y62840D3*
G1X49310Y62510D3*
G1X49650Y62230D3*
G1X50080Y61430D3*
G1X48634Y61711D3*
G1X49690Y65210D3*
G1X50940Y65630D3*
G1X51060Y64840D3*
G1X50880Y64048D3*
G1X48350Y64300D3*
G1X48491Y65035D3*
G1X49130Y65396D3*
G1X49700Y64130D3*
G1X49690Y63779D3*
G1X48810Y67910D3*
G1X48564Y68159D3*
G1X48840Y68420D3*
G1X49237Y68602D3*
G1X48932Y67587D3*
G1X49826Y66664D3*
G1X48545Y67590D3*
G1X49250Y67790D3*
G1X49830Y66250D3*
G1X48180Y67590D3*
G1X50900Y69165D3*
G1X48882Y69450D3*
G1X50955Y71765D3*
G1X48965Y70445D3*
G1X50410Y69380D3*
G1X49910Y69610D3*
G1X50912Y69948D3*
G1X48860Y73190D3*
G1X49000Y72670D3*
G1X52350Y58780D3*
G1X52370Y59220D3*
G1X51310Y59050D3*
G1X51455Y62935D3*
G1X51620Y65681D3*
G1X51950Y65340D3*
G1X51950Y66100D3*
G1X51270Y65650D3*
G1X52415Y66380D3*
G1X52390Y66737D3*
G1X52141Y69319D3*
G1X54741Y63014D3*
G1X54970Y62640D3*
G1X55240Y64980D3*
G1X54950Y63270D3*
G1X38757Y58498D2*
G54D31*
G1X38785Y58470D1*
G1X38785Y58325D1*
G1X38849Y58260D1*
G1X39058Y58260D1*
G1X39308Y58510D1*
G1X39340Y58510D1*
G1X39380Y58550D1*
G1X40230Y57045D2*
G1X39839Y57045D1*
G1X39787Y56993D1*
G1X40800Y57045D2*
G1X40230Y57045D1*
G1X40536Y58384D2*
G1X40660Y58259D1*
G1X40660Y57855D1*
G1X40800Y57715D1*
G1X40230Y57715D2*
G1X40230Y58130D1*
G54D16*
G1X27335Y59170D3*
G1X28005Y59170D3*
G1X32635Y59640D3*
G1X31965Y59640D3*
G1X35355Y56830D3*
G1X34685Y56830D3*
G1X33385Y56830D3*
G1X34055Y56830D3*
G1X35355Y57940D3*
G1X34685Y57940D3*
G1X33385Y57940D3*
G1X34055Y57940D3*
G1X36085Y64510D3*
G1X35415Y64510D3*
G1X38775Y59730D3*
G1X37565Y59730D3*
G1X38235Y59730D3*
G1X39445Y59730D3*
G1X40875Y59680D3*
G1X40205Y59680D3*
G1X43425Y59370D3*
G1X44095Y59370D3*
G1X43055Y61700D3*
G1X43725Y61700D3*
G1X44305Y64240D3*
G1X43635Y64240D3*
G1X48465Y60200D3*
G1X49135Y60200D3*
G1X50935Y64450D3*
G1X49215Y67200D3*
G1X48545Y67200D3*
G1X52125Y58130D3*
G1X51455Y58130D3*
G1X51905Y60030D3*
G1X51235Y60030D3*
G1X51605Y64450D3*
G54D70*
G1X41850Y69440D3*
G1X41850Y70690D3*
G1X41850Y73190D3*
G1X48100Y69440D3*
G1X48100Y73190D3*
G1X37822Y57366D2*
G54D32*
G1X37822Y57202D1*
G1X37510Y56890D1*
G1X38166Y57022D2*
G1X38044Y56900D1*
G1X37920Y56900D1*
G1X37330Y57475D2*
G1X37330Y57240D1*
G1X37130Y57040D1*
G1X38560Y57022D2*
G1X38363Y57022D1*
G1X38363Y57175D1*
G1X38065Y57473D1*
G1X38065Y57760D1*
G1X38560Y58498D2*
G1X38560Y58754D1*
G1X38826Y59020D1*
G1X38560Y58498D2*
G1X38560Y58345D1*
G1X38470Y58255D1*
G1X38256Y58255D1*
G1X38166Y58345D1*
G1X38166Y58498D1*
G1X38310Y58860D2*
G1X38310Y58830D1*
G1X38363Y58777D1*
G1X38363Y58498D1*
G1X37330Y57475D2*
G1X36699Y57475D1*
G1X36660Y57436D1*
G1X37822Y57760D2*
G1X37615Y57760D1*
G1X37330Y57475D1*
G1X38065Y57760D2*
G1X37822Y57760D1*
G1X37822Y58154D2*
G1X37975Y58154D1*
G1X38065Y58064D1*
G1X38065Y57760D1*
G1X37330Y58145D2*
G1X36699Y58145D1*
G1X36660Y58184D1*
G1X37330Y58145D2*
G1X37430Y58245D1*
G1X37430Y58540D1*
G1X37822Y57957D2*
G1X37518Y57957D1*
G1X37330Y58145D1*
G1X39298Y57957D2*
G1X39657Y57957D1*
G1X39380Y58550D2*
G1X39380Y58880D1*
G1X39520Y59020D1*
G1X39574Y59020D1*
G54D80*
G1X30125Y60310D3*
G1X30125Y61570D3*
G1X32881Y60310D3*
G1X32487Y60310D3*
G1X32093Y60310D3*
G1X31699Y60310D3*
G1X31306Y60310D3*
G1X30912Y60310D3*
G1X30518Y60310D3*
G1X30518Y61570D3*
G1X30912Y61570D3*
G1X31306Y61570D3*
G1X31699Y61570D3*
G1X32093Y61570D3*
G1X32487Y61570D3*
G1X32881Y61570D3*
G1X34455Y60310D3*
G1X34062Y60310D3*
G1X33668Y60310D3*
G1X33274Y60310D3*
G1X33274Y61570D3*
G1X33668Y61570D3*
G1X34062Y61570D3*
G1X34455Y61570D3*
G54D78*
G1X45020Y57120D3*
G1X43160Y57120D3*
G1X45020Y58620D3*
G1X45020Y58120D3*
G1X45020Y57620D3*
G1X43160Y57620D3*
G1X43160Y58120D3*
G1X43160Y58620D3*
G1X32635Y59640D2*
G54D33*
G1X32487Y59788D1*
G1X32487Y60310D1*
G1X31965Y59640D2*
G1X32093Y59768D1*
G1X32093Y60310D1*
G1X32130Y63840D2*
G1X32460Y63840D1*
G1X34690Y66070D1*
G1X37050Y66070D1*
G1X39176Y68196D1*
G1X39176Y69600D1*
G1X42690Y66655D2*
G1X42639Y66706D1*
G1X42050Y66706D1*
G1X42050Y67454D2*
G1X42179Y67325D1*
G1X42690Y67325D1*
G1X39730Y70295D2*
G1X39130Y70295D1*
G1X39176Y69600D2*
G1X39176Y70249D1*
G1X39130Y70295D1*
G1X39130Y70965D2*
G1X39130Y71440D1*
G1X39924Y69600D2*
G1X40410Y69600D1*
G1X39730Y70965D2*
G1X39935Y70965D1*
G1X40438Y70462D1*
G1X43160Y58620D2*
G1X43590Y58620D1*
G1X44010Y58200D1*
G1X43160Y58620D2*
G1X43160Y59105D1*
G1X43425Y59370D1*
G1X44095Y59370D2*
G1X44095Y58845D1*
G1X44320Y58620D1*
G1X44800Y67275D2*
G1X45439Y67275D1*
G1X45480Y67316D1*
G1X44800Y67275D2*
G1X44719Y67356D1*
G1X44394Y67356D1*
G1X43286Y66690D2*
G1X42725Y66690D1*
G1X42690Y66655D1*
G1X44800Y67945D2*
G1X45361Y67945D1*
G1X45480Y68064D1*
G1X42690Y67325D2*
G1X42765Y67250D1*
G1X43660Y67250D1*
G1X44800Y67945D2*
G1X44635Y68110D1*
G1X44470Y68110D1*
G1X44400Y68180D1*
G1X44330Y68180D1*
G1X51905Y60030D2*
G1X51670Y59795D1*
G1X51670Y59640D1*
G54D82*
G1X38954Y57022D3*
G1X38757Y57022D3*
G1X38560Y57022D3*
G1X38363Y57022D3*
G1X38166Y57022D3*
G1X38166Y58498D3*
G1X38363Y58498D3*
G1X38560Y58498D3*
G1X38757Y58498D3*
G1X38954Y58498D3*
G54D81*
G1X43104Y62196D3*
G1X43104Y62904D3*
G1X43656Y62904D3*
G1X43656Y62196D3*
G1X40438Y70462D2*
G54D84*
G1X41622Y70462D1*
G1X41850Y70690D1*
G54D75*
G1X43660Y67250D3*
G1X28440Y59850D2*
G54D35*
G1X28440Y60410D1*
G1X45020Y58620D2*
G1X44320Y58620D1*
G1X52125Y58130D2*
G1X52125Y58555D1*
G1X52246Y58676D1*
G1X51455Y58130D2*
G1X51455Y58905D1*
G1X51310Y59050D1*
M2*
